G04*
G04 #@! TF.GenerationSoftware,Altium Limited,Altium Designer,22.11.1 (43)*
G04*
G04 Layer_Physical_Order=3*
G04 Layer_Color=16440176*
%FSLAX25Y25*%
%MOIN*%
G70*
G04*
G04 #@! TF.SameCoordinates,40CF40E7-FDA6-4BEF-B87F-FA6DAB628F73*
G04*
G04*
G04 #@! TF.FilePolarity,Positive*
G04*
G01*
G75*
%ADD14C,0.01000*%
G04:AMPARAMS|DCode=69|XSize=43.31mil|YSize=102.36mil|CornerRadius=21.65mil|HoleSize=0mil|Usage=FLASHONLY|Rotation=0.000|XOffset=0mil|YOffset=0mil|HoleType=Round|Shape=RoundedRectangle|*
%AMROUNDEDRECTD69*
21,1,0.04331,0.05906,0,0,0.0*
21,1,0.00000,0.10236,0,0,0.0*
1,1,0.04331,0.00000,-0.02953*
1,1,0.04331,0.00000,-0.02953*
1,1,0.04331,0.00000,0.02953*
1,1,0.04331,0.00000,0.02953*
%
%ADD69ROUNDEDRECTD69*%
G04:AMPARAMS|DCode=70|XSize=43.31mil|YSize=82.68mil|CornerRadius=21.65mil|HoleSize=0mil|Usage=FLASHONLY|Rotation=0.000|XOffset=0mil|YOffset=0mil|HoleType=Round|Shape=RoundedRectangle|*
%AMROUNDEDRECTD70*
21,1,0.04331,0.03937,0,0,0.0*
21,1,0.00000,0.08268,0,0,0.0*
1,1,0.04331,0.00000,-0.01968*
1,1,0.04331,0.00000,-0.01968*
1,1,0.04331,0.00000,0.01968*
1,1,0.04331,0.00000,0.01968*
%
%ADD70ROUNDEDRECTD70*%
%ADD73C,0.01968*%
%ADD83C,0.05610*%
%ADD85C,0.06000*%
%ADD86C,0.01968*%
G36*
X175575Y233382D02*
X175075Y233150D01*
X174639Y233485D01*
X173920Y233782D01*
X173150Y233884D01*
X172379Y233782D01*
X171660Y233485D01*
X171044Y233012D01*
X170570Y232395D01*
X170273Y231676D01*
X170171Y230906D01*
Y225000D01*
X170273Y224229D01*
X170570Y223511D01*
X171044Y222894D01*
X171660Y222421D01*
X172379Y222123D01*
X173150Y222022D01*
X173920Y222123D01*
X174639Y222421D01*
X175075Y222756D01*
X175575Y222524D01*
Y212677D01*
X175636Y212370D01*
X175810Y212109D01*
X176071Y211935D01*
X176378Y211874D01*
X203937D01*
X204244Y211935D01*
X204505Y212109D01*
X204679Y212370D01*
X204740Y212677D01*
Y218504D01*
Y222524D01*
X205240Y222756D01*
X205676Y222421D01*
X206395Y222123D01*
X207165Y222022D01*
X207936Y222123D01*
X208654Y222421D01*
X209271Y222894D01*
X209343Y222987D01*
X209842Y222817D01*
Y218504D01*
X214371D01*
X214403Y218493D01*
X214496Y218437D01*
X214795Y218091D01*
X214801Y218004D01*
X214824Y217887D01*
X214837Y217768D01*
X214855Y217734D01*
X214862Y217697D01*
X214929Y217597D01*
X214985Y217492D01*
X215015Y217468D01*
X215036Y217436D01*
X215388Y217084D01*
X215536Y216728D01*
Y216343D01*
X215388Y215987D01*
X215116Y215714D01*
X214777Y215574D01*
X214516Y215400D01*
X214342Y215139D01*
X214281Y214832D01*
Y214302D01*
X214342Y213995D01*
X214516Y213734D01*
X214777Y213560D01*
X215116Y213420D01*
X215388Y213147D01*
X215500Y212878D01*
X215519Y212849D01*
X215528Y212817D01*
X215662Y212598D01*
X215528Y212380D01*
X215521Y212355D01*
X215500Y212319D01*
X215388Y212050D01*
X215116Y211777D01*
X214777Y211637D01*
X214516Y211463D01*
X214342Y211202D01*
X214281Y210895D01*
Y210365D01*
X214342Y210058D01*
X214516Y209797D01*
X214777Y209623D01*
X215116Y209483D01*
X215388Y209210D01*
X215536Y208854D01*
Y208469D01*
X215388Y208113D01*
X215116Y207840D01*
X214760Y207693D01*
X214567D01*
X214260Y207631D01*
X213999Y207457D01*
X213825Y207197D01*
X213764Y206890D01*
Y206708D01*
X210144D01*
Y208819D01*
X210042Y209590D01*
X209745Y210308D01*
X209343Y210832D01*
X209271Y210925D01*
X208654Y211398D01*
X207936Y211696D01*
X207165Y211797D01*
X206395Y211696D01*
X205676Y211398D01*
X205059Y210925D01*
X204586Y210308D01*
X204289Y209590D01*
X204187Y208819D01*
Y206708D01*
X195276D01*
X194968Y206647D01*
X194708Y206473D01*
X194708Y206473D01*
X183919Y195685D01*
X174742D01*
X168272Y202154D01*
X168207Y202198D01*
X168151Y202254D01*
X168078Y202284D01*
X168012Y202328D01*
X167934Y202344D01*
X167861Y202374D01*
X167782D01*
X167705Y202389D01*
X167627Y202374D01*
X167548D01*
X166958Y202257D01*
X166885Y202226D01*
X166808Y202211D01*
X166742Y202167D01*
X166669Y202137D01*
X166613Y202081D01*
X166547Y202037D01*
X166503Y201971D01*
X166447Y201915D01*
X166417Y201842D01*
X166373Y201777D01*
X166321Y201651D01*
X166049Y201379D01*
X165693Y201231D01*
X165307D01*
X164951Y201379D01*
X164679Y201651D01*
X164531Y202007D01*
Y202393D01*
X164679Y202749D01*
X164951Y203021D01*
X165076Y203073D01*
X165142Y203117D01*
X165215Y203147D01*
X165271Y203203D01*
X165337Y203247D01*
X165381Y203313D01*
X165437Y203369D01*
X165467Y203442D01*
X165511Y203508D01*
X165526Y203585D01*
X165557Y203658D01*
X165674Y204248D01*
Y204327D01*
X165689Y204405D01*
X165674Y204482D01*
Y204561D01*
X165644Y204634D01*
X165628Y204712D01*
X165584Y204778D01*
X165554Y204851D01*
X165498Y204907D01*
X165454Y204972D01*
X160804Y209623D01*
X160544Y209797D01*
X160236Y209858D01*
X151486D01*
X151452Y209872D01*
X151275D01*
X151100Y209906D01*
X150926Y209872D01*
X150748D01*
X150715Y209858D01*
X148031D01*
X147724Y209797D01*
X147464Y209623D01*
X147464Y209623D01*
X145251Y207410D01*
X144789Y207601D01*
Y208425D01*
X144688Y209196D01*
X144390Y209914D01*
X143917Y210531D01*
X143300Y211004D01*
X142582Y211302D01*
X141811Y211403D01*
X141040Y211302D01*
X140322Y211004D01*
X139705Y210531D01*
X139232Y209914D01*
X138934Y209196D01*
X138833Y208425D01*
Y204488D01*
X138934Y203717D01*
X138991Y203581D01*
X138713Y203165D01*
X138412D01*
X138334Y203150D01*
X138255D01*
X138182Y203119D01*
X138105Y203104D01*
X138039Y203060D01*
X137966Y203030D01*
X137910Y202974D01*
X137844Y202930D01*
X137800Y202864D01*
X137744Y202808D01*
X137604Y202598D01*
X137574Y202525D01*
X137530Y202460D01*
X137514Y202382D01*
X137484Y202309D01*
Y202230D01*
X137469Y202152D01*
Y201607D01*
X137321Y201251D01*
X137049Y200979D01*
X136693Y200831D01*
X136307D01*
X135951Y200979D01*
X135679Y201251D01*
X135531Y201607D01*
Y202152D01*
X135516Y202230D01*
Y202309D01*
X135485Y202382D01*
X135470Y202460D01*
X135426Y202525D01*
X135396Y202598D01*
X135256Y202808D01*
X135200Y202864D01*
X135156Y202930D01*
X135090Y202974D01*
X135034Y203030D01*
X134961Y203060D01*
X134895Y203104D01*
X134818Y203119D01*
X134745Y203150D01*
X134666D01*
X134588Y203165D01*
X127592D01*
X127515Y203150D01*
X127435D01*
X127362Y203119D01*
X127285Y203104D01*
X127219Y203060D01*
X127146Y203030D01*
X127090Y202974D01*
X127024Y202930D01*
X126627Y202902D01*
X125975Y203172D01*
X125271D01*
X124619Y202902D01*
X124389Y202671D01*
X124158Y202902D01*
X123507Y203172D01*
X122802D01*
X122151Y202902D01*
X121753Y202930D01*
X121687Y202974D01*
X121632Y203030D01*
X121558Y203060D01*
X121493Y203104D01*
X121415Y203119D01*
X121342Y203150D01*
X121263D01*
X121185Y203165D01*
X115748D01*
X115748Y203165D01*
X115441Y203104D01*
X115180Y202930D01*
X115180Y202930D01*
X108065Y195815D01*
X108058Y195804D01*
X108047Y195796D01*
X107971Y195674D01*
X107891Y195554D01*
X107889Y195541D01*
X107882Y195530D01*
X107858Y195388D01*
X107830Y195247D01*
X107833Y195234D01*
X107831Y195221D01*
X107851Y194614D01*
X107883Y194474D01*
X107911Y194333D01*
X107919Y194322D01*
X107922Y194309D01*
X108005Y194192D01*
X108085Y194072D01*
X108302Y193856D01*
X108449Y193500D01*
Y193114D01*
X108302Y192758D01*
X108029Y192486D01*
X107673Y192338D01*
X107288D01*
X106931Y192486D01*
X106755Y192662D01*
X106655Y192729D01*
X106562Y192805D01*
X106526Y192815D01*
X106495Y192836D01*
X106377Y192860D01*
X106261Y192894D01*
X105614Y192954D01*
X105577Y192950D01*
X105540Y192957D01*
X105422Y192934D01*
X105303Y192921D01*
X105270Y192903D01*
X105233Y192896D01*
X105133Y192829D01*
X105027Y192772D01*
X105004Y192743D01*
X104973Y192722D01*
X100856Y188605D01*
X100787Y188634D01*
Y188537D01*
X97406Y185155D01*
X97088Y185473D01*
X96268Y185946D01*
X95355Y186191D01*
X94409D01*
X93495Y185946D01*
X92676Y185473D01*
X92007Y184804D01*
X91534Y183985D01*
X91289Y183071D01*
Y182125D01*
X91534Y181212D01*
X92007Y180393D01*
X92325Y180075D01*
X88802Y176552D01*
X88628Y176292D01*
X88567Y175984D01*
Y174400D01*
X88067Y174266D01*
X87757Y174804D01*
X87088Y175473D01*
X86269Y175946D01*
X85355Y176191D01*
X84409D01*
X83495Y175946D01*
X82676Y175473D01*
X82007Y174804D01*
X81534Y173985D01*
X81289Y173071D01*
Y172125D01*
X81534Y171212D01*
X82007Y170393D01*
X82676Y169724D01*
X83495Y169251D01*
X84409Y169006D01*
X85355D01*
X86269Y169251D01*
X87088Y169724D01*
X87757Y170393D01*
X88067Y170931D01*
X88567Y170797D01*
Y167722D01*
X88489Y167604D01*
X88351Y166913D01*
Y164774D01*
X87851Y164640D01*
X87757Y164804D01*
X87088Y165473D01*
X86269Y165946D01*
X85355Y166191D01*
X84409D01*
X83495Y165946D01*
X82676Y165473D01*
X82007Y164804D01*
X81534Y163985D01*
X81289Y163071D01*
Y162125D01*
X81534Y161212D01*
X82007Y160392D01*
X82676Y159724D01*
X83495Y159251D01*
X84409Y159006D01*
X85355D01*
X86269Y159251D01*
X87088Y159724D01*
X87757Y160392D01*
X87851Y160556D01*
X88351Y160422D01*
Y154774D01*
X87851Y154640D01*
X87757Y154804D01*
X87088Y155473D01*
X86269Y155946D01*
X85355Y156191D01*
X84409D01*
X83495Y155946D01*
X82676Y155473D01*
X82007Y154804D01*
X81534Y153985D01*
X81289Y153071D01*
Y152125D01*
X81534Y151212D01*
X82007Y150392D01*
X82676Y149724D01*
X83495Y149251D01*
X84409Y149006D01*
X85355D01*
X86269Y149251D01*
X87088Y149724D01*
X87757Y150392D01*
X87851Y150556D01*
X88351Y150422D01*
Y144774D01*
X87851Y144640D01*
X87757Y144804D01*
X87088Y145473D01*
X86269Y145946D01*
X85355Y146191D01*
X84409D01*
X83495Y145946D01*
X82676Y145473D01*
X82007Y144804D01*
X81534Y143985D01*
X81289Y143071D01*
Y142125D01*
X81534Y141212D01*
X82007Y140392D01*
X82676Y139724D01*
X83495Y139251D01*
X84409Y139006D01*
X85355D01*
X86269Y139251D01*
X87088Y139724D01*
X87757Y140392D01*
X87851Y140556D01*
X88351Y140422D01*
Y134774D01*
X87851Y134640D01*
X87757Y134804D01*
X87088Y135473D01*
X86269Y135946D01*
X85355Y136191D01*
X84409D01*
X83495Y135946D01*
X82676Y135473D01*
X82007Y134804D01*
X81534Y133985D01*
X81289Y133071D01*
Y132125D01*
X81534Y131212D01*
X82007Y130393D01*
X82676Y129724D01*
X83495Y129251D01*
X84409Y129006D01*
X85355D01*
X86269Y129251D01*
X87088Y129724D01*
X87757Y130393D01*
X87851Y130556D01*
X88351Y130422D01*
Y124774D01*
X87851Y124640D01*
X87757Y124804D01*
X87088Y125473D01*
X86269Y125946D01*
X85355Y126191D01*
X84409D01*
X83495Y125946D01*
X82676Y125473D01*
X82007Y124804D01*
X81534Y123985D01*
X81289Y123071D01*
Y122125D01*
X81534Y121212D01*
X82007Y120393D01*
X82676Y119724D01*
X83495Y119251D01*
X84409Y119006D01*
X85355D01*
X86269Y119251D01*
X87088Y119724D01*
X87757Y120393D01*
X87999Y120812D01*
X88458Y120712D01*
X88502Y120684D01*
X88567Y120358D01*
Y114400D01*
X88067Y114266D01*
X87757Y114804D01*
X87088Y115473D01*
X86269Y115946D01*
X85355Y116191D01*
X84409D01*
X83495Y115946D01*
X82676Y115473D01*
X82007Y114804D01*
X81534Y113985D01*
X81289Y113071D01*
Y112125D01*
X81534Y111212D01*
X82007Y110392D01*
X82676Y109724D01*
X83495Y109251D01*
X84409Y109006D01*
X85355D01*
X86269Y109251D01*
X87088Y109724D01*
X87757Y110392D01*
X88230Y111212D01*
X88474Y112125D01*
Y112833D01*
X88974Y113040D01*
X90009Y112005D01*
X90269Y111831D01*
X90577Y111770D01*
X90884Y111831D01*
X90969Y111867D01*
X91418Y111645D01*
X91534Y111212D01*
X92007Y110392D01*
X92676Y109724D01*
X93495Y109251D01*
X94409Y109006D01*
X95355D01*
X96268Y109251D01*
X97088Y109724D01*
X97756Y110392D01*
X98229Y111212D01*
X98474Y112125D01*
Y113071D01*
X98527Y113480D01*
X99027Y113614D01*
X99074Y113637D01*
X99126Y113648D01*
X99213Y113706D01*
X99308Y113752D01*
X99343Y113792D01*
X99387Y113822D01*
X99445Y113909D01*
X99514Y113988D01*
X99531Y114038D01*
X99561Y114082D01*
X99581Y114185D01*
X99615Y114285D01*
X99611Y114337D01*
X99622Y114389D01*
Y121480D01*
X99601Y121583D01*
X99594Y121687D01*
X99571Y121735D01*
X99561Y121787D01*
X99502Y121874D01*
X99456Y121968D01*
X99416Y122003D01*
X99387Y122047D01*
X99299Y122106D01*
X99220Y122175D01*
X99170Y122192D01*
X99126Y122221D01*
X99023Y122242D01*
X98924Y122275D01*
X98474Y122335D01*
Y122862D01*
X98924Y122921D01*
X99023Y122955D01*
X99126Y122976D01*
X99170Y123005D01*
X99220Y123022D01*
X99299Y123091D01*
X99387Y123150D01*
X99416Y123194D01*
X99456Y123229D01*
X99502Y123323D01*
X99561Y123410D01*
X99571Y123462D01*
X99594Y123510D01*
X99601Y123614D01*
X99622Y123717D01*
Y131480D01*
X99601Y131583D01*
X99594Y131687D01*
X99571Y131735D01*
X99561Y131787D01*
X99502Y131874D01*
X99456Y131968D01*
X99416Y132003D01*
X99387Y132047D01*
X99299Y132106D01*
X99220Y132175D01*
X99170Y132192D01*
X99126Y132221D01*
X99023Y132242D01*
X98924Y132275D01*
X98474Y132335D01*
Y132862D01*
X98924Y132921D01*
X99023Y132955D01*
X99126Y132975D01*
X99170Y133005D01*
X99220Y133022D01*
X99299Y133091D01*
X99387Y133150D01*
X99416Y133194D01*
X99456Y133229D01*
X99502Y133323D01*
X99561Y133410D01*
X99571Y133462D01*
X99594Y133510D01*
X99601Y133614D01*
X99622Y133717D01*
Y141480D01*
X99601Y141583D01*
X99594Y141687D01*
X99571Y141735D01*
X99561Y141787D01*
X99502Y141874D01*
X99456Y141968D01*
X99416Y142003D01*
X99387Y142047D01*
X99299Y142106D01*
X99220Y142175D01*
X99170Y142192D01*
X99126Y142221D01*
X99023Y142242D01*
X98924Y142276D01*
X98474Y142335D01*
Y142862D01*
X98924Y142921D01*
X99023Y142955D01*
X99126Y142975D01*
X99170Y143005D01*
X99220Y143022D01*
X99299Y143091D01*
X99387Y143149D01*
X99416Y143194D01*
X99456Y143228D01*
X99502Y143323D01*
X99561Y143410D01*
X99571Y143462D01*
X99594Y143509D01*
X99601Y143614D01*
X99622Y143717D01*
Y148779D01*
X99561Y149086D01*
X99425Y149414D01*
Y149799D01*
X99561Y150127D01*
X99622Y150434D01*
Y151480D01*
X99601Y151583D01*
X99594Y151687D01*
X99571Y151735D01*
X99561Y151787D01*
X99502Y151874D01*
X99456Y151968D01*
X99416Y152003D01*
X99387Y152047D01*
X99299Y152106D01*
X99220Y152175D01*
X99170Y152192D01*
X99126Y152221D01*
X99023Y152242D01*
X98924Y152276D01*
X98474Y152335D01*
Y152949D01*
X98518Y153120D01*
X98822Y153462D01*
X98851Y153476D01*
X98881Y153485D01*
X98905Y153489D01*
X99001Y153551D01*
X99102Y153601D01*
X99132Y153635D01*
X99169Y153658D01*
X99376Y153858D01*
X99380Y153864D01*
X99387Y153868D01*
X99470Y153992D01*
X99555Y154115D01*
X99556Y154122D01*
X99561Y154129D01*
X99590Y154275D01*
X99622Y154421D01*
X99620Y154428D01*
X99622Y154436D01*
Y159409D01*
X99561Y159716D01*
X99425Y160044D01*
Y160429D01*
X99532Y160686D01*
X99558Y160819D01*
X99591Y160950D01*
X99588Y160972D01*
X99593Y160994D01*
X99566Y161126D01*
X99547Y161260D01*
X99490Y161423D01*
X99421Y161539D01*
X99359Y161659D01*
X99341Y161673D01*
X99330Y161693D01*
X99222Y161774D01*
X99119Y161860D01*
X99097Y161867D01*
X99079Y161881D01*
X98949Y161914D01*
X98820Y161955D01*
X98476Y162125D01*
X98474Y162477D01*
Y163071D01*
X98436Y163215D01*
X98526Y163367D01*
X98627Y163413D01*
X98733Y163447D01*
X99014Y163604D01*
X99098Y163676D01*
X99190Y163737D01*
X99216Y163777D01*
X99252Y163808D01*
X99302Y163906D01*
X99364Y163998D01*
X99373Y164044D01*
X99395Y164087D01*
X99403Y164197D01*
X99425Y164305D01*
Y164760D01*
X99561Y165087D01*
X99622Y165395D01*
Y166597D01*
X100326Y167300D01*
X100394Y167272D01*
Y167369D01*
X104505Y171479D01*
X104679Y171740D01*
X104740Y172047D01*
Y178014D01*
X111591Y184865D01*
X111765Y185126D01*
X111826Y185433D01*
Y187856D01*
X118836Y194867D01*
X138769D01*
Y194343D01*
X138851Y194144D01*
X138315Y193922D01*
X137816Y193424D01*
X137559Y192803D01*
X136991D01*
X136855Y192830D01*
X136718Y192803D01*
X134100D01*
X133793Y192742D01*
X133532Y192568D01*
X133532Y192568D01*
X131085Y190121D01*
X130984Y189969D01*
X130766Y190059D01*
X130061D01*
X129410Y189789D01*
X128911Y189291D01*
X128642Y188640D01*
Y187935D01*
X128732Y187717D01*
X128580Y187615D01*
X128580Y187615D01*
X126673Y185708D01*
X126068Y185768D01*
X125368Y186468D01*
X125107Y186642D01*
X124800Y186703D01*
X122800D01*
X122800Y186703D01*
X122493Y186642D01*
X122232Y186468D01*
X120032Y184268D01*
X119858Y184007D01*
X119797Y183700D01*
Y179216D01*
X119307Y178942D01*
X119297Y178944D01*
X119000Y179003D01*
X118400D01*
X118400Y179003D01*
X118093Y178942D01*
X117832Y178768D01*
X113532Y174468D01*
X113358Y174207D01*
X113297Y173900D01*
Y162303D01*
X107900D01*
X107593Y162242D01*
X107332Y162068D01*
X107158Y161807D01*
X107097Y161500D01*
Y150100D01*
X107158Y149793D01*
X107332Y149532D01*
X107332Y149532D01*
X107897Y148968D01*
X108157Y148794D01*
X108465Y148733D01*
X108772Y148794D01*
X109032Y148968D01*
X109206Y149228D01*
X109267Y149535D01*
Y149799D01*
X109415Y150155D01*
X109687Y150428D01*
X110044Y150575D01*
X110429D01*
X110785Y150428D01*
X111057Y150155D01*
X111205Y149799D01*
Y149414D01*
X111057Y149057D01*
X110785Y148785D01*
X110429Y148637D01*
X110165D01*
X110165Y148637D01*
X109858Y148576D01*
X109598Y148402D01*
X109424Y148142D01*
X109362Y147835D01*
X109424Y147527D01*
X109598Y147267D01*
X113555Y143310D01*
X113558Y143293D01*
X113732Y143032D01*
X113993Y142858D01*
X114300Y142797D01*
X146300D01*
X146607Y142858D01*
X146868Y143032D01*
X146868Y143032D01*
X152368Y148532D01*
X152542Y148793D01*
X152603Y149100D01*
Y160340D01*
X153065Y160532D01*
X153412Y160185D01*
Y148438D01*
X153512Y147935D01*
X153796Y147510D01*
X165085Y136221D01*
X169095Y132211D01*
Y132042D01*
X169364Y131391D01*
X169863Y130893D01*
X170420Y130662D01*
X170626Y130161D01*
X169238Y128773D01*
X164669D01*
X162956Y128992D01*
X162604Y129345D01*
X161953Y129614D01*
X161248D01*
X160597Y129345D01*
X160099Y128846D01*
X159829Y128195D01*
Y127490D01*
X160099Y126839D01*
X160597Y126341D01*
X161248Y126071D01*
X161953D01*
X162604Y126341D01*
X162648Y126385D01*
X164418Y126159D01*
X164502Y126164D01*
X164585Y126148D01*
X169782D01*
X170284Y126248D01*
X170710Y126532D01*
X173778Y129601D01*
X174063Y130027D01*
X174163Y130529D01*
Y133858D01*
Y136847D01*
X174063Y137349D01*
X173778Y137775D01*
X172317Y139237D01*
Y140718D01*
X172636Y140931D01*
X173341D01*
X173517Y141004D01*
X174016Y140670D01*
Y140297D01*
X174285Y139646D01*
X174784Y139148D01*
X175435Y138878D01*
X176140D01*
X176791Y139148D01*
X177289Y139646D01*
X177559Y140297D01*
Y141002D01*
X177289Y141653D01*
X176791Y142151D01*
X176140Y142421D01*
X175435D01*
X175259Y142348D01*
X174760Y142683D01*
Y143055D01*
X174922Y143297D01*
X178600D01*
X178600Y143297D01*
X178907Y143358D01*
X179168Y143532D01*
X179168Y143532D01*
X186968Y151332D01*
X187142Y151593D01*
X187203Y151900D01*
Y153543D01*
X187207Y153547D01*
X187703Y153787D01*
X187937Y153630D01*
X188440Y153530D01*
X188789D01*
X189164Y153156D01*
X189815Y152886D01*
X190520D01*
X191171Y153156D01*
X191669Y153654D01*
X191793Y153954D01*
X192300Y153744D01*
X193004D01*
X193656Y154014D01*
X194154Y154512D01*
X194424Y155163D01*
Y155868D01*
X194154Y156519D01*
X193656Y157017D01*
X193004Y157287D01*
X192300D01*
X191648Y157017D01*
X191150Y156519D01*
X191026Y156219D01*
X190520Y156429D01*
X189815D01*
X189164Y156159D01*
X189160Y156156D01*
X188984D01*
X188502Y156637D01*
X188076Y156921D01*
X187574Y157021D01*
X187421D01*
X187112Y157519D01*
X187133Y157599D01*
X187455Y157779D01*
X187835Y157703D01*
X191142D01*
X191644Y157803D01*
X192070Y158088D01*
X192180Y158198D01*
X197204D01*
X197393Y158009D01*
X198044Y157739D01*
X198749D01*
X199400Y158009D01*
X199780Y158388D01*
X200390Y158485D01*
X200881Y157993D01*
Y154312D01*
X200381Y154104D01*
X200067Y154419D01*
X199416Y154688D01*
X198711D01*
X198060Y154419D01*
X197561Y153920D01*
X197292Y153269D01*
Y152564D01*
X197561Y151913D01*
X198020Y151455D01*
X197768Y150847D01*
Y150142D01*
X198037Y149491D01*
X198536Y148993D01*
X199187Y148723D01*
X199892D01*
X200543Y148993D01*
X201041Y149491D01*
X201311Y150142D01*
Y150410D01*
X203122Y152221D01*
X203406Y152647D01*
X203506Y153149D01*
Y158537D01*
X203406Y159039D01*
X203122Y159465D01*
X198812Y163775D01*
X198902Y164243D01*
X198957Y164322D01*
X199080Y164351D01*
X202582Y160850D01*
X202842Y160676D01*
X203150Y160615D01*
X205472D01*
X205779Y160676D01*
X206106Y160811D01*
X206492D01*
X206820Y160676D01*
X207127Y160615D01*
X209449D01*
X209756Y160676D01*
X210016Y160850D01*
X210804Y161637D01*
X210978Y161898D01*
X211039Y162205D01*
Y166142D01*
X210978Y166449D01*
X210804Y166709D01*
X210804Y166709D01*
X204111Y173402D01*
X204111Y173402D01*
X203851Y173576D01*
X203543Y173637D01*
X200767D01*
X200394Y174011D01*
Y179134D01*
X200492Y179372D01*
Y180077D01*
X200394Y180314D01*
Y183071D01*
X193716D01*
Y187952D01*
X193655Y188259D01*
X193481Y188519D01*
X193221Y188693D01*
X192857Y188844D01*
X192584Y189117D01*
X192437Y189473D01*
Y189858D01*
X192584Y190214D01*
X192857Y190487D01*
X193213Y190634D01*
X193726D01*
X193787Y190622D01*
X193787Y190622D01*
X193787Y190622D01*
X193955Y190655D01*
X194094Y190683D01*
X194094Y190683D01*
X194094Y190683D01*
X194202Y190755D01*
X194355Y190857D01*
X194355Y190857D01*
X194355Y190857D01*
X199894Y196396D01*
X200394Y196332D01*
Y196441D01*
X213039D01*
X213157Y196363D01*
X213848Y196225D01*
X218370D01*
X218401Y196219D01*
X218428Y196175D01*
X218529Y195715D01*
X218109Y195473D01*
X217440Y194804D01*
X216967Y193985D01*
X216722Y193071D01*
Y192125D01*
X216967Y191212D01*
X217440Y190392D01*
X218109Y189724D01*
X218928Y189251D01*
X219842Y189006D01*
X220788D01*
X221702Y189251D01*
X222521Y189724D01*
X223190Y190392D01*
X223663Y191212D01*
X223907Y192125D01*
Y193071D01*
X223663Y193985D01*
X223190Y194804D01*
X222521Y195473D01*
X222101Y195715D01*
X222202Y196175D01*
X222229Y196219D01*
X222902Y196353D01*
X223035Y196441D01*
X228361D01*
X228495Y195941D01*
X227979Y195643D01*
X227270Y194935D01*
X226769Y194067D01*
X226644Y193598D01*
X230315D01*
X233986D01*
X233861Y194067D01*
X233360Y194935D01*
X232651Y195643D01*
X232135Y195941D01*
X232269Y196441D01*
X234908D01*
Y133858D01*
Y96457D01*
X216535D01*
Y80053D01*
X100394D01*
Y96457D01*
X80053D01*
Y218504D01*
X105118D01*
Y222424D01*
X105618Y222593D01*
X105689Y222500D01*
X106306Y222027D01*
X107025Y221730D01*
X107795Y221628D01*
X108566Y221730D01*
X109284Y222027D01*
X109721Y222362D01*
X110221Y222130D01*
Y212283D01*
X110282Y211976D01*
X110456Y211716D01*
X110716Y211542D01*
X111024Y211481D01*
X138583D01*
X138890Y211542D01*
X139150Y211716D01*
X139324Y211976D01*
X139385Y212283D01*
Y222130D01*
X139885Y222362D01*
X140322Y222027D01*
X141040Y221730D01*
X141811Y221628D01*
X142582Y221730D01*
X143300Y222027D01*
X143917Y222500D01*
X144390Y223117D01*
X144688Y223835D01*
X144789Y224606D01*
Y230512D01*
X144688Y231283D01*
X144390Y232001D01*
X143917Y232618D01*
X143300Y233091D01*
X142582Y233389D01*
X141811Y233490D01*
X141040Y233389D01*
X140322Y233091D01*
X139885Y232756D01*
X139385Y232988D01*
Y234527D01*
X139820Y234908D01*
X175575D01*
Y233382D01*
D02*
G37*
G36*
X234908Y197244D02*
X199606D01*
X193787Y191425D01*
X193758Y191437D01*
X193053D01*
X192402Y191167D01*
X191904Y190669D01*
X191634Y190018D01*
Y189313D01*
X191904Y188662D01*
X192402Y188163D01*
X192913Y187952D01*
Y183071D01*
X184646D01*
Y174409D01*
X184252Y174016D01*
X181102D01*
X170177Y184941D01*
Y185490D01*
X169907Y186141D01*
X169409Y186640D01*
X168758Y186909D01*
X168209D01*
X165450Y189668D01*
X165568Y190258D01*
X165866Y190381D01*
X166364Y190879D01*
X166634Y191531D01*
Y192235D01*
X166364Y192887D01*
X165866Y193385D01*
X165215Y193655D01*
X164510D01*
X163859Y193385D01*
X163633Y193159D01*
X161959D01*
X160531Y194587D01*
Y195037D01*
X160262Y195689D01*
X159763Y196187D01*
X159112Y196457D01*
X158661D01*
X157087Y198031D01*
X153247D01*
X152970Y198447D01*
X153015Y198557D01*
Y199262D01*
X152745Y199913D01*
X152247Y200411D01*
X151596Y200681D01*
X150891D01*
X150240Y200411D01*
X149742Y199913D01*
X149472Y199262D01*
Y198557D01*
X149517Y198447D01*
X149240Y198031D01*
X146457D01*
X144095Y195669D01*
X142055D01*
X142042Y195700D01*
X141544Y196198D01*
X140893Y196468D01*
X140188D01*
X139537Y196198D01*
X139038Y195700D01*
X139026Y195669D01*
X118504D01*
X111024Y188189D01*
Y185433D01*
X103937Y178347D01*
Y172047D01*
X98819Y166929D01*
Y165395D01*
X98622Y164919D01*
Y164305D01*
X98341Y164148D01*
X98160Y164105D01*
X97756Y164804D01*
X97088Y165473D01*
X96268Y165946D01*
X95355Y166191D01*
X94409D01*
X93495Y165946D01*
X92676Y165473D01*
X92007Y164804D01*
X91534Y163985D01*
X91289Y163071D01*
Y162125D01*
X91534Y161212D01*
X92007Y160392D01*
X92676Y159724D01*
X93495Y159251D01*
X94409Y159006D01*
X95355D01*
X96268Y159251D01*
X97088Y159724D01*
X97756Y160392D01*
X98201Y161162D01*
X98389Y161194D01*
X98732Y161157D01*
X98790Y160994D01*
X98622Y160589D01*
Y159884D01*
X98819Y159409D01*
Y154436D01*
X98612Y154237D01*
X98042Y154310D01*
X97756Y154804D01*
X97088Y155473D01*
X96268Y155946D01*
X95355Y156191D01*
X94409D01*
X93495Y155946D01*
X92676Y155473D01*
X92007Y154804D01*
X91534Y153985D01*
X91289Y153071D01*
Y152125D01*
X91534Y151212D01*
X92007Y150392D01*
X92676Y149724D01*
X93495Y149251D01*
X94409Y149006D01*
X95355D01*
X96268Y149251D01*
X97088Y149724D01*
X97756Y150392D01*
X98229Y151212D01*
X98319Y151545D01*
X98819Y151480D01*
Y150434D01*
X98622Y149959D01*
Y149254D01*
X98819Y148779D01*
Y143717D01*
X98319Y143651D01*
X98229Y143985D01*
X97756Y144804D01*
X97088Y145473D01*
X96268Y145946D01*
X95355Y146191D01*
X94409D01*
X93495Y145946D01*
X92676Y145473D01*
X92007Y144804D01*
X91534Y143985D01*
X91289Y143071D01*
Y142125D01*
X91534Y141212D01*
X92007Y140392D01*
X92676Y139724D01*
X93495Y139251D01*
X94409Y139006D01*
X95355D01*
X96268Y139251D01*
X97088Y139724D01*
X97756Y140392D01*
X98229Y141212D01*
X98319Y141545D01*
X98819Y141480D01*
Y133717D01*
X98319Y133651D01*
X98229Y133985D01*
X97756Y134804D01*
X97088Y135473D01*
X96268Y135946D01*
X95355Y136191D01*
X94409D01*
X93495Y135946D01*
X92676Y135473D01*
X92007Y134804D01*
X91534Y133985D01*
X91289Y133071D01*
Y132125D01*
X91534Y131212D01*
X92007Y130393D01*
X92676Y129724D01*
X93495Y129251D01*
X94409Y129006D01*
X95355D01*
X96268Y129251D01*
X97088Y129724D01*
X97756Y130393D01*
X98229Y131212D01*
X98319Y131545D01*
X98819Y131480D01*
Y123717D01*
X98319Y123651D01*
X98229Y123985D01*
X97756Y124804D01*
X97088Y125473D01*
X96268Y125946D01*
X95355Y126191D01*
X94409D01*
X93495Y125946D01*
X92676Y125473D01*
X92007Y124804D01*
X91534Y123985D01*
X91289Y123071D01*
Y122125D01*
X91534Y121212D01*
X92007Y120393D01*
X92676Y119724D01*
X93495Y119251D01*
X94409Y119006D01*
X95355D01*
X96268Y119251D01*
X97088Y119724D01*
X97756Y120393D01*
X98229Y121212D01*
X98319Y121545D01*
X98819Y121480D01*
Y114389D01*
X98319Y114255D01*
X97927Y114935D01*
X97218Y115643D01*
X96351Y116144D01*
X95882Y116270D01*
Y112598D01*
X93882D01*
Y116270D01*
X93413Y116144D01*
X92545Y115643D01*
X91837Y114935D01*
X91336Y114067D01*
X91077Y113099D01*
Y112780D01*
X90577Y112573D01*
X89370Y113779D01*
Y175984D01*
X92951Y179565D01*
X93495Y179251D01*
X94409Y179006D01*
X95355D01*
X96268Y179251D01*
X97088Y179724D01*
X97756Y180393D01*
X98229Y181212D01*
X98474Y182125D01*
Y183071D01*
X98229Y183985D01*
X97915Y184529D01*
X105540Y192154D01*
X106187Y192095D01*
X106477Y191805D01*
X107128Y191535D01*
X107833D01*
X108484Y191805D01*
X108982Y192304D01*
X109252Y192955D01*
Y193659D01*
X108982Y194311D01*
X108653Y194640D01*
X108633Y195247D01*
X115748Y202362D01*
X121185D01*
X121463Y201946D01*
X121383Y201752D01*
Y201048D01*
X121653Y200396D01*
X122151Y199898D01*
X122802Y199628D01*
X123507D01*
X124158Y199898D01*
X124389Y200129D01*
X124619Y199898D01*
X125271Y199628D01*
X125975D01*
X126627Y199898D01*
X127125Y200396D01*
X127395Y201048D01*
Y201752D01*
X127314Y201946D01*
X127592Y202362D01*
X134588D01*
X134728Y202152D01*
Y201448D01*
X134998Y200796D01*
X135496Y200298D01*
X136148Y200028D01*
X136852D01*
X137504Y200298D01*
X138002Y200796D01*
X138272Y201448D01*
Y202152D01*
X138412Y202362D01*
X139731D01*
X140322Y201909D01*
X141040Y201611D01*
X141811Y201510D01*
X142582Y201611D01*
X143300Y201909D01*
X143917Y202382D01*
X144390Y202999D01*
X144688Y203717D01*
X144789Y204488D01*
Y205813D01*
X148031Y209055D01*
X160236D01*
X164887Y204405D01*
X164769Y203815D01*
X164496Y203702D01*
X163998Y203204D01*
X163728Y202552D01*
Y201848D01*
X163998Y201196D01*
X164496Y200698D01*
X165148Y200428D01*
X165852D01*
X166504Y200698D01*
X167002Y201196D01*
X167115Y201469D01*
X167705Y201587D01*
X174409Y194882D01*
X184252D01*
X195276Y205906D01*
X204187D01*
Y204929D01*
X203548D01*
X202896Y204659D01*
X202398Y204161D01*
X202128Y203510D01*
Y202805D01*
X202398Y202154D01*
X202896Y201656D01*
X203548Y201386D01*
X204252D01*
X204904Y201656D01*
X205402Y202154D01*
X205437Y202239D01*
X205676Y202303D01*
X206395Y202005D01*
X207165Y201904D01*
X207936Y202005D01*
X208654Y202303D01*
X209271Y202776D01*
X209745Y203393D01*
X210042Y204111D01*
X210144Y204882D01*
Y205906D01*
X214567D01*
Y206890D01*
X214919D01*
X215570Y207159D01*
X216069Y207658D01*
X216339Y208309D01*
Y209014D01*
X216069Y209665D01*
X215570Y210163D01*
X215084Y210365D01*
Y210895D01*
X215570Y211097D01*
X216069Y211595D01*
X216242Y212012D01*
X216765Y211968D01*
X216967Y211212D01*
X217440Y210392D01*
X218109Y209724D01*
X218928Y209251D01*
X219842Y209006D01*
X220788D01*
X221702Y209251D01*
X222521Y209724D01*
X223190Y210392D01*
X223663Y211212D01*
X223907Y212125D01*
Y213071D01*
X223663Y213985D01*
X223190Y214804D01*
X222521Y215473D01*
X221702Y215946D01*
X220788Y216191D01*
X219842D01*
X218928Y215946D01*
X218109Y215473D01*
X217440Y214804D01*
X216967Y213985D01*
X216765Y213229D01*
X216242Y213185D01*
X216069Y213602D01*
X215570Y214100D01*
X215084Y214302D01*
Y214832D01*
X215570Y215034D01*
X216069Y215532D01*
X216339Y216183D01*
Y216888D01*
X216069Y217539D01*
X215604Y218004D01*
X215619Y218163D01*
X215751Y218504D01*
X234908D01*
Y197244D01*
D02*
G37*
G36*
X137816Y191417D02*
X138315Y190919D01*
X138900Y190676D01*
Y187200D01*
X136018Y184318D01*
X135465Y184547D01*
X134760D01*
X134109Y184277D01*
X133610Y183779D01*
X133341Y183128D01*
Y182423D01*
X133570Y181870D01*
X126800Y175100D01*
X125200D01*
X125000Y178400D01*
Y179765D01*
X126068Y180832D01*
X126242Y181093D01*
X126303Y181400D01*
Y184203D01*
X129148Y187048D01*
X129410Y186785D01*
X130061Y186516D01*
X130766D01*
X131417Y186785D01*
X131915Y187284D01*
X132185Y187935D01*
Y188640D01*
X131915Y189291D01*
X131653Y189553D01*
X134100Y192000D01*
X137575D01*
X137816Y191417D01*
D02*
G37*
G36*
X140058Y186620D02*
Y183654D01*
X140115Y183371D01*
Y182180D01*
X140058Y181897D01*
Y179323D01*
X140115Y179040D01*
Y177849D01*
X140058Y177567D01*
Y174992D01*
X140115Y174709D01*
Y173519D01*
X140058Y173236D01*
Y170440D01*
X140158Y169938D01*
X140420Y169545D01*
Y168962D01*
X140521Y168459D01*
X140805Y168034D01*
X141967Y166871D01*
X142393Y166587D01*
X142895Y166487D01*
X147110D01*
X149932Y163665D01*
X149740Y163203D01*
X145500D01*
X145193Y163142D01*
X145096Y163077D01*
X145010Y163060D01*
X144862Y162961D01*
X144698Y162893D01*
X144572Y162767D01*
X144424Y162668D01*
X142928Y161172D01*
X142537Y160586D01*
X142519Y160498D01*
X142458Y160407D01*
X142397Y160100D01*
Y157675D01*
X141897Y157524D01*
X141868Y157568D01*
X141868Y157568D01*
X125644Y173791D01*
X125645Y173864D01*
X125845Y174297D01*
X126800D01*
X127107Y174358D01*
X127368Y174532D01*
X134137Y181302D01*
X134311Y181562D01*
X134373Y181870D01*
X134311Y182177D01*
X134143Y182583D01*
Y182968D01*
X134291Y183324D01*
X134564Y183597D01*
X134920Y183744D01*
X135305D01*
X135711Y183576D01*
X136018Y183515D01*
X136325Y183576D01*
X136586Y183750D01*
X139468Y186632D01*
X139558Y186768D01*
X140058Y186620D01*
D02*
G37*
G36*
X203543Y172835D02*
X210236Y166142D01*
Y162205D01*
X209449Y161417D01*
X207127D01*
X206652Y161614D01*
X205947D01*
X205472Y161417D01*
X203150D01*
X199213Y165354D01*
X191620D01*
X191364Y165972D01*
X190866Y166470D01*
X190215Y166740D01*
X189510D01*
X188859Y166470D01*
X188568Y166180D01*
X188124Y166625D01*
X187473Y166895D01*
X186768D01*
X186117Y166625D01*
X185933Y166442D01*
X185433Y166649D01*
Y170168D01*
X185933Y170395D01*
X186459Y170177D01*
X187163D01*
X187815Y170447D01*
X188313Y170945D01*
X188583Y171596D01*
Y172301D01*
X188566Y172342D01*
X188903Y172835D01*
X203543D01*
Y172835D01*
D02*
G37*
G36*
X149075Y186080D02*
X149501Y185795D01*
X150004Y185695D01*
X157046D01*
X157192Y185501D01*
X157153Y185378D01*
X156913Y185039D01*
X156341D01*
X155689Y184770D01*
X155191Y184271D01*
X154921Y183620D01*
Y182915D01*
X155191Y182264D01*
X155689Y181766D01*
X156341Y181496D01*
X156608D01*
X156687Y181417D01*
Y179400D01*
X156787Y178898D01*
X156997Y178585D01*
X156926Y178014D01*
X156896Y178002D01*
X156398Y177504D01*
X156128Y176852D01*
Y176148D01*
X155796Y175643D01*
X155492Y175518D01*
X154994Y175019D01*
X154724Y174368D01*
Y173663D01*
X154994Y173012D01*
X155183Y172823D01*
Y168596D01*
X154683Y168394D01*
X153084Y170044D01*
Y178445D01*
X152984Y178947D01*
X152700Y179373D01*
X150715Y181357D01*
X150290Y181642D01*
X149787Y181742D01*
X148843D01*
X148451Y182004D01*
X147949Y182104D01*
X147826D01*
X147433Y182497D01*
Y183235D01*
X147333Y183737D01*
X147048Y184163D01*
X147014Y184197D01*
Y187434D01*
X147514Y187641D01*
X149075Y186080D01*
D02*
G37*
G36*
X160130Y190918D02*
X160556Y190634D01*
X161012Y190543D01*
X161324Y190355D01*
X161417Y190215D01*
Y189510D01*
X161687Y188859D01*
X162185Y188360D01*
X162837Y188091D01*
X163541D01*
X164192Y188360D01*
X164554Y188722D01*
X165087Y188799D01*
X165200Y188782D01*
X167641Y186342D01*
X167901Y186168D01*
X168209Y186107D01*
X168598D01*
X168954Y185959D01*
X169227Y185687D01*
X169374Y185330D01*
Y184941D01*
X169374Y184941D01*
X169435Y184634D01*
X169609Y184373D01*
X169609Y184373D01*
X180535Y173448D01*
X180795Y173274D01*
X181102Y173213D01*
X184152D01*
X184252Y173213D01*
X184252Y173213D01*
X184646Y173228D01*
X185056Y173011D01*
X185216Y172728D01*
X185039Y172301D01*
Y171596D01*
X185292Y170986D01*
X185101Y170899D01*
X184985Y170816D01*
X184865Y170736D01*
X184858Y170724D01*
X184847Y170717D01*
X184771Y170595D01*
X184691Y170475D01*
X184689Y170462D01*
X184681Y170450D01*
X184658Y170309D01*
X184630Y170168D01*
Y167316D01*
X184168Y167125D01*
X173200Y178094D01*
X172774Y178378D01*
X172272Y178478D01*
X170229D01*
X158662Y190044D01*
X158760Y190535D01*
X158976Y190624D01*
X159347Y190995D01*
X159960Y191088D01*
X160130Y190918D01*
D02*
G37*
G36*
X144389Y187403D02*
Y183654D01*
X144489Y183151D01*
X144773Y182725D01*
X144808Y182691D01*
Y181954D01*
X144907Y181451D01*
X145192Y181025D01*
X146354Y179863D01*
X146780Y179578D01*
X147283Y179479D01*
X147416D01*
X147809Y179217D01*
X148311Y179117D01*
X149244D01*
X150459Y177901D01*
Y169512D01*
X150507Y169271D01*
X150551Y169029D01*
X150557Y169020D01*
X150559Y169010D01*
X150696Y168805D01*
X150829Y168598D01*
X159222Y159938D01*
X159010Y159438D01*
X158887D01*
X158236Y159169D01*
X157738Y158670D01*
X157468Y158019D01*
Y157314D01*
X157738Y156663D01*
X158236Y156165D01*
X158887Y155895D01*
X159592D01*
X160243Y156165D01*
X160741Y156663D01*
X161011Y157314D01*
Y157374D01*
X161511Y157576D01*
X164913Y154066D01*
X164626Y153644D01*
X164301Y153778D01*
X163596D01*
X162945Y153509D01*
X162446Y153010D01*
X162177Y152359D01*
Y151654D01*
X162446Y151003D01*
X162945Y150505D01*
X163596Y150235D01*
X164301D01*
X164952Y150505D01*
X165450Y151003D01*
X165720Y151654D01*
Y152359D01*
X165607Y152631D01*
X166033Y152911D01*
X170429Y148375D01*
Y146291D01*
X170076Y145939D01*
X169791Y145513D01*
X169691Y145010D01*
Y138693D01*
X169791Y138191D01*
X170076Y137765D01*
X171538Y136303D01*
Y134379D01*
X171219Y134166D01*
X170852D01*
X162542Y142477D01*
X162825Y142901D01*
X163228Y142734D01*
X163933D01*
X164584Y143003D01*
X165083Y143502D01*
X165352Y144153D01*
Y144858D01*
X165083Y145509D01*
X164584Y146007D01*
X163933Y146277D01*
X163228D01*
X162577Y146007D01*
X162079Y145509D01*
X161809Y144858D01*
Y144153D01*
X161976Y143750D01*
X161552Y143466D01*
X156037Y148981D01*
Y160728D01*
X155937Y161231D01*
X155653Y161656D01*
X148582Y168728D01*
X148156Y169012D01*
X147653Y169112D01*
X143439D01*
X143046Y169505D01*
Y170078D01*
X142946Y170580D01*
X142684Y170973D01*
Y173009D01*
X142740Y173292D01*
Y174936D01*
X142684Y175219D01*
Y177340D01*
X142740Y177623D01*
Y179267D01*
X142684Y179550D01*
Y181671D01*
X142740Y181954D01*
Y183597D01*
X142684Y183880D01*
Y188455D01*
X143146Y188646D01*
X144389Y187403D01*
D02*
G37*
G36*
X125500Y185200D02*
Y181400D01*
X124000Y179900D01*
Y179507D01*
X123626Y178948D01*
X123489Y178257D01*
Y176063D01*
X123524Y175888D01*
Y175710D01*
X123592Y175546D01*
X123626Y175372D01*
X123725Y175224D01*
X123793Y175059D01*
X123919Y174934D01*
X124000Y174812D01*
Y174300D01*
X141300Y157000D01*
Y156800D01*
X142200Y155700D01*
Y154600D01*
X139100Y151500D01*
X133700D01*
X119807Y165393D01*
X119757Y165469D01*
X119666Y165926D01*
Y170787D01*
X119736Y171138D01*
Y171217D01*
X119751Y171294D01*
X119736Y171372D01*
Y171451D01*
X119705Y171524D01*
X119690Y171602D01*
X119644Y171712D01*
X119600Y171778D01*
X119570Y171851D01*
X119560Y171866D01*
X119556Y171884D01*
X119526Y171957D01*
X119511Y172035D01*
X119504Y172051D01*
Y172070D01*
X119500Y172088D01*
Y174096D01*
X119560Y174397D01*
X119667Y174558D01*
X119698Y174631D01*
X119742Y174697D01*
X119757Y174774D01*
X119787Y174847D01*
Y174926D01*
X119803Y175003D01*
X120600Y175800D01*
Y183700D01*
X122800Y185900D01*
X124800D01*
X125500Y185200D01*
D02*
G37*
G36*
X119000Y175004D02*
X118804Y174710D01*
X118666Y174019D01*
Y172244D01*
X118701Y172070D01*
Y171892D01*
X118769Y171727D01*
X118804Y171553D01*
X118902Y171405D01*
X118948Y171294D01*
X118863Y170866D01*
Y165847D01*
X119000Y165155D01*
X119392Y164569D01*
X128700Y155261D01*
Y153048D01*
X128543Y152669D01*
Y152343D01*
X127400Y151200D01*
X125225D01*
X124557Y151868D01*
X124288Y152047D01*
X114268Y162068D01*
X114100Y162180D01*
Y173900D01*
X118400Y178200D01*
X119000D01*
Y175004D01*
D02*
G37*
G36*
X151800Y161300D02*
Y149100D01*
X146300Y143600D01*
X114300D01*
Y143700D01*
X110165Y147835D01*
X110589D01*
X111240Y148104D01*
X111738Y148603D01*
X112008Y149254D01*
Y149959D01*
X111738Y150610D01*
X111240Y151108D01*
X110589Y151378D01*
X109884D01*
X109233Y151108D01*
X108734Y150610D01*
X108465Y149959D01*
Y149535D01*
X107900Y150100D01*
Y161500D01*
X113700D01*
X125100Y150100D01*
Y149900D01*
X139600D01*
X139700Y149800D01*
X143200Y153300D01*
Y160100D01*
X145500Y162400D01*
X150700D01*
X151800Y161300D01*
D02*
G37*
G36*
X167418Y159464D02*
Y159049D01*
X167688Y158398D01*
X168186Y157899D01*
X168837Y157630D01*
X169365D01*
X169587Y157569D01*
X169849Y157216D01*
Y155591D01*
X169949Y155088D01*
X170233Y154663D01*
X170686Y154210D01*
X170714Y154191D01*
X170734Y154164D01*
X170926Y154050D01*
X171112Y153926D01*
X171145Y153919D01*
X171174Y153901D01*
X172053Y153589D01*
X172162Y153442D01*
X172602Y153180D01*
X174833Y152387D01*
X175340Y152313D01*
X175634Y152387D01*
X176015Y152166D01*
X176099Y151635D01*
X175811Y151346D01*
X175637Y151086D01*
X175575Y150778D01*
X175637Y150471D01*
X175675Y150413D01*
X175870Y149942D01*
Y149557D01*
X175723Y149201D01*
X175450Y148928D01*
X175094Y148781D01*
X174709D01*
X174238Y148976D01*
X174180Y149015D01*
X173873Y149076D01*
X173566Y149015D01*
X173543Y149000D01*
X173120Y149124D01*
X173001Y149203D01*
X172994Y149212D01*
X172961Y149390D01*
X172956Y149399D01*
X172954Y149409D01*
X172815Y149617D01*
X172684Y149820D01*
X160620Y162268D01*
X160832Y162768D01*
X164114D01*
X167418Y159464D01*
D02*
G37*
G36*
X182799Y155237D02*
X183433Y154603D01*
X183638Y154466D01*
X183841Y154326D01*
X184570Y154011D01*
X184579Y154009D01*
X184587Y154004D01*
X184829Y153956D01*
X185071Y153904D01*
X185080Y153906D01*
X185090Y153904D01*
X186386D01*
X186400Y153907D01*
Y151900D01*
X178600Y144100D01*
X174200D01*
X173700Y144700D01*
Y148100D01*
X173873Y148273D01*
X173898Y148248D01*
X174549Y147978D01*
X175254D01*
X175905Y148248D01*
X176403Y148746D01*
X176673Y149397D01*
Y150102D01*
X176403Y150753D01*
X176378Y150778D01*
X181000Y155400D01*
X182097D01*
X182799Y155237D01*
D02*
G37*
%LPC*%
G36*
X107795Y211403D02*
X107025Y211302D01*
X106405Y211046D01*
D01*
X106306Y211004D01*
X105689Y210531D01*
X105216Y209914D01*
X104919Y209196D01*
X104817Y208425D01*
Y204488D01*
X104919Y203717D01*
X105216Y202999D01*
X105689Y202382D01*
X106306Y201909D01*
X106405Y201868D01*
X107025Y201611D01*
X107795Y201510D01*
X108566Y201611D01*
X109284Y201909D01*
X109901Y202382D01*
X110374Y202999D01*
X110672Y203717D01*
X110774Y204488D01*
Y208425D01*
X110672Y209196D01*
X110374Y209914D01*
X109901Y210531D01*
X109284Y211004D01*
X108566Y211302D01*
X107795Y211403D01*
D02*
G37*
G36*
X95355Y216191D02*
X94409D01*
X93495Y215946D01*
X92676Y215473D01*
X92007Y214804D01*
X91534Y213985D01*
X91289Y213071D01*
Y212125D01*
X91534Y211212D01*
X92007Y210392D01*
X92676Y209724D01*
X93495Y209251D01*
X94409Y209006D01*
X95355D01*
X96268Y209251D01*
X97088Y209724D01*
X97756Y210392D01*
X98229Y211212D01*
X98474Y212125D01*
Y213071D01*
X98229Y213985D01*
X97756Y214804D01*
X97088Y215473D01*
X96268Y215946D01*
X95355Y216191D01*
D02*
G37*
G36*
X85355D02*
X84409D01*
X83495Y215946D01*
X82676Y215473D01*
X82007Y214804D01*
X81534Y213985D01*
X81289Y213071D01*
Y212125D01*
X81534Y211212D01*
X82007Y210392D01*
X82676Y209724D01*
X83495Y209251D01*
X84409Y209006D01*
X85355D01*
X86269Y209251D01*
X87088Y209724D01*
X87757Y210392D01*
X88230Y211212D01*
X88474Y212125D01*
Y213071D01*
X88230Y213985D01*
X87757Y214804D01*
X87088Y215473D01*
X86269Y215946D01*
X85355Y216191D01*
D02*
G37*
G36*
X173150Y211797D02*
X172379Y211696D01*
X171660Y211398D01*
X171044Y210925D01*
X170570Y210308D01*
X170273Y209590D01*
X170171Y208819D01*
Y204882D01*
X170273Y204111D01*
X170570Y203393D01*
X171044Y202776D01*
X171660Y202303D01*
X172379Y202005D01*
X173150Y201904D01*
X173920Y202005D01*
X174639Y202303D01*
X175256Y202776D01*
X175729Y203393D01*
X176026Y204111D01*
X176128Y204882D01*
Y208819D01*
X176026Y209590D01*
X175729Y210308D01*
X175256Y210925D01*
X174639Y211398D01*
X173920Y211696D01*
X173150Y211797D01*
D02*
G37*
G36*
X95355Y206191D02*
X94409D01*
X93495Y205946D01*
X92676Y205473D01*
X92007Y204804D01*
X91534Y203985D01*
X91289Y203071D01*
Y202125D01*
X91534Y201212D01*
X92007Y200393D01*
X92676Y199724D01*
X93495Y199251D01*
X94409Y199006D01*
X95355D01*
X96268Y199251D01*
X97088Y199724D01*
X97756Y200393D01*
X98229Y201212D01*
X98474Y202125D01*
Y203071D01*
X98229Y203985D01*
X97756Y204804D01*
X97088Y205473D01*
X96268Y205946D01*
X95355Y206191D01*
D02*
G37*
G36*
X85355D02*
X84409D01*
X83495Y205946D01*
X82676Y205473D01*
X82007Y204804D01*
X81534Y203985D01*
X81289Y203071D01*
Y202125D01*
X81534Y201212D01*
X82007Y200393D01*
X82676Y199724D01*
X83495Y199251D01*
X84409Y199006D01*
X85355D01*
X86269Y199251D01*
X87088Y199724D01*
X87757Y200393D01*
X88230Y201212D01*
X88474Y202125D01*
Y203071D01*
X88230Y203985D01*
X87757Y204804D01*
X87088Y205473D01*
X86269Y205946D01*
X85355Y206191D01*
D02*
G37*
G36*
X95355Y196191D02*
X94409D01*
X93495Y195946D01*
X92676Y195473D01*
X92007Y194804D01*
X91534Y193985D01*
X91289Y193071D01*
Y192125D01*
X91534Y191212D01*
X92007Y190392D01*
X92676Y189724D01*
X93495Y189251D01*
X94409Y189006D01*
X95355D01*
X96268Y189251D01*
X97088Y189724D01*
X97756Y190392D01*
X98229Y191212D01*
X98474Y192125D01*
Y193071D01*
X98229Y193985D01*
X97756Y194804D01*
X97088Y195473D01*
X96268Y195946D01*
X95355Y196191D01*
D02*
G37*
G36*
X85355D02*
X84409D01*
X83495Y195946D01*
X82676Y195473D01*
X82007Y194804D01*
X81534Y193985D01*
X81289Y193071D01*
Y192125D01*
X81534Y191212D01*
X82007Y190392D01*
X82676Y189724D01*
X83495Y189251D01*
X84409Y189006D01*
X85355D01*
X86269Y189251D01*
X87088Y189724D01*
X87757Y190392D01*
X88230Y191212D01*
X88474Y192125D01*
Y193071D01*
X88230Y193985D01*
X87757Y194804D01*
X87088Y195473D01*
X86269Y195946D01*
X85355Y196191D01*
D02*
G37*
G36*
X233986Y191598D02*
X231315D01*
Y188927D01*
X231784Y189053D01*
X232651Y189553D01*
X233360Y190262D01*
X233861Y191130D01*
X233986Y191598D01*
D02*
G37*
G36*
X229315D02*
X226644D01*
X226769Y191130D01*
X227270Y190262D01*
X227979Y189553D01*
X228846Y189053D01*
X229315Y188927D01*
Y191598D01*
D02*
G37*
G36*
X230788Y186191D02*
X229842D01*
X228928Y185946D01*
X228109Y185473D01*
X227440Y184804D01*
X226967Y183985D01*
X226723Y183071D01*
Y182125D01*
X226967Y181212D01*
X227440Y180393D01*
X228109Y179724D01*
X228928Y179251D01*
X229842Y179006D01*
X230788D01*
X231702Y179251D01*
X232521Y179724D01*
X233190Y180393D01*
X233663Y181212D01*
X233908Y182125D01*
Y183071D01*
X233663Y183985D01*
X233190Y184804D01*
X232521Y185473D01*
X231702Y185946D01*
X230788Y186191D01*
D02*
G37*
G36*
X220788D02*
X219842D01*
X218928Y185946D01*
X218109Y185473D01*
X217440Y184804D01*
X216967Y183985D01*
X216722Y183071D01*
Y182125D01*
X216967Y181212D01*
X217440Y180393D01*
X218109Y179724D01*
X218928Y179251D01*
X219842Y179006D01*
X220788D01*
X221702Y179251D01*
X222521Y179724D01*
X223190Y180393D01*
X223663Y181212D01*
X223907Y182125D01*
Y183071D01*
X223663Y183985D01*
X223190Y184804D01*
X222521Y185473D01*
X221702Y185946D01*
X220788Y186191D01*
D02*
G37*
G36*
X85355D02*
X84409D01*
X83495Y185946D01*
X82676Y185473D01*
X82007Y184804D01*
X81534Y183985D01*
X81289Y183071D01*
Y182125D01*
X81534Y181212D01*
X82007Y180393D01*
X82676Y179724D01*
X83495Y179251D01*
X84409Y179006D01*
X85355D01*
X86269Y179251D01*
X87088Y179724D01*
X87757Y180393D01*
X88230Y181212D01*
X88474Y182125D01*
Y183071D01*
X88230Y183985D01*
X87757Y184804D01*
X87088Y185473D01*
X86269Y185946D01*
X85355Y186191D01*
D02*
G37*
G36*
X221315Y176270D02*
Y173598D01*
X223986D01*
X223861Y174067D01*
X223360Y174935D01*
X222651Y175643D01*
X221784Y176144D01*
X221315Y176270D01*
D02*
G37*
G36*
X219315D02*
X218846Y176144D01*
X217979Y175643D01*
X217270Y174935D01*
X216769Y174067D01*
X216644Y173598D01*
X219315D01*
Y176270D01*
D02*
G37*
G36*
X230788Y176191D02*
X229842D01*
X228928Y175946D01*
X228109Y175473D01*
X227440Y174804D01*
X226967Y173985D01*
X226723Y173071D01*
Y172125D01*
X226967Y171212D01*
X227440Y170393D01*
X228109Y169724D01*
X228928Y169251D01*
X229842Y169006D01*
X230788D01*
X231702Y169251D01*
X232521Y169724D01*
X233190Y170393D01*
X233663Y171212D01*
X233908Y172125D01*
Y173071D01*
X233663Y173985D01*
X233190Y174804D01*
X232521Y175473D01*
X231702Y175946D01*
X230788Y176191D01*
D02*
G37*
G36*
X223986Y171598D02*
X221315D01*
Y168927D01*
X221784Y169053D01*
X222651Y169553D01*
X223360Y170262D01*
X223861Y171130D01*
X223986Y171598D01*
D02*
G37*
G36*
X219315D02*
X216644D01*
X216769Y171130D01*
X217270Y170262D01*
X217979Y169553D01*
X218846Y169053D01*
X219315Y168927D01*
Y171598D01*
D02*
G37*
G36*
X230788Y166191D02*
X229842D01*
X228928Y165946D01*
X228109Y165473D01*
X227440Y164804D01*
X226967Y163985D01*
X226723Y163071D01*
Y162125D01*
X226967Y161212D01*
X227440Y160392D01*
X228109Y159724D01*
X228928Y159251D01*
X229842Y159006D01*
X230788D01*
X231702Y159251D01*
X232521Y159724D01*
X233190Y160392D01*
X233663Y161212D01*
X233908Y162125D01*
Y163071D01*
X233663Y163985D01*
X233190Y164804D01*
X232521Y165473D01*
X231702Y165946D01*
X230788Y166191D01*
D02*
G37*
G36*
X220788D02*
X219842D01*
X218928Y165946D01*
X218109Y165473D01*
X217440Y164804D01*
X216967Y163985D01*
X216722Y163071D01*
Y162125D01*
X216967Y161212D01*
X217440Y160392D01*
X218109Y159724D01*
X218928Y159251D01*
X219842Y159006D01*
X220788D01*
X221702Y159251D01*
X222521Y159724D01*
X223190Y160392D01*
X223663Y161212D01*
X223907Y162125D01*
Y163071D01*
X223663Y163985D01*
X223190Y164804D01*
X222521Y165473D01*
X221702Y165946D01*
X220788Y166191D01*
D02*
G37*
G36*
X231315Y156270D02*
Y153598D01*
X233986D01*
X233861Y154067D01*
X233360Y154935D01*
X232651Y155643D01*
X231784Y156144D01*
X231315Y156270D01*
D02*
G37*
G36*
X229315D02*
X228846Y156144D01*
X227979Y155643D01*
X227270Y154935D01*
X226769Y154067D01*
X226644Y153598D01*
X229315D01*
Y156270D01*
D02*
G37*
G36*
X220788Y156191D02*
X219842D01*
X218928Y155946D01*
X218109Y155473D01*
X217440Y154804D01*
X216967Y153985D01*
X216722Y153071D01*
Y152125D01*
X216967Y151212D01*
X217440Y150392D01*
X218109Y149724D01*
X218928Y149251D01*
X219842Y149006D01*
X220788D01*
X221702Y149251D01*
X222521Y149724D01*
X223190Y150392D01*
X223663Y151212D01*
X223907Y152125D01*
Y153071D01*
X223663Y153985D01*
X223190Y154804D01*
X222521Y155473D01*
X221702Y155946D01*
X220788Y156191D01*
D02*
G37*
G36*
X233986Y151598D02*
X231315D01*
Y148927D01*
X231784Y149053D01*
X232651Y149554D01*
X233360Y150262D01*
X233861Y151130D01*
X233986Y151598D01*
D02*
G37*
G36*
X229315D02*
X226644D01*
X226769Y151130D01*
X227270Y150262D01*
X227979Y149554D01*
X228846Y149053D01*
X229315Y148927D01*
Y151598D01*
D02*
G37*
G36*
X230788Y146191D02*
X229842D01*
X228928Y145946D01*
X228109Y145473D01*
X227440Y144804D01*
X226967Y143985D01*
X226723Y143071D01*
Y142125D01*
X226967Y141212D01*
X227440Y140392D01*
X228109Y139724D01*
X228928Y139251D01*
X229842Y139006D01*
X230788D01*
X231702Y139251D01*
X232521Y139724D01*
X233190Y140392D01*
X233663Y141212D01*
X233908Y142125D01*
Y143071D01*
X233663Y143985D01*
X233190Y144804D01*
X232521Y145473D01*
X231702Y145946D01*
X230788Y146191D01*
D02*
G37*
G36*
X220788D02*
X219842D01*
X218928Y145946D01*
X218109Y145473D01*
X217440Y144804D01*
X216967Y143985D01*
X216722Y143071D01*
Y142125D01*
X216967Y141212D01*
X217440Y140392D01*
X218109Y139724D01*
X218928Y139251D01*
X219842Y139006D01*
X220788D01*
X221702Y139251D01*
X222521Y139724D01*
X223190Y140392D01*
X223663Y141212D01*
X223907Y142125D01*
Y143071D01*
X223663Y143985D01*
X223190Y144804D01*
X222521Y145473D01*
X221702Y145946D01*
X220788Y146191D01*
D02*
G37*
G36*
X161969Y137431D02*
X161265D01*
X160614Y137161D01*
X160115Y136663D01*
X159845Y136012D01*
Y136012D01*
D01*
Y135307D01*
X160115Y134656D01*
X160614Y134157D01*
X161265Y133888D01*
X161969D01*
X162621Y134157D01*
X162821Y134358D01*
X163119Y134656D01*
X163389Y135307D01*
Y136012D01*
D01*
Y136012D01*
X163119Y136663D01*
X162621Y137161D01*
X161969Y137431D01*
D02*
G37*
G36*
X177730Y136780D02*
X177025D01*
X176374Y136511D01*
X175876Y136012D01*
X175755Y135721D01*
D01*
X175664Y135500D01*
X175606Y135361D01*
Y134656D01*
X175730Y134358D01*
D01*
X175876Y134005D01*
X176374Y133507D01*
X177025Y133237D01*
X177730D01*
X178382Y133507D01*
X178880Y134005D01*
X179026Y134358D01*
D01*
X179149Y134656D01*
Y135361D01*
X179092Y135500D01*
X179001Y135721D01*
X178880Y136012D01*
X178382Y136511D01*
X177730Y136780D01*
D02*
G37*
G36*
X230788Y136191D02*
X229842D01*
X228928Y135946D01*
X228109Y135473D01*
X227440Y134804D01*
X226967Y133985D01*
X226933Y133858D01*
X226723Y133071D01*
Y132125D01*
X226967Y131212D01*
X227440Y130393D01*
X228109Y129724D01*
X228928Y129251D01*
X229842Y129006D01*
X230788D01*
X231702Y129251D01*
X232521Y129724D01*
X233190Y130393D01*
X233663Y131212D01*
X233908Y132125D01*
Y133071D01*
X233697Y133858D01*
X233663Y133985D01*
X233190Y134804D01*
X232521Y135473D01*
X231702Y135946D01*
X230788Y136191D01*
D02*
G37*
G36*
X220788D02*
X219842D01*
X218928Y135946D01*
X218109Y135473D01*
X217440Y134804D01*
X216967Y133985D01*
X216933Y133858D01*
X216722Y133071D01*
Y132125D01*
X216967Y131212D01*
X217440Y130393D01*
X218109Y129724D01*
X218928Y129251D01*
X219842Y129006D01*
X220788D01*
X221702Y129251D01*
X222521Y129724D01*
X223190Y130393D01*
X223663Y131212D01*
X223907Y132125D01*
Y133071D01*
X223697Y133858D01*
X223663Y133985D01*
X223190Y134804D01*
X222521Y135473D01*
X221702Y135946D01*
X220788Y136191D01*
D02*
G37*
G36*
X231315Y126270D02*
Y123598D01*
X233986D01*
X233861Y124067D01*
X233360Y124935D01*
X232651Y125643D01*
X231784Y126144D01*
X231315Y126270D01*
D02*
G37*
G36*
X229315D02*
X228846Y126144D01*
X227979Y125643D01*
X227270Y124935D01*
X226769Y124067D01*
X226644Y123598D01*
X229315D01*
Y126270D01*
D02*
G37*
G36*
X220788Y126191D02*
X219842D01*
X218928Y125946D01*
X218109Y125473D01*
X217440Y124804D01*
X216967Y123985D01*
X216722Y123071D01*
Y122125D01*
X216967Y121212D01*
X217440Y120393D01*
X218109Y119724D01*
X218928Y119251D01*
X219842Y119006D01*
X220788D01*
X221702Y119251D01*
X222521Y119724D01*
X223190Y120393D01*
X223663Y121212D01*
X223907Y122125D01*
Y123071D01*
X223663Y123985D01*
X223190Y124804D01*
X222521Y125473D01*
X221702Y125946D01*
X220788Y126191D01*
D02*
G37*
G36*
X233986Y121598D02*
X231315D01*
Y118927D01*
X231784Y119053D01*
X232651Y119553D01*
X233360Y120262D01*
X233861Y121130D01*
X233986Y121598D01*
D02*
G37*
G36*
X229315D02*
X226644D01*
X226769Y121130D01*
X227270Y120262D01*
X227979Y119553D01*
X228846Y119053D01*
X229315Y118927D01*
Y121598D01*
D02*
G37*
G36*
X230788Y116191D02*
X229842D01*
X228928Y115946D01*
X228109Y115473D01*
X227440Y114804D01*
X226967Y113985D01*
X226723Y113071D01*
Y112125D01*
X226967Y111212D01*
X227440Y110392D01*
X228109Y109724D01*
X228928Y109251D01*
X229842Y109006D01*
X230788D01*
X231702Y109251D01*
X232521Y109724D01*
X233190Y110392D01*
X233663Y111212D01*
X233908Y112125D01*
Y113071D01*
X233663Y113985D01*
X233190Y114804D01*
X232521Y115473D01*
X231702Y115946D01*
X230788Y116191D01*
D02*
G37*
G36*
X220788D02*
X219842D01*
X218928Y115946D01*
X218109Y115473D01*
X217440Y114804D01*
X216967Y113985D01*
X216722Y113071D01*
Y112125D01*
X216967Y111212D01*
X217440Y110392D01*
X218109Y109724D01*
X218928Y109251D01*
X219842Y109006D01*
X220788D01*
X221702Y109251D01*
X222521Y109724D01*
X223190Y110392D01*
X223663Y111212D01*
X223907Y112125D01*
Y113071D01*
X223663Y113985D01*
X223190Y114804D01*
X222521Y115473D01*
X221702Y115946D01*
X220788Y116191D01*
D02*
G37*
G36*
X193483Y152932D02*
X192779D01*
X192127Y152662D01*
X191629Y152164D01*
X191359Y151513D01*
Y150808D01*
X191629Y150157D01*
X191633Y150153D01*
Y149507D01*
X191052Y148926D01*
X190767Y148500D01*
X190667Y147997D01*
Y143973D01*
X190767Y143471D01*
X191052Y143045D01*
X192407Y141690D01*
X192833Y141405D01*
X193335Y141305D01*
X194117D01*
X194308Y140844D01*
X191367Y137903D01*
X185300D01*
X184993Y137842D01*
X184732Y137668D01*
X183132Y136068D01*
X182958Y135807D01*
X182941Y135721D01*
X182931Y135673D01*
X182897Y135500D01*
Y133858D01*
Y133600D01*
X182958Y133293D01*
X183132Y133032D01*
X183393Y132858D01*
X183659Y132805D01*
X184032Y132432D01*
X184293Y132258D01*
X184600Y132197D01*
X192601D01*
X192602Y132197D01*
X192909Y132258D01*
X193169Y132432D01*
X193287Y132609D01*
X193436Y132547D01*
X194141D01*
X194792Y132817D01*
X195290Y133315D01*
X195560Y133966D01*
Y133966D01*
Y134671D01*
X195308Y135279D01*
X195480Y135536D01*
X195549Y135702D01*
X195821Y135974D01*
D01*
X196177Y136122D01*
X196563D01*
X196919Y135974D01*
X197047Y135847D01*
X197307Y135673D01*
X197614Y135611D01*
X197922Y135673D01*
X198182Y135847D01*
X198182Y135847D01*
X202750Y140415D01*
X205597Y137567D01*
Y133858D01*
Y133211D01*
X205658Y132904D01*
X205712Y132824D01*
X205388Y132500D01*
X205118Y131849D01*
Y131144D01*
X205388Y130492D01*
X205712Y130169D01*
X205658Y130088D01*
X205597Y129781D01*
Y118833D01*
X199532Y112768D01*
X199358Y112507D01*
X199297Y112200D01*
Y109700D01*
X199297Y109700D01*
X199358Y109393D01*
X199532Y109132D01*
X199532Y109132D01*
X200832Y107832D01*
X201093Y107658D01*
X201400Y107597D01*
X204600D01*
X204907Y107658D01*
X205168Y107832D01*
X212568Y115232D01*
X212742Y115493D01*
X212803Y115800D01*
Y133858D01*
Y139100D01*
X212742Y139407D01*
X212568Y139668D01*
X207268Y144968D01*
X207007Y145142D01*
X206700Y145203D01*
X204100D01*
X204079Y145199D01*
X204058Y145202D01*
X203926Y145168D01*
X203793Y145142D01*
X203775Y145130D01*
X203754Y145124D01*
X203645Y145043D01*
X203532Y144968D01*
X203520Y144950D01*
X203503Y144937D01*
X202939Y144310D01*
X202439Y144297D01*
X202068Y144668D01*
X201807Y144842D01*
X201500Y144903D01*
X198700D01*
X198700Y144903D01*
X198393Y144842D01*
X198132Y144668D01*
X198132Y144668D01*
X197657Y144193D01*
X197519Y144220D01*
X197020Y144718D01*
X196369Y144988D01*
X195822D01*
Y145061D01*
X195552Y145712D01*
X195279Y145985D01*
X195466Y146172D01*
X195736Y146823D01*
Y147528D01*
X195466Y148179D01*
X194968Y148678D01*
X194316Y148947D01*
X194272D01*
X194258Y148963D01*
Y149782D01*
X194633Y150157D01*
X194903Y150808D01*
Y151513D01*
X194633Y152164D01*
X194134Y152662D01*
X193483Y152932D01*
D02*
G37*
G36*
X95882Y106270D02*
Y103598D01*
X98553D01*
X98428Y104067D01*
X97927Y104935D01*
X97218Y105643D01*
X96351Y106144D01*
X95882Y106270D01*
D02*
G37*
G36*
X85882D02*
Y103598D01*
X88553D01*
X88428Y104067D01*
X87927Y104935D01*
X87218Y105643D01*
X86351Y106144D01*
X85882Y106270D01*
D02*
G37*
G36*
X93882D02*
X93413Y106144D01*
X92545Y105643D01*
X91837Y104935D01*
X91336Y104067D01*
X91210Y103598D01*
X93882D01*
Y106270D01*
D02*
G37*
G36*
X83882D02*
X83413Y106144D01*
X82545Y105643D01*
X81837Y104935D01*
X81336Y104067D01*
X81210Y103598D01*
X83882D01*
Y106270D01*
D02*
G37*
G36*
X230788Y106191D02*
X229842D01*
X228928Y105946D01*
X228109Y105473D01*
X227440Y104804D01*
X226967Y103985D01*
X226723Y103071D01*
Y102125D01*
X226967Y101212D01*
X227440Y100392D01*
X228109Y99724D01*
X228928Y99251D01*
X229842Y99006D01*
X230788D01*
X231702Y99251D01*
X232521Y99724D01*
X233190Y100392D01*
X233663Y101212D01*
X233908Y102125D01*
Y103071D01*
X233663Y103985D01*
X233190Y104804D01*
X232521Y105473D01*
X231702Y105946D01*
X230788Y106191D01*
D02*
G37*
G36*
X220788D02*
X219842D01*
X218928Y105946D01*
X218109Y105473D01*
X217440Y104804D01*
X216967Y103985D01*
X216722Y103071D01*
Y102125D01*
X216967Y101212D01*
X217440Y100392D01*
X218109Y99724D01*
X218928Y99251D01*
X219842Y99006D01*
X220788D01*
X221702Y99251D01*
X222521Y99724D01*
X223190Y100392D01*
X223663Y101212D01*
X223907Y102125D01*
Y103071D01*
X223663Y103985D01*
X223190Y104804D01*
X222521Y105473D01*
X221702Y105946D01*
X220788Y106191D01*
D02*
G37*
G36*
X98553Y101598D02*
X95882D01*
Y98927D01*
X96351Y99053D01*
X97218Y99554D01*
X97927Y100262D01*
X98428Y101130D01*
X98553Y101598D01*
D02*
G37*
G36*
X88553D02*
X85882D01*
Y98927D01*
X86351Y99053D01*
X87218Y99554D01*
X87927Y100262D01*
X88428Y101130D01*
X88553Y101598D01*
D02*
G37*
G36*
X83882D02*
X81210D01*
X81336Y101130D01*
X81837Y100262D01*
X82545Y99554D01*
X83413Y99053D01*
X83882Y98927D01*
Y101598D01*
D02*
G37*
G36*
X93882D02*
X91210D01*
X91336Y101130D01*
X91837Y100262D01*
X92545Y99554D01*
X93413Y99053D01*
X93882Y98927D01*
Y101598D01*
D02*
G37*
G36*
X139370Y133858D02*
X115354D01*
Y88583D01*
X139370D01*
Y133858D01*
D02*
G37*
%LPD*%
G36*
X202397Y143203D02*
Y141197D01*
X197614Y136414D01*
X197374Y136655D01*
X196722Y136925D01*
X196018D01*
X195367Y136655D01*
X194868Y136157D01*
X194738Y135843D01*
X194141Y136091D01*
X193436D01*
X192785Y135821D01*
X192286Y135322D01*
X192016Y134671D01*
Y133966D01*
X192286Y133315D01*
X192602Y133000D01*
X184600D01*
X184000Y133600D01*
X183700D01*
Y135500D01*
X185300Y137100D01*
X191700D01*
X196045Y141445D01*
X196369D01*
X197020Y141715D01*
X197519Y142213D01*
X197789Y142864D01*
Y143189D01*
X198700Y144100D01*
X201500D01*
X202397Y143203D01*
D02*
G37*
G36*
X212000Y139100D02*
Y115800D01*
X204600Y108400D01*
X201400D01*
X200100Y109700D01*
Y112200D01*
X206400Y118500D01*
Y129781D01*
X206537Y129724D01*
X207242D01*
X207893Y129994D01*
X208392Y130492D01*
X208661Y131144D01*
Y131849D01*
X208392Y132500D01*
X207893Y132998D01*
X207242Y133268D01*
X206537D01*
X206400Y133211D01*
Y137900D01*
X203200Y141100D01*
Y143400D01*
X204100Y144400D01*
X206700D01*
X212000Y139100D01*
D02*
G37*
%LPC*%
G36*
X231315Y216270D02*
Y213598D01*
X233986D01*
X233861Y214067D01*
X233360Y214935D01*
X232651Y215643D01*
X231784Y216144D01*
X231315Y216270D01*
D02*
G37*
G36*
X229315D02*
X228846Y216144D01*
X227979Y215643D01*
X227270Y214935D01*
X226769Y214067D01*
X226644Y213598D01*
X229315D01*
Y216270D01*
D02*
G37*
G36*
X233986Y211598D02*
X231315D01*
Y208927D01*
X231784Y209053D01*
X232651Y209554D01*
X233360Y210262D01*
X233861Y211130D01*
X233986Y211598D01*
D02*
G37*
G36*
X229315D02*
X226644D01*
X226769Y211130D01*
X227270Y210262D01*
X227979Y209554D01*
X228846Y209053D01*
X229315Y208927D01*
Y211598D01*
D02*
G37*
G36*
X231315Y206270D02*
Y203598D01*
X233986D01*
X233861Y204067D01*
X233360Y204935D01*
X232651Y205643D01*
X231784Y206144D01*
X231315Y206270D01*
D02*
G37*
G36*
X229315D02*
X228846Y206144D01*
X227979Y205643D01*
X227270Y204935D01*
X226769Y204067D01*
X226644Y203598D01*
X229315D01*
Y206270D01*
D02*
G37*
G36*
X220788Y206191D02*
X219842D01*
X218928Y205946D01*
X218109Y205473D01*
X217440Y204804D01*
X216967Y203985D01*
X216790Y203324D01*
X216263Y203290D01*
X216069Y203760D01*
X215570Y204258D01*
X214919Y204528D01*
X214214D01*
X213563Y204258D01*
X213065Y203760D01*
X212795Y203108D01*
Y202403D01*
X213065Y201752D01*
X213563Y201254D01*
X214214Y200984D01*
X214919D01*
X215570Y201254D01*
X216069Y201752D01*
X216223Y202124D01*
X216579Y202125D01*
X216739Y202064D01*
X216967Y201212D01*
X217440Y200393D01*
X218109Y199724D01*
X218928Y199251D01*
X219842Y199006D01*
X220788D01*
X221702Y199251D01*
X222521Y199724D01*
X223190Y200393D01*
X223663Y201212D01*
X223907Y202125D01*
Y203071D01*
X223663Y203985D01*
X223190Y204804D01*
X222521Y205473D01*
X221702Y205946D01*
X220788Y206191D01*
D02*
G37*
G36*
X158052Y206072D02*
X157348D01*
X156696Y205802D01*
X156198Y205304D01*
X155928Y204652D01*
Y203948D01*
X156198Y203296D01*
X156696Y202798D01*
X157348Y202528D01*
X158052D01*
X158704Y202798D01*
X159202Y203296D01*
X159472Y203948D01*
Y204652D01*
X159202Y205304D01*
X158704Y205802D01*
X158052Y206072D01*
D02*
G37*
G36*
X233986Y201598D02*
X231315D01*
Y198927D01*
X231784Y199053D01*
X232651Y199554D01*
X233360Y200262D01*
X233861Y201130D01*
X233986Y201598D01*
D02*
G37*
G36*
X229315D02*
X226644D01*
X226769Y201130D01*
X227270Y200262D01*
X227979Y199554D01*
X228846Y199053D01*
X229315Y198927D01*
Y201598D01*
D02*
G37*
G36*
X95355Y176191D02*
X94409D01*
X93495Y175946D01*
X92676Y175473D01*
X92007Y174804D01*
X91534Y173985D01*
X91289Y173071D01*
Y172125D01*
X91534Y171212D01*
X92007Y170393D01*
X92676Y169724D01*
X93495Y169251D01*
X94409Y169006D01*
X95355D01*
X96268Y169251D01*
X97088Y169724D01*
X97756Y170393D01*
X98229Y171212D01*
X98474Y172125D01*
Y173071D01*
X98229Y173985D01*
X97756Y174804D01*
X97088Y175473D01*
X96268Y175946D01*
X95355Y176191D01*
D02*
G37*
G36*
X197793Y170571D02*
X197089D01*
X196437Y170301D01*
X195939Y169803D01*
X195669Y169152D01*
Y168447D01*
X195939Y167796D01*
X196437Y167297D01*
X197089Y167028D01*
X197793D01*
X198123Y167164D01*
X198541Y167167D01*
X198727Y166914D01*
X198892Y166516D01*
X199390Y166018D01*
X200041Y165748D01*
X200746D01*
X201397Y166018D01*
X201896Y166516D01*
X202165Y167167D01*
Y167872D01*
X201896Y168523D01*
X201397Y169022D01*
X200746Y169291D01*
X200041D01*
X199711Y169155D01*
X199294Y169152D01*
X199108Y169405D01*
X198943Y169803D01*
X198444Y170301D01*
X197793Y170571D01*
D02*
G37*
G36*
X124762Y169685D02*
X124057D01*
X123406Y169415D01*
X122907Y168917D01*
X122638Y168266D01*
Y167561D01*
X122907Y166910D01*
X123406Y166411D01*
X124057Y166142D01*
X124705D01*
X124438Y165497D01*
Y164793D01*
X124708Y164141D01*
X125206Y163643D01*
X125857Y163373D01*
X126562D01*
X127213Y163643D01*
X127712Y164141D01*
X127981Y164793D01*
Y165497D01*
X127712Y166148D01*
X127213Y166647D01*
X126562Y166917D01*
X125914D01*
X126181Y167561D01*
Y168266D01*
X125911Y168917D01*
X125413Y169415D01*
X124762Y169685D01*
D02*
G37*
G36*
X150352Y158563D02*
X149648D01*
X148996Y158293D01*
X148498Y157795D01*
X148276Y157258D01*
X148176Y157500D01*
X147678Y157998D01*
X147026Y158268D01*
X146322D01*
X145670Y157998D01*
X145172Y157500D01*
X144902Y156849D01*
Y156144D01*
X145172Y155492D01*
X145670Y154994D01*
X146322Y154724D01*
X147026D01*
X147678Y154994D01*
X148176Y155492D01*
X148398Y156029D01*
X148498Y155788D01*
X148996Y155289D01*
X149648Y155020D01*
X150352D01*
X151004Y155289D01*
X151502Y155788D01*
X151772Y156439D01*
Y157144D01*
X151502Y157795D01*
X151004Y158293D01*
X150352Y158563D01*
D02*
G37*
%LPD*%
D14*
X146120Y181954D02*
X147283Y180791D01*
X145702Y183654D02*
X146120Y183235D01*
X147283Y180791D02*
X147949D01*
X145702Y183654D02*
Y187946D01*
X148311Y180429D02*
X149787D01*
X147949Y180791D02*
X148311Y180429D01*
X146120Y181954D02*
Y183235D01*
X141371Y174992D02*
X141427Y174936D01*
X141371Y173236D02*
X141427Y173292D01*
Y174936D01*
X141371Y170440D02*
Y173236D01*
Y179323D02*
X141427Y179267D01*
X141371Y174992D02*
Y177567D01*
X141427Y177623D01*
X141733Y168962D02*
Y170078D01*
X141427Y181954D02*
Y183597D01*
X141371Y170440D02*
X141733Y170078D01*
X141371Y183654D02*
X141427Y183597D01*
Y177623D02*
Y179267D01*
X141371Y183654D02*
Y190368D01*
Y181897D02*
X141427Y181954D01*
X141371Y179323D02*
Y181897D01*
X158000Y179400D02*
X162985Y174415D01*
X158000Y179400D02*
Y181961D01*
X162985Y174415D02*
X166823D01*
X167538Y173700D01*
X167800D01*
X156693Y183268D02*
X158000Y181961D01*
X167256Y171593D02*
X167735Y171418D01*
X166913Y171653D02*
X167256Y171593D01*
X162747Y171653D02*
X166913D01*
X157900Y176500D02*
X162747Y171653D01*
X167735Y171418D02*
X182350Y159107D01*
X141508Y192140D02*
Y193466D01*
Y192140D02*
X145702Y187946D01*
X140540Y194434D02*
Y194696D01*
Y194434D02*
X141508Y193466D01*
X143482Y193530D02*
X150004Y187008D01*
X143482Y193530D02*
Y193774D01*
X141733Y168962D02*
X142895Y167799D01*
X147653D01*
X154724Y148438D02*
Y160728D01*
X147653Y167799D02*
X154724Y160728D01*
X139318Y192420D02*
X141371Y190368D01*
X149787Y180429D02*
X151772Y178445D01*
X157713Y187008D02*
X181335Y163386D01*
X183465D01*
X150004Y187008D02*
X157713D01*
X156496Y167923D02*
Y174016D01*
X155610Y191240D02*
X169685Y177165D01*
X172272D01*
X149276Y191240D02*
X155610D01*
X145758Y194758D02*
X149276Y191240D01*
X145745Y194758D02*
X145758D01*
X161058Y191847D02*
X164826D01*
X164862Y191883D01*
X160359Y192545D02*
X161058Y191847D01*
X158760Y194423D02*
Y194685D01*
X160359Y192545D02*
Y192823D01*
X158760Y194423D02*
X160359Y192823D01*
X169190Y159401D02*
Y159549D01*
X164658Y164081D02*
X169190Y159549D01*
X160339Y164081D02*
X164658D01*
X156496Y167923D02*
X160339Y164081D01*
X165340Y168320D02*
X167715Y165945D01*
X170177D01*
X171161Y155591D02*
Y157498D01*
X171362Y157698D02*
Y159960D01*
X171547Y160146D01*
X171161Y157498D02*
X171362Y157698D01*
X186878Y155709D02*
X187574D01*
X189982Y154843D02*
X190167Y154657D01*
X188440Y154843D02*
X189982D01*
X191980Y147997D02*
X192946Y148963D01*
X187574Y155709D02*
X188440Y154843D01*
X192946Y148963D02*
Y150975D01*
X193131Y151160D01*
X186386Y155217D02*
X186878Y155709D01*
X185090Y155217D02*
X186386D01*
X182510Y158994D02*
X185183Y157515D01*
X191637Y159510D02*
X198397D01*
X183465Y163386D02*
X187835Y159016D01*
X191142D02*
X191637Y159510D01*
X187835Y159016D02*
X191142D01*
X186453Y162984D02*
X197747D01*
X172272Y177165D02*
X186453Y162984D01*
X169782Y127461D02*
X172850Y130529D01*
X171004Y138693D02*
X172850Y136847D01*
X171004Y145010D02*
X171741Y145748D01*
X172850Y130529D02*
Y136847D01*
X171004Y138693D02*
Y145010D01*
X171741Y148907D02*
X171741Y148907D01*
Y145748D02*
Y148907D01*
X174803Y158760D02*
X175739Y157824D01*
X175931D01*
X176647Y153765D02*
X176832Y153950D01*
X175931Y157824D02*
X177530Y156225D01*
X177792D01*
X175531Y153746D02*
X175549Y153765D01*
X176647D01*
X151772Y169512D02*
X171741Y148907D01*
X151772Y169512D02*
Y178445D01*
X175273Y153624D02*
X175531Y153746D01*
X173042Y154417D02*
X175273Y153624D01*
X174803Y158760D02*
Y161319D01*
X171614Y155138D02*
X172919Y154674D01*
X171161Y155591D02*
X171614Y155138D01*
X172919Y154674D02*
X173042Y154417D01*
X170177Y165945D02*
X174803Y161319D01*
X183462Y156430D02*
X184361Y155531D01*
X185090Y155217D01*
X180217Y157185D02*
X183462Y156430D01*
X182350Y159107D02*
X182510Y158994D01*
X202194Y153149D02*
Y158537D01*
X199539Y150495D02*
X202194Y153149D01*
X193335Y142618D02*
X195182D01*
X195780Y143216D02*
X196017D01*
X195182Y142618D02*
X195780Y143216D01*
X196637Y138887D02*
X200861Y143110D01*
X195472Y138887D02*
X196637D01*
X191980Y143973D02*
X193335Y142618D01*
X191980Y143973D02*
Y147997D01*
X191434Y134848D02*
X195472Y138887D01*
X186018Y134848D02*
X191434D01*
X197747Y162984D02*
X202194Y158537D01*
X154724Y148438D02*
X170768Y132395D01*
X170866D01*
X164585Y127461D02*
X169782D01*
X161600Y127843D02*
X164585Y127461D01*
X186811Y176083D02*
X186909Y176181D01*
X186811Y171949D02*
Y176083D01*
D69*
X207165Y227953D02*
D03*
X173150D02*
D03*
X141811Y227559D02*
D03*
X107795D02*
D03*
D70*
X207165Y206850D02*
D03*
X173150D02*
D03*
X141811Y206457D02*
D03*
X107795D02*
D03*
D73*
X90305Y120703D02*
X92986Y118022D01*
X94882Y112598D02*
Y116868D01*
X92986Y118022D02*
X93729D01*
X90158Y122835D02*
Y166913D01*
Y122835D02*
X90305Y122687D01*
Y120703D02*
Y122687D01*
X93729Y118022D02*
X94882Y116868D01*
X226448Y202259D02*
X229976D01*
X222211Y198022D02*
X226448Y202259D01*
X229976D02*
X230315Y202598D01*
X213848Y198031D02*
X218409D01*
X211190Y200689D02*
X213848Y198031D01*
X218409D02*
X218419Y198022D01*
X222211D01*
X195609Y196791D02*
X199508Y200689D01*
X195609Y196791D02*
Y201909D01*
X199508Y200689D02*
X211190D01*
X177559Y183294D02*
Y183465D01*
X177120Y182855D02*
X177559Y183294D01*
X130400Y197700D02*
X142795D01*
X117718D02*
X130400D01*
Y200100D02*
X130500Y200200D01*
X130400Y197700D02*
Y200100D01*
X193307Y178543D02*
X193307Y178543D01*
Y178740D01*
X195609Y201909D02*
X196000Y202300D01*
X188779Y189961D02*
X195609Y196791D01*
X151200Y201378D02*
X156836D01*
X148228D02*
X151200D01*
X151100Y207800D02*
Y208100D01*
Y207800D02*
X151200Y207700D01*
Y201378D02*
Y207700D01*
X193307Y174114D02*
Y178543D01*
X206299Y165551D01*
X142795Y197700D02*
X145488Y200394D01*
X108965Y188946D02*
X117718Y197700D01*
X145488Y200394D02*
X147244D01*
X148228Y201378D01*
X165748Y194488D02*
X177120Y183116D01*
X206299Y165551D02*
X206299D01*
X121845Y175391D02*
Y177165D01*
X120472Y174019D02*
X121845Y175391D01*
X120472Y172244D02*
Y174019D01*
X117421Y163287D02*
Y175591D01*
X118209Y176378D01*
X121845Y177165D02*
X122047Y177368D01*
X111417Y159469D02*
X114395Y156492D01*
Y155487D02*
Y156492D01*
X108965Y186068D02*
Y188946D01*
X108902Y186068D02*
X108965D01*
X101969Y179134D02*
X108902Y186068D01*
X138583Y152362D02*
X141142Y154921D01*
X120669Y165847D02*
X134153Y152362D01*
X138583D01*
X122047Y182579D02*
X123548Y184080D01*
Y184572D01*
X122047Y177368D02*
Y182579D01*
X125295Y178257D02*
X132882Y185843D01*
X125295Y176063D02*
Y178257D01*
X132882Y185843D02*
Y188037D01*
X144205Y152924D02*
Y159895D01*
X140290Y149008D02*
X144205Y152924D01*
Y159895D02*
X145702Y161391D01*
X124862Y149008D02*
X140290D01*
X125984Y152445D02*
Y154724D01*
X117421Y163287D02*
X125984Y154724D01*
X119783Y152362D02*
X121555Y150591D01*
X123279D01*
X124862Y149008D01*
X134806Y189961D02*
X135792D01*
X132882Y188037D02*
X134806Y189961D01*
X135792D02*
X136855Y191024D01*
X120669Y165847D02*
Y170866D01*
X114395Y155487D02*
X117520Y152362D01*
X187992Y184350D02*
Y188484D01*
Y184350D02*
X193012Y179331D01*
X188779Y189272D02*
Y189961D01*
X187992Y188484D02*
X188779Y189272D01*
X189370Y170177D02*
X193307Y174114D01*
X188562Y167202D02*
X189370Y168009D01*
Y170177D01*
X182640Y152916D02*
Y154446D01*
X175197Y145472D02*
X182640Y152916D01*
X206004Y142913D02*
X209842Y139075D01*
Y116831D02*
Y139075D01*
X92986Y168022D02*
X96778D01*
X92941Y168066D02*
X92986Y168022D01*
X96778D02*
X99459Y170703D01*
Y171259D02*
X101969Y173769D01*
Y179134D01*
X90158Y166913D02*
X91311Y168066D01*
X92941D01*
X99459Y170703D02*
Y171259D01*
X203725Y110714D02*
X209842Y116831D01*
X203543Y110714D02*
X203725D01*
X156836Y201378D02*
X163725Y194488D01*
X117520Y152362D02*
X119783D01*
X163725Y194488D02*
X165748D01*
X180217Y179134D02*
X193012D01*
X230315Y202953D02*
Y212598D01*
X176969Y182382D02*
X180217Y179134D01*
D83*
X94882Y212598D02*
D03*
X84882D02*
D03*
X94882Y202598D02*
D03*
X84882D02*
D03*
X94882Y192598D02*
D03*
X84882D02*
D03*
X94882Y182598D02*
D03*
X84882D02*
D03*
X94882Y172598D02*
D03*
X84882D02*
D03*
X94882Y162598D02*
D03*
X84882D02*
D03*
X94882Y152598D02*
D03*
X84882D02*
D03*
X94882Y142598D02*
D03*
X84882D02*
D03*
X94882Y132598D02*
D03*
X84882D02*
D03*
X94882Y122598D02*
D03*
X84882D02*
D03*
X94882Y112598D02*
D03*
X84882D02*
D03*
X94882Y102598D02*
D03*
X84882D02*
D03*
X230315Y212598D02*
D03*
X220315D02*
D03*
X230315Y202598D02*
D03*
X220315D02*
D03*
X230315Y192598D02*
D03*
X220315D02*
D03*
X230315Y182598D02*
D03*
X220315D02*
D03*
X230315Y172598D02*
D03*
X220315D02*
D03*
X230315Y162598D02*
D03*
X220315D02*
D03*
X230315Y152598D02*
D03*
X220315D02*
D03*
X230315Y142598D02*
D03*
X220315D02*
D03*
X230315Y132598D02*
D03*
X220315D02*
D03*
X230315Y122598D02*
D03*
X220315D02*
D03*
X230315Y112598D02*
D03*
X220315D02*
D03*
X230315Y102598D02*
D03*
X220315D02*
D03*
D85*
X227165Y227165D02*
D03*
X87795D02*
D03*
X227165Y87795D02*
D03*
X87795D02*
D03*
D86*
X164075Y81217D02*
D03*
X160138D02*
D03*
X204331Y84646D02*
D03*
Y81890D02*
D03*
X172835Y84646D02*
D03*
X155118Y216535D02*
D03*
X168012Y81217D02*
D03*
X143701Y216535D02*
D03*
X165865Y143569D02*
D03*
X183465Y145276D02*
D03*
X202756Y101969D02*
D03*
X195276Y102756D02*
D03*
X157480Y83465D02*
D03*
X177559Y183465D02*
D03*
X199606Y200787D02*
D03*
X196063Y199213D02*
D03*
X130500Y200200D02*
D03*
X100394Y160236D02*
D03*
Y164567D02*
D03*
X105905Y216535D02*
D03*
X109055D02*
D03*
X140551D02*
D03*
X147244D02*
D03*
X151181D02*
D03*
X159055D02*
D03*
X162598D02*
D03*
X166535D02*
D03*
X170472D02*
D03*
X174409D02*
D03*
X157700Y204300D02*
D03*
X203900Y203157D02*
D03*
X196000Y202300D02*
D03*
X136500Y201800D02*
D03*
X165500Y202200D02*
D03*
X151100Y208100D02*
D03*
X100394Y198819D02*
D03*
Y202756D02*
D03*
Y206693D02*
D03*
Y210630D02*
D03*
Y214567D02*
D03*
X102362Y216535D02*
D03*
X125623Y201400D02*
D03*
X123154D02*
D03*
X107480Y193307D02*
D03*
X161600Y179200D02*
D03*
X157900Y176500D02*
D03*
X167800Y173700D02*
D03*
X140540Y194696D02*
D03*
X143482Y193774D02*
D03*
X118209Y176378D02*
D03*
X111417Y159469D02*
D03*
X108965Y186068D02*
D03*
X123548Y184572D02*
D03*
X125295Y176063D02*
D03*
X141142Y154921D02*
D03*
X159239Y157667D02*
D03*
X125984Y152445D02*
D03*
X146674Y156496D02*
D03*
X145702Y161391D02*
D03*
X156496Y174016D02*
D03*
X156693Y183268D02*
D03*
X168405Y185138D02*
D03*
X157972Y192126D02*
D03*
X154788Y189256D02*
D03*
X151244Y198909D02*
D03*
X145745Y194758D02*
D03*
X163189Y189862D02*
D03*
X164862Y191883D02*
D03*
X158760Y194685D02*
D03*
X136855Y191024D02*
D03*
X139318Y192420D02*
D03*
X126210Y165145D02*
D03*
X130315Y152317D02*
D03*
X150000Y156791D02*
D03*
X100394Y153543D02*
D03*
Y149606D02*
D03*
X165945Y159449D02*
D03*
X169190Y159401D02*
D03*
X162872Y168266D02*
D03*
X165340Y168320D02*
D03*
X171547Y160146D02*
D03*
X174310Y156447D02*
D03*
X192652Y155516D02*
D03*
X193131Y151160D02*
D03*
X190167Y154657D02*
D03*
X185183Y157515D02*
D03*
X189370Y161000D02*
D03*
X189862Y164969D02*
D03*
X188562Y167202D02*
D03*
X187120Y165123D02*
D03*
X163948Y152007D02*
D03*
X162252Y153800D02*
D03*
X163581Y144505D02*
D03*
X177378Y135009D02*
D03*
X172988Y142703D02*
D03*
X175787Y140650D02*
D03*
X175197Y145472D02*
D03*
X174902Y149750D02*
D03*
X173407Y150976D02*
D03*
X176832Y153950D02*
D03*
X177792Y156225D02*
D03*
X182640Y154446D02*
D03*
X199539Y150495D02*
D03*
X196017Y143216D02*
D03*
X200861Y143110D02*
D03*
X206004Y142913D02*
D03*
X194051Y144709D02*
D03*
X193964Y147176D02*
D03*
X193788Y134319D02*
D03*
X199063Y152917D02*
D03*
X198397Y159510D02*
D03*
X206299Y159843D02*
D03*
Y165551D02*
D03*
X170866Y132395D02*
D03*
X186018Y134848D02*
D03*
X161600Y127843D02*
D03*
X161617Y135659D02*
D03*
X168831Y116837D02*
D03*
X196370Y135153D02*
D03*
X206890Y131496D02*
D03*
X204121Y126772D02*
D03*
X203543Y110714D02*
D03*
X171949Y81217D02*
D03*
X210630Y81118D02*
D03*
X180217Y157185D02*
D03*
X139370Y86614D02*
D03*
X116535D02*
D03*
X112598Y89764D02*
D03*
Y93307D02*
D03*
Y96850D02*
D03*
Y100787D02*
D03*
Y131890D02*
D03*
Y127953D02*
D03*
Y124016D02*
D03*
Y120079D02*
D03*
Y116142D02*
D03*
Y112205D02*
D03*
Y108268D02*
D03*
Y104331D02*
D03*
X120079Y86614D02*
D03*
X124016D02*
D03*
X127953D02*
D03*
X131890D02*
D03*
X135827D02*
D03*
X114173Y135827D02*
D03*
X118110D02*
D03*
X122047D02*
D03*
X125984D02*
D03*
X129921D02*
D03*
X133858D02*
D03*
X137795D02*
D03*
X141732D02*
D03*
Y131890D02*
D03*
Y127953D02*
D03*
Y124016D02*
D03*
Y120079D02*
D03*
Y116142D02*
D03*
Y112205D02*
D03*
Y108268D02*
D03*
Y104331D02*
D03*
Y100394D02*
D03*
Y96457D02*
D03*
Y92520D02*
D03*
Y88583D02*
D03*
X120866Y92913D02*
D03*
X135112Y182775D02*
D03*
X139443D02*
D03*
X143774D02*
D03*
X148104D02*
D03*
X135112Y178445D02*
D03*
X139443D02*
D03*
X143774D02*
D03*
X148104D02*
D03*
X135112Y174114D02*
D03*
X139443D02*
D03*
X143774D02*
D03*
X148104D02*
D03*
X135112Y169783D02*
D03*
X139443D02*
D03*
X143774D02*
D03*
X148104D02*
D03*
X206693Y81102D02*
D03*
X157480Y86614D02*
D03*
Y90551D02*
D03*
Y94488D02*
D03*
Y98425D02*
D03*
Y102362D02*
D03*
Y106299D02*
D03*
Y110236D02*
D03*
Y114173D02*
D03*
Y118110D02*
D03*
Y122047D02*
D03*
Y125984D02*
D03*
Y137795D02*
D03*
Y141732D02*
D03*
X110236Y149606D02*
D03*
X104331D02*
D03*
X206693Y216535D02*
D03*
X210630D02*
D03*
X214567D02*
D03*
Y212598D02*
D03*
Y208661D02*
D03*
Y202756D02*
D03*
Y194882D02*
D03*
Y190945D02*
D03*
Y187008D02*
D03*
Y183071D02*
D03*
Y179134D02*
D03*
Y175197D02*
D03*
Y171260D02*
D03*
Y167323D02*
D03*
Y163386D02*
D03*
Y159449D02*
D03*
Y155512D02*
D03*
Y151575D02*
D03*
Y147638D02*
D03*
Y143701D02*
D03*
Y139764D02*
D03*
Y135827D02*
D03*
Y131890D02*
D03*
Y124016D02*
D03*
Y120079D02*
D03*
Y116142D02*
D03*
Y112205D02*
D03*
Y108268D02*
D03*
Y100394D02*
D03*
Y96457D02*
D03*
Y92520D02*
D03*
Y88583D02*
D03*
Y84646D02*
D03*
Y81102D02*
D03*
X159673Y153051D02*
D03*
X130413Y188287D02*
D03*
X120472Y172244D02*
D03*
X124409Y167913D02*
D03*
X178150Y159055D02*
D03*
X185260Y147289D02*
D03*
X197441Y168799D02*
D03*
X200394Y167520D02*
D03*
X198721Y179724D02*
D03*
X186909Y176181D02*
D03*
X186811Y171949D02*
D03*
X193405Y189665D02*
D03*
X172736Y93602D02*
D03*
X172835Y90748D02*
D03*
Y87894D02*
D03*
X204232Y88189D02*
D03*
Y91142D02*
D03*
Y94095D02*
D03*
X208760Y100492D02*
D03*
X166043Y106988D02*
D03*
X180905Y107087D02*
D03*
X175689D02*
D03*
X114272Y178248D02*
D03*
X193209Y179134D02*
D03*
M02*
