G04*
G04 #@! TF.GenerationSoftware,Altium Limited,Altium Designer,22.11.1 (43)*
G04*
G04 Layer_Color=32768*
%FSLAX25Y25*%
%MOIN*%
G70*
G04*
G04 #@! TF.SameCoordinates,40CF40E7-FDA6-4BEF-B87F-FA6DAB628F73*
G04*
G04*
G04 #@! TF.FilePolarity,Positive*
G04*
G01*
G75*
%ADD10C,0.00787*%
D10*
X125632Y89370D02*
X126813D01*
X125632D02*
Y91732D01*
X126813D01*
Y89370D02*
Y91732D01*
X211371Y110693D02*
Y124493D01*
X185761D02*
X211371D01*
X185761Y110693D02*
Y124493D01*
Y110693D02*
X211371D01*
X111024Y194334D02*
Y196302D01*
X114961D01*
Y194334D02*
Y196302D01*
X111024Y194334D02*
X114961D01*
X170590Y234921D02*
X209724D01*
X172165Y204134D02*
Y236024D01*
X208150D01*
Y204134D02*
Y236024D01*
X172165Y204134D02*
X208150D01*
X105236Y234528D02*
X144370D01*
X106811Y203740D02*
Y235630D01*
X142795D01*
Y203740D02*
Y235630D01*
X106811Y203740D02*
X142795D01*
X160601Y185089D02*
X165522D01*
Y177215D02*
Y185089D01*
X160601Y177215D02*
X165522D01*
X160601D02*
Y185089D01*
X152953Y159156D02*
Y166243D01*
X139567Y159156D02*
X152953D01*
X139567D02*
Y166243D01*
X152953D01*
X182874Y161401D02*
Y173212D01*
X171063Y161401D02*
X182874D01*
X171063D02*
Y173212D01*
X182874D01*
X189764Y172897D02*
Y186282D01*
Y172897D02*
X196850D01*
Y186282D01*
X189764D02*
X196850D01*
X183185Y105020D02*
Y120768D01*
X163500D02*
X183185D01*
X163500Y105020D02*
Y120768D01*
Y105020D02*
X183185D01*
X122835Y171161D02*
Y181004D01*
Y171161D02*
X129921D01*
Y181004D01*
X122835D02*
X129921D01*
X201575Y176083D02*
Y183957D01*
Y176083D02*
X206496D01*
Y183957D01*
X201575D02*
X206496D01*
X205292Y136118D02*
Y149118D01*
Y136118D02*
X211792D01*
Y149118D01*
X205292D02*
X211792D01*
X195688Y161614D02*
Y163583D01*
X199625D01*
Y161614D02*
Y163583D01*
X195688Y161614D02*
X199625D01*
X179885Y154275D02*
X180751D01*
Y152621D02*
Y154275D01*
X179885Y152621D02*
X180751D01*
X179885D02*
Y154275D01*
X197539Y137205D02*
Y139173D01*
X193602Y137205D02*
X197539D01*
X193602D02*
Y139173D01*
X197539D01*
X122190Y162402D02*
X130064D01*
X122190Y157480D02*
Y162402D01*
Y157480D02*
X130064D01*
Y162402D01*
X158971Y157267D02*
X162908D01*
X158971Y155298D02*
Y157267D01*
Y155298D02*
X162908D01*
Y157267D01*
M02*
