G04*
G04 #@! TF.GenerationSoftware,Altium Limited,Altium Designer,22.11.1 (43)*
G04*
G04 Layer_Color=16711935*
%FSLAX25Y25*%
%MOIN*%
G70*
G04*
G04 #@! TF.SameCoordinates,40CF40E7-FDA6-4BEF-B87F-FA6DAB628F73*
G04*
G04*
G04 #@! TF.FilePolarity,Negative*
G04*
G01*
G75*
%ADD30R,0.02029X0.01860*%
%ADD43R,0.03556X0.03359*%
G04:AMPARAMS|DCode=44|XSize=31.62mil|YSize=29.26mil|CornerRadius=9.63mil|HoleSize=0mil|Usage=FLASHONLY|Rotation=180.000|XOffset=0mil|YOffset=0mil|HoleType=Round|Shape=RoundedRectangle|*
%AMROUNDEDRECTD44*
21,1,0.03162,0.00999,0,0,180.0*
21,1,0.01235,0.02926,0,0,180.0*
1,1,0.01927,-0.00618,0.00500*
1,1,0.01927,0.00618,0.00500*
1,1,0.01927,0.00618,-0.00500*
1,1,0.01927,-0.00618,-0.00500*
%
%ADD44ROUNDEDRECTD44*%
%ADD47R,0.06115X0.17335*%
G04:AMPARAMS|DCode=65|XSize=31.62mil|YSize=29.26mil|CornerRadius=9.63mil|HoleSize=0mil|Usage=FLASHONLY|Rotation=270.000|XOffset=0mil|YOffset=0mil|HoleType=Round|Shape=RoundedRectangle|*
%AMROUNDEDRECTD65*
21,1,0.03162,0.00999,0,0,270.0*
21,1,0.01235,0.02926,0,0,270.0*
1,1,0.01927,-0.00500,-0.00618*
1,1,0.01927,-0.00500,0.00618*
1,1,0.01927,0.00500,0.00618*
1,1,0.01927,0.00500,-0.00618*
%
%ADD65ROUNDEDRECTD65*%
%ADD67C,0.06410*%
%ADD68R,0.06410X0.06410*%
G04:AMPARAMS|DCode=69|XSize=43.31mil|YSize=102.36mil|CornerRadius=21.65mil|HoleSize=0mil|Usage=FLASHONLY|Rotation=0.000|XOffset=0mil|YOffset=0mil|HoleType=Round|Shape=RoundedRectangle|*
%AMROUNDEDRECTD69*
21,1,0.04331,0.05906,0,0,0.0*
21,1,0.00000,0.10236,0,0,0.0*
1,1,0.04331,0.00000,-0.02953*
1,1,0.04331,0.00000,-0.02953*
1,1,0.04331,0.00000,0.02953*
1,1,0.04331,0.00000,0.02953*
%
%ADD69ROUNDEDRECTD69*%
G04:AMPARAMS|DCode=70|XSize=43.31mil|YSize=82.68mil|CornerRadius=21.65mil|HoleSize=0mil|Usage=FLASHONLY|Rotation=0.000|XOffset=0mil|YOffset=0mil|HoleType=Round|Shape=RoundedRectangle|*
%AMROUNDEDRECTD70*
21,1,0.04331,0.03937,0,0,0.0*
21,1,0.00000,0.08268,0,0,0.0*
1,1,0.04331,0.00000,-0.01968*
1,1,0.04331,0.00000,-0.01968*
1,1,0.04331,0.00000,0.01968*
1,1,0.04331,0.00000,0.01968*
%
%ADD70ROUNDEDRECTD70*%
%ADD71C,0.06800*%
%ADD72C,0.02769*%
%ADD88R,0.01822X0.02182*%
%ADD89R,0.03434X0.03954*%
G04:AMPARAMS|DCode=90|XSize=39.54mil|YSize=34.34mil|CornerRadius=17.17mil|HoleSize=0mil|Usage=FLASHONLY|Rotation=90.000|XOffset=0mil|YOffset=0mil|HoleType=Round|Shape=RoundedRectangle|*
%AMROUNDEDRECTD90*
21,1,0.03954,0.00000,0,0,90.0*
21,1,0.00520,0.03434,0,0,90.0*
1,1,0.03434,0.00000,0.00260*
1,1,0.03434,0.00000,-0.00260*
1,1,0.03434,0.00000,-0.00260*
1,1,0.03434,0.00000,0.00260*
%
%ADD90ROUNDEDRECTD90*%
G04:AMPARAMS|DCode=91|XSize=39.54mil|YSize=125.28mil|CornerRadius=17.2mil|HoleSize=0mil|Usage=FLASHONLY|Rotation=90.000|XOffset=0mil|YOffset=0mil|HoleType=Round|Shape=RoundedRectangle|*
%AMROUNDEDRECTD91*
21,1,0.03954,0.09088,0,0,90.0*
21,1,0.00514,0.12528,0,0,90.0*
1,1,0.03440,0.04544,0.00257*
1,1,0.03440,0.04544,-0.00257*
1,1,0.03440,-0.04544,-0.00257*
1,1,0.03440,-0.04544,0.00257*
%
%ADD91ROUNDEDRECTD91*%
%ADD93R,0.03937X0.02756*%
%ADD94R,0.01181X0.02756*%
%ADD96R,0.05733X0.04941*%
%ADD97R,0.05512X0.07087*%
%ADD98R,0.06496X0.10039*%
G04:AMPARAMS|DCode=99|XSize=33.06mil|YSize=8.76mil|CornerRadius=4.38mil|HoleSize=0mil|Usage=FLASHONLY|Rotation=180.000|XOffset=0mil|YOffset=0mil|HoleType=Round|Shape=RoundedRectangle|*
%AMROUNDEDRECTD99*
21,1,0.03306,0.00000,0,0,180.0*
21,1,0.02430,0.00876,0,0,180.0*
1,1,0.00876,-0.01215,0.00000*
1,1,0.00876,0.01215,0.00000*
1,1,0.00876,0.01215,0.00000*
1,1,0.00876,-0.01215,0.00000*
%
%ADD99ROUNDEDRECTD99*%
%ADD100R,0.03306X0.00876*%
%ADD101R,0.02681X0.02410*%
%ADD104R,0.07087X0.05512*%
%ADD105R,0.02362X0.05512*%
%ADD106R,0.07898X0.04941*%
%ADD107R,0.08000X0.04500*%
%ADD108R,0.00886X0.00591*%
%ADD112R,0.04941X0.05733*%
%ADD114R,0.02965X0.02769*%
%ADD115R,0.03162X0.05524*%
%ADD116R,0.03359X0.03556*%
%ADD117R,0.03950X0.04737*%
%ADD118R,0.03398X0.03241*%
%ADD119R,0.09461X0.04934*%
%ADD120R,0.04934X0.04737*%
D30*
X114482Y195318D02*
D03*
X111502D02*
D03*
X162430Y156282D02*
D03*
X159449D02*
D03*
D43*
X200056Y156160D02*
D03*
X196316D02*
D03*
X151282Y193701D02*
D03*
X155023D02*
D03*
D44*
X161220Y147093D02*
D03*
Y150478D02*
D03*
X165139Y165472D02*
D03*
Y162087D02*
D03*
D47*
X199606Y87008D02*
D03*
X177362D02*
D03*
D65*
X196339Y98425D02*
D03*
X199724D02*
D03*
X180966Y142028D02*
D03*
X177580D02*
D03*
X172283Y147798D02*
D03*
X168898D02*
D03*
X187717Y148293D02*
D03*
X191102D02*
D03*
X185471Y142843D02*
D03*
X188857D02*
D03*
X171673Y153248D02*
D03*
X168287D02*
D03*
X163209Y173091D02*
D03*
X159823D02*
D03*
X137652Y155144D02*
D03*
X141038D02*
D03*
D67*
X94882Y212598D02*
D03*
X84882D02*
D03*
X94882Y202598D02*
D03*
X84882D02*
D03*
X94882Y192598D02*
D03*
X84882D02*
D03*
X94882Y182598D02*
D03*
X84882D02*
D03*
X94882Y172598D02*
D03*
X84882D02*
D03*
X94882Y162598D02*
D03*
X84882D02*
D03*
X94882Y152598D02*
D03*
X84882D02*
D03*
X94882Y142598D02*
D03*
X84882D02*
D03*
X94882Y132598D02*
D03*
X84882D02*
D03*
X94882Y122598D02*
D03*
X84882D02*
D03*
X94882Y112598D02*
D03*
X84882D02*
D03*
X94882Y102598D02*
D03*
X230315Y212598D02*
D03*
X220315D02*
D03*
X230315Y202598D02*
D03*
X220315D02*
D03*
X230315Y192598D02*
D03*
X220315D02*
D03*
X230315Y182598D02*
D03*
X220315D02*
D03*
X230315Y172598D02*
D03*
X220315D02*
D03*
X230315Y162598D02*
D03*
X220315D02*
D03*
X230315Y152598D02*
D03*
X220315D02*
D03*
X230315Y142598D02*
D03*
X220315D02*
D03*
X230315Y132598D02*
D03*
X220315D02*
D03*
X230315Y122598D02*
D03*
X220315D02*
D03*
X230315Y112598D02*
D03*
X220315D02*
D03*
X230315Y102598D02*
D03*
D68*
X84882D02*
D03*
X220315D02*
D03*
D69*
X207165Y227953D02*
D03*
X173150D02*
D03*
X141811Y227559D02*
D03*
X107795D02*
D03*
D70*
X207165Y206850D02*
D03*
X173150D02*
D03*
X141811Y206457D02*
D03*
X107795D02*
D03*
D71*
X227165Y227165D02*
D03*
X87795D02*
D03*
X227165Y87795D02*
D03*
X87795D02*
D03*
D72*
X135112Y182775D02*
D03*
X139443D02*
D03*
X143774D02*
D03*
X148104D02*
D03*
X135112Y178445D02*
D03*
X139443D02*
D03*
X143774D02*
D03*
X148104D02*
D03*
X135112Y174114D02*
D03*
X139443D02*
D03*
X143774D02*
D03*
X148104D02*
D03*
X135112Y169783D02*
D03*
X139443D02*
D03*
X143774D02*
D03*
X148104D02*
D03*
D88*
X126223Y91946D02*
D03*
Y89156D02*
D03*
D89*
X207582Y104621D02*
D03*
D90*
X198566D02*
D03*
X189550D02*
D03*
D91*
X198566Y130565D02*
D03*
D93*
X202362Y210354D02*
D03*
X177953D02*
D03*
X137008Y209961D02*
D03*
X112598D02*
D03*
D94*
X181299Y210354D02*
D03*
X183268D02*
D03*
X185236D02*
D03*
X187205D02*
D03*
X189173D02*
D03*
X191142D02*
D03*
X193110D02*
D03*
X195079D02*
D03*
X197047D02*
D03*
X199016D02*
D03*
X201969Y205236D02*
D03*
X200000D02*
D03*
X198031D02*
D03*
X196063D02*
D03*
X194095D02*
D03*
X192126D02*
D03*
X188189D02*
D03*
X186221D02*
D03*
X184252D02*
D03*
X182283D02*
D03*
X180315D02*
D03*
X178347D02*
D03*
X115945Y209961D02*
D03*
X117913D02*
D03*
X119882D02*
D03*
X121850D02*
D03*
X123819D02*
D03*
X125787D02*
D03*
X127756D02*
D03*
X129724D02*
D03*
X131693D02*
D03*
X133661D02*
D03*
X136614Y204842D02*
D03*
X134646D02*
D03*
X132677D02*
D03*
X130709D02*
D03*
X128740D02*
D03*
X126772D02*
D03*
X122835D02*
D03*
X120866D02*
D03*
X118898D02*
D03*
X116929D02*
D03*
X114961D02*
D03*
X112992D02*
D03*
D96*
X163061Y177901D02*
D03*
Y184403D02*
D03*
X204035Y183270D02*
D03*
Y176769D02*
D03*
D97*
X141142Y162700D02*
D03*
X151378D02*
D03*
D98*
X176969Y167306D02*
D03*
D99*
X171396Y171735D02*
D03*
Y169964D02*
D03*
Y168192D02*
D03*
Y166420D02*
D03*
Y164649D02*
D03*
Y162877D02*
D03*
X182541D02*
D03*
Y164649D02*
D03*
Y166420D02*
D03*
Y168192D02*
D03*
Y169964D02*
D03*
D100*
Y171735D02*
D03*
D101*
X193935Y138189D02*
D03*
X197207D02*
D03*
X199293Y162598D02*
D03*
X196021D02*
D03*
D104*
X193307Y184708D02*
D03*
Y174471D02*
D03*
D105*
X180843Y102461D02*
D03*
X175843D02*
D03*
X170843D02*
D03*
X165843D02*
D03*
Y123327D02*
D03*
X170843D02*
D03*
X175843D02*
D03*
X180843D02*
D03*
D106*
X126378Y180317D02*
D03*
Y171848D02*
D03*
D107*
X208542Y147868D02*
D03*
Y137368D02*
D03*
D108*
X180318Y152759D02*
D03*
Y154137D02*
D03*
D112*
X129377Y159941D02*
D03*
X122876D02*
D03*
D114*
X173130Y197090D02*
D03*
X170177D02*
D03*
D115*
X181496Y187500D02*
D03*
X177756D02*
D03*
X174016D02*
D03*
Y178445D02*
D03*
X177756D02*
D03*
X181496D02*
D03*
D116*
X197736Y145866D02*
D03*
Y149606D02*
D03*
D117*
X180331Y131907D02*
D03*
X174425D02*
D03*
X160235D02*
D03*
X166141D02*
D03*
D118*
X114518Y167844D02*
D03*
X117904D02*
D03*
D119*
X111122Y98721D02*
D03*
Y87106D02*
D03*
D120*
X105118Y92913D02*
D03*
X117126D02*
D03*
M02*
