G04*
G04 #@! TF.GenerationSoftware,Altium Limited,Altium Designer,22.11.1 (43)*
G04*
G04 Layer_Color=16711935*
%FSLAX25Y25*%
%MOIN*%
G70*
G04*
G04 #@! TF.SameCoordinates,40CF40E7-FDA6-4BEF-B87F-FA6DAB628F73*
G04*
G04*
G04 #@! TF.FilePolarity,Positive*
G04*
G01*
G75*
%ADD10C,0.00787*%
G36*
X128300Y119072D02*
X126326D01*
X126330Y119068D01*
X126346Y119053D01*
X126365Y119026D01*
X126392Y118992D01*
X126426Y118949D01*
X126461Y118900D01*
X126503Y118842D01*
X126541Y118777D01*
Y118773D01*
X126545Y118769D01*
X126561Y118746D01*
X126580Y118711D01*
X126603Y118669D01*
X126630Y118619D01*
X126653Y118565D01*
X126680Y118508D01*
X126703Y118454D01*
X126399D01*
Y118458D01*
X126395Y118465D01*
X126388Y118481D01*
X126376Y118496D01*
X126365Y118519D01*
X126353Y118546D01*
X126319Y118608D01*
X126277Y118677D01*
X126227Y118754D01*
X126169Y118830D01*
X126108Y118903D01*
X126104Y118907D01*
X126100Y118911D01*
X126077Y118934D01*
X126042Y118969D01*
X126000Y119011D01*
X125946Y119057D01*
X125889Y119103D01*
X125827Y119145D01*
X125766Y119180D01*
Y119383D01*
X128300D01*
Y119072D01*
D02*
G37*
G36*
X126073Y117168D02*
X128300D01*
Y116833D01*
X126073D01*
Y116004D01*
X125777D01*
Y117997D01*
X126073D01*
Y117168D01*
D02*
G37*
G36*
X128300Y115290D02*
X126319Y113965D01*
X128300D01*
Y113646D01*
X125777D01*
Y113984D01*
X127759Y115313D01*
X125777D01*
Y115632D01*
X128300D01*
Y115290D01*
D02*
G37*
G36*
Y113001D02*
X127536Y112709D01*
Y111650D01*
X128300Y111377D01*
Y111024D01*
X125777Y111987D01*
Y112352D01*
X128300Y113377D01*
Y113001D01*
D02*
G37*
G36*
X151657Y200756D02*
X151699D01*
X151749Y200752D01*
X151803Y200748D01*
X151918Y200736D01*
X152037Y200721D01*
X152156Y200698D01*
X152210Y200683D01*
X152263Y200667D01*
X152267D01*
X152275Y200663D01*
X152290Y200660D01*
X152309Y200652D01*
X152332Y200640D01*
X152356Y200629D01*
X152417Y200598D01*
X152486Y200560D01*
X152555Y200514D01*
X152624Y200460D01*
X152686Y200395D01*
Y200391D01*
X152693Y200387D01*
X152697Y200376D01*
X152709Y200364D01*
X152732Y200322D01*
X152759Y200272D01*
X152786Y200203D01*
X152809Y200126D01*
X152824Y200038D01*
X152832Y199938D01*
Y199903D01*
X152828Y199876D01*
X152824Y199846D01*
X152816Y199811D01*
X152809Y199773D01*
X152801Y199730D01*
X152770Y199638D01*
X152747Y199588D01*
X152724Y199542D01*
X152693Y199492D01*
X152659Y199446D01*
X152620Y199404D01*
X152574Y199362D01*
X152571Y199358D01*
X152559Y199350D01*
X152540Y199339D01*
X152513Y199323D01*
X152478Y199304D01*
X152436Y199285D01*
X152386Y199262D01*
X152325Y199239D01*
X152260Y199216D01*
X152183Y199193D01*
X152098Y199173D01*
X152006Y199154D01*
X151902Y199139D01*
X151795Y199127D01*
X151672Y199120D01*
X151545Y199116D01*
X151541D01*
X151526D01*
X151503D01*
X151472D01*
X151434Y199120D01*
X151392D01*
X151342Y199124D01*
X151288Y199127D01*
X151173Y199139D01*
X151054Y199154D01*
X150935Y199173D01*
X150881Y199189D01*
X150827Y199204D01*
X150823D01*
X150816Y199208D01*
X150800Y199216D01*
X150781Y199223D01*
X150758Y199231D01*
X150731Y199243D01*
X150670Y199273D01*
X150601Y199312D01*
X150531Y199358D01*
X150466Y199412D01*
X150405Y199477D01*
Y199481D01*
X150397Y199485D01*
X150389Y199496D01*
X150382Y199511D01*
X150359Y199550D01*
X150328Y199604D01*
X150301Y199669D01*
X150278Y199750D01*
X150263Y199838D01*
X150255Y199938D01*
Y199972D01*
X150259Y200011D01*
X150267Y200057D01*
X150274Y200111D01*
X150290Y200172D01*
X150313Y200233D01*
X150339Y200291D01*
X150343Y200299D01*
X150355Y200318D01*
X150374Y200345D01*
X150397Y200383D01*
X150432Y200422D01*
X150474Y200464D01*
X150520Y200506D01*
X150574Y200544D01*
X150581Y200548D01*
X150601Y200560D01*
X150635Y200579D01*
X150677Y200602D01*
X150731Y200625D01*
X150796Y200652D01*
X150869Y200679D01*
X150950Y200702D01*
X150954D01*
X150962Y200706D01*
X150973D01*
X150992Y200710D01*
X151012Y200717D01*
X151038Y200721D01*
X151073Y200725D01*
X151108Y200733D01*
X151150Y200736D01*
X151192Y200740D01*
X151242Y200748D01*
X151296Y200752D01*
X151353Y200756D01*
X151411D01*
X151545Y200759D01*
X151549D01*
X151565D01*
X151587D01*
X151618D01*
X151657Y200756D01*
D02*
G37*
G36*
X152789Y198014D02*
X150816D01*
X150820Y198010D01*
X150835Y197995D01*
X150854Y197968D01*
X150881Y197933D01*
X150916Y197891D01*
X150950Y197841D01*
X150992Y197783D01*
X151031Y197718D01*
Y197714D01*
X151034Y197711D01*
X151050Y197687D01*
X151069Y197653D01*
X151092Y197611D01*
X151119Y197561D01*
X151142Y197507D01*
X151169Y197449D01*
X151192Y197396D01*
X150889D01*
Y197399D01*
X150885Y197407D01*
X150877Y197423D01*
X150866Y197438D01*
X150854Y197461D01*
X150843Y197488D01*
X150808Y197549D01*
X150766Y197618D01*
X150716Y197695D01*
X150658Y197772D01*
X150597Y197845D01*
X150593Y197849D01*
X150589Y197853D01*
X150566Y197876D01*
X150531Y197910D01*
X150489Y197952D01*
X150435Y197998D01*
X150378Y198045D01*
X150317Y198087D01*
X150255Y198121D01*
Y198325D01*
X152789D01*
Y198014D01*
D02*
G37*
G36*
Y196547D02*
X152267Y196213D01*
X152263D01*
X152256Y196205D01*
X152244Y196197D01*
X152229Y196190D01*
X152190Y196163D01*
X152140Y196128D01*
X152083Y196090D01*
X152025Y196048D01*
X151971Y196009D01*
X151922Y195971D01*
X151918Y195967D01*
X151902Y195956D01*
X151879Y195936D01*
X151853Y195917D01*
X151799Y195860D01*
X151772Y195833D01*
X151753Y195802D01*
X151749Y195798D01*
X151745Y195791D01*
X151737Y195775D01*
X151726Y195756D01*
X151703Y195710D01*
X151683Y195652D01*
Y195648D01*
X151680Y195641D01*
Y195625D01*
X151676Y195606D01*
X151672Y195579D01*
Y195549D01*
X151668Y195510D01*
Y195080D01*
X152789D01*
Y194746D01*
X150267D01*
Y195917D01*
X150270Y195948D01*
Y195979D01*
X150274Y196055D01*
X150282Y196136D01*
X150297Y196221D01*
X150313Y196301D01*
X150324Y196340D01*
X150336Y196374D01*
Y196378D01*
X150339Y196382D01*
X150347Y196405D01*
X150366Y196436D01*
X150393Y196474D01*
X150424Y196520D01*
X150466Y196566D01*
X150516Y196612D01*
X150578Y196654D01*
X150585Y196658D01*
X150608Y196670D01*
X150643Y196689D01*
X150689Y196708D01*
X150747Y196727D01*
X150812Y196747D01*
X150881Y196758D01*
X150958Y196762D01*
X150962D01*
X150969D01*
X150985D01*
X151004Y196758D01*
X151027D01*
X151054Y196754D01*
X151115Y196739D01*
X151188Y196720D01*
X151261Y196689D01*
X151338Y196643D01*
X151376Y196616D01*
X151411Y196585D01*
X151419Y196578D01*
X151426Y196566D01*
X151442Y196555D01*
X151453Y196535D01*
X151472Y196512D01*
X151488Y196485D01*
X151507Y196455D01*
X151526Y196420D01*
X151545Y196378D01*
X151565Y196336D01*
X151584Y196286D01*
X151603Y196236D01*
X151618Y196178D01*
X151630Y196117D01*
X151641Y196052D01*
X151645Y196059D01*
X151653Y196075D01*
X151664Y196098D01*
X151680Y196125D01*
X151722Y196190D01*
X151745Y196224D01*
X151768Y196251D01*
X151776Y196259D01*
X151791Y196278D01*
X151822Y196305D01*
X151860Y196340D01*
X151910Y196382D01*
X151968Y196428D01*
X152033Y196478D01*
X152106Y196528D01*
X152789Y196966D01*
Y196547D01*
D02*
G37*
G36*
X160733Y170980D02*
X160767D01*
X160806Y170977D01*
X160852Y170969D01*
X160898Y170965D01*
X161006Y170942D01*
X161117Y170915D01*
X161224Y170873D01*
X161278Y170850D01*
X161328Y170819D01*
X161332Y170815D01*
X161340Y170811D01*
X161351Y170800D01*
X161370Y170788D01*
X161416Y170750D01*
X161470Y170696D01*
X161536Y170631D01*
X161597Y170546D01*
X161662Y170450D01*
X161716Y170339D01*
Y170335D01*
X161720Y170324D01*
X161727Y170308D01*
X161735Y170285D01*
X161747Y170255D01*
X161758Y170220D01*
X161770Y170182D01*
X161781Y170136D01*
X161793Y170090D01*
X161804Y170036D01*
X161827Y169921D01*
X161843Y169798D01*
X161846Y169663D01*
Y169659D01*
Y169644D01*
Y169625D01*
X161843Y169598D01*
Y169563D01*
X161839Y169521D01*
X161835Y169479D01*
X161827Y169429D01*
X161808Y169322D01*
X161785Y169206D01*
X161747Y169087D01*
X161697Y168976D01*
Y168972D01*
X161689Y168965D01*
X161681Y168949D01*
X161670Y168926D01*
X161654Y168903D01*
X161635Y168876D01*
X161585Y168811D01*
X161528Y168738D01*
X161455Y168665D01*
X161366Y168592D01*
X161270Y168530D01*
X161267D01*
X161259Y168523D01*
X161244Y168515D01*
X161221Y168508D01*
X161198Y168496D01*
X161167Y168481D01*
X161128Y168469D01*
X161090Y168454D01*
X161048Y168438D01*
X161002Y168427D01*
X160898Y168400D01*
X160783Y168385D01*
X160660Y168377D01*
X160622D01*
X160595Y168381D01*
X160564Y168385D01*
X160526Y168388D01*
X160483Y168392D01*
X160437Y168400D01*
X160337Y168423D01*
X160230Y168458D01*
X160176Y168481D01*
X160122Y168508D01*
X160072Y168538D01*
X160022Y168573D01*
X160019Y168577D01*
X160011Y168580D01*
X160000Y168592D01*
X159980Y168607D01*
X159961Y168626D01*
X159934Y168653D01*
X159907Y168680D01*
X159880Y168711D01*
X159850Y168749D01*
X159823Y168788D01*
X159792Y168834D01*
X159761Y168884D01*
X159734Y168934D01*
X159708Y168991D01*
X159662Y169114D01*
X159992Y169191D01*
Y169187D01*
X159996Y169179D01*
X160000Y169164D01*
X160007Y169145D01*
X160019Y169122D01*
X160030Y169095D01*
X160057Y169037D01*
X160092Y168972D01*
X160138Y168903D01*
X160188Y168842D01*
X160249Y168788D01*
X160257Y168784D01*
X160280Y168769D01*
X160314Y168749D01*
X160364Y168722D01*
X160422Y168700D01*
X160495Y168680D01*
X160575Y168665D01*
X160668Y168661D01*
X160695D01*
X160714Y168665D01*
X160741D01*
X160767Y168669D01*
X160837Y168680D01*
X160913Y168696D01*
X160994Y168722D01*
X161075Y168757D01*
X161152Y168803D01*
X161155D01*
X161159Y168811D01*
X161182Y168830D01*
X161217Y168861D01*
X161259Y168903D01*
X161301Y168957D01*
X161347Y169018D01*
X161390Y169095D01*
X161424Y169179D01*
Y169183D01*
X161428Y169191D01*
X161432Y169202D01*
X161436Y169222D01*
X161443Y169241D01*
X161447Y169268D01*
X161462Y169329D01*
X161478Y169402D01*
X161489Y169483D01*
X161497Y169571D01*
X161501Y169663D01*
Y169667D01*
Y169679D01*
Y169694D01*
Y169717D01*
X161497Y169744D01*
Y169779D01*
X161493Y169813D01*
X161489Y169852D01*
X161478Y169940D01*
X161462Y170036D01*
X161440Y170132D01*
X161409Y170224D01*
Y170228D01*
X161405Y170236D01*
X161397Y170247D01*
X161390Y170262D01*
X161370Y170308D01*
X161340Y170358D01*
X161297Y170420D01*
X161248Y170477D01*
X161190Y170535D01*
X161121Y170585D01*
X161117D01*
X161113Y170589D01*
X161102Y170597D01*
X161086Y170604D01*
X161044Y170619D01*
X160990Y170642D01*
X160929Y170662D01*
X160856Y170681D01*
X160775Y170696D01*
X160691Y170700D01*
X160664D01*
X160645Y170696D01*
X160622D01*
X160591Y170693D01*
X160526Y170681D01*
X160453Y170662D01*
X160372Y170631D01*
X160295Y170593D01*
X160218Y170539D01*
X160214Y170535D01*
X160211Y170531D01*
X160188Y170508D01*
X160153Y170470D01*
X160111Y170420D01*
X160069Y170351D01*
X160022Y170270D01*
X159984Y170170D01*
X159953Y170059D01*
X159619Y170143D01*
Y170147D01*
X159623Y170162D01*
X159631Y170182D01*
X159639Y170212D01*
X159654Y170243D01*
X159669Y170285D01*
X159685Y170328D01*
X159708Y170374D01*
X159758Y170477D01*
X159827Y170581D01*
X159904Y170681D01*
X159950Y170727D01*
X160000Y170769D01*
X160003Y170773D01*
X160011Y170777D01*
X160026Y170788D01*
X160049Y170804D01*
X160076Y170819D01*
X160107Y170838D01*
X160142Y170858D01*
X160184Y170877D01*
X160230Y170896D01*
X160280Y170915D01*
X160337Y170934D01*
X160395Y170950D01*
X160522Y170977D01*
X160591Y170980D01*
X160664Y170984D01*
X160702D01*
X160733Y170980D01*
D02*
G37*
G36*
X157004Y170938D02*
Y170927D01*
Y170911D01*
X157000Y170888D01*
Y170861D01*
X156997Y170827D01*
X156993Y170785D01*
X156989Y170742D01*
X156981Y170693D01*
X156974Y170635D01*
X156966Y170577D01*
X156954Y170516D01*
X156943Y170447D01*
X156928Y170378D01*
X156889Y170224D01*
Y170220D01*
X156885Y170205D01*
X156878Y170182D01*
X156870Y170151D01*
X156858Y170113D01*
X156843Y170070D01*
X156828Y170020D01*
X156808Y169963D01*
X156785Y169905D01*
X156762Y169840D01*
X156709Y169702D01*
X156643Y169556D01*
X156570Y169410D01*
X156567Y169406D01*
X156559Y169391D01*
X156547Y169371D01*
X156532Y169345D01*
X156513Y169310D01*
X156490Y169272D01*
X156463Y169229D01*
X156436Y169179D01*
X156367Y169076D01*
X156290Y168965D01*
X156209Y168853D01*
X156121Y168746D01*
X157358D01*
Y168450D01*
X155726D01*
Y168692D01*
X155729Y168696D01*
X155737Y168703D01*
X155749Y168719D01*
X155768Y168738D01*
X155787Y168765D01*
X155814Y168796D01*
X155845Y168834D01*
X155875Y168872D01*
X155910Y168918D01*
X155948Y168972D01*
X155991Y169026D01*
X156029Y169087D01*
X156071Y169153D01*
X156117Y169222D01*
X156159Y169299D01*
X156206Y169375D01*
X156209Y169379D01*
X156217Y169395D01*
X156229Y169418D01*
X156244Y169448D01*
X156263Y169487D01*
X156286Y169533D01*
X156313Y169587D01*
X156340Y169644D01*
X156367Y169706D01*
X156398Y169775D01*
X156428Y169848D01*
X156459Y169924D01*
X156517Y170082D01*
X156570Y170251D01*
Y170255D01*
X156574Y170266D01*
X156578Y170282D01*
X156586Y170305D01*
X156593Y170335D01*
X156601Y170370D01*
X156609Y170412D01*
X156620Y170454D01*
X156628Y170504D01*
X156640Y170558D01*
X156659Y170673D01*
X156674Y170804D01*
X156686Y170942D01*
X157004D01*
Y170938D01*
D02*
G37*
G36*
X159377D02*
Y170923D01*
Y170900D01*
X159374Y170873D01*
X159370Y170842D01*
X159366Y170808D01*
X159354Y170769D01*
X159343Y170731D01*
Y170727D01*
X159339Y170723D01*
X159331Y170700D01*
X159316Y170669D01*
X159293Y170623D01*
X159266Y170573D01*
X159228Y170516D01*
X159189Y170458D01*
X159139Y170397D01*
Y170393D01*
X159132Y170389D01*
X159112Y170366D01*
X159082Y170332D01*
X159036Y170285D01*
X158978Y170232D01*
X158909Y170166D01*
X158824Y170093D01*
X158732Y170013D01*
X158728Y170009D01*
X158713Y169997D01*
X158694Y169982D01*
X158667Y169955D01*
X158632Y169928D01*
X158594Y169894D01*
X158510Y169821D01*
X158417Y169732D01*
X158325Y169644D01*
X158279Y169602D01*
X158241Y169560D01*
X158206Y169517D01*
X158176Y169479D01*
Y169475D01*
X158168Y169471D01*
X158160Y169460D01*
X158152Y169445D01*
X158129Y169406D01*
X158103Y169356D01*
X158076Y169299D01*
X158053Y169237D01*
X158037Y169168D01*
X158030Y169103D01*
Y169099D01*
Y169095D01*
X158033Y169072D01*
X158037Y169037D01*
X158045Y168995D01*
X158064Y168945D01*
X158087Y168895D01*
X158118Y168842D01*
X158164Y168792D01*
X158172Y168788D01*
X158187Y168772D01*
X158218Y168753D01*
X158256Y168726D01*
X158306Y168703D01*
X158364Y168684D01*
X158433Y168669D01*
X158510Y168665D01*
X158533D01*
X158548Y168669D01*
X158586Y168673D01*
X158636Y168680D01*
X158694Y168700D01*
X158755Y168722D01*
X158813Y168757D01*
X158867Y168803D01*
X158870Y168811D01*
X158886Y168826D01*
X158909Y168857D01*
X158932Y168899D01*
X158959Y168953D01*
X158978Y169014D01*
X158993Y169087D01*
X159001Y169172D01*
X159320Y169137D01*
Y169133D01*
Y169122D01*
X159316Y169103D01*
X159312Y169080D01*
X159304Y169049D01*
X159301Y169014D01*
X159278Y168938D01*
X159247Y168849D01*
X159205Y168761D01*
X159147Y168673D01*
X159116Y168634D01*
X159078Y168596D01*
X159074Y168592D01*
X159066Y168588D01*
X159055Y168577D01*
X159039Y168565D01*
X159016Y168554D01*
X158990Y168534D01*
X158959Y168519D01*
X158924Y168500D01*
X158886Y168484D01*
X158844Y168465D01*
X158794Y168450D01*
X158744Y168438D01*
X158629Y168415D01*
X158567Y168412D01*
X158502Y168408D01*
X158467D01*
X158440Y168412D01*
X158410Y168415D01*
X158375Y168419D01*
X158337Y168423D01*
X158294Y168435D01*
X158202Y168458D01*
X158106Y168492D01*
X158056Y168515D01*
X158010Y168542D01*
X157968Y168577D01*
X157926Y168611D01*
X157922Y168615D01*
X157918Y168619D01*
X157907Y168630D01*
X157891Y168646D01*
X157876Y168669D01*
X157857Y168692D01*
X157818Y168749D01*
X157780Y168822D01*
X157745Y168907D01*
X157719Y169003D01*
X157715Y169057D01*
X157711Y169110D01*
Y169118D01*
Y169137D01*
X157715Y169168D01*
X157719Y169206D01*
X157726Y169252D01*
X157738Y169302D01*
X157753Y169356D01*
X157776Y169410D01*
X157780Y169418D01*
X157788Y169437D01*
X157803Y169464D01*
X157826Y169502D01*
X157853Y169548D01*
X157887Y169602D01*
X157934Y169656D01*
X157984Y169717D01*
X157991Y169725D01*
X158010Y169748D01*
X158045Y169782D01*
X158068Y169805D01*
X158095Y169832D01*
X158126Y169863D01*
X158164Y169898D01*
X158202Y169932D01*
X158245Y169974D01*
X158291Y170017D01*
X158344Y170063D01*
X158398Y170109D01*
X158460Y170162D01*
X158464Y170166D01*
X158471Y170174D01*
X158486Y170186D01*
X158506Y170201D01*
X158552Y170239D01*
X158609Y170289D01*
X158667Y170343D01*
X158728Y170397D01*
X158778Y170443D01*
X158798Y170462D01*
X158817Y170481D01*
X158821Y170485D01*
X158828Y170497D01*
X158844Y170512D01*
X158863Y170535D01*
X158905Y170585D01*
X158947Y170646D01*
X157707D01*
Y170942D01*
X159377D01*
Y170938D01*
D02*
G37*
G36*
X158329Y139957D02*
X158355Y139953D01*
X158390Y139949D01*
X158429Y139945D01*
X158471Y139938D01*
X158559Y139915D01*
X158651Y139880D01*
X158697Y139857D01*
X158743Y139830D01*
X158790Y139803D01*
X158832Y139769D01*
X158835Y139765D01*
X158839Y139761D01*
X158851Y139750D01*
X158866Y139734D01*
X158882Y139715D01*
X158901Y139692D01*
X158920Y139665D01*
X158943Y139634D01*
X158985Y139561D01*
X159028Y139473D01*
X159058Y139373D01*
X159070Y139316D01*
X159078Y139258D01*
X158751Y139235D01*
Y139239D01*
Y139246D01*
X158747Y139258D01*
X158743Y139273D01*
X158732Y139316D01*
X158716Y139369D01*
X158697Y139427D01*
X158667Y139485D01*
X158632Y139542D01*
X158586Y139592D01*
X158578Y139596D01*
X158563Y139611D01*
X158536Y139627D01*
X158498Y139650D01*
X158451Y139669D01*
X158398Y139688D01*
X158336Y139703D01*
X158271Y139707D01*
X158248D01*
X158233Y139703D01*
X158190Y139700D01*
X158137Y139688D01*
X158079Y139665D01*
X158014Y139638D01*
X157952Y139596D01*
X157922Y139573D01*
X157891Y139542D01*
Y139538D01*
X157883Y139534D01*
X157868Y139511D01*
X157841Y139473D01*
X157814Y139423D01*
X157787Y139358D01*
X157760Y139281D01*
X157745Y139193D01*
X157737Y139093D01*
Y139089D01*
Y139081D01*
Y139066D01*
X157741Y139051D01*
Y139028D01*
X157745Y139001D01*
X157756Y138939D01*
X157772Y138874D01*
X157799Y138805D01*
X157837Y138736D01*
X157887Y138674D01*
X157895Y138667D01*
X157914Y138651D01*
X157945Y138624D01*
X157991Y138598D01*
X158045Y138571D01*
X158114Y138544D01*
X158190Y138528D01*
X158275Y138521D01*
X158302D01*
X158329Y138524D01*
X158367Y138528D01*
X158409Y138540D01*
X158455Y138551D01*
X158502Y138571D01*
X158548Y138594D01*
X158551Y138598D01*
X158567Y138605D01*
X158590Y138620D01*
X158617Y138640D01*
X158644Y138667D01*
X158674Y138697D01*
X158705Y138732D01*
X158732Y138770D01*
X159024Y138728D01*
X158778Y137434D01*
X157526D01*
Y137730D01*
X158532D01*
X158670Y138409D01*
X158667Y138406D01*
X158659Y138402D01*
X158647Y138394D01*
X158632Y138382D01*
X158609Y138371D01*
X158586Y138359D01*
X158525Y138329D01*
X158455Y138298D01*
X158375Y138275D01*
X158286Y138256D01*
X158194Y138248D01*
X158164D01*
X158141Y138252D01*
X158110Y138256D01*
X158079Y138260D01*
X158041Y138267D01*
X158002Y138275D01*
X157914Y138306D01*
X157868Y138321D01*
X157822Y138344D01*
X157772Y138371D01*
X157726Y138402D01*
X157680Y138436D01*
X157638Y138478D01*
X157634Y138482D01*
X157626Y138490D01*
X157614Y138502D01*
X157603Y138521D01*
X157584Y138544D01*
X157564Y138571D01*
X157545Y138601D01*
X157522Y138636D01*
X157499Y138678D01*
X157480Y138720D01*
X157461Y138770D01*
X157442Y138820D01*
X157430Y138878D01*
X157419Y138935D01*
X157411Y139001D01*
X157407Y139066D01*
Y139070D01*
Y139081D01*
Y139101D01*
X157411Y139124D01*
X157415Y139154D01*
X157419Y139189D01*
X157422Y139227D01*
X157430Y139269D01*
X157457Y139362D01*
X157492Y139458D01*
X157515Y139511D01*
X157542Y139561D01*
X157572Y139611D01*
X157607Y139657D01*
X157611Y139661D01*
X157618Y139669D01*
X157634Y139684D01*
X157653Y139703D01*
X157676Y139726D01*
X157707Y139753D01*
X157741Y139780D01*
X157783Y139807D01*
X157826Y139838D01*
X157876Y139865D01*
X157933Y139892D01*
X157991Y139915D01*
X158056Y139934D01*
X158121Y139949D01*
X158194Y139957D01*
X158271Y139961D01*
X158306D01*
X158329Y139957D01*
D02*
G37*
G36*
X162434D02*
X162468D01*
X162507Y139953D01*
X162553Y139945D01*
X162599Y139942D01*
X162706Y139918D01*
X162818Y139892D01*
X162925Y139849D01*
X162979Y139826D01*
X163029Y139796D01*
X163033Y139792D01*
X163040Y139788D01*
X163052Y139776D01*
X163071Y139765D01*
X163117Y139726D01*
X163171Y139673D01*
X163236Y139607D01*
X163298Y139523D01*
X163363Y139427D01*
X163417Y139316D01*
Y139312D01*
X163420Y139300D01*
X163428Y139285D01*
X163436Y139262D01*
X163447Y139231D01*
X163459Y139197D01*
X163470Y139158D01*
X163482Y139112D01*
X163494Y139066D01*
X163505Y139012D01*
X163528Y138897D01*
X163543Y138774D01*
X163547Y138640D01*
Y138636D01*
Y138620D01*
Y138601D01*
X163543Y138574D01*
Y138540D01*
X163540Y138498D01*
X163536Y138455D01*
X163528Y138406D01*
X163509Y138298D01*
X163486Y138183D01*
X163447Y138064D01*
X163398Y137952D01*
Y137949D01*
X163390Y137941D01*
X163382Y137926D01*
X163371Y137902D01*
X163355Y137879D01*
X163336Y137853D01*
X163286Y137787D01*
X163228Y137714D01*
X163155Y137641D01*
X163067Y137568D01*
X162971Y137507D01*
X162967D01*
X162960Y137499D01*
X162944Y137492D01*
X162921Y137484D01*
X162898Y137472D01*
X162868Y137457D01*
X162829Y137445D01*
X162791Y137430D01*
X162749Y137415D01*
X162702Y137403D01*
X162599Y137376D01*
X162484Y137361D01*
X162361Y137353D01*
X162322D01*
X162295Y137357D01*
X162265Y137361D01*
X162226Y137365D01*
X162184Y137369D01*
X162138Y137376D01*
X162038Y137399D01*
X161931Y137434D01*
X161877Y137457D01*
X161823Y137484D01*
X161773Y137515D01*
X161723Y137549D01*
X161719Y137553D01*
X161712Y137557D01*
X161700Y137568D01*
X161681Y137584D01*
X161662Y137603D01*
X161635Y137630D01*
X161608Y137657D01*
X161581Y137687D01*
X161550Y137726D01*
X161524Y137764D01*
X161493Y137810D01*
X161462Y137860D01*
X161435Y137910D01*
X161408Y137968D01*
X161362Y138091D01*
X161693Y138167D01*
Y138164D01*
X161696Y138156D01*
X161700Y138140D01*
X161708Y138121D01*
X161719Y138098D01*
X161731Y138071D01*
X161758Y138014D01*
X161792Y137949D01*
X161838Y137879D01*
X161888Y137818D01*
X161950Y137764D01*
X161958Y137760D01*
X161980Y137745D01*
X162015Y137726D01*
X162065Y137699D01*
X162123Y137676D01*
X162196Y137657D01*
X162276Y137641D01*
X162368Y137637D01*
X162395D01*
X162414Y137641D01*
X162441D01*
X162468Y137645D01*
X162537Y137657D01*
X162614Y137672D01*
X162695Y137699D01*
X162775Y137733D01*
X162852Y137780D01*
X162856D01*
X162860Y137787D01*
X162883Y137806D01*
X162917Y137837D01*
X162960Y137879D01*
X163002Y137933D01*
X163048Y137995D01*
X163090Y138071D01*
X163125Y138156D01*
Y138160D01*
X163129Y138167D01*
X163133Y138179D01*
X163136Y138198D01*
X163144Y138217D01*
X163148Y138244D01*
X163163Y138306D01*
X163179Y138379D01*
X163190Y138459D01*
X163198Y138548D01*
X163202Y138640D01*
Y138644D01*
Y138655D01*
Y138670D01*
Y138693D01*
X163198Y138720D01*
Y138755D01*
X163194Y138789D01*
X163190Y138828D01*
X163179Y138916D01*
X163163Y139012D01*
X163140Y139108D01*
X163110Y139200D01*
Y139204D01*
X163106Y139212D01*
X163098Y139223D01*
X163090Y139239D01*
X163071Y139285D01*
X163040Y139335D01*
X162998Y139396D01*
X162948Y139454D01*
X162891Y139511D01*
X162821Y139561D01*
X162818D01*
X162814Y139565D01*
X162802Y139573D01*
X162787Y139581D01*
X162745Y139596D01*
X162691Y139619D01*
X162629Y139638D01*
X162557Y139657D01*
X162476Y139673D01*
X162391Y139676D01*
X162364D01*
X162345Y139673D01*
X162322D01*
X162292Y139669D01*
X162226Y139657D01*
X162153Y139638D01*
X162073Y139607D01*
X161996Y139569D01*
X161919Y139515D01*
X161915Y139511D01*
X161911Y139508D01*
X161888Y139485D01*
X161854Y139446D01*
X161812Y139396D01*
X161769Y139327D01*
X161723Y139246D01*
X161685Y139147D01*
X161654Y139035D01*
X161320Y139120D01*
Y139124D01*
X161324Y139139D01*
X161331Y139158D01*
X161339Y139189D01*
X161355Y139220D01*
X161370Y139262D01*
X161385Y139304D01*
X161408Y139350D01*
X161458Y139454D01*
X161527Y139558D01*
X161604Y139657D01*
X161650Y139703D01*
X161700Y139746D01*
X161704Y139750D01*
X161712Y139753D01*
X161727Y139765D01*
X161750Y139780D01*
X161777Y139796D01*
X161808Y139815D01*
X161842Y139834D01*
X161884Y139853D01*
X161931Y139872D01*
X161980Y139892D01*
X162038Y139911D01*
X162096Y139926D01*
X162222Y139953D01*
X162292Y139957D01*
X162364Y139961D01*
X162403D01*
X162434Y139957D01*
D02*
G37*
G36*
X160179Y137945D02*
X160183Y137949D01*
X160199Y137964D01*
X160226Y137983D01*
X160260Y138010D01*
X160302Y138045D01*
X160352Y138079D01*
X160410Y138121D01*
X160475Y138160D01*
X160479D01*
X160483Y138164D01*
X160506Y138179D01*
X160540Y138198D01*
X160583Y138221D01*
X160633Y138248D01*
X160686Y138271D01*
X160744Y138298D01*
X160798Y138321D01*
Y138018D01*
X160794D01*
X160786Y138014D01*
X160771Y138006D01*
X160756Y137995D01*
X160732Y137983D01*
X160706Y137972D01*
X160644Y137937D01*
X160575Y137895D01*
X160498Y137845D01*
X160422Y137787D01*
X160348Y137726D01*
X160345Y137722D01*
X160341Y137718D01*
X160318Y137695D01*
X160283Y137661D01*
X160241Y137618D01*
X160195Y137565D01*
X160149Y137507D01*
X160107Y137445D01*
X160072Y137384D01*
X159869D01*
Y139918D01*
X160179D01*
Y137945D01*
D02*
G37*
G36*
X156628Y163877D02*
X156655Y163873D01*
X156689Y163869D01*
X156728Y163866D01*
X156770Y163858D01*
X156858Y163835D01*
X156950Y163800D01*
X156997Y163777D01*
X157043Y163750D01*
X157089Y163724D01*
X157131Y163689D01*
X157135Y163685D01*
X157139Y163681D01*
X157150Y163670D01*
X157166Y163654D01*
X157181Y163635D01*
X157200Y163612D01*
X157219Y163585D01*
X157242Y163555D01*
X157285Y163482D01*
X157327Y163393D01*
X157358Y163293D01*
X157369Y163236D01*
X157377Y163178D01*
X157050Y163155D01*
Y163159D01*
Y163167D01*
X157046Y163178D01*
X157043Y163194D01*
X157031Y163236D01*
X157016Y163290D01*
X156997Y163347D01*
X156966Y163405D01*
X156931Y163462D01*
X156885Y163512D01*
X156878Y163516D01*
X156862Y163531D01*
X156835Y163547D01*
X156797Y163570D01*
X156751Y163589D01*
X156697Y163608D01*
X156636Y163624D01*
X156570Y163628D01*
X156547D01*
X156532Y163624D01*
X156490Y163620D01*
X156436Y163608D01*
X156378Y163585D01*
X156313Y163558D01*
X156252Y163516D01*
X156221Y163493D01*
X156190Y163462D01*
Y163459D01*
X156183Y163455D01*
X156167Y163432D01*
X156140Y163393D01*
X156113Y163343D01*
X156087Y163278D01*
X156060Y163201D01*
X156044Y163113D01*
X156037Y163013D01*
Y163009D01*
Y163002D01*
Y162986D01*
X156040Y162971D01*
Y162948D01*
X156044Y162921D01*
X156056Y162859D01*
X156071Y162794D01*
X156098Y162725D01*
X156136Y162656D01*
X156186Y162594D01*
X156194Y162587D01*
X156213Y162572D01*
X156244Y162545D01*
X156290Y162518D01*
X156344Y162491D01*
X156413Y162464D01*
X156490Y162449D01*
X156574Y162441D01*
X156601D01*
X156628Y162445D01*
X156666Y162449D01*
X156709Y162460D01*
X156755Y162472D01*
X156801Y162491D01*
X156847Y162514D01*
X156851Y162518D01*
X156866Y162525D01*
X156889Y162541D01*
X156916Y162560D01*
X156943Y162587D01*
X156974Y162618D01*
X157004Y162652D01*
X157031Y162690D01*
X157323Y162648D01*
X157077Y161354D01*
X155825D01*
Y161650D01*
X156832D01*
X156970Y162330D01*
X156966Y162326D01*
X156958Y162322D01*
X156947Y162314D01*
X156931Y162303D01*
X156908Y162291D01*
X156885Y162280D01*
X156824Y162249D01*
X156755Y162218D01*
X156674Y162195D01*
X156586Y162176D01*
X156494Y162168D01*
X156463D01*
X156440Y162172D01*
X156409Y162176D01*
X156378Y162180D01*
X156340Y162188D01*
X156302Y162195D01*
X156213Y162226D01*
X156167Y162241D01*
X156121Y162264D01*
X156071Y162291D01*
X156025Y162322D01*
X155979Y162356D01*
X155937Y162399D01*
X155933Y162402D01*
X155925Y162410D01*
X155914Y162422D01*
X155902Y162441D01*
X155883Y162464D01*
X155864Y162491D01*
X155845Y162522D01*
X155822Y162556D01*
X155798Y162598D01*
X155779Y162641D01*
X155760Y162690D01*
X155741Y162741D01*
X155729Y162798D01*
X155718Y162856D01*
X155710Y162921D01*
X155706Y162986D01*
Y162990D01*
Y163002D01*
Y163021D01*
X155710Y163044D01*
X155714Y163075D01*
X155718Y163109D01*
X155722Y163147D01*
X155729Y163190D01*
X155756Y163282D01*
X155791Y163378D01*
X155814Y163432D01*
X155841Y163482D01*
X155871Y163531D01*
X155906Y163578D01*
X155910Y163581D01*
X155918Y163589D01*
X155933Y163604D01*
X155952Y163624D01*
X155975Y163647D01*
X156006Y163674D01*
X156040Y163700D01*
X156083Y163727D01*
X156125Y163758D01*
X156175Y163785D01*
X156232Y163812D01*
X156290Y163835D01*
X156355Y163854D01*
X156421Y163869D01*
X156494Y163877D01*
X156570Y163881D01*
X156605D01*
X156628Y163877D01*
D02*
G37*
G36*
X160733D02*
X160767D01*
X160806Y163873D01*
X160852Y163866D01*
X160898Y163862D01*
X161006Y163839D01*
X161117Y163812D01*
X161224Y163770D01*
X161278Y163747D01*
X161328Y163716D01*
X161332Y163712D01*
X161340Y163708D01*
X161351Y163697D01*
X161370Y163685D01*
X161416Y163647D01*
X161470Y163593D01*
X161536Y163528D01*
X161597Y163443D01*
X161662Y163347D01*
X161716Y163236D01*
Y163232D01*
X161720Y163221D01*
X161727Y163205D01*
X161735Y163182D01*
X161747Y163151D01*
X161758Y163117D01*
X161770Y163078D01*
X161781Y163032D01*
X161793Y162986D01*
X161804Y162932D01*
X161827Y162817D01*
X161843Y162694D01*
X161846Y162560D01*
Y162556D01*
Y162541D01*
Y162522D01*
X161843Y162495D01*
Y162460D01*
X161839Y162418D01*
X161835Y162376D01*
X161827Y162326D01*
X161808Y162218D01*
X161785Y162103D01*
X161747Y161984D01*
X161697Y161873D01*
Y161869D01*
X161689Y161861D01*
X161681Y161846D01*
X161670Y161823D01*
X161654Y161800D01*
X161635Y161773D01*
X161585Y161707D01*
X161528Y161635D01*
X161455Y161562D01*
X161366Y161489D01*
X161270Y161427D01*
X161267D01*
X161259Y161419D01*
X161244Y161412D01*
X161221Y161404D01*
X161198Y161393D01*
X161167Y161377D01*
X161128Y161366D01*
X161090Y161350D01*
X161048Y161335D01*
X161002Y161323D01*
X160898Y161297D01*
X160783Y161281D01*
X160660Y161274D01*
X160622D01*
X160595Y161277D01*
X160564Y161281D01*
X160526Y161285D01*
X160483Y161289D01*
X160437Y161297D01*
X160337Y161320D01*
X160230Y161354D01*
X160176Y161377D01*
X160122Y161404D01*
X160072Y161435D01*
X160022Y161469D01*
X160019Y161473D01*
X160011Y161477D01*
X160000Y161489D01*
X159980Y161504D01*
X159961Y161523D01*
X159934Y161550D01*
X159907Y161577D01*
X159880Y161608D01*
X159850Y161646D01*
X159823Y161684D01*
X159792Y161731D01*
X159761Y161780D01*
X159734Y161830D01*
X159708Y161888D01*
X159662Y162011D01*
X159992Y162088D01*
Y162084D01*
X159996Y162076D01*
X160000Y162061D01*
X160007Y162042D01*
X160019Y162019D01*
X160030Y161992D01*
X160057Y161934D01*
X160092Y161869D01*
X160138Y161800D01*
X160188Y161738D01*
X160249Y161684D01*
X160257Y161681D01*
X160280Y161665D01*
X160314Y161646D01*
X160364Y161619D01*
X160422Y161596D01*
X160495Y161577D01*
X160575Y161562D01*
X160668Y161558D01*
X160695D01*
X160714Y161562D01*
X160741D01*
X160767Y161565D01*
X160837Y161577D01*
X160913Y161592D01*
X160994Y161619D01*
X161075Y161654D01*
X161152Y161700D01*
X161155D01*
X161159Y161707D01*
X161182Y161727D01*
X161217Y161757D01*
X161259Y161800D01*
X161301Y161853D01*
X161347Y161915D01*
X161390Y161992D01*
X161424Y162076D01*
Y162080D01*
X161428Y162088D01*
X161432Y162099D01*
X161436Y162118D01*
X161443Y162138D01*
X161447Y162164D01*
X161462Y162226D01*
X161478Y162299D01*
X161489Y162380D01*
X161497Y162468D01*
X161501Y162560D01*
Y162564D01*
Y162575D01*
Y162591D01*
Y162614D01*
X161497Y162641D01*
Y162675D01*
X161493Y162710D01*
X161489Y162748D01*
X161478Y162836D01*
X161462Y162932D01*
X161440Y163028D01*
X161409Y163121D01*
Y163125D01*
X161405Y163132D01*
X161397Y163144D01*
X161390Y163159D01*
X161370Y163205D01*
X161340Y163255D01*
X161297Y163317D01*
X161248Y163374D01*
X161190Y163432D01*
X161121Y163482D01*
X161117D01*
X161113Y163485D01*
X161102Y163493D01*
X161086Y163501D01*
X161044Y163516D01*
X160990Y163539D01*
X160929Y163558D01*
X160856Y163578D01*
X160775Y163593D01*
X160691Y163597D01*
X160664D01*
X160645Y163593D01*
X160622D01*
X160591Y163589D01*
X160526Y163578D01*
X160453Y163558D01*
X160372Y163528D01*
X160295Y163489D01*
X160218Y163435D01*
X160214Y163432D01*
X160211Y163428D01*
X160188Y163405D01*
X160153Y163366D01*
X160111Y163317D01*
X160069Y163247D01*
X160022Y163167D01*
X159984Y163067D01*
X159953Y162955D01*
X159619Y163040D01*
Y163044D01*
X159623Y163059D01*
X159631Y163078D01*
X159639Y163109D01*
X159654Y163140D01*
X159669Y163182D01*
X159685Y163224D01*
X159708Y163270D01*
X159758Y163374D01*
X159827Y163478D01*
X159904Y163578D01*
X159950Y163624D01*
X160000Y163666D01*
X160003Y163670D01*
X160011Y163674D01*
X160026Y163685D01*
X160049Y163700D01*
X160076Y163716D01*
X160107Y163735D01*
X160142Y163754D01*
X160184Y163773D01*
X160230Y163793D01*
X160280Y163812D01*
X160337Y163831D01*
X160395Y163846D01*
X160522Y163873D01*
X160591Y163877D01*
X160664Y163881D01*
X160702D01*
X160733Y163877D01*
D02*
G37*
G36*
X159377Y163835D02*
Y163820D01*
Y163796D01*
X159374Y163770D01*
X159370Y163739D01*
X159366Y163704D01*
X159354Y163666D01*
X159343Y163628D01*
Y163624D01*
X159339Y163620D01*
X159331Y163597D01*
X159316Y163566D01*
X159293Y163520D01*
X159266Y163470D01*
X159228Y163412D01*
X159189Y163355D01*
X159139Y163293D01*
Y163290D01*
X159132Y163286D01*
X159112Y163263D01*
X159082Y163228D01*
X159036Y163182D01*
X158978Y163128D01*
X158909Y163063D01*
X158824Y162990D01*
X158732Y162909D01*
X158728Y162906D01*
X158713Y162894D01*
X158694Y162879D01*
X158667Y162852D01*
X158632Y162825D01*
X158594Y162790D01*
X158510Y162717D01*
X158417Y162629D01*
X158325Y162541D01*
X158279Y162498D01*
X158241Y162456D01*
X158206Y162414D01*
X158176Y162376D01*
Y162372D01*
X158168Y162368D01*
X158160Y162356D01*
X158152Y162341D01*
X158129Y162303D01*
X158103Y162253D01*
X158076Y162195D01*
X158053Y162134D01*
X158037Y162065D01*
X158030Y161999D01*
Y161995D01*
Y161992D01*
X158033Y161969D01*
X158037Y161934D01*
X158045Y161892D01*
X158064Y161842D01*
X158087Y161792D01*
X158118Y161738D01*
X158164Y161688D01*
X158172Y161684D01*
X158187Y161669D01*
X158218Y161650D01*
X158256Y161623D01*
X158306Y161600D01*
X158364Y161581D01*
X158433Y161565D01*
X158510Y161562D01*
X158533D01*
X158548Y161565D01*
X158586Y161569D01*
X158636Y161577D01*
X158694Y161596D01*
X158755Y161619D01*
X158813Y161654D01*
X158867Y161700D01*
X158870Y161707D01*
X158886Y161723D01*
X158909Y161754D01*
X158932Y161796D01*
X158959Y161850D01*
X158978Y161911D01*
X158993Y161984D01*
X159001Y162068D01*
X159320Y162034D01*
Y162030D01*
Y162019D01*
X159316Y161999D01*
X159312Y161976D01*
X159304Y161946D01*
X159301Y161911D01*
X159278Y161834D01*
X159247Y161746D01*
X159205Y161658D01*
X159147Y161569D01*
X159116Y161531D01*
X159078Y161493D01*
X159074Y161489D01*
X159066Y161485D01*
X159055Y161473D01*
X159039Y161462D01*
X159016Y161450D01*
X158990Y161431D01*
X158959Y161416D01*
X158924Y161397D01*
X158886Y161381D01*
X158844Y161362D01*
X158794Y161346D01*
X158744Y161335D01*
X158629Y161312D01*
X158567Y161308D01*
X158502Y161304D01*
X158467D01*
X158440Y161308D01*
X158410Y161312D01*
X158375Y161316D01*
X158337Y161320D01*
X158294Y161331D01*
X158202Y161354D01*
X158106Y161389D01*
X158056Y161412D01*
X158010Y161439D01*
X157968Y161473D01*
X157926Y161508D01*
X157922Y161512D01*
X157918Y161515D01*
X157907Y161527D01*
X157891Y161542D01*
X157876Y161565D01*
X157857Y161588D01*
X157818Y161646D01*
X157780Y161719D01*
X157745Y161803D01*
X157719Y161899D01*
X157715Y161953D01*
X157711Y162007D01*
Y162015D01*
Y162034D01*
X157715Y162065D01*
X157719Y162103D01*
X157726Y162149D01*
X157738Y162199D01*
X157753Y162253D01*
X157776Y162306D01*
X157780Y162314D01*
X157788Y162333D01*
X157803Y162360D01*
X157826Y162399D01*
X157853Y162445D01*
X157887Y162498D01*
X157934Y162552D01*
X157984Y162614D01*
X157991Y162621D01*
X158010Y162645D01*
X158045Y162679D01*
X158068Y162702D01*
X158095Y162729D01*
X158126Y162760D01*
X158164Y162794D01*
X158202Y162829D01*
X158245Y162871D01*
X158291Y162913D01*
X158344Y162959D01*
X158398Y163005D01*
X158460Y163059D01*
X158464Y163063D01*
X158471Y163071D01*
X158486Y163082D01*
X158506Y163098D01*
X158552Y163136D01*
X158609Y163186D01*
X158667Y163240D01*
X158728Y163293D01*
X158778Y163339D01*
X158798Y163359D01*
X158817Y163378D01*
X158821Y163382D01*
X158828Y163393D01*
X158844Y163409D01*
X158863Y163432D01*
X158905Y163482D01*
X158947Y163543D01*
X157707D01*
Y163839D01*
X159377D01*
Y163835D01*
D02*
G37*
%LPC*%
G36*
X127263Y112602D02*
X126568Y112341D01*
X126565D01*
X126553Y112337D01*
X126538Y112329D01*
X126515Y112321D01*
X126488Y112310D01*
X126457Y112299D01*
X126384Y112276D01*
X126300Y112245D01*
X126211Y112214D01*
X126123Y112187D01*
X126038Y112160D01*
X126042D01*
X126050Y112156D01*
X126061D01*
X126081Y112153D01*
X126104Y112145D01*
X126131Y112137D01*
X126192Y112122D01*
X126269Y112103D01*
X126349Y112080D01*
X126438Y112053D01*
X126526Y112022D01*
X127263Y111746D01*
Y112602D01*
D02*
G37*
G36*
X151657Y200441D02*
X151545D01*
X151538D01*
X151518D01*
X151488D01*
X151445Y200437D01*
X151395D01*
X151338Y200433D01*
X151277Y200429D01*
X151207Y200422D01*
X151069Y200406D01*
X150935Y200379D01*
X150869Y200364D01*
X150812Y200345D01*
X150762Y200322D01*
X150720Y200295D01*
X150716D01*
X150712Y200287D01*
X150689Y200268D01*
X150654Y200237D01*
X150616Y200195D01*
X150578Y200141D01*
X150543Y200080D01*
X150520Y200011D01*
X150516Y199972D01*
X150512Y199934D01*
Y199915D01*
X150516Y199899D01*
X150520Y199861D01*
X150535Y199811D01*
X150558Y199757D01*
X150589Y199700D01*
X150635Y199642D01*
X150666Y199615D01*
X150697Y199592D01*
X150700D01*
X150708Y199584D01*
X150724Y199577D01*
X150743Y199569D01*
X150770Y199557D01*
X150800Y199542D01*
X150843Y199527D01*
X150889Y199515D01*
X150942Y199500D01*
X151004Y199485D01*
X151073Y199473D01*
X151154Y199458D01*
X151238Y199450D01*
X151330Y199442D01*
X151434Y199435D01*
X151545D01*
X151553D01*
X151572D01*
X151603D01*
X151645Y199439D01*
X151695D01*
X151753Y199442D01*
X151818Y199446D01*
X151883Y199454D01*
X152021Y199469D01*
X152160Y199496D01*
X152221Y199511D01*
X152279Y199531D01*
X152332Y199554D01*
X152375Y199577D01*
X152378D01*
X152382Y199584D01*
X152405Y199604D01*
X152440Y199634D01*
X152474Y199677D01*
X152513Y199730D01*
X152548Y199792D01*
X152571Y199861D01*
X152574Y199899D01*
X152578Y199938D01*
Y199957D01*
X152574Y199972D01*
X152567Y200011D01*
X152551Y200061D01*
X152528Y200118D01*
X152494Y200176D01*
X152471Y200206D01*
X152440Y200237D01*
X152409Y200268D01*
X152375Y200295D01*
X152371D01*
X152363Y200303D01*
X152352Y200310D01*
X152332Y200318D01*
X152309Y200329D01*
X152275Y200341D01*
X152236Y200352D01*
X152194Y200368D01*
X152140Y200383D01*
X152083Y200395D01*
X152014Y200406D01*
X151937Y200418D01*
X151853Y200429D01*
X151760Y200433D01*
X151657Y200441D01*
D02*
G37*
G36*
X150958Y196416D02*
X150954D01*
X150950D01*
X150927D01*
X150896Y196409D01*
X150854Y196401D01*
X150808Y196386D01*
X150758Y196363D01*
X150708Y196328D01*
X150662Y196286D01*
X150658Y196278D01*
X150643Y196263D01*
X150624Y196228D01*
X150604Y196186D01*
X150581Y196128D01*
X150566Y196059D01*
X150551Y195975D01*
X150547Y195875D01*
Y195080D01*
X151380D01*
Y195833D01*
X151376Y195875D01*
X151373Y195925D01*
X151369Y195983D01*
X151361Y196044D01*
X151349Y196101D01*
X151334Y196151D01*
X151330Y196159D01*
X151326Y196175D01*
X151315Y196197D01*
X151300Y196224D01*
X151277Y196255D01*
X151250Y196290D01*
X151219Y196320D01*
X151184Y196347D01*
X151181Y196351D01*
X151165Y196359D01*
X151146Y196370D01*
X151115Y196382D01*
X151084Y196393D01*
X151046Y196405D01*
X151004Y196413D01*
X150958Y196416D01*
D02*
G37*
%LPD*%
D10*
X120669Y89370D02*
X134449D01*
Y132677D01*
X120669D02*
X134449D01*
X120669Y89370D02*
Y132677D01*
X151355Y191848D02*
X154308D01*
Y197645D01*
X151355D02*
X154308D01*
X151355Y191848D02*
Y197645D01*
X158948Y169508D02*
X164745D01*
X158948D02*
Y172461D01*
X164745D01*
Y169508D02*
Y172461D01*
X160649Y138484D02*
X166446D01*
X160649D02*
Y141437D01*
X166446D01*
Y138484D02*
Y141437D01*
X158948Y162405D02*
X164745D01*
X158948D02*
Y165357D01*
X164745D01*
Y162405D02*
Y165357D01*
M02*
