M48
;Layer_Color=9474304
;FILE_FORMAT=2:4
INCH,TZ
;TYPE=PLATED
T1F00S00C0.0079
T3F00S00C0.0374
T4F00S00C0.1260
%
T01
X11260Y8976
Y9331
Y9685
Y10079
Y10433
Y10827
Y11220
Y11614
Y12008
Y12402
Y12795
Y13189
X11417Y13583
X11811
X12205
X12598
X12992
X13386
X13780
X14173
Y13189
Y12795
Y12402
Y12008
Y11614
Y11220
Y10827
Y10433
Y10039
Y9646
Y9252
Y8858
X13937Y8661
X13583
X13189
X12795
X12402
X12008
X11654
X12087Y9291
X12598Y15244
X13032Y15232
X14114Y15492
X11024Y14961
X10433
X10039
Y15354
X15967Y15305
X16225Y15380
X16395Y15201
X16358Y14451
X16586Y14357
X17299Y14270
X17579Y14065
X17520Y14547
X17490Y14975
X17341Y15098
X17683Y15395
X17779Y15622
X18264Y15445
X19017Y15466
X19265Y15552
X19313Y15116
X19396Y14718
X19405Y14471
X19602Y14322
X20086Y14311
X20600Y14291
X21457Y14370
Y14764
Y15157
Y15551
Y13976
Y13583
Y13189
Y12402
Y12008
Y11614
Y11220
Y10827
Y10039
Y9646
Y9252
Y8858
Y8465
Y8110
X21063Y8112
X20669Y8110
X20433Y8189
Y8465
X20423Y8819
Y9114
Y9409
X20276Y10197
X20876Y10049
X20354Y11071
X19528Y10276
X18091Y10709
X17569
X16604Y10699
X15748Y10630
Y10236
Y9843
Y9449
Y9055
Y8661
Y8346
X16014Y8122
X16407
X16801
X17195
X17283Y8465
Y8789
Y9075
X17274Y9360
X16883Y11684
X15748Y11811
Y12205
Y12598
X16160Y12784
X16162Y13566
X15748Y13780
Y14173
X17087Y13239
X17738Y13501
X18602Y13485
X19379Y13432
X19637Y13515
X20689Y13150
X20412Y12677
X19954Y15049
X19906Y15292
X18526Y14729
X18346Y14528
X15748Y11417
Y11024
X15924Y15767
X16594Y15945
X16919Y15940
X17155Y16015
X17431Y15645
X17815Y15906
X18022Y15718
X18518Y15752
X18937Y16100
X18986Y16497
X18712Y16512
X18856Y16720
X18681Y17195
X18691Y17618
X19321Y17913
X19872Y17972
X19744Y16880
X20039Y16752
X20630Y16555
Y15984
X19840Y15951
X21457Y15945
Y16339
Y16732
Y17126
Y17520
Y17913
Y18307
Y18701
Y19094
Y19488
Y20276
Y20866
Y21260
Y21654
X21063
X20669
X20390Y20316
X19961Y20079
X19606Y19921
X19600Y20230
X19341Y18967
X17756Y18346
X16841Y18514
X16319Y18986
X16486Y19188
X15797Y19213
X15876Y19468
X15770Y20430
X16550Y20220
X16654Y21654
X16260
X15906
X17047
X17441
X16780Y17370
X16534Y16832
X16287Y16827
X15650Y17402
X15790Y17650
X16160Y17920
X15669Y18327
X15479Y18926
X14810Y18278
Y17844
X14377
Y18278
X13944
Y17844
X13511
Y18278
Y17411
Y16978
X13944
Y17411
X14377
Y16978
X14810
Y17411
X14570Y16139
X14667Y15650
X15000Y15679
X12621Y16514
X12441Y16791
X12047Y17224
X11821Y17638
X11427Y17825
X10896Y18607
X10748Y19331
X10039Y19882
Y20276
Y20669
Y21063
Y21457
X10236Y21654
X10591
X10906
X12315Y20140
X12562
X13050Y20020
X13650Y20180
X13685Y19102
X13932Y19242
X14054Y19470
X14348Y19377
X14575Y19476
X15124Y19891
X15110Y20810
X15118Y21654
X15512
X14724
X14370
X14055
X13041Y18829
X12355Y18457
X12530Y17606
X11142Y15947
X10039Y16024
Y16457
T03
X8488Y10260
Y11260
Y12260
Y13260
Y14260
Y15260
X9488
Y14260
Y13260
Y12260
Y11260
Y10260
X22032
Y11260
Y12260
Y13260
Y14260
Y15260
X23031
Y14260
Y13260
Y12260
Y11260
Y10260
Y16260
Y17260
Y18260
Y19260
Y20260
Y21260
X22032
Y20260
Y19260
Y18260
Y17260
Y16260
X9488
Y17260
Y18260
Y19260
Y20260
Y21260
X8488
Y20260
Y19260
Y18260
Y17260
Y16260
T04
X8780Y8780
X22717
Y22717
X8780
M30
