G04*
G04 #@! TF.GenerationSoftware,Altium Limited,Altium Designer,22.11.1 (43)*
G04*
G04 Layer_Color=16711935*
%FSLAX25Y25*%
%MOIN*%
G70*
G04*
G04 #@! TF.SameCoordinates,40CF40E7-FDA6-4BEF-B87F-FA6DAB628F73*
G04*
G04*
G04 #@! TF.FilePolarity,Positive*
G04*
G01*
G75*
%ADD10C,0.00787*%
%ADD12C,0.00394*%
%ADD14C,0.01000*%
%ADD15C,0.00500*%
D10*
X197509Y169673D02*
X196721D01*
X197509D01*
X188996Y96535D02*
X188209D01*
X188996D01*
D12*
X151845Y168012D02*
X151581Y168996D01*
X150860Y169716D01*
X149876Y169980D01*
X148892Y169716D01*
X148171Y168996D01*
X147908Y168012D01*
X148171Y167027D01*
X148892Y166307D01*
X149876Y166043D01*
X150860Y166307D01*
X151581Y167027D01*
X151845Y168012D01*
X115059Y92913D02*
X114935Y93893D01*
X114572Y94810D01*
X113992Y95609D01*
X113232Y96238D01*
X112339Y96658D01*
X111369Y96843D01*
X110384Y96781D01*
X109446Y96476D01*
X108612Y95947D01*
X107937Y95227D01*
X107461Y94363D01*
X107216Y93407D01*
Y92420D01*
X107461Y91464D01*
X107937Y90599D01*
X108612Y89880D01*
X109446Y89351D01*
X110384Y89046D01*
X111369Y88984D01*
X112339Y89169D01*
X113232Y89589D01*
X113992Y90218D01*
X114572Y91017D01*
X114935Y91934D01*
X115059Y92913D01*
X124213Y179232D02*
Y181398D01*
X120079Y179232D02*
Y181398D01*
Y179232D02*
X124213D01*
X120079Y181398D02*
X124213D01*
X173819Y195908D02*
Y198271D01*
X169488Y195908D02*
Y198271D01*
X173819D01*
X169488Y195908D02*
X173819D01*
X171752Y179528D02*
Y186417D01*
X183760Y179528D02*
Y186417D01*
X171752D02*
X183760D01*
X171752Y179528D02*
X183760D01*
X168012Y177461D02*
Y182185D01*
X170768Y177461D02*
Y182185D01*
X168012Y177461D02*
X170768D01*
X168012Y182185D02*
X170768D01*
X198819Y145669D02*
Y149803D01*
X196654Y145669D02*
Y149803D01*
Y145669D02*
X198819D01*
X196654Y149803D02*
X198819D01*
X180724Y130135D02*
Y133678D01*
X174031Y130135D02*
Y133678D01*
X180724D01*
X174031Y130135D02*
X180724D01*
X200945Y78740D02*
X200984Y93740D01*
X175984D02*
X200984D01*
X175984D02*
X176024Y78740D01*
X200945D02*
X208169D01*
X176024D02*
X200945D01*
X168799D02*
X176024D01*
Y41260D02*
Y78740D01*
Y41260D02*
X200945D01*
Y78740D01*
X170321Y147343D02*
X171699D01*
X170321Y149902D02*
X171699D01*
X170321Y147343D02*
Y149902D01*
X171699Y147343D02*
Y149902D01*
X153419Y166437D02*
Y186122D01*
X151451Y188091D02*
X153419Y186122D01*
X131766Y188091D02*
X151451D01*
X129797Y186122D02*
X131766Y188091D01*
X129797Y166437D02*
Y186122D01*
Y166437D02*
X131766Y164469D01*
X151451D01*
X153419Y166437D01*
X114144Y166761D02*
Y168927D01*
X118278Y166761D02*
Y168927D01*
X114144Y166761D02*
X118278D01*
X114144Y168927D02*
X118278D01*
X167844Y145737D02*
Y150068D01*
X165481Y145737D02*
Y150068D01*
X167844D01*
X165481Y145737D02*
X167844D01*
X106005Y87797D02*
Y98032D01*
Y87797D02*
X116240D01*
Y98032D01*
X106005D02*
X116240D01*
X200253Y155078D02*
Y157243D01*
X196119Y155078D02*
Y157243D01*
X200253D01*
X196119Y155078D02*
X200253D01*
X200965Y147064D02*
X204508D01*
X200965Y153757D02*
X204508D01*
X200965Y147064D02*
Y153757D01*
X204508Y147064D02*
Y153757D01*
X200965Y139567D02*
X204508D01*
X200965Y132874D02*
X204508D01*
Y139567D01*
X200965Y132874D02*
Y139567D01*
X172439Y162303D02*
Y164468D01*
X168305Y162303D02*
Y164468D01*
Y162303D02*
X172439D01*
X168305Y164468D02*
X172439D01*
X172439Y167832D02*
Y169997D01*
X168305Y167832D02*
Y169997D01*
Y167832D02*
X172439D01*
X168305Y169997D02*
X172439D01*
X148917Y151991D02*
Y154747D01*
X144193Y151991D02*
Y154747D01*
Y151991D02*
X148917D01*
X144193Y154747D02*
X148917D01*
X104823Y180709D02*
X111713D01*
X104823Y192717D02*
X111713D01*
Y180709D02*
Y192717D01*
X104823Y180709D02*
Y192717D01*
X151086Y192618D02*
Y194783D01*
X155219Y192618D02*
Y194783D01*
X151086Y192618D02*
X155219D01*
X151086Y194783D02*
X155219D01*
X159841Y130135D02*
X166534D01*
X159841Y133678D02*
X166534D01*
X159841Y130135D02*
Y133678D01*
X166534Y130135D02*
Y133678D01*
D14*
X205429Y79521D02*
Y81920D01*
X206629D01*
X207029Y81521D01*
Y80721D01*
X206629Y80321D01*
X205429D01*
X209428Y81521D02*
X209028Y81920D01*
X208228D01*
X207828Y81521D01*
Y79921D01*
X208228Y79521D01*
X209028D01*
X209428Y79921D01*
X210228Y81920D02*
Y79521D01*
X211427D01*
X211827Y79921D01*
Y80321D01*
X211427Y80721D01*
X210228D01*
X211427D01*
X211827Y81121D01*
Y81521D01*
X211427Y81920D01*
X210228D01*
X216626D02*
X215026D01*
Y79521D01*
X216626D01*
X215026Y80721D02*
X215826D01*
X217425Y81920D02*
Y79521D01*
X218625D01*
X219025Y79921D01*
Y81521D01*
X218625Y81920D01*
X217425D01*
X221424Y81521D02*
X221024Y81920D01*
X220224D01*
X219825Y81521D01*
Y79921D01*
X220224Y79521D01*
X221024D01*
X221424Y79921D01*
Y80721D01*
X220624D01*
X223823Y81920D02*
X222224D01*
Y79521D01*
X223823D01*
X222224Y80721D02*
X223024D01*
D15*
X195945Y97323D02*
Y99528D01*
Y97323D02*
X200118D01*
Y99528D01*
X195945D02*
X200118D01*
X152835Y209173D02*
X155039D01*
Y205000D02*
Y209173D01*
X152835Y205000D02*
X155039D01*
X152835D02*
Y209173D01*
X164252Y209173D02*
X166457D01*
Y205000D02*
Y209173D01*
X164252Y205000D02*
X166457D01*
X164252D02*
Y209173D01*
X180186Y158256D02*
Y170461D01*
Y158256D02*
X199084D01*
X180186Y170461D02*
X199084D01*
Y158256D02*
Y170461D01*
X181360Y140925D02*
Y143130D01*
X177186D02*
X181360D01*
X177186Y140925D02*
Y143130D01*
Y140925D02*
X181360D01*
X162323Y146699D02*
Y150872D01*
X160118Y146699D02*
X162323D01*
X160118D02*
Y150872D01*
X162323D01*
X194724Y118130D02*
X201811D01*
X194724Y114350D02*
X201811D01*
X194724D02*
Y118130D01*
X201811Y114350D02*
Y118130D01*
X190036Y121143D02*
Y128229D01*
X186257Y121143D02*
Y128229D01*
X190036D01*
X186257Y121143D02*
X190036D01*
X172244Y115531D02*
X179331D01*
X172244Y119311D02*
X179331D01*
Y115531D02*
Y119311D01*
X172244Y115531D02*
Y119311D01*
X168963Y141704D02*
X171167D01*
Y137531D02*
Y141704D01*
X168963Y137531D02*
X171167D01*
X168963D02*
Y141704D01*
X163290Y129820D02*
Y133993D01*
Y129820D02*
X165495D01*
Y133993D01*
X163290D02*
X165495D01*
X202677Y121887D02*
Y126060D01*
X200472D02*
X202677D01*
X200472Y121887D02*
Y126060D01*
Y121887D02*
X202677D01*
X168504Y148901D02*
X172677D01*
Y146696D02*
Y148901D01*
X168504Y146696D02*
X172677D01*
X168504D02*
Y148901D01*
X187323Y147191D02*
X191496D01*
X187323D02*
Y149396D01*
X191496D01*
Y147191D02*
Y149396D01*
X185078Y141741D02*
X189251D01*
X185078D02*
Y143946D01*
X189251D01*
Y141741D02*
Y143946D01*
X167894Y154350D02*
X172067D01*
Y152146D02*
Y154350D01*
X167894Y152146D02*
X172067D01*
X167894D02*
Y154350D01*
X201457Y159364D02*
X203662D01*
X201457D02*
Y163537D01*
X203662D01*
Y159364D02*
Y163537D01*
X143780Y157756D02*
X147953D01*
Y159961D01*
X143780D02*
X147953D01*
X143780Y157756D02*
Y159961D01*
X164980Y177736D02*
Y181910D01*
X162776D02*
X164980D01*
X162776Y177736D02*
Y181910D01*
Y177736D02*
X164980D01*
X159429Y174194D02*
X163602D01*
Y171989D02*
Y174194D01*
X159429Y171989D02*
X163602D01*
X159429D02*
Y174194D01*
X137258Y154041D02*
X141431D01*
X137258D02*
Y156246D01*
X141431D01*
Y154041D02*
Y156246D01*
X164037Y161693D02*
Y165866D01*
X166242D01*
Y161693D02*
Y165866D01*
X164037Y161693D02*
X166242D01*
X151670Y157779D02*
X155844D01*
Y159983D01*
X151670D02*
X155844D01*
X151670Y157779D02*
Y159983D01*
X166758Y157697D02*
X170931D01*
X166758Y155492D02*
Y157697D01*
Y155492D02*
X170931D01*
Y157697D01*
M02*
