G04*
G04 #@! TF.GenerationSoftware,Altium Limited,Altium Designer,22.11.1 (43)*
G04*
G04 Layer_Color=16711935*
%FSLAX25Y25*%
%MOIN*%
G70*
G04*
G04 #@! TF.SameCoordinates,40CF40E7-FDA6-4BEF-B87F-FA6DAB628F73*
G04*
G04*
G04 #@! TF.FilePolarity,Positive*
G04*
G01*
G75*
%ADD14C,0.01000*%
%ADD123R,0.27559X0.22244*%
D14*
X87795Y236221D02*
X86781Y236163D01*
X85780Y235993D01*
X84805Y235712D01*
X83866Y235324D01*
X82978Y234833D01*
X82149Y234245D01*
X81392Y233568D01*
X80716Y232811D01*
X80128Y231983D01*
X79637Y231094D01*
X79248Y230156D01*
X78967Y229180D01*
X78797Y228179D01*
X78740Y227165D01*
X236221D02*
X236163Y228179D01*
X235993Y229180D01*
X235712Y230156D01*
X235324Y231094D01*
X234833Y231983D01*
X234245Y232811D01*
X233568Y233568D01*
X232811Y234245D01*
X231983Y234833D01*
X231094Y235324D01*
X230156Y235712D01*
X229180Y235993D01*
X228179Y236163D01*
X227165Y236221D01*
Y78740D02*
X228179Y78797D01*
X229180Y78967D01*
X230156Y79248D01*
X231094Y79637D01*
X231983Y80128D01*
X232811Y80716D01*
X233568Y81392D01*
X234245Y82149D01*
X234833Y82978D01*
X235324Y83866D01*
X235712Y84804D01*
X235993Y85780D01*
X236163Y86781D01*
X236221Y87795D01*
X78740Y87795D02*
X78797Y86781D01*
X78967Y85780D01*
X79248Y84805D01*
X79637Y83866D01*
X80128Y82978D01*
X80716Y82149D01*
X81392Y81392D01*
X82149Y80716D01*
X82978Y80128D01*
X83866Y79637D01*
X84805Y79248D01*
X85780Y78967D01*
X86781Y78797D01*
X87795Y78740D01*
Y236221D02*
X227165D01*
X78740Y87795D02*
Y227165D01*
X236221Y87795D02*
Y227165D01*
X87795Y78740D02*
X227165D01*
D123*
X190157Y223799D02*
D03*
X124803Y223406D02*
D03*
M02*
