G04*
G04 #@! TF.GenerationSoftware,Altium Limited,Altium Designer,22.11.1 (43)*
G04*
G04 Layer_Physical_Order=4*
G04 Layer_Color=16711680*
%FSLAX25Y25*%
%MOIN*%
G70*
G04*
G04 #@! TF.SameCoordinates,40CF40E7-FDA6-4BEF-B87F-FA6DAB628F73*
G04*
G04*
G04 #@! TF.FilePolarity,Positive*
G04*
G01*
G75*
%ADD10C,0.00787*%
%ADD14C,0.01000*%
%ADD16R,0.02756X0.02559*%
G04:AMPARAMS|DCode=17|XSize=23.62mil|YSize=21.26mil|CornerRadius=5.63mil|HoleSize=0mil|Usage=FLASHONLY|Rotation=180.000|XOffset=0mil|YOffset=0mil|HoleType=Round|Shape=RoundedRectangle|*
%AMROUNDEDRECTD17*
21,1,0.02362,0.00999,0,0,180.0*
21,1,0.01235,0.02126,0,0,180.0*
1,1,0.01127,-0.00618,0.00500*
1,1,0.01127,0.00618,0.00500*
1,1,0.01127,0.00618,-0.00500*
1,1,0.01127,-0.00618,-0.00500*
%
%ADD17ROUNDEDRECTD17*%
%ADD21R,0.05315X0.16535*%
%ADD30R,0.02029X0.01860*%
G04:AMPARAMS|DCode=41|XSize=23.62mil|YSize=21.26mil|CornerRadius=5.63mil|HoleSize=0mil|Usage=FLASHONLY|Rotation=270.000|XOffset=0mil|YOffset=0mil|HoleType=Round|Shape=RoundedRectangle|*
%AMROUNDEDRECTD41*
21,1,0.02362,0.00999,0,0,270.0*
21,1,0.01235,0.02126,0,0,270.0*
1,1,0.01127,-0.00500,-0.00618*
1,1,0.01127,-0.00500,0.00618*
1,1,0.01127,0.00500,0.00618*
1,1,0.01127,0.00500,-0.00618*
%
%ADD41ROUNDEDRECTD41*%
G04:AMPARAMS|DCode=69|XSize=43.31mil|YSize=102.36mil|CornerRadius=21.65mil|HoleSize=0mil|Usage=FLASHONLY|Rotation=0.000|XOffset=0mil|YOffset=0mil|HoleType=Round|Shape=RoundedRectangle|*
%AMROUNDEDRECTD69*
21,1,0.04331,0.05906,0,0,0.0*
21,1,0.00000,0.10236,0,0,0.0*
1,1,0.04331,0.00000,-0.02953*
1,1,0.04331,0.00000,-0.02953*
1,1,0.04331,0.00000,0.02953*
1,1,0.04331,0.00000,0.02953*
%
%ADD69ROUNDEDRECTD69*%
G04:AMPARAMS|DCode=70|XSize=43.31mil|YSize=82.68mil|CornerRadius=21.65mil|HoleSize=0mil|Usage=FLASHONLY|Rotation=0.000|XOffset=0mil|YOffset=0mil|HoleType=Round|Shape=RoundedRectangle|*
%AMROUNDEDRECTD70*
21,1,0.04331,0.03937,0,0,0.0*
21,1,0.00000,0.08268,0,0,0.0*
1,1,0.04331,0.00000,-0.01968*
1,1,0.04331,0.00000,-0.01968*
1,1,0.04331,0.00000,0.01968*
1,1,0.04331,0.00000,0.01968*
%
%ADD70ROUNDEDRECTD70*%
%ADD73C,0.01968*%
%ADD75C,0.00709*%
%ADD76C,0.00551*%
%ADD78C,0.00472*%
%ADD80C,0.01575*%
%ADD81C,0.03937*%
%ADD83C,0.05610*%
%ADD84R,0.05610X0.05610*%
%ADD85C,0.06000*%
%ADD86C,0.01968*%
%ADD87C,0.00811*%
%ADD88R,0.01822X0.02182*%
%ADD89R,0.03434X0.03954*%
G04:AMPARAMS|DCode=90|XSize=39.54mil|YSize=34.34mil|CornerRadius=17.17mil|HoleSize=0mil|Usage=FLASHONLY|Rotation=90.000|XOffset=0mil|YOffset=0mil|HoleType=Round|Shape=RoundedRectangle|*
%AMROUNDEDRECTD90*
21,1,0.03954,0.00000,0,0,90.0*
21,1,0.00520,0.03434,0,0,90.0*
1,1,0.03434,0.00000,0.00260*
1,1,0.03434,0.00000,-0.00260*
1,1,0.03434,0.00000,-0.00260*
1,1,0.03434,0.00000,0.00260*
%
%ADD90ROUNDEDRECTD90*%
G04:AMPARAMS|DCode=91|XSize=39.54mil|YSize=125.28mil|CornerRadius=17.2mil|HoleSize=0mil|Usage=FLASHONLY|Rotation=90.000|XOffset=0mil|YOffset=0mil|HoleType=Round|Shape=RoundedRectangle|*
%AMROUNDEDRECTD91*
21,1,0.03954,0.09088,0,0,90.0*
21,1,0.00514,0.12528,0,0,90.0*
1,1,0.03440,0.04544,0.00257*
1,1,0.03440,0.04544,-0.00257*
1,1,0.03440,-0.04544,-0.00257*
1,1,0.03440,-0.04544,0.00257*
%
%ADD91ROUNDEDRECTD91*%
%ADD92R,0.02165X0.01968*%
%ADD93R,0.03937X0.02756*%
%ADD94R,0.01181X0.02756*%
%ADD95R,0.02362X0.04724*%
%ADD96R,0.05733X0.04941*%
%ADD97R,0.05512X0.07087*%
%ADD98R,0.06496X0.10039*%
G04:AMPARAMS|DCode=99|XSize=33.06mil|YSize=8.76mil|CornerRadius=4.38mil|HoleSize=0mil|Usage=FLASHONLY|Rotation=180.000|XOffset=0mil|YOffset=0mil|HoleType=Round|Shape=RoundedRectangle|*
%AMROUNDEDRECTD99*
21,1,0.03306,0.00000,0,0,180.0*
21,1,0.02430,0.00876,0,0,180.0*
1,1,0.00876,-0.01215,0.00000*
1,1,0.00876,0.01215,0.00000*
1,1,0.00876,0.01215,0.00000*
1,1,0.00876,-0.01215,0.00000*
%
%ADD99ROUNDEDRECTD99*%
%ADD100R,0.03306X0.00876*%
%ADD101R,0.02681X0.02410*%
%ADD102R,0.02559X0.02756*%
%ADD103R,0.03150X0.03937*%
%ADD104R,0.07087X0.05512*%
%ADD105R,0.02362X0.05512*%
%ADD106R,0.07898X0.04941*%
%ADD107R,0.08000X0.04500*%
%ADD108R,0.00886X0.00591*%
%ADD109R,0.02598X0.02441*%
%ADD110R,0.08661X0.04134*%
%ADD111R,0.04134X0.03937*%
%ADD112R,0.04941X0.05733*%
%ADD113C,0.00866*%
G36*
X175575Y233382D02*
X175075Y233150D01*
X174639Y233485D01*
X173920Y233782D01*
X173150Y233884D01*
X172379Y233782D01*
X171660Y233485D01*
X171044Y233012D01*
X170570Y232395D01*
X170273Y231676D01*
X170171Y230906D01*
Y225000D01*
X170273Y224229D01*
X170570Y223511D01*
X171044Y222894D01*
X171660Y222421D01*
X172379Y222123D01*
X173150Y222022D01*
X173920Y222123D01*
X174639Y222421D01*
X175075Y222756D01*
X175575Y222524D01*
Y212677D01*
X175446Y212520D01*
X175197D01*
Y211535D01*
X174748Y211314D01*
X174639Y211398D01*
X173920Y211696D01*
X173150Y211797D01*
X172379Y211696D01*
X171660Y211398D01*
X171044Y210925D01*
X170570Y210308D01*
X170273Y209590D01*
X170171Y208819D01*
Y204882D01*
X170273Y204111D01*
X170570Y203393D01*
X171044Y202776D01*
X171660Y202303D01*
X172379Y202005D01*
X173150Y201904D01*
X173920Y202005D01*
X174639Y202303D01*
X175256Y202776D01*
X175729Y203393D01*
X176026Y204111D01*
X176128Y204882D01*
Y208189D01*
X204187D01*
Y204882D01*
X204289Y204111D01*
X204586Y203393D01*
X205059Y202776D01*
X205676Y202303D01*
X206395Y202005D01*
X207165Y201904D01*
X207936Y202005D01*
X208654Y202303D01*
X209271Y202776D01*
X209745Y203393D01*
X210042Y204111D01*
X210144Y204882D01*
Y208819D01*
X210042Y209590D01*
X209745Y210308D01*
X209271Y210925D01*
X208654Y211398D01*
X207936Y211696D01*
X207165Y211797D01*
X206395Y211696D01*
X205676Y211398D01*
X205567Y211314D01*
X205118Y211535D01*
Y212520D01*
X204869D01*
X204740Y212677D01*
Y222524D01*
X205240Y222756D01*
X205676Y222421D01*
X206395Y222123D01*
X207165Y222022D01*
X207936Y222123D01*
X208654Y222421D01*
X209271Y222894D01*
X209343Y222987D01*
X209842Y222817D01*
Y218504D01*
X210236Y218110D01*
X234908D01*
Y96457D01*
X216535D01*
Y80053D01*
X203264D01*
Y86008D01*
X195949D01*
Y80053D01*
X181020D01*
Y86008D01*
X173705D01*
Y80053D01*
X100394D01*
Y96457D01*
X80053D01*
Y129212D01*
X80553Y129382D01*
X81036Y128752D01*
X82162Y127888D01*
X83474Y127345D01*
X84224Y127246D01*
X84817Y126653D01*
X84625Y126191D01*
X84409D01*
X83495Y125946D01*
X82676Y125473D01*
X82007Y124804D01*
X81534Y123985D01*
X81289Y123071D01*
Y122125D01*
X81534Y121212D01*
X82007Y120393D01*
X82676Y119724D01*
X83495Y119251D01*
X84409Y119006D01*
X85355D01*
X86269Y119251D01*
X87088Y119724D01*
X87757Y120393D01*
X88230Y121212D01*
X88474Y122125D01*
Y122342D01*
X88936Y122533D01*
X89799Y121670D01*
X90225Y121386D01*
X90728Y121286D01*
X91514D01*
X91534Y121212D01*
X92007Y120393D01*
X92676Y119724D01*
X93495Y119251D01*
X94409Y119006D01*
X95355D01*
X96268Y119251D01*
X97088Y119724D01*
X97756Y120393D01*
X98229Y121212D01*
X98474Y122125D01*
Y123071D01*
X98229Y123985D01*
X97756Y124804D01*
X97088Y125473D01*
X96268Y125946D01*
X95355Y126191D01*
X94409D01*
X93495Y125946D01*
X92676Y125473D01*
X92007Y124804D01*
X91654Y124193D01*
X91122Y124105D01*
X91058Y124124D01*
X86382Y128800D01*
X86503Y129386D01*
X87088Y129724D01*
X87757Y130393D01*
X88230Y131212D01*
X88474Y132125D01*
Y133071D01*
X88230Y133985D01*
X87757Y134804D01*
X87088Y135473D01*
X86269Y135946D01*
X85355Y136191D01*
X84409D01*
X83495Y135946D01*
X82676Y135473D01*
X82353Y135150D01*
X81853Y135357D01*
Y136641D01*
X81853Y136641D01*
Y139370D01*
X83288D01*
X83495Y139251D01*
X84409Y139006D01*
X85355D01*
X86269Y139251D01*
X86475Y139370D01*
X86688D01*
X86659Y139476D01*
X87088Y139724D01*
X87757Y140392D01*
X88230Y141212D01*
X88474Y142125D01*
Y143071D01*
X88230Y143985D01*
X87757Y144804D01*
X87088Y145473D01*
X86269Y145946D01*
X85355Y146191D01*
X84409D01*
X83495Y145946D01*
X82676Y145473D01*
X82353Y145150D01*
X81853Y145357D01*
Y149840D01*
X82353Y150047D01*
X82676Y149724D01*
X83495Y149251D01*
X84409Y149006D01*
X85355D01*
X86269Y149251D01*
X87088Y149724D01*
X87757Y150392D01*
X88230Y151212D01*
X88474Y152125D01*
Y153071D01*
X88230Y153985D01*
X87757Y154804D01*
X87088Y155473D01*
X86269Y155946D01*
X85355Y156191D01*
X84409D01*
X83495Y155946D01*
X82676Y155473D01*
X82353Y155150D01*
X81853Y155357D01*
Y159840D01*
X82353Y160047D01*
X82676Y159724D01*
X83495Y159251D01*
X84409Y159006D01*
X85355D01*
X86269Y159251D01*
X87088Y159724D01*
X87757Y160392D01*
X88230Y161212D01*
X88474Y162125D01*
Y163071D01*
X88230Y163985D01*
X87757Y164804D01*
X87603Y164958D01*
X87794Y165420D01*
X91969D01*
X92160Y164958D01*
X92007Y164804D01*
X91534Y163985D01*
X91289Y163071D01*
Y162125D01*
X91534Y161212D01*
X92007Y160392D01*
X92676Y159724D01*
X93495Y159251D01*
X94409Y159006D01*
X95355D01*
X96268Y159251D01*
X97088Y159724D01*
X97756Y160392D01*
X98229Y161212D01*
X98474Y162125D01*
Y163071D01*
X98229Y163985D01*
X97756Y164804D01*
X97603Y164958D01*
X97794Y165420D01*
X104124D01*
X106238Y164189D01*
X106322Y164160D01*
X106396Y164111D01*
X106562Y164078D01*
X106722Y164023D01*
X106811Y164028D01*
X106898Y164011D01*
X114573Y164011D01*
X119261Y163939D01*
X119618Y163595D01*
Y161550D01*
X111692D01*
X111001Y161413D01*
X110415Y161021D01*
X110140Y160747D01*
X110041Y160599D01*
X109915Y160473D01*
X109847Y160309D01*
X109748Y160161D01*
X109714Y159986D01*
X109646Y159822D01*
Y159644D01*
X109611Y159469D01*
X109646Y159295D01*
Y159117D01*
X109714Y158952D01*
X109724Y158899D01*
X109516Y158526D01*
X109400Y158399D01*
X91363D01*
X90860Y158299D01*
X90434Y158015D01*
X89849Y157429D01*
X89564Y157003D01*
X89464Y156501D01*
Y138976D01*
Y137078D01*
X89564Y136575D01*
X89849Y136150D01*
X91709Y134289D01*
X91534Y133985D01*
X91289Y133071D01*
Y132125D01*
X91534Y131212D01*
X92007Y130393D01*
X92676Y129724D01*
X93495Y129251D01*
X94409Y129006D01*
X95355D01*
X96268Y129251D01*
X97088Y129724D01*
X97756Y130393D01*
X98229Y131212D01*
X98474Y132125D01*
Y133071D01*
X98229Y133985D01*
X97756Y134804D01*
X97088Y135473D01*
X96268Y135946D01*
X95355Y136191D01*
X94409D01*
X93708Y136003D01*
X92089Y137621D01*
Y139370D01*
X93288D01*
X93495Y139251D01*
X94409Y139006D01*
X95355D01*
X96268Y139251D01*
X96475Y139370D01*
X96688D01*
X96659Y139476D01*
X97088Y139724D01*
X97756Y140392D01*
X98229Y141212D01*
X98474Y142125D01*
Y143071D01*
X98229Y143985D01*
X97756Y144804D01*
X97088Y145473D01*
X96268Y145946D01*
X95355Y146191D01*
X94409D01*
X93495Y145946D01*
X92676Y145473D01*
X92551Y145348D01*
X92089Y145540D01*
Y149657D01*
X92551Y149848D01*
X92676Y149724D01*
X93495Y149251D01*
X94409Y149006D01*
X95355D01*
X96268Y149251D01*
X97088Y149724D01*
X97756Y150392D01*
X98229Y151212D01*
X98474Y152125D01*
Y153071D01*
X98229Y153985D01*
X97756Y154804D01*
X97287Y155274D01*
X97494Y155774D01*
X116878D01*
X117805Y154846D01*
X118231Y154562D01*
X118733Y154462D01*
X124917D01*
X125017Y153962D01*
X124981Y153947D01*
X124482Y153448D01*
X124213Y152797D01*
Y152093D01*
X124482Y151441D01*
X124981Y150943D01*
X125632Y150673D01*
X126337D01*
X126988Y150943D01*
X127486Y151441D01*
X127756Y152093D01*
Y152797D01*
X127486Y153448D01*
X126988Y153947D01*
X126952Y153962D01*
X127051Y154462D01*
X132386D01*
X132888Y154562D01*
X133314Y154846D01*
X134076Y155608D01*
X134360Y156034D01*
X134460Y156536D01*
Y156567D01*
X135934Y158040D01*
X136218Y158466D01*
X136318Y158969D01*
Y164160D01*
X137136Y164979D01*
X137599Y164787D01*
Y158369D01*
X139231D01*
Y157497D01*
X138818Y157240D01*
X138731Y157240D01*
X138652Y157256D01*
Y155144D01*
Y153031D01*
X138761Y153053D01*
X138779Y153065D01*
X139334Y152835D01*
X139369Y152662D01*
X139376Y152652D01*
X139473Y152163D01*
X139864Y151577D01*
X140451Y151186D01*
X140701Y151136D01*
X141637Y150199D01*
X142223Y149808D01*
X142914Y149670D01*
X153642D01*
X154333Y149808D01*
X154673Y150034D01*
X158813Y145894D01*
X159399Y145502D01*
X159975Y145388D01*
X160076Y145321D01*
X160603Y145216D01*
X161416D01*
X161809Y144858D01*
Y144153D01*
X162079Y143502D01*
X162577Y143003D01*
X163228Y142734D01*
X163933D01*
X164584Y143003D01*
X165083Y143502D01*
X165352Y144153D01*
Y144433D01*
X165503Y144584D01*
X166277D01*
X169010Y141851D01*
X169010Y141851D01*
X169400Y141590D01*
X169861Y141499D01*
X169861Y141499D01*
X171687D01*
X171985Y141201D01*
X172636Y140931D01*
X173341D01*
X173565Y141024D01*
X173981Y140746D01*
Y140650D01*
X174016Y140475D01*
Y140297D01*
X174084Y140133D01*
X174118Y139958D01*
X174217Y139810D01*
X174285Y139646D01*
X174411Y139520D01*
X174510Y139372D01*
X176145Y137738D01*
X175937Y137238D01*
X171803D01*
X170359Y138683D01*
X169933Y138967D01*
X169430Y139067D01*
X163712D01*
X163210Y138967D01*
X162784Y138683D01*
X161532Y137431D01*
X161265D01*
X160614Y137161D01*
X160115Y136663D01*
X159845Y136012D01*
Y135307D01*
X159940Y135078D01*
X159662Y134662D01*
X157873D01*
Y129151D01*
X158923D01*
Y123733D01*
X159022Y123231D01*
X159307Y122805D01*
X162049Y120063D01*
Y120032D01*
X162149Y119530D01*
X162433Y119104D01*
X163470Y118068D01*
X163895Y117783D01*
X164398Y117683D01*
X168087D01*
X168589Y117783D01*
X169015Y118068D01*
X170730Y119783D01*
X172811D01*
Y126061D01*
X173874D01*
Y119783D01*
X177811D01*
Y126061D01*
X178839D01*
Y123524D01*
X178874Y123349D01*
Y119783D01*
X182811D01*
Y126870D01*
X182452D01*
Y127867D01*
X182315Y128558D01*
X182253Y128651D01*
X182520Y129151D01*
X182693D01*
Y134662D01*
X182121D01*
Y136122D01*
X181984Y136813D01*
X181592Y137399D01*
X179252Y139740D01*
X179570Y140128D01*
X179856Y139937D01*
X179966Y139915D01*
Y142028D01*
Y144140D01*
X179856Y144118D01*
X179339Y143772D01*
X178765Y143812D01*
X178607Y143918D01*
X178080Y144023D01*
X177594D01*
Y144882D01*
X177456Y145573D01*
X177065Y146159D01*
X176474Y146750D01*
X176326Y146849D01*
X176200Y146974D01*
X176036Y147042D01*
X175888Y147141D01*
X175714Y147176D01*
X175549Y147244D01*
X175371D01*
X175197Y147279D01*
X175022Y147244D01*
X174845D01*
X174479Y147465D01*
X174377Y147611D01*
Y148416D01*
X174256Y149026D01*
X173910Y149543D01*
X173393Y149889D01*
X173283Y149910D01*
Y147798D01*
X171283D01*
Y149910D01*
X171174Y149889D01*
X170657Y149543D01*
X170082Y149583D01*
X169924Y149688D01*
X169397Y149793D01*
X168398D01*
X168293Y149772D01*
X164390D01*
X164301Y150235D01*
X164952Y150505D01*
X165450Y151003D01*
X165720Y151654D01*
Y151756D01*
X166008Y152044D01*
X166555D01*
X166814Y151656D01*
X167261Y151358D01*
X167788Y151253D01*
X168787D01*
X169314Y151358D01*
X169472Y151463D01*
X170046Y151503D01*
X170564Y151158D01*
X170673Y151136D01*
Y153248D01*
Y155360D01*
X170564Y155338D01*
X170046Y154993D01*
X169472Y155033D01*
X169314Y155138D01*
X168787Y155243D01*
X167788D01*
X167261Y155138D01*
X166814Y154840D01*
X166555Y154452D01*
X165509D01*
X165048Y154361D01*
X164909Y154267D01*
X164444Y154558D01*
Y155282D01*
X162430D01*
Y156282D01*
X161430D01*
Y158212D01*
X160931D01*
X160741Y158670D01*
X160243Y159169D01*
X160049Y159249D01*
X159951Y159739D01*
X160189Y159977D01*
X160581Y160563D01*
X160718Y161254D01*
Y162727D01*
X160728Y163198D01*
X160734Y163213D01*
X160996Y163572D01*
X161248Y163677D01*
X161301Y163666D01*
X162786D01*
X163043Y163253D01*
X163043Y163166D01*
X163027Y163087D01*
X165139D01*
X167252D01*
X167230Y163196D01*
X166884Y163713D01*
X166924Y164288D01*
X167030Y164446D01*
X167134Y164973D01*
Y165972D01*
X167030Y166499D01*
X166731Y166946D01*
X166708Y167182D01*
X166842Y167316D01*
X167011Y167725D01*
X167573Y167870D01*
X168180Y167264D01*
X168606Y166979D01*
X169026Y166896D01*
X168931Y166420D01*
X169026Y165942D01*
X169296Y165534D01*
X169026Y165127D01*
X168931Y164649D01*
X169026Y164171D01*
X169295Y163763D01*
X168980Y163409D01*
X168335Y162763D01*
X168050Y162338D01*
X167950Y161835D01*
Y160668D01*
X167688Y160405D01*
X167418Y159754D01*
Y159049D01*
X167688Y158398D01*
X168186Y157899D01*
X168837Y157630D01*
X169542D01*
X170193Y157899D01*
X170692Y158398D01*
X170757Y158555D01*
X171195Y158374D01*
X171899D01*
X172551Y158644D01*
X173049Y159142D01*
X173319Y159793D01*
Y160498D01*
X173199Y160786D01*
X173533Y161286D01*
X175969D01*
Y167306D01*
X177969D01*
Y161286D01*
X181217D01*
Y161538D01*
X181326Y161628D01*
X183756D01*
X184234Y161723D01*
X184640Y161994D01*
X184911Y162399D01*
X185006Y162877D01*
X184911Y163355D01*
X184781Y163550D01*
X184793Y163612D01*
X184898Y163768D01*
X184715Y163649D01*
X184640Y163761D01*
X184235Y164031D01*
X183756Y164127D01*
X182541D01*
Y165171D01*
X183756D01*
X184235Y165266D01*
X184268Y165288D01*
X184661D01*
X185012Y165358D01*
X185111Y165210D01*
X185176Y164884D01*
X185106Y165377D01*
X185484Y165629D01*
X185950Y166095D01*
X187163D01*
X187559Y165700D01*
X188210Y165430D01*
X188915D01*
X189566Y165700D01*
X189912Y166046D01*
X190535Y166129D01*
X190980Y165684D01*
X191066Y165201D01*
X190892Y164941D01*
X190885Y164907D01*
X190690Y164436D01*
X190395Y164140D01*
X189924Y163945D01*
X189890Y163939D01*
X189629Y163765D01*
X188953Y163089D01*
X188805Y162990D01*
X188093Y162277D01*
X187994Y162129D01*
X187868Y162004D01*
X187868Y162004D01*
X187132Y161268D01*
X186958Y161007D01*
X186897Y160700D01*
Y159013D01*
X186397Y158806D01*
X186187Y159017D01*
X185535Y159287D01*
X184831D01*
X184179Y159017D01*
X183681Y158519D01*
X183411Y157868D01*
Y157163D01*
X183560Y156803D01*
X183237Y156303D01*
X182219D01*
X181941Y156719D01*
X181988Y156833D01*
Y157537D01*
X181719Y158189D01*
X181220Y158687D01*
X180569Y158957D01*
X179864D01*
X179213Y158687D01*
X178715Y158189D01*
X178563Y157823D01*
X178145Y157996D01*
X177440D01*
X176789Y157726D01*
X176290Y157228D01*
X176021Y156577D01*
Y155872D01*
X176141Y155581D01*
X175829Y155452D01*
X175330Y154954D01*
X175060Y154303D01*
Y153598D01*
X175330Y152947D01*
X175829Y152448D01*
X176480Y152179D01*
X177184D01*
X177836Y152448D01*
X178334Y152947D01*
X178375Y153046D01*
X178875Y152946D01*
Y151463D01*
X179318D01*
Y152759D01*
X181105D01*
X181318Y152546D01*
Y151463D01*
X181761D01*
Y152183D01*
X181900Y152297D01*
X186200D01*
X186507Y152358D01*
X186768Y152532D01*
X188120Y153884D01*
X188610Y153787D01*
X188665Y153654D01*
X189164Y153156D01*
X189815Y152886D01*
X190520D01*
X191171Y153156D01*
X191669Y153654D01*
X191755Y153861D01*
X192252Y153755D01*
X192510Y153370D01*
X192516Y153364D01*
X192398Y152775D01*
X192127Y152662D01*
X191629Y152164D01*
X191359Y151513D01*
Y150808D01*
X191402Y150704D01*
X191125Y150288D01*
X190603D01*
X190076Y150183D01*
X189918Y150078D01*
X189343Y150038D01*
X188826Y150384D01*
X188717Y150405D01*
Y148293D01*
Y146181D01*
X188826Y146203D01*
X189343Y146548D01*
X189918Y146508D01*
X190076Y146403D01*
X190603Y146298D01*
X191602D01*
X191805Y146339D01*
X192393D01*
X192462Y146172D01*
X192735Y145899D01*
X192549Y145712D01*
X192279Y145061D01*
Y144583D01*
X191773Y144078D01*
X190569D01*
X190330Y144435D01*
X189883Y144734D01*
X189357Y144838D01*
X188357D01*
X187830Y144734D01*
X187672Y144628D01*
X187098Y144588D01*
X186581Y144934D01*
X186471Y144956D01*
Y142843D01*
Y140731D01*
X186581Y140753D01*
X187098Y141098D01*
X187672Y141059D01*
X187830Y140953D01*
X188357Y140848D01*
X189357D01*
X189883Y140953D01*
X190330Y141252D01*
X190629Y141699D01*
X190639Y141749D01*
X192255D01*
X192659Y141320D01*
X192622Y141134D01*
Y140181D01*
X191807D01*
Y136197D01*
X192549D01*
Y135585D01*
X192286Y135322D01*
X192016Y134671D01*
Y133966D01*
X192286Y133315D01*
X192389Y133212D01*
X192340Y132714D01*
X192214Y132630D01*
X191660Y131801D01*
X191465Y130822D01*
Y130308D01*
X191660Y129330D01*
X192214Y128501D01*
X193044Y127946D01*
X194022Y127752D01*
X196816D01*
Y119882D01*
X196816Y119882D01*
X196953Y119191D01*
X197345Y118605D01*
X202968Y112982D01*
X202776Y112520D01*
X199296D01*
X198605Y112382D01*
X198019Y111991D01*
X192455Y106427D01*
X191529D01*
X191356Y106686D01*
X190527Y107240D01*
X189550Y107434D01*
X188573Y107240D01*
X187745Y106686D01*
X187191Y105858D01*
X186997Y104881D01*
Y104360D01*
X187191Y103383D01*
X187744Y102556D01*
Y101394D01*
X187882Y100703D01*
X188273Y100117D01*
X191242Y97148D01*
X191828Y96756D01*
X192520Y96619D01*
X192521Y96619D01*
X195187D01*
X195312Y96535D01*
X195538Y96490D01*
X195949Y96276D01*
Y88008D01*
X203264D01*
Y96276D01*
X201636D01*
X201526Y96433D01*
X201415Y96776D01*
X201697Y97198D01*
X201742Y97425D01*
X199724D01*
Y98425D01*
X198724D01*
Y100538D01*
X198615Y100516D01*
X198098Y100170D01*
X197523Y100210D01*
X197365Y100315D01*
X196838Y100420D01*
X195839D01*
X195312Y100315D01*
X195187Y100232D01*
X193268D01*
X191357Y102143D01*
Y102556D01*
X191529Y102814D01*
X193203D01*
X193895Y102952D01*
X194481Y103343D01*
X195553Y104415D01*
X196045Y104200D01*
X196207Y103383D01*
X196761Y102555D01*
X197589Y102002D01*
X198566Y101807D01*
X199543Y102002D01*
X200371Y102555D01*
X200925Y103383D01*
X201119Y104360D01*
Y104483D01*
X202775Y106139D01*
X204689D01*
X204865Y105994D01*
Y105621D01*
X207582D01*
X210299D01*
Y107598D01*
X208444D01*
X208253Y108060D01*
X208533Y108340D01*
X208925Y108926D01*
X209062Y109617D01*
Y111248D01*
X208925Y111939D01*
X208533Y112525D01*
X200428Y120630D01*
Y127752D01*
X203110D01*
X204088Y127946D01*
X204918Y128501D01*
X205472Y129330D01*
X205534Y129640D01*
X205610Y129717D01*
X205938Y129873D01*
X206095Y129897D01*
X206199Y129827D01*
X206373Y129792D01*
X206537Y129724D01*
X206715D01*
X206890Y129690D01*
X207064Y129724D01*
X207242D01*
X207406Y129792D01*
X207581Y129827D01*
X207729Y129926D01*
X207893Y129994D01*
X208019Y130120D01*
X208167Y130219D01*
X208266Y130367D01*
X208392Y130492D01*
X208460Y130657D01*
X208559Y130805D01*
X208593Y130979D01*
X208661Y131144D01*
Y131322D01*
X208696Y131496D01*
Y134331D01*
X213330D01*
Y140406D01*
X204717D01*
X204526Y140867D01*
X204568Y140910D01*
X204568Y140910D01*
X204662Y141051D01*
X204987Y141397D01*
X205313Y141244D01*
X205487Y141210D01*
X205651Y141142D01*
X205829D01*
X206004Y141107D01*
X206178Y141142D01*
X206356D01*
X206521Y141210D01*
X206695Y141244D01*
X206843Y141343D01*
X207008Y141411D01*
X207133Y141537D01*
X207281Y141636D01*
X207380Y141784D01*
X207506Y141910D01*
X207574Y142074D01*
X207673Y142222D01*
X207708Y142397D01*
X207776Y142561D01*
Y142739D01*
X207810Y142913D01*
Y144831D01*
X213330D01*
Y150906D01*
X211977D01*
X211803Y151118D01*
Y166300D01*
X211742Y166607D01*
X211568Y166868D01*
X211568Y166868D01*
X210668Y167768D01*
X210407Y167942D01*
X210100Y168003D01*
X205800D01*
X205493Y167942D01*
X205232Y167768D01*
X205089Y167624D01*
X204627Y167816D01*
Y173511D01*
X207689D01*
Y180013D01*
Y186528D01*
X200381D01*
Y183309D01*
X200371Y183302D01*
X199874D01*
X199182Y183165D01*
X198596Y182773D01*
X198312Y182489D01*
X197850Y182681D01*
Y183708D01*
X193307D01*
X188764D01*
Y180952D01*
X191814D01*
X191962Y180706D01*
X191992Y180452D01*
X191931Y180411D01*
X191832Y180263D01*
X191707Y180137D01*
X191639Y179973D01*
X191540Y179825D01*
X191505Y179651D01*
X191437Y179486D01*
Y179308D01*
X191402Y179134D01*
Y178015D01*
X188976D01*
X188976Y178015D01*
Y178015D01*
X188543Y178192D01*
X188268Y178468D01*
X188007Y178642D01*
X187700Y178703D01*
X186800D01*
X186493Y178642D01*
X186232Y178468D01*
X186232Y178468D01*
X185232Y177468D01*
X185058Y177207D01*
X184997Y176900D01*
Y173454D01*
X184982Y172960D01*
X182774D01*
X182290Y172995D01*
X181916Y173290D01*
X181622Y173731D01*
X180977Y174161D01*
X180619Y174232D01*
X180593Y174244D01*
X180504Y174397D01*
X180386Y174744D01*
X180755Y175295D01*
X183465D01*
Y181594D01*
X179937D01*
Y181807D01*
X179138D01*
X179065Y181898D01*
X178916Y182307D01*
X178935Y182335D01*
X179061Y182461D01*
X179129Y182625D01*
X179228Y182773D01*
X179263Y182948D01*
X179331Y183112D01*
Y183290D01*
X179365Y183465D01*
Y184350D01*
X183465D01*
Y190650D01*
X182204D01*
X182019Y191114D01*
X187172Y196013D01*
X187181Y196026D01*
X187194Y196034D01*
X189630Y198471D01*
X189992Y198816D01*
X189992Y198816D01*
X190904Y199927D01*
X191582Y201195D01*
X191999Y202570D01*
X192048Y203071D01*
X193413D01*
X193542Y202915D01*
X193727Y202571D01*
X193685Y202362D01*
Y197244D01*
X193685Y197244D01*
X193746Y196937D01*
X193921Y196676D01*
X193921Y196676D01*
X194708Y195889D01*
X194968Y195715D01*
X195276Y195654D01*
X197638D01*
X197638Y195654D01*
X197945Y195715D01*
X198205Y195889D01*
X198205Y195889D01*
X201749Y199432D01*
X201923Y199693D01*
X201984Y200000D01*
Y202362D01*
X202352Y202858D01*
X203559D01*
Y204236D01*
X201969D01*
Y205236D01*
X201378D01*
Y207402D01*
X200969D01*
Y207614D01*
X200378D01*
Y207402D01*
X190748D01*
Y205434D01*
X190321Y205149D01*
X189895Y205328D01*
X189568Y205546D01*
X189567Y205547D01*
Y207402D01*
X179937D01*
Y207614D01*
X179347D01*
Y207402D01*
X178937D01*
Y205236D01*
Y203071D01*
X179347D01*
Y202858D01*
X179937D01*
Y203071D01*
X182829D01*
X183021Y202609D01*
X178814Y198402D01*
X175000D01*
Y198861D01*
X172260D01*
Y199074D01*
X171177D01*
Y197090D01*
Y195105D01*
X172260D01*
Y195318D01*
X175000D01*
Y195777D01*
X179358D01*
X179860Y195877D01*
X180286Y196161D01*
X186919Y202794D01*
X187020Y202945D01*
X187058Y202984D01*
X187116Y203071D01*
X187814D01*
X188092Y202655D01*
X187908Y202211D01*
X187631Y201850D01*
X187337Y201472D01*
X184628Y198764D01*
X176966Y192112D01*
X176575Y191849D01*
D01*
X175814Y191698D01*
X175170Y191267D01*
X174757Y190650D01*
X172047D01*
Y184350D01*
X175753D01*
Y183465D01*
X175787Y183290D01*
Y183112D01*
X175856Y182948D01*
X175890Y182773D01*
X175989Y182625D01*
X176057Y182461D01*
X176183Y182335D01*
X176202Y182307D01*
X176053Y181898D01*
X175980Y181807D01*
X175575D01*
Y181594D01*
X172047D01*
Y175295D01*
X173743D01*
X173950Y174795D01*
X173437Y174282D01*
X173318Y174232D01*
X172960Y174161D01*
X172316Y173731D01*
X171885Y173086D01*
X171876Y173041D01*
X171594Y172985D01*
X170181D01*
X169943Y172937D01*
X169572Y173348D01*
Y174052D01*
X169302Y174704D01*
X168804Y175202D01*
X168152Y175472D01*
X167448D01*
X167215Y175375D01*
X166715Y175709D01*
Y181145D01*
Y187660D01*
X163809D01*
X163709Y188160D01*
X164192Y188360D01*
X164691Y188859D01*
X164961Y189510D01*
Y190111D01*
X165215D01*
X165866Y190381D01*
X166364Y190879D01*
X166634Y191531D01*
Y192235D01*
X166364Y192887D01*
X165866Y193385D01*
X165215Y193655D01*
X164510D01*
X163859Y193385D01*
X163360Y192887D01*
X163091Y192235D01*
Y191634D01*
X162837D01*
X162185Y191364D01*
X161687Y190866D01*
X161417Y190215D01*
Y189510D01*
X161687Y188859D01*
X162185Y188360D01*
X162669Y188160D01*
X162569Y187660D01*
X161962D01*
X159314Y190308D01*
X159089Y190533D01*
X159327Y190975D01*
X159474Y191122D01*
X159744Y191774D01*
Y192478D01*
X159498Y193073D01*
X159763Y193183D01*
X160262Y193682D01*
X160531Y194333D01*
Y195037D01*
X160262Y195689D01*
X159763Y196187D01*
X159112Y196457D01*
X158407D01*
X157756Y196187D01*
X157585Y196016D01*
X157188Y195768D01*
X152900D01*
Y196754D01*
X152879Y196856D01*
X152883Y196960D01*
X152734Y197895D01*
X152745Y197906D01*
X153015Y198557D01*
Y199262D01*
X152745Y199913D01*
X152247Y200411D01*
X151596Y200681D01*
X150891D01*
X150240Y200411D01*
X149742Y199913D01*
X149581Y199525D01*
X149015Y199308D01*
X148992Y199310D01*
X148317Y199444D01*
X138386D01*
X137695Y199307D01*
X137109Y198915D01*
X135632Y197439D01*
X135241Y196853D01*
X135103Y196161D01*
X135241Y195470D01*
X135597Y194937D01*
Y192271D01*
X135353Y192027D01*
X135083Y191376D01*
Y190671D01*
X135353Y190020D01*
X135851Y189522D01*
X136503Y189252D01*
X137207D01*
X137858Y189522D01*
X138357Y190020D01*
X138477Y190310D01*
X138966Y190649D01*
X139671D01*
X140322Y190919D01*
X140820Y191417D01*
X141090Y192068D01*
Y192746D01*
X141216Y192862D01*
X141509Y193067D01*
X141919Y192916D01*
X141980Y192771D01*
X142478Y192272D01*
X143129Y192003D01*
X143834D01*
X144485Y192272D01*
X144983Y192771D01*
X145120Y193100D01*
X145393Y192987D01*
X146098D01*
X146296Y193069D01*
X146711Y192791D01*
Y191764D01*
X146711Y191764D01*
X146834Y191149D01*
X147182Y190628D01*
X149689Y188120D01*
X150210Y187773D01*
X150825Y187650D01*
X150869D01*
X150963Y187587D01*
X151655Y187450D01*
X157063D01*
X159407Y185106D01*
Y181145D01*
Y178205D01*
X158907Y177998D01*
X158904Y178002D01*
X158252Y178272D01*
X157548D01*
X156896Y178002D01*
X156398Y177504D01*
X156128Y176852D01*
Y176148D01*
X155796Y175643D01*
X155492Y175518D01*
X154994Y175019D01*
X154724Y174368D01*
Y173947D01*
X149587Y168810D01*
X138060D01*
X137600Y168718D01*
X137209Y168457D01*
X137209Y168457D01*
X134188Y165436D01*
X134085Y165282D01*
X134077Y165277D01*
X133793Y164851D01*
X133693Y164349D01*
Y159512D01*
X133097Y158916D01*
X132635Y159108D01*
Y163595D01*
X132270D01*
X132095Y163807D01*
X132034Y164115D01*
X131860Y164375D01*
X131860Y164375D01*
X131184Y165052D01*
Y165893D01*
X131103Y166298D01*
Y168377D01*
X131071Y168537D01*
X131115Y168590D01*
X131115D01*
Y175106D01*
X127266D01*
X126988Y175521D01*
X127067Y175710D01*
Y176415D01*
X126972Y176644D01*
X127250Y177060D01*
X131115D01*
Y183575D01*
X128184D01*
Y184291D01*
X130374Y186481D01*
X130413D01*
X130588Y186516D01*
X130766D01*
X130930Y186584D01*
X131105Y186618D01*
X131253Y186717D01*
X131417Y186785D01*
X131543Y186911D01*
X131691Y187010D01*
X131790Y187158D01*
X131915Y187284D01*
X131983Y187448D01*
X132082Y187596D01*
X132117Y187771D01*
X132185Y187935D01*
Y188113D01*
X132220Y188287D01*
X132185Y188462D01*
Y188640D01*
X132117Y188804D01*
X132082Y188979D01*
X131983Y189127D01*
X131915Y189291D01*
X131790Y189417D01*
X131691Y189565D01*
X131543Y189664D01*
X131417Y189789D01*
X131253Y189857D01*
X131105Y189956D01*
X130930Y189991D01*
X130766Y190059D01*
X130588D01*
X130413Y190094D01*
X129626D01*
X128935Y189956D01*
X128349Y189565D01*
X125101Y186317D01*
X124966Y186115D01*
X124552Y186074D01*
X123901Y186344D01*
X123196D01*
X122545Y186074D01*
X122047Y185575D01*
X121777Y184924D01*
Y184220D01*
X121890Y183947D01*
X121641Y183575D01*
X121641D01*
Y178919D01*
X121500Y178803D01*
X118165D01*
X118107Y178842D01*
X117800Y178903D01*
X117493Y178842D01*
X117232Y178668D01*
X115832Y177268D01*
X115658Y177007D01*
X115597Y176700D01*
Y170064D01*
X115518D01*
Y167844D01*
X114518D01*
Y166844D01*
X112219D01*
Y166636D01*
X107253Y166636D01*
X105138Y167867D01*
X105054Y167896D01*
X104980Y167945D01*
X104814Y167978D01*
X104654Y168033D01*
X104565Y168028D01*
X104478Y168045D01*
X85712D01*
X85648Y168032D01*
X85195Y168077D01*
X83959Y167955D01*
X83496Y167815D01*
X83028Y167678D01*
X83028Y167678D01*
X83028Y167678D01*
X82972Y167667D01*
X82881Y167606D01*
X82162Y167309D01*
X81036Y166444D01*
X80753Y166076D01*
X80492Y166042D01*
X80415Y166039D01*
X80053Y166373D01*
Y218504D01*
X105118D01*
Y222424D01*
X105618Y222593D01*
X105689Y222500D01*
X106306Y222027D01*
X107025Y221730D01*
X107795Y221628D01*
X108566Y221730D01*
X109284Y222027D01*
X109721Y222362D01*
X110221Y222130D01*
Y212283D01*
X110091Y212126D01*
X109843D01*
Y211141D01*
X109394Y210920D01*
X109284Y211004D01*
X108566Y211302D01*
X107795Y211403D01*
X107025Y211302D01*
X106306Y211004D01*
X105689Y210531D01*
X105216Y209914D01*
X104919Y209196D01*
X104817Y208425D01*
Y204488D01*
X104919Y203717D01*
X105216Y202999D01*
X105689Y202382D01*
X106306Y201909D01*
X107025Y201611D01*
X107795Y201510D01*
X108566Y201611D01*
X109284Y201909D01*
X109901Y202382D01*
X110374Y202999D01*
X110672Y203717D01*
X110774Y204488D01*
Y207795D01*
X138833D01*
Y204488D01*
X138934Y203717D01*
X139232Y202999D01*
X139705Y202382D01*
X140322Y201909D01*
X141040Y201611D01*
X141811Y201510D01*
X142582Y201611D01*
X143300Y201909D01*
X143917Y202382D01*
X144390Y202999D01*
X144688Y203717D01*
X144789Y204488D01*
Y208425D01*
X144688Y209196D01*
X144390Y209914D01*
X143917Y210531D01*
X143300Y211004D01*
X142582Y211302D01*
X141811Y211403D01*
X141040Y211302D01*
X140322Y211004D01*
X140212Y210920D01*
X139764Y211141D01*
Y212126D01*
X139515D01*
X139385Y212283D01*
Y222130D01*
X139885Y222362D01*
X140322Y222027D01*
X141040Y221730D01*
X141811Y221628D01*
X142582Y221730D01*
X143300Y222027D01*
X143917Y222500D01*
X144390Y223117D01*
X144688Y223835D01*
X144789Y224606D01*
Y230512D01*
X144688Y231283D01*
X144390Y232001D01*
X143917Y232618D01*
X143300Y233091D01*
X142582Y233389D01*
X141811Y233490D01*
X141040Y233389D01*
X140322Y233091D01*
X139885Y232756D01*
X139385Y232988D01*
Y234527D01*
X139820Y234908D01*
X175575D01*
Y233382D01*
D02*
G37*
G36*
X197244Y202362D02*
X201181D01*
Y200000D01*
X197638Y196457D01*
X195276D01*
X194488Y197244D01*
Y202362D01*
X194984Y202858D01*
X197244D01*
Y202362D01*
D02*
G37*
G36*
X200282Y178226D02*
X200381Y178148D01*
Y173511D01*
X201416D01*
Y164803D01*
X200293D01*
Y162598D01*
X198293D01*
Y164803D01*
X196952D01*
Y164591D01*
X195233D01*
X194917Y164997D01*
Y166628D01*
X194903Y166697D01*
Y167000D01*
X194842Y167307D01*
X194668Y167568D01*
X194668Y167568D01*
X194503Y167732D01*
X194387Y167905D01*
X191827Y170466D01*
X192018Y170928D01*
X197638D01*
Y177714D01*
X197640Y177717D01*
X197785Y177844D01*
X198129Y178036D01*
X198204Y178021D01*
X198368Y177953D01*
X198546D01*
X198721Y177918D01*
X198895Y177953D01*
X199073D01*
X199237Y178021D01*
X199412Y178056D01*
X199560Y178154D01*
X199724Y178223D01*
X199850Y178348D01*
X199881Y178369D01*
X200282Y178226D01*
D02*
G37*
G36*
X117900Y178000D02*
X121500D01*
X121641Y177859D01*
Y177060D01*
X122440D01*
X124182Y175318D01*
X121429D01*
Y173766D01*
X120825Y174016D01*
X120120D01*
X119469Y173746D01*
X118971Y173248D01*
X118701Y172597D01*
Y171892D01*
X118971Y171240D01*
X119469Y170742D01*
X120120Y170472D01*
X120825D01*
X121429Y170723D01*
Y168377D01*
X125378D01*
Y171848D01*
X127378D01*
Y168377D01*
X130300D01*
Y164800D01*
X131292Y163807D01*
X130377D01*
Y159941D01*
X128377D01*
Y163807D01*
X127378D01*
X127712Y164141D01*
X127981Y164793D01*
Y165497D01*
X127712Y166148D01*
X127213Y166647D01*
X126562Y166917D01*
X125857D01*
X125206Y166647D01*
X125035Y166476D01*
X120203Y166550D01*
Y166844D01*
X117904D01*
Y167844D01*
X116904D01*
Y170064D01*
X116400D01*
Y176700D01*
X117800Y178100D01*
X117900Y178000D01*
D02*
G37*
G36*
X157556Y172488D02*
X157983Y172290D01*
X158051Y171947D01*
X158350Y171500D01*
X158796Y171201D01*
X159323Y171097D01*
X160323D01*
X160850Y171201D01*
X161296Y171500D01*
X161735D01*
X162182Y171201D01*
X162387Y171161D01*
X162551Y170618D01*
X162129Y170196D01*
X161845Y169770D01*
X161838Y169738D01*
X161370Y169269D01*
X161100Y168618D01*
Y167913D01*
X161161Y167766D01*
X160846Y167220D01*
X160212Y167137D01*
X159197Y166717D01*
X158326Y166048D01*
X157658Y165177D01*
X157350Y164434D01*
X157238Y164163D01*
X157238Y164162D01*
X157201Y163964D01*
X157163Y163838D01*
X157146Y163663D01*
X157106Y163354D01*
Y162003D01*
X155596Y160493D01*
X155134Y160684D01*
Y161700D01*
X152378D01*
Y158156D01*
X154591D01*
Y154981D01*
X152893Y153283D01*
X143663D01*
X142948Y153997D01*
Y154921D01*
X142914Y155090D01*
Y155761D01*
X142844Y156116D01*
Y158369D01*
X144685D01*
Y159353D01*
X145185Y159687D01*
X145349Y159619D01*
X146054D01*
X146705Y159889D01*
X147122Y160306D01*
X147507Y160217D01*
X147622Y160153D01*
Y158156D01*
X150378D01*
Y162700D01*
X151378D01*
Y163700D01*
X155134D01*
Y167243D01*
X152080D01*
X151888Y167705D01*
X156428Y172244D01*
X156849D01*
X157446Y172492D01*
X157556Y172488D01*
D02*
G37*
G36*
X211000Y166300D02*
Y151118D01*
X209542D01*
Y147868D01*
X207542D01*
Y151118D01*
X205000D01*
Y158636D01*
X205296Y158341D01*
X205947Y158071D01*
X206652D01*
X207303Y158341D01*
X207801Y158839D01*
X208071Y159490D01*
Y160195D01*
X207801Y160846D01*
X207303Y161345D01*
X206652Y161614D01*
X205947D01*
X205296Y161345D01*
X205000Y161049D01*
Y166400D01*
X205800Y167200D01*
X210100D01*
X211000Y166300D01*
D02*
G37*
G36*
X188900Y176700D02*
Y172200D01*
X188976Y172124D01*
Y170928D01*
X190172D01*
X194100Y167000D01*
Y164591D01*
X193893D01*
Y163693D01*
X190500Y160300D01*
Y157400D01*
X189327Y156227D01*
X189164Y156159D01*
X188665Y155661D01*
X188598Y155498D01*
X186200Y153100D01*
X181900D01*
X181548Y153452D01*
Y155219D01*
X181482D01*
Y155282D01*
X181700Y155500D01*
X185800D01*
X187700Y157400D01*
Y160700D01*
X190197Y163197D01*
X190215D01*
X190866Y163467D01*
X191364Y163965D01*
X191634Y164616D01*
Y164634D01*
X191900Y164900D01*
Y165900D01*
X190334Y167466D01*
Y167554D01*
X190064Y168205D01*
X189566Y168704D01*
X188915Y168973D01*
X188827D01*
X188800Y169000D01*
X185400D01*
X185118Y168718D01*
X185111Y168753D01*
X184894Y169078D01*
X185111Y169403D01*
X185222Y169964D01*
X185111Y170525D01*
X184982Y170718D01*
Y170782D01*
X185800Y171600D01*
Y176900D01*
X186800Y177900D01*
X187700D01*
X188900Y176700D01*
D02*
G37*
%LPC*%
G36*
X230788Y216191D02*
X229842D01*
X228928Y215946D01*
X228109Y215473D01*
X227440Y214804D01*
X226967Y213985D01*
X226723Y213071D01*
Y212125D01*
X226967Y211212D01*
X227440Y210392D01*
X228109Y209724D01*
X228928Y209251D01*
X229842Y209006D01*
X230788D01*
X231702Y209251D01*
X232521Y209724D01*
X233190Y210392D01*
X233663Y211212D01*
X233908Y212125D01*
Y213071D01*
X233663Y213985D01*
X233190Y214804D01*
X232521Y215473D01*
X231702Y215946D01*
X230788Y216191D01*
D02*
G37*
G36*
X220788D02*
X219842D01*
X218928Y215946D01*
X218109Y215473D01*
X217440Y214804D01*
X216967Y213985D01*
X216722Y213071D01*
Y212125D01*
X216967Y211212D01*
X217440Y210392D01*
X218109Y209724D01*
X218928Y209251D01*
X219842Y209006D01*
X220788D01*
X221702Y209251D01*
X222521Y209724D01*
X223190Y210392D01*
X223663Y211212D01*
X223907Y212125D01*
Y213071D01*
X223663Y213985D01*
X223190Y214804D01*
X222521Y215473D01*
X221702Y215946D01*
X220788Y216191D01*
D02*
G37*
G36*
X95355D02*
X94409D01*
X93495Y215946D01*
X92676Y215473D01*
X92007Y214804D01*
X91534Y213985D01*
X91289Y213071D01*
Y212125D01*
X91534Y211212D01*
X92007Y210392D01*
X92676Y209724D01*
X93495Y209251D01*
X94409Y209006D01*
X95355D01*
X96268Y209251D01*
X97088Y209724D01*
X97756Y210392D01*
X98229Y211212D01*
X98474Y212125D01*
Y213071D01*
X98229Y213985D01*
X97756Y214804D01*
X97088Y215473D01*
X96268Y215946D01*
X95355Y216191D01*
D02*
G37*
G36*
X85355D02*
X84409D01*
X83495Y215946D01*
X82676Y215473D01*
X82007Y214804D01*
X81534Y213985D01*
X81289Y213071D01*
Y212125D01*
X81534Y211212D01*
X82007Y210392D01*
X82676Y209724D01*
X83495Y209251D01*
X84409Y209006D01*
X85355D01*
X86269Y209251D01*
X87088Y209724D01*
X87757Y210392D01*
X88230Y211212D01*
X88474Y212125D01*
Y213071D01*
X88230Y213985D01*
X87757Y214804D01*
X87088Y215473D01*
X86269Y215946D01*
X85355Y216191D01*
D02*
G37*
G36*
X151452Y209872D02*
X150748D01*
X150096Y209602D01*
X149598Y209104D01*
X149328Y208452D01*
Y207748D01*
X149598Y207096D01*
X150096Y206598D01*
X150748Y206328D01*
X151452D01*
X152104Y206598D01*
X152602Y207096D01*
X152872Y207748D01*
Y208452D01*
X152602Y209104D01*
X152104Y209602D01*
X151452Y209872D01*
D02*
G37*
G36*
X203559Y207614D02*
X202969D01*
Y206236D01*
X203559D01*
Y207614D01*
D02*
G37*
G36*
X177347D02*
X176756D01*
Y206236D01*
X177347D01*
Y207614D01*
D02*
G37*
G36*
X138205Y207221D02*
X137614D01*
Y205842D01*
X138205D01*
Y207221D01*
D02*
G37*
G36*
X111992D02*
X111402D01*
Y205842D01*
X111992D01*
Y207221D01*
D02*
G37*
G36*
X135614D02*
X135024D01*
Y207008D01*
X125394D01*
Y204398D01*
X124984Y203988D01*
X124721Y203593D01*
X124705Y203516D01*
X124213Y203603D01*
Y207008D01*
X114583D01*
Y207221D01*
X113992D01*
Y207008D01*
X113583D01*
Y204842D01*
Y202677D01*
X113992D01*
Y202465D01*
X114583D01*
Y202677D01*
X115963D01*
X116251Y202177D01*
X116126Y201929D01*
X115650Y201793D01*
X112751Y201050D01*
X112487Y200923D01*
X112420Y200910D01*
X112230Y200816D01*
X112169Y200791D01*
X111834Y200533D01*
X111163Y200019D01*
X110392Y199013D01*
X109906Y197842D01*
X109800Y197035D01*
X109700D01*
Y195467D01*
X109697Y195389D01*
X109700Y195370D01*
Y195131D01*
X109694Y195100D01*
Y192900D01*
X109692D01*
X109637Y192622D01*
X109607Y192577D01*
X109279Y192251D01*
X109047Y192116D01*
X108880Y191988D01*
X108266Y191516D01*
X107666Y190735D01*
X107616Y190614D01*
X107558Y190539D01*
X107349Y190123D01*
X107332Y190060D01*
X107296Y190006D01*
X107239Y189722D01*
X107163Y189444D01*
X107171Y189379D01*
X107158Y189314D01*
X107158Y188849D01*
Y186068D01*
X107193Y185893D01*
Y185715D01*
X107261Y185551D01*
X107296Y185376D01*
X107395Y185228D01*
X107463Y185064D01*
X107588Y184938D01*
X107687Y184790D01*
X107835Y184692D01*
X107961Y184566D01*
X108125Y184498D01*
X108273Y184399D01*
X108448Y184364D01*
X108612Y184296D01*
X108790D01*
X108965Y184261D01*
X109139Y184296D01*
X109317D01*
X109481Y184364D01*
X109656Y184399D01*
X109804Y184498D01*
X109968Y184566D01*
X110094Y184692D01*
X110242Y184790D01*
X110341Y184938D01*
X110467Y185064D01*
X110535Y185228D01*
X110633Y185376D01*
X110668Y185551D01*
X110736Y185715D01*
Y185893D01*
X110771Y186068D01*
Y188454D01*
X110801Y188915D01*
X110869Y188981D01*
X111137Y189138D01*
X112036Y189828D01*
X112727Y190728D01*
X113161Y191776D01*
X113309Y192900D01*
X113306D01*
Y193600D01*
X116284D01*
Y194087D01*
X116700D01*
X117202Y194187D01*
X117628Y194472D01*
X121794Y198638D01*
X122079Y199064D01*
X122138Y199362D01*
X122623Y199703D01*
X122802Y199628D01*
X123507D01*
X124158Y199898D01*
X124389Y200129D01*
X124619Y199898D01*
X125271Y199628D01*
X125951D01*
X125969Y199606D01*
Y196850D01*
X125969Y196850D01*
X126030Y196543D01*
X126204Y196283D01*
X126204Y196283D01*
X126598Y195889D01*
X126858Y195715D01*
X127165Y195654D01*
X133465D01*
X133465Y195654D01*
X133772Y195715D01*
X134032Y195889D01*
X134032Y195889D01*
X134426Y196283D01*
X134600Y196543D01*
X134661Y196850D01*
Y199606D01*
X134661Y199606D01*
X134600Y199914D01*
X134426Y200174D01*
X134426Y200174D01*
X132423Y202177D01*
X132630Y202677D01*
X135024D01*
Y202465D01*
X135614D01*
Y202677D01*
X136024D01*
Y204842D01*
Y207008D01*
X135614D01*
Y207221D01*
D02*
G37*
G36*
X177347Y204236D02*
X176756D01*
Y202858D01*
X177347D01*
Y204236D01*
D02*
G37*
G36*
X138205Y203842D02*
X137614D01*
Y202465D01*
X138205D01*
Y203842D01*
D02*
G37*
G36*
X111992D02*
X111402D01*
Y202465D01*
X111992D01*
Y203842D01*
D02*
G37*
G36*
X230788Y206191D02*
X229842D01*
X228928Y205946D01*
X228109Y205473D01*
X227440Y204804D01*
X226967Y203985D01*
X226723Y203071D01*
Y202125D01*
X226967Y201212D01*
X227440Y200393D01*
X228109Y199724D01*
X228928Y199251D01*
X229842Y199006D01*
X230788D01*
X231702Y199251D01*
X232521Y199724D01*
X233190Y200393D01*
X233663Y201212D01*
X233908Y202125D01*
Y203071D01*
X233663Y203985D01*
X233190Y204804D01*
X232521Y205473D01*
X231702Y205946D01*
X230788Y206191D01*
D02*
G37*
G36*
X220788D02*
X219842D01*
X218928Y205946D01*
X218109Y205473D01*
X217440Y204804D01*
X216967Y203985D01*
X216722Y203071D01*
Y202125D01*
X216967Y201212D01*
X217440Y200393D01*
X218109Y199724D01*
X218928Y199251D01*
X219842Y199006D01*
X220788D01*
X221702Y199251D01*
X222521Y199724D01*
X223190Y200393D01*
X223663Y201212D01*
X223907Y202125D01*
Y203071D01*
X223663Y203985D01*
X223190Y204804D01*
X222521Y205473D01*
X221702Y205946D01*
X220788Y206191D01*
D02*
G37*
G36*
X95355D02*
X94409D01*
X93495Y205946D01*
X92676Y205473D01*
X92007Y204804D01*
X91534Y203985D01*
X91289Y203071D01*
Y202125D01*
X91534Y201212D01*
X92007Y200393D01*
X92676Y199724D01*
X93495Y199251D01*
X94409Y199006D01*
X95355D01*
X96268Y199251D01*
X97088Y199724D01*
X97756Y200393D01*
X98229Y201212D01*
X98474Y202125D01*
Y203071D01*
X98229Y203985D01*
X97756Y204804D01*
X97088Y205473D01*
X96268Y205946D01*
X95355Y206191D01*
D02*
G37*
G36*
X85355D02*
X84409D01*
X83495Y205946D01*
X82676Y205473D01*
X82007Y204804D01*
X81534Y203985D01*
X81289Y203071D01*
Y202125D01*
X81534Y201212D01*
X82007Y200393D01*
X82676Y199724D01*
X83495Y199251D01*
X84409Y199006D01*
X85355D01*
X86269Y199251D01*
X87088Y199724D01*
X87757Y200393D01*
X88230Y201212D01*
X88474Y202125D01*
Y203071D01*
X88230Y203985D01*
X87757Y204804D01*
X87088Y205473D01*
X86269Y205946D01*
X85355Y206191D01*
D02*
G37*
G36*
X169177Y199074D02*
X168095D01*
Y198090D01*
X169177D01*
Y199074D01*
D02*
G37*
G36*
Y196090D02*
X168095D01*
Y195105D01*
X169177D01*
Y196090D01*
D02*
G37*
G36*
X231315Y196270D02*
Y193598D01*
X233986D01*
X233861Y194067D01*
X233360Y194935D01*
X232651Y195643D01*
X231784Y196144D01*
X231315Y196270D01*
D02*
G37*
G36*
X229315D02*
X228846Y196144D01*
X227979Y195643D01*
X227270Y194935D01*
X226769Y194067D01*
X226644Y193598D01*
X229315D01*
Y196270D01*
D02*
G37*
G36*
X220788Y196191D02*
X219842D01*
X218928Y195946D01*
X218109Y195473D01*
X217440Y194804D01*
X216967Y193985D01*
X216722Y193071D01*
Y192125D01*
X216967Y191212D01*
X217440Y190392D01*
X218109Y189724D01*
X218928Y189251D01*
X219842Y189006D01*
X220788D01*
X221702Y189251D01*
X222521Y189724D01*
X223190Y190392D01*
X223663Y191212D01*
X223907Y192125D01*
Y193071D01*
X223663Y193985D01*
X223190Y194804D01*
X222521Y195473D01*
X221702Y195946D01*
X220788Y196191D01*
D02*
G37*
G36*
X95355D02*
X94409D01*
X93495Y195946D01*
X92676Y195473D01*
X92007Y194804D01*
X91534Y193985D01*
X91289Y193071D01*
Y192125D01*
X91534Y191212D01*
X92007Y190392D01*
X92676Y189724D01*
X93495Y189251D01*
X94409Y189006D01*
X95355D01*
X96268Y189251D01*
X97088Y189724D01*
X97756Y190392D01*
X98229Y191212D01*
X98474Y192125D01*
Y193071D01*
X98229Y193985D01*
X97756Y194804D01*
X97088Y195473D01*
X96268Y195946D01*
X95355Y196191D01*
D02*
G37*
G36*
X85355D02*
X84409D01*
X83495Y195946D01*
X82676Y195473D01*
X82007Y194804D01*
X81534Y193985D01*
X81289Y193071D01*
Y192125D01*
X81534Y191212D01*
X82007Y190392D01*
X82676Y189724D01*
X83495Y189251D01*
X84409Y189006D01*
X85355D01*
X86269Y189251D01*
X87088Y189724D01*
X87757Y190392D01*
X88230Y191212D01*
X88474Y192125D01*
Y193071D01*
X88230Y193985D01*
X87757Y194804D01*
X87088Y195473D01*
X86269Y195946D01*
X85355Y196191D01*
D02*
G37*
G36*
X233986Y191598D02*
X231315D01*
Y188927D01*
X231784Y189053D01*
X232651Y189553D01*
X233360Y190262D01*
X233861Y191130D01*
X233986Y191598D01*
D02*
G37*
G36*
X229315D02*
X226644D01*
X226769Y191130D01*
X227270Y190262D01*
X227979Y189553D01*
X228846Y189053D01*
X229315Y188927D01*
Y191598D01*
D02*
G37*
G36*
X197850Y188463D02*
X194307D01*
Y185708D01*
X197850D01*
Y188463D01*
D02*
G37*
G36*
X192307D02*
X188764D01*
Y185708D01*
X192307D01*
Y188463D01*
D02*
G37*
G36*
X157045Y185039D02*
X156341D01*
X155689Y184770D01*
X155191Y184271D01*
X154921Y183620D01*
Y182915D01*
X155191Y182264D01*
X155689Y181766D01*
X156341Y181496D01*
X157045D01*
X157696Y181766D01*
X158195Y182264D01*
X158465Y182915D01*
Y183620D01*
X158195Y184271D01*
X157696Y184770D01*
X157045Y185039D01*
D02*
G37*
G36*
X230788Y186191D02*
X229842D01*
X228928Y185946D01*
X228109Y185473D01*
X227440Y184804D01*
X226967Y183985D01*
X226723Y183071D01*
Y182125D01*
X226967Y181212D01*
X227440Y180393D01*
X228109Y179724D01*
X228928Y179251D01*
X229842Y179006D01*
X230788D01*
X231702Y179251D01*
X232521Y179724D01*
X233190Y180393D01*
X233663Y181212D01*
X233908Y182125D01*
Y183071D01*
X233663Y183985D01*
X233190Y184804D01*
X232521Y185473D01*
X231702Y185946D01*
X230788Y186191D01*
D02*
G37*
G36*
X220788D02*
X219842D01*
X218928Y185946D01*
X218109Y185473D01*
X217440Y184804D01*
X216967Y183985D01*
X216722Y183071D01*
Y182125D01*
X216967Y181212D01*
X217440Y180393D01*
X218109Y179724D01*
X218928Y179251D01*
X219842Y179006D01*
X220788D01*
X221702Y179251D01*
X222521Y179724D01*
X223190Y180393D01*
X223663Y181212D01*
X223907Y182125D01*
Y183071D01*
X223663Y183985D01*
X223190Y184804D01*
X222521Y185473D01*
X221702Y185946D01*
X220788Y186191D01*
D02*
G37*
G36*
X95355D02*
X94409D01*
X93495Y185946D01*
X92676Y185473D01*
X92007Y184804D01*
X91534Y183985D01*
X91289Y183071D01*
Y182125D01*
X91534Y181212D01*
X92007Y180393D01*
X92676Y179724D01*
X93495Y179251D01*
X94409Y179006D01*
X95355D01*
X96268Y179251D01*
X97088Y179724D01*
X97756Y180393D01*
X98229Y181212D01*
X98474Y182125D01*
Y183071D01*
X98229Y183985D01*
X97756Y184804D01*
X97088Y185473D01*
X96268Y185946D01*
X95355Y186191D01*
D02*
G37*
G36*
X85355D02*
X84409D01*
X83495Y185946D01*
X82676Y185473D01*
X82007Y184804D01*
X81534Y183985D01*
X81289Y183071D01*
Y182125D01*
X81534Y181212D01*
X82007Y180393D01*
X82676Y179724D01*
X83495Y179251D01*
X84409Y179006D01*
X85355D01*
X86269Y179251D01*
X87088Y179724D01*
X87757Y180393D01*
X88230Y181212D01*
X88474Y182125D01*
Y183071D01*
X88230Y183985D01*
X87757Y184804D01*
X87088Y185473D01*
X86269Y185946D01*
X85355Y186191D01*
D02*
G37*
G36*
X221315Y176270D02*
Y173598D01*
X223986D01*
X223861Y174067D01*
X223360Y174935D01*
X222651Y175643D01*
X221784Y176144D01*
X221315Y176270D01*
D02*
G37*
G36*
X219315D02*
X218846Y176144D01*
X217979Y175643D01*
X217270Y174935D01*
X216769Y174067D01*
X216644Y173598D01*
X219315D01*
Y176270D01*
D02*
G37*
G36*
X230788Y176191D02*
X229842D01*
X228928Y175946D01*
X228109Y175473D01*
X227440Y174804D01*
X226967Y173985D01*
X226723Y173071D01*
Y172125D01*
X226967Y171212D01*
X227440Y170393D01*
X228109Y169724D01*
X228928Y169251D01*
X229842Y169006D01*
X230788D01*
X231702Y169251D01*
X232521Y169724D01*
X233190Y170393D01*
X233663Y171212D01*
X233908Y172125D01*
Y173071D01*
X233663Y173985D01*
X233190Y174804D01*
X232521Y175473D01*
X231702Y175946D01*
X230788Y176191D01*
D02*
G37*
G36*
X95355D02*
X94409D01*
X93495Y175946D01*
X92676Y175473D01*
X92007Y174804D01*
X91534Y173985D01*
X91289Y173071D01*
Y172125D01*
X91534Y171212D01*
X92007Y170393D01*
X92676Y169724D01*
X93495Y169251D01*
X94409Y169006D01*
X95355D01*
X96268Y169251D01*
X97088Y169724D01*
X97756Y170393D01*
X98229Y171212D01*
X98474Y172125D01*
Y173071D01*
X98229Y173985D01*
X97756Y174804D01*
X97088Y175473D01*
X96268Y175946D01*
X95355Y176191D01*
D02*
G37*
G36*
X85355D02*
X84409D01*
X83495Y175946D01*
X82676Y175473D01*
X82007Y174804D01*
X81534Y173985D01*
X81289Y173071D01*
Y172125D01*
X81534Y171212D01*
X82007Y170393D01*
X82676Y169724D01*
X83495Y169251D01*
X84409Y169006D01*
X85355D01*
X86269Y169251D01*
X87088Y169724D01*
X87757Y170393D01*
X88230Y171212D01*
X88474Y172125D01*
Y173071D01*
X88230Y173985D01*
X87757Y174804D01*
X87088Y175473D01*
X86269Y175946D01*
X85355Y176191D01*
D02*
G37*
G36*
X223986Y171598D02*
X221315D01*
Y168927D01*
X221784Y169053D01*
X222651Y169553D01*
X223360Y170262D01*
X223861Y171130D01*
X223986Y171598D01*
D02*
G37*
G36*
X219315D02*
X216644D01*
X216769Y171130D01*
X217270Y170262D01*
X217979Y169553D01*
X218846Y169053D01*
X219315Y168927D01*
Y171598D01*
D02*
G37*
G36*
X113518Y170064D02*
X112219D01*
Y168844D01*
X113518D01*
Y170064D01*
D02*
G37*
G36*
X167252Y161087D02*
X166139D01*
Y160069D01*
X166367Y160114D01*
X166884Y160460D01*
X167230Y160977D01*
X167252Y161087D01*
D02*
G37*
G36*
X164139D02*
X163027D01*
X163049Y160977D01*
X163394Y160460D01*
X163912Y160114D01*
X164139Y160069D01*
Y161087D01*
D02*
G37*
G36*
X230788Y166191D02*
X229842D01*
X228928Y165946D01*
X228109Y165473D01*
X227440Y164804D01*
X226967Y163985D01*
X226723Y163071D01*
Y162125D01*
X226967Y161212D01*
X227440Y160392D01*
X228109Y159724D01*
X228928Y159251D01*
X229842Y159006D01*
X230788D01*
X231702Y159251D01*
X232521Y159724D01*
X233190Y160392D01*
X233663Y161212D01*
X233908Y162125D01*
Y163071D01*
X233663Y163985D01*
X233190Y164804D01*
X232521Y165473D01*
X231702Y165946D01*
X230788Y166191D01*
D02*
G37*
G36*
X220788D02*
X219842D01*
X218928Y165946D01*
X218109Y165473D01*
X217440Y164804D01*
X216967Y163985D01*
X216722Y163071D01*
Y162125D01*
X216967Y161212D01*
X217440Y160392D01*
X218109Y159724D01*
X218928Y159251D01*
X219842Y159006D01*
X220788D01*
X221702Y159251D01*
X222521Y159724D01*
X223190Y160392D01*
X223663Y161212D01*
X223907Y162125D01*
Y163071D01*
X223663Y163985D01*
X223190Y164804D01*
X222521Y165473D01*
X221702Y165946D01*
X220788Y166191D01*
D02*
G37*
G36*
X164444Y158212D02*
X163430D01*
Y157282D01*
X164444D01*
Y158212D01*
D02*
G37*
G36*
X136652Y157256D02*
X136542Y157234D01*
X136025Y156888D01*
X135679Y156371D01*
X135634Y156144D01*
X136652D01*
Y157256D01*
D02*
G37*
G36*
X172673Y155360D02*
Y154248D01*
X173691D01*
X173645Y154476D01*
X173300Y154993D01*
X172783Y155338D01*
X172673Y155360D01*
D02*
G37*
G36*
X231315Y156270D02*
Y153598D01*
X233986D01*
X233861Y154067D01*
X233360Y154935D01*
X232651Y155643D01*
X231784Y156144D01*
X231315Y156270D01*
D02*
G37*
G36*
X229315D02*
X228846Y156144D01*
X227979Y155643D01*
X227270Y154935D01*
X226769Y154067D01*
X226644Y153598D01*
X229315D01*
Y156270D01*
D02*
G37*
G36*
X136652Y154144D02*
X135634D01*
X135679Y153916D01*
X136025Y153399D01*
X136542Y153053D01*
X136652Y153031D01*
Y154144D01*
D02*
G37*
G36*
X173691Y152248D02*
X172673D01*
Y151136D01*
X172783Y151158D01*
X173300Y151503D01*
X173645Y152020D01*
X173691Y152248D01*
D02*
G37*
G36*
X186717Y150405D02*
X186607Y150384D01*
X186090Y150038D01*
X185744Y149521D01*
X185699Y149293D01*
X186717D01*
Y150405D01*
D02*
G37*
G36*
X220788Y156191D02*
X219842D01*
X218928Y155946D01*
X218109Y155473D01*
X217440Y154804D01*
X216967Y153985D01*
X216722Y153071D01*
Y152125D01*
X216967Y151212D01*
X217440Y150392D01*
X218109Y149724D01*
X218928Y149251D01*
X219842Y149006D01*
X220788D01*
X221702Y149251D01*
X222521Y149724D01*
X223190Y150392D01*
X223663Y151212D01*
X223907Y152125D01*
Y153071D01*
X223663Y153985D01*
X223190Y154804D01*
X222521Y155473D01*
X221702Y155946D01*
X220788Y156191D01*
D02*
G37*
G36*
X233986Y151598D02*
X231315D01*
Y148927D01*
X231784Y149053D01*
X232651Y149554D01*
X233360Y150262D01*
X233861Y151130D01*
X233986Y151598D01*
D02*
G37*
G36*
X229315D02*
X226644D01*
X226769Y151130D01*
X227270Y150262D01*
X227979Y149554D01*
X228846Y149053D01*
X229315Y148927D01*
Y151598D01*
D02*
G37*
G36*
X186717Y147293D02*
X185699D01*
X185744Y147065D01*
X186090Y146548D01*
X186607Y146203D01*
X186717Y146181D01*
Y147293D01*
D02*
G37*
G36*
X184471Y144956D02*
X184362Y144934D01*
X183844Y144588D01*
X183499Y144071D01*
X183377Y143461D01*
Y143430D01*
X183323Y143408D01*
X182877Y143346D01*
X182593Y143772D01*
X182076Y144118D01*
X181966Y144140D01*
Y142028D01*
Y139915D01*
X182076Y139937D01*
X182593Y140283D01*
X182938Y140800D01*
X183060Y141410D01*
Y141441D01*
X183114Y141463D01*
X183560Y141525D01*
X183844Y141098D01*
X184362Y140753D01*
X184471Y140731D01*
Y142843D01*
Y144956D01*
D02*
G37*
G36*
X230788Y146191D02*
X229842D01*
X228928Y145946D01*
X228109Y145473D01*
X227440Y144804D01*
X226967Y143985D01*
X226723Y143071D01*
Y142125D01*
X226967Y141212D01*
X227440Y140392D01*
X228109Y139724D01*
X228928Y139251D01*
X229842Y139006D01*
X230788D01*
X231702Y139251D01*
X232521Y139724D01*
X233190Y140392D01*
X233663Y141212D01*
X233908Y142125D01*
Y143071D01*
X233663Y143985D01*
X233190Y144804D01*
X232521Y145473D01*
X231702Y145946D01*
X230788Y146191D01*
D02*
G37*
G36*
X220788D02*
X219842D01*
X218928Y145946D01*
X218109Y145473D01*
X217440Y144804D01*
X216967Y143985D01*
X216722Y143071D01*
Y142125D01*
X216967Y141212D01*
X217440Y140392D01*
X218109Y139724D01*
X218928Y139251D01*
X219842Y139006D01*
X220788D01*
X221702Y139251D01*
X222521Y139724D01*
X223190Y140392D01*
X223663Y141212D01*
X223907Y142125D01*
Y143071D01*
X223663Y143985D01*
X223190Y144804D01*
X222521Y145473D01*
X221702Y145946D01*
X220788Y146191D01*
D02*
G37*
G36*
X186370Y136620D02*
X185665D01*
X185014Y136350D01*
X184516Y135852D01*
X184246Y135201D01*
Y134496D01*
X184516Y133845D01*
X185014Y133347D01*
X185665Y133077D01*
X186370D01*
X187021Y133347D01*
X187520Y133845D01*
X187789Y134496D01*
Y135201D01*
X187520Y135852D01*
X187021Y136350D01*
X186370Y136620D01*
D02*
G37*
G36*
X230788Y136191D02*
X229842D01*
X228928Y135946D01*
X228109Y135473D01*
X227440Y134804D01*
X226967Y133985D01*
X226723Y133071D01*
Y132125D01*
X226967Y131212D01*
X227440Y130393D01*
X228109Y129724D01*
X228928Y129251D01*
X229842Y129006D01*
X230788D01*
X231702Y129251D01*
X232521Y129724D01*
X233190Y130393D01*
X233663Y131212D01*
X233908Y132125D01*
Y133071D01*
X233663Y133985D01*
X233190Y134804D01*
X232521Y135473D01*
X231702Y135946D01*
X230788Y136191D01*
D02*
G37*
G36*
X220788D02*
X219842D01*
X218928Y135946D01*
X218109Y135473D01*
X217440Y134804D01*
X216967Y133985D01*
X216722Y133071D01*
Y132125D01*
X216967Y131212D01*
X217440Y130393D01*
X218109Y129724D01*
X218928Y129251D01*
X219842Y129006D01*
X220788D01*
X221702Y129251D01*
X222521Y129724D01*
X223190Y130393D01*
X223663Y131212D01*
X223907Y132125D01*
Y133071D01*
X223663Y133985D01*
X223190Y134804D01*
X222521Y135473D01*
X221702Y135946D01*
X220788Y136191D01*
D02*
G37*
G36*
X231315Y126270D02*
Y123598D01*
X233986D01*
X233861Y124067D01*
X233360Y124935D01*
X232651Y125643D01*
X231784Y126144D01*
X231315Y126270D01*
D02*
G37*
G36*
X229315D02*
X228846Y126144D01*
X227979Y125643D01*
X227270Y124935D01*
X226769Y124067D01*
X226644Y123598D01*
X229315D01*
Y126270D01*
D02*
G37*
G36*
X220788Y126191D02*
X219842D01*
X218928Y125946D01*
X218109Y125473D01*
X217440Y124804D01*
X216967Y123985D01*
X216722Y123071D01*
Y122125D01*
X216967Y121212D01*
X217440Y120393D01*
X218109Y119724D01*
X218928Y119251D01*
X219842Y119006D01*
X220788D01*
X221702Y119251D01*
X222521Y119724D01*
X223190Y120393D01*
X223663Y121212D01*
X223907Y122125D01*
Y123071D01*
X223663Y123985D01*
X223190Y124804D01*
X222521Y125473D01*
X221702Y125946D01*
X220788Y126191D01*
D02*
G37*
G36*
X233986Y121598D02*
X231315D01*
Y118927D01*
X231784Y119053D01*
X232651Y119553D01*
X233360Y120262D01*
X233861Y121130D01*
X233986Y121598D01*
D02*
G37*
G36*
X229315D02*
X226644D01*
X226769Y121130D01*
X227270Y120262D01*
X227979Y119553D01*
X228846Y119053D01*
X229315Y118927D01*
Y121598D01*
D02*
G37*
G36*
X230788Y116191D02*
X229842D01*
X228928Y115946D01*
X228109Y115473D01*
X227440Y114804D01*
X226967Y113985D01*
X226723Y113071D01*
Y112125D01*
X226967Y111212D01*
X227440Y110392D01*
X228109Y109724D01*
X228928Y109251D01*
X229842Y109006D01*
X230788D01*
X231702Y109251D01*
X232521Y109724D01*
X233190Y110392D01*
X233663Y111212D01*
X233908Y112125D01*
Y113071D01*
X233663Y113985D01*
X233190Y114804D01*
X232521Y115473D01*
X231702Y115946D01*
X230788Y116191D01*
D02*
G37*
G36*
X220788D02*
X219842D01*
X218928Y115946D01*
X218109Y115473D01*
X217440Y114804D01*
X216967Y113985D01*
X216722Y113071D01*
Y112125D01*
X216967Y111212D01*
X217440Y110392D01*
X218109Y109724D01*
X218928Y109251D01*
X219842Y109006D01*
X220788D01*
X221702Y109251D01*
X222521Y109724D01*
X223190Y110392D01*
X223663Y111212D01*
X223907Y112125D01*
Y113071D01*
X223663Y113985D01*
X223190Y114804D01*
X222521Y115473D01*
X221702Y115946D01*
X220788Y116191D01*
D02*
G37*
G36*
X95355D02*
X94409D01*
X93495Y115946D01*
X92676Y115473D01*
X92007Y114804D01*
X91534Y113985D01*
X91289Y113071D01*
Y112125D01*
X91534Y111212D01*
X92007Y110392D01*
X92676Y109724D01*
X93495Y109251D01*
X94409Y109006D01*
X95355D01*
X96268Y109251D01*
X97088Y109724D01*
X97756Y110392D01*
X98229Y111212D01*
X98474Y112125D01*
Y113071D01*
X98229Y113985D01*
X97756Y114804D01*
X97088Y115473D01*
X96268Y115946D01*
X95355Y116191D01*
D02*
G37*
G36*
X85355D02*
X84409D01*
X83495Y115946D01*
X82676Y115473D01*
X82007Y114804D01*
X81534Y113985D01*
X81289Y113071D01*
Y112125D01*
X81534Y111212D01*
X82007Y110392D01*
X82676Y109724D01*
X83495Y109251D01*
X84409Y109006D01*
X85355D01*
X86269Y109251D01*
X87088Y109724D01*
X87757Y110392D01*
X88230Y111212D01*
X88474Y112125D01*
Y113071D01*
X88230Y113985D01*
X87757Y114804D01*
X87088Y115473D01*
X86269Y115946D01*
X85355Y116191D01*
D02*
G37*
G36*
X95882Y106270D02*
Y103598D01*
X98553D01*
X98428Y104067D01*
X97927Y104935D01*
X97218Y105643D01*
X96351Y106144D01*
X95882Y106270D01*
D02*
G37*
G36*
X88687Y106404D02*
X85882D01*
Y103598D01*
X88687D01*
Y106404D01*
D02*
G37*
G36*
X93882Y106270D02*
X93413Y106144D01*
X92545Y105643D01*
X91837Y104935D01*
X91336Y104067D01*
X91210Y103598D01*
X93882D01*
Y106270D01*
D02*
G37*
G36*
X83882Y106404D02*
X81077D01*
Y103598D01*
X83882D01*
Y106404D01*
D02*
G37*
G36*
X183024Y106217D02*
X181843D01*
Y103461D01*
X183024D01*
Y106217D01*
D02*
G37*
G36*
X178024D02*
X176843D01*
Y103461D01*
X178024D01*
Y106217D01*
D02*
G37*
G36*
X173024D02*
X171843D01*
Y103461D01*
X173024D01*
Y106217D01*
D02*
G37*
G36*
X168024D02*
X166843D01*
Y103461D01*
X168024D01*
Y106217D01*
D02*
G37*
G36*
X164843D02*
X163662D01*
Y103461D01*
X164843D01*
Y106217D01*
D02*
G37*
G36*
X179843D02*
X178662D01*
Y103461D01*
X179843D01*
Y106217D01*
D02*
G37*
G36*
X174843D02*
X173661D01*
Y103461D01*
X174843D01*
Y106217D01*
D02*
G37*
G36*
X169843D02*
X168661D01*
Y103461D01*
X169843D01*
Y106217D01*
D02*
G37*
G36*
X210299Y103621D02*
X208582D01*
Y101644D01*
X210299D01*
Y103621D01*
D02*
G37*
G36*
X206582D02*
X204865D01*
Y101644D01*
X206582D01*
Y103621D01*
D02*
G37*
G36*
X110122Y101787D02*
X105791D01*
Y99721D01*
X110122D01*
Y101787D01*
D02*
G37*
G36*
X200724Y100538D02*
Y99425D01*
X201742D01*
X201697Y99653D01*
X201351Y100170D01*
X200834Y100516D01*
X200724Y100538D01*
D02*
G37*
G36*
X230788Y106191D02*
X229842D01*
X228928Y105946D01*
X228109Y105473D01*
X227440Y104804D01*
X226967Y103985D01*
X226723Y103071D01*
Y102125D01*
X226967Y101212D01*
X227440Y100392D01*
X228109Y99724D01*
X228928Y99251D01*
X229842Y99006D01*
X230788D01*
X231702Y99251D01*
X232521Y99724D01*
X233190Y100392D01*
X233663Y101212D01*
X233908Y102125D01*
Y103071D01*
X233663Y103985D01*
X233190Y104804D01*
X232521Y105473D01*
X231702Y105946D01*
X230788Y106191D01*
D02*
G37*
G36*
X223907D02*
X216722D01*
Y99006D01*
X223907D01*
Y106191D01*
D02*
G37*
G36*
X98553Y101598D02*
X95882D01*
Y98927D01*
X96351Y99053D01*
X97218Y99554D01*
X97927Y100262D01*
X98428Y101130D01*
X98553Y101598D01*
D02*
G37*
G36*
X93882D02*
X91210D01*
X91336Y101130D01*
X91837Y100262D01*
X92545Y99554D01*
X93413Y99053D01*
X93882Y98927D01*
Y101598D01*
D02*
G37*
G36*
X88687D02*
X85882D01*
Y98793D01*
X88687D01*
Y101598D01*
D02*
G37*
G36*
X83882D02*
X81077D01*
Y98793D01*
X83882D01*
Y101598D01*
D02*
G37*
G36*
X183024Y101461D02*
X181843D01*
Y98705D01*
X183024D01*
Y101461D01*
D02*
G37*
G36*
X179843D02*
X178662D01*
Y98705D01*
X179843D01*
Y101461D01*
D02*
G37*
G36*
X178024D02*
X176843D01*
Y98705D01*
X178024D01*
Y101461D01*
D02*
G37*
G36*
X174843D02*
X173661D01*
Y98705D01*
X174843D01*
Y101461D01*
D02*
G37*
G36*
X173024D02*
X171843D01*
Y98705D01*
X173024D01*
Y101461D01*
D02*
G37*
G36*
X169843D02*
X168661D01*
Y98705D01*
X169843D01*
Y101461D01*
D02*
G37*
G36*
X168024D02*
X166843D01*
Y98705D01*
X168024D01*
Y101461D01*
D02*
G37*
G36*
X164843D02*
X163662D01*
Y98705D01*
X164843D01*
Y101461D01*
D02*
G37*
G36*
X110122Y97721D02*
X105791D01*
Y95882D01*
X102051D01*
Y93913D01*
X105118D01*
X108185D01*
Y95654D01*
X110122D01*
Y97721D01*
D02*
G37*
G36*
X139764Y133858D02*
X115354D01*
Y101787D01*
X112122D01*
Y98721D01*
Y95654D01*
X114272D01*
Y90173D01*
X112122D01*
Y88106D01*
X116453D01*
Y88189D01*
X139764D01*
Y133858D01*
D02*
G37*
G36*
X108185Y91913D02*
X105118D01*
X102051D01*
Y89945D01*
X105791D01*
Y88106D01*
X110122D01*
Y90173D01*
X108185D01*
Y91913D01*
D02*
G37*
G36*
X181020Y96276D02*
X178362D01*
Y88008D01*
X181020D01*
Y96276D01*
D02*
G37*
G36*
X176362D02*
X173705D01*
Y88008D01*
X176362D01*
Y96276D01*
D02*
G37*
G36*
X116453Y86106D02*
X112122D01*
Y84039D01*
X116453D01*
Y86106D01*
D02*
G37*
G36*
X110122D02*
X105791D01*
Y84039D01*
X110122D01*
Y86106D01*
D02*
G37*
%LPD*%
G36*
X133858Y199606D02*
Y196850D01*
X133465Y196457D01*
X127165D01*
X126772Y196850D01*
Y199606D01*
X129528Y202362D01*
X131102D01*
X133858Y199606D01*
D02*
G37*
%LPC*%
G36*
X120203Y170064D02*
X118904D01*
Y168844D01*
X120203D01*
Y170064D01*
D02*
G37*
%LPD*%
D10*
X120866Y92913D02*
X125197D01*
X125591Y92520D01*
X169108Y168192D02*
X171396D01*
X135039Y164469D02*
Y164585D01*
X138060Y167606D01*
X150086D02*
X156496Y174016D01*
X138060Y167606D02*
X150086D01*
X159266Y156286D02*
Y157465D01*
X159239Y157667D02*
X159266Y157465D01*
X164268Y152007D02*
X165509Y153248D01*
X168209D01*
X168307Y153347D01*
X163948Y152007D02*
X164268D01*
X163721Y144505D02*
X165004Y145788D01*
X163581Y144505D02*
X163721D01*
X165004Y145788D02*
X166776D01*
X169861Y142703D02*
X172988D01*
X175148Y145423D02*
X175197Y145472D01*
X172305Y145423D02*
X175148D01*
X171601Y145202D02*
X172084D01*
X172305Y145423D01*
X166776Y145788D02*
X169861Y142703D01*
X171286Y144886D02*
X171601Y145202D01*
X168210Y135069D02*
X170866Y132413D01*
Y132395D02*
Y132413D01*
X163372Y134370D02*
X164071Y135069D01*
X168210D01*
X163372Y129444D02*
Y134370D01*
Y129444D02*
X163778Y129037D01*
X164567Y126177D02*
Y127067D01*
X163778Y127856D02*
Y129037D01*
Y127856D02*
X164567Y127067D01*
Y126177D02*
X165843Y124902D01*
Y123327D02*
Y124902D01*
D14*
X173327Y150886D02*
X172561Y150569D01*
X172244Y149803D01*
X85712Y166732D02*
X84577Y166721D01*
X83474Y166455D01*
Y166455D02*
X82687Y166068D01*
X82000Y165522D01*
X81444Y164842D01*
X81095Y164519D02*
X81444Y164842D01*
X80795Y132210D02*
X81010Y131235D01*
X81454Y130340D01*
X82101Y129578D01*
X82913Y128996D01*
X83842Y128627D01*
X84832Y128494D01*
X81095Y164520D02*
X80540Y163780D01*
X80795Y132210D02*
X80540Y132786D01*
X195374Y155413D02*
X196260Y156299D01*
X114400Y195400D02*
X116700D01*
X201900Y204517D02*
Y205400D01*
X177362Y176870D02*
Y178543D01*
X172244Y147835D02*
Y149803D01*
X180874Y102394D02*
Y107055D01*
X199606Y98425D02*
X199724Y98307D01*
X102050Y216350D02*
X102300Y216600D01*
X159858Y151757D02*
X161221Y150394D01*
X157931Y81160D02*
X160179D01*
X151156Y157947D02*
Y162700D01*
X137490Y155030D02*
X137598Y154921D01*
X160179Y81160D02*
X160236Y81102D01*
X157874D02*
X157931Y81160D01*
X157666Y81311D02*
X157874Y81102D01*
X157666Y81311D02*
Y83279D01*
X157480Y83465D02*
X157666Y83279D01*
X201378Y85032D02*
X201764Y84646D01*
X201378Y85032D02*
Y85335D01*
X201764Y84646D02*
X204331D01*
X206431Y81102D02*
X206693D01*
X201083Y82571D02*
X201764Y81890D01*
X204516Y81704D02*
X205829D01*
X206431Y81102D01*
X204331Y81890D02*
X204516Y81704D01*
X201764Y81890D02*
X204331D01*
X201083Y82571D02*
Y82579D01*
X175394Y84646D02*
X175492Y84547D01*
X172835Y84646D02*
X175394D01*
X199724Y92055D02*
X201764Y94095D01*
X199409Y91740D02*
X199724Y92055D01*
Y98307D01*
Y87126D02*
Y92055D01*
X199606Y87008D02*
X199724Y87126D01*
X206693Y216535D02*
X210630D01*
X214567D01*
Y212598D02*
Y216535D01*
Y208661D02*
Y212598D01*
Y202756D02*
Y208661D01*
Y194882D02*
Y202756D01*
Y190945D02*
Y194882D01*
Y187008D02*
Y190945D01*
Y183071D02*
Y187008D01*
Y179134D02*
Y183071D01*
Y175197D02*
Y178740D01*
Y171260D02*
Y175197D01*
Y167323D02*
Y171260D01*
Y163386D02*
Y167323D01*
Y159449D02*
Y163386D01*
Y155512D02*
Y159449D01*
Y151575D02*
Y155512D01*
Y147638D02*
Y151575D01*
Y143701D02*
Y147244D01*
Y139764D02*
Y143701D01*
Y135827D02*
Y139764D01*
Y131890D02*
Y135827D01*
Y124016D02*
Y131890D01*
Y120079D02*
Y124016D01*
Y116142D02*
Y120079D01*
Y112205D02*
Y116142D01*
Y108268D02*
Y112205D01*
Y100394D02*
Y108268D01*
Y96457D02*
Y100394D01*
Y92520D02*
Y96457D01*
Y88583D02*
Y92520D01*
Y84646D02*
Y88583D01*
Y81102D02*
Y84646D01*
X210638Y81110D02*
X214559D01*
X214567Y81102D01*
X210630Y81118D02*
X210638Y81110D01*
X206701D02*
X210622D01*
X206693Y81102D02*
X206701Y81110D01*
X85712Y166732D02*
X104478D01*
X81444Y164842D02*
X81444Y164842D01*
X84832Y128494D02*
X90728Y122598D01*
X84832Y128494D02*
X84832Y128494D01*
X81095Y164519D02*
Y164520D01*
X80540Y136641D02*
Y163780D01*
X80540Y132786D02*
Y136641D01*
X203715Y203343D02*
X203900Y203157D01*
X201900Y204517D02*
X203075Y203343D01*
X203715D01*
X196031Y205132D02*
X196063Y205163D01*
X196000Y202300D02*
X196031Y202331D01*
Y205132D01*
X136500Y201800D02*
X136614Y201914D01*
Y204842D01*
X185991Y203722D02*
Y203772D01*
X179358Y197090D02*
X185991Y203722D01*
X186130Y203912D02*
Y205146D01*
X185991Y203772D02*
X186130Y203912D01*
X173490Y197090D02*
X179358D01*
X186130Y205146D02*
X186221Y205236D01*
X173400Y197000D02*
X173490Y197090D01*
X165500Y201668D02*
Y202200D01*
Y201668D02*
X170079Y197090D01*
X170177D01*
X170386Y197200D02*
X170760Y197574D01*
Y197988D01*
X174163Y201392D01*
X175290D01*
X178347Y204449D01*
Y205236D01*
X120866Y199566D02*
Y204842D01*
X116700Y195400D02*
X120866Y199566D01*
X106769Y197831D02*
X107480Y197120D01*
X106769Y197831D02*
X112992Y204055D01*
X107480Y193307D02*
Y197120D01*
X104862Y195925D02*
X106769Y197831D01*
X100986Y195700D02*
X104500D01*
X104787Y196000D02*
X104862Y195925D01*
X104500Y196000D02*
X104787D01*
X100394Y196292D02*
X100986Y195700D01*
X100394Y196292D02*
Y198794D01*
Y198819D02*
Y202706D01*
Y202756D02*
Y206506D01*
Y206693D02*
Y210594D01*
Y210630D02*
Y214506D01*
X100208Y214752D02*
X100394Y214567D01*
X100208Y214752D02*
Y216314D01*
X100244Y216350D01*
X102050D01*
X112992Y204055D02*
Y204842D01*
X158800Y174267D02*
X159646Y173421D01*
X158800Y174267D02*
Y175430D01*
X157900Y176330D02*
Y176500D01*
Y176330D02*
X158800Y175430D01*
X159646Y173228D02*
Y173421D01*
X167615Y173515D02*
X167800Y173700D01*
X163209Y173091D02*
X163632Y173515D01*
X167615D01*
X166696Y170604D02*
X169108Y168192D01*
X164394Y170604D02*
X166696D01*
X90777Y137078D02*
Y156501D01*
X91363Y157087D02*
X117421D01*
X118733Y155774D01*
X90777Y156501D02*
X91363Y157087D01*
X118733Y155774D02*
X132386D01*
X193935Y141134D02*
X196017Y143216D01*
X193935Y138718D02*
Y141134D01*
X193898Y138681D02*
X193935Y138718D01*
X193861Y134392D02*
Y138189D01*
X193788Y134319D02*
X193861Y134392D01*
X196575Y135621D02*
Y137484D01*
X196370Y135415D02*
X196575Y135621D01*
X196370Y135153D02*
Y135415D01*
X196690Y137598D02*
X197047D01*
X196575Y137484D02*
X196690Y137598D01*
X177854Y146260D02*
X178883Y147289D01*
X177756Y146161D02*
X177854Y146260D01*
X90777Y137078D02*
X94882Y132973D01*
X104478Y166732D02*
X106898Y165323D01*
X107168D01*
X114584Y165323D01*
X114592Y165323D01*
X126210Y165145D01*
X80540Y136641D02*
X80540Y136641D01*
X146839Y156661D02*
Y157596D01*
X146674Y156496D02*
X146839Y156661D01*
X136855Y191024D02*
X136909Y191078D01*
Y196161D01*
X146839Y157596D02*
X150000Y160757D01*
Y160827D01*
X130315Y152317D02*
X130577D01*
X132177Y153917D01*
X150000Y156791D02*
X151156Y157947D01*
X132177Y153917D02*
X133975D01*
X135089Y155030D01*
X133147Y157111D02*
X135005Y158969D01*
X132386Y155774D02*
X133147Y156536D01*
X135089Y155030D02*
X137490D01*
X133147Y156536D02*
Y157111D01*
X90728Y122598D02*
X94882D01*
Y132598D02*
Y132973D01*
X165781Y160816D02*
X166074Y160524D01*
Y159578D02*
Y160524D01*
X165781Y160816D02*
Y161528D01*
X169190Y159401D02*
X169263Y159475D01*
Y161835D02*
X170243Y162815D01*
X165597Y161713D02*
X165781Y161528D01*
X165945Y159449D02*
X166074Y159578D01*
X169263Y159475D02*
Y161835D01*
X163057Y169267D02*
X164394Y170604D01*
X162872Y168266D02*
X163057Y168451D01*
Y169267D01*
X174124Y156262D02*
X174310Y156447D01*
X171850Y153543D02*
X174124Y155817D01*
Y156262D01*
X193438Y154298D02*
X195138Y152598D01*
X192652Y155253D02*
Y155516D01*
X193438Y154298D02*
Y154467D01*
X192652Y155253D02*
X193438Y154467D01*
X188300Y167202D02*
X188562D01*
X188094Y167407D02*
X188300Y167202D01*
X185871Y167407D02*
X188094D01*
X186383Y164649D02*
X186858Y165123D01*
X183694Y164649D02*
X186383D01*
X186858Y165123D02*
X187120D01*
X161734Y153236D02*
X162252Y153754D01*
Y153800D01*
X159718Y153052D02*
X159903Y153236D01*
X161734D01*
X177224Y135009D02*
X177378D01*
X176308Y135925D02*
X177224Y135009D01*
X171260Y135925D02*
X176308D01*
X163712Y137755D02*
X169430D01*
X171260Y135925D01*
X178883Y147289D02*
X180512D01*
X171850Y152362D02*
X173237Y150976D01*
X171850Y152362D02*
Y153150D01*
X180318Y147930D02*
X180512Y147736D01*
X180318Y147930D02*
Y152362D01*
X196335Y144366D02*
X197539Y145571D01*
X196335Y143796D02*
Y144366D01*
X197539Y145571D02*
Y145669D01*
X196017Y143479D02*
X196335Y143796D01*
X196017Y143216D02*
Y143479D01*
X191661Y147651D02*
X193226D01*
X193702Y147176D02*
X193964D01*
X193226Y147651D02*
X193702Y147176D01*
X191043Y148268D02*
X191661Y147651D01*
X195138Y152598D02*
X197079D01*
X197213Y152731D01*
X198878D01*
X199063Y152917D01*
X198397Y159314D02*
X199178Y158532D01*
X198397Y159314D02*
Y159510D01*
X170866Y132395D02*
X173937D01*
X174425Y131907D01*
X160433Y128051D02*
X160456Y128028D01*
X161415D01*
X161600Y127843D01*
X161617Y135659D02*
X163712Y137755D01*
X164398Y118996D02*
X168087D01*
X170472Y121382D01*
X163362Y120032D02*
X164398Y118996D01*
X160235Y123733D02*
X163362Y120607D01*
X160235Y123733D02*
Y131907D01*
X163362Y120032D02*
Y120607D01*
X196370Y135153D02*
X196555Y135338D01*
X151587Y194232D02*
Y196754D01*
X151244Y198909D02*
X151587Y196754D01*
X159858Y151757D02*
Y152866D01*
X151351Y193996D02*
X151587Y194232D01*
X184154Y147736D02*
X184417Y147474D01*
X180512Y147736D02*
X184154D01*
X124409Y167913D02*
Y170177D01*
X124899Y171848D02*
X125886D01*
X124409Y170177D02*
X125886Y171653D01*
X135005Y158969D02*
Y164349D01*
X178150Y159055D02*
Y164370D01*
X182776Y168254D02*
Y169882D01*
X182541Y168192D02*
X182713D01*
X182776Y168254D01*
X176969Y167306D02*
Y176476D01*
X177362Y176870D01*
X178166Y164649D02*
X182541D01*
X193209Y185335D02*
X193405Y185531D01*
Y189665D01*
X175843Y93307D02*
Y102461D01*
X175205Y93602D02*
X175394Y93413D01*
X172736Y93602D02*
X175205D01*
X172835Y90748D02*
X175098D01*
X172835Y87894D02*
X174705D01*
X201279Y88189D02*
X204232D01*
X201378Y91142D02*
X204232D01*
X201181Y91339D02*
X201378Y91142D01*
X201764Y94095D02*
X204232D01*
X207874Y104134D02*
X208760Y103248D01*
Y100492D02*
Y103248D01*
X187218Y147651D02*
X187697Y148130D01*
X185885Y147651D02*
X187218D01*
X165945Y102657D02*
X170646D01*
X165943Y102758D02*
X165945Y102756D01*
X165943Y102758D02*
Y106888D01*
X166043Y106988D01*
X180874Y107055D02*
X180905Y107087D01*
X180874Y102394D02*
X180905Y102362D01*
X175689Y102657D02*
X175766Y102734D01*
Y107010D01*
X175689Y107087D02*
X175766Y107010D01*
X170646Y102657D02*
X170843Y102461D01*
X165354Y161713D02*
X165597D01*
X162430Y156282D02*
Y158886D01*
X165059Y161516D01*
X114272Y178248D02*
X114518Y178001D01*
Y167844D02*
Y178001D01*
X199720Y156398D02*
X200000D01*
X199178Y156940D02*
X199720Y156398D01*
X199178Y156940D02*
Y158532D01*
X195965Y156299D02*
Y162598D01*
X117904Y167844D02*
X120895D01*
X124899Y171848D01*
X170472Y121382D02*
Y122835D01*
X192323Y155413D02*
X195374D01*
X195965Y162598D02*
X196021D01*
D16*
X200056Y156160D02*
D03*
X196316D02*
D03*
X151282Y193701D02*
D03*
X155023D02*
D03*
D17*
X161220Y147093D02*
D03*
Y150478D02*
D03*
X165139Y165472D02*
D03*
Y162087D02*
D03*
D21*
X199606Y87008D02*
D03*
X177362D02*
D03*
D30*
X114482Y195318D02*
D03*
X111502D02*
D03*
X162430Y156282D02*
D03*
X159449D02*
D03*
D41*
X196339Y98425D02*
D03*
X199724D02*
D03*
X180966Y142028D02*
D03*
X177580D02*
D03*
X172283Y147798D02*
D03*
X168898D02*
D03*
X187717Y148293D02*
D03*
X191102D02*
D03*
X185471Y142843D02*
D03*
X188857D02*
D03*
X171673Y153248D02*
D03*
X168287D02*
D03*
X163209Y173091D02*
D03*
X159823D02*
D03*
X137652Y155144D02*
D03*
X141038D02*
D03*
D69*
X207165Y227953D02*
D03*
X173150D02*
D03*
X141811Y227559D02*
D03*
X107795D02*
D03*
D70*
X207165Y206850D02*
D03*
X173150D02*
D03*
X141811Y206457D02*
D03*
X107795D02*
D03*
D73*
X161301Y165472D02*
X160252Y165231D01*
X159415Y164556D01*
X158957Y163583D01*
X158912Y163354D01*
X116578Y200166D02*
X117479Y200679D01*
X110070Y190618D02*
X109173Y189730D01*
X110070Y190618D02*
X110826Y191178D01*
X111325Y191975D01*
X111500Y192900D01*
X113112Y199241D02*
X112310Y198592D01*
X111771Y197714D01*
X111557Y196705D01*
X199213Y162697D02*
X199527D01*
X180315Y131496D02*
Y136122D01*
X161301Y165472D02*
X165139D01*
X158912Y163354D02*
Y163354D01*
Y161254D02*
Y163354D01*
X175787Y140650D02*
Y144882D01*
Y140650D02*
X180315Y136122D01*
X141038Y153353D02*
Y155144D01*
X180646Y123524D02*
Y127867D01*
X179740D02*
Y130922D01*
X169787Y127867D02*
X179740D01*
X180646Y123524D02*
X180843Y123327D01*
X192520Y98425D02*
X196339D01*
X192520Y98425D02*
X192520Y98425D01*
X189550Y101394D02*
X192520Y98425D01*
X189550Y101394D02*
Y104621D01*
X199296Y110714D02*
X203543D01*
X189550Y104621D02*
X193203D01*
X199296Y110714D01*
X193092Y174686D02*
X193209Y174803D01*
X192913Y174508D02*
X193092Y174686D01*
X117479Y200679D02*
X118400Y201600D01*
X108965Y189314D02*
X109173Y189730D01*
X177559Y183465D02*
Y186221D01*
X130500Y200200D02*
Y201500D01*
X113200Y199300D02*
X116578Y200166D01*
X108965Y188849D02*
X108965Y189314D01*
X111500Y192900D02*
Y195100D01*
X108965Y186068D02*
Y188849D01*
X111502Y195318D02*
X111557Y196705D01*
X153642Y151476D02*
X156398Y154232D01*
X118209Y176378D02*
X119390Y175197D01*
X121457D02*
X122638Y174016D01*
X119390Y175197D02*
X121457D01*
X111692Y159744D02*
X122539D01*
X111417Y159469D02*
X111692Y159744D01*
X141142Y152854D02*
Y154921D01*
X141339Y153052D02*
X142914Y151476D01*
X141038Y155517D02*
Y162596D01*
X156398Y158740D02*
X158912Y161254D01*
X156398Y154232D02*
Y158740D01*
X142914Y151476D02*
X153642D01*
X157812Y189256D02*
X161536Y185531D01*
X151655Y189256D02*
X154788D01*
X157812D01*
X161536Y185531D02*
X161614D01*
X136909Y196161D02*
X138386Y197638D01*
X148317D01*
X182677Y154429D02*
X186024D01*
X189370Y157776D02*
Y161000D01*
X186024Y154429D02*
X189370Y157776D01*
X193110Y164997D02*
Y166628D01*
X192896Y164087D02*
Y164783D01*
X190522Y161713D02*
X192896Y164087D01*
Y164783D02*
X193110Y164997D01*
X189370Y161000D02*
X190083Y161713D01*
X190522D01*
X186811Y171949D02*
X187007D01*
X189025Y169931D02*
X189807D01*
X187007Y171949D02*
X189025Y169931D01*
X189807D02*
X193110Y166628D01*
X175197Y145472D02*
X175787Y144882D01*
X170758Y144886D02*
X171286D01*
X168976Y146668D02*
X170758Y144886D01*
X168898Y147798D02*
X168976Y147720D01*
Y146668D02*
Y147720D01*
X206004Y142913D02*
Y146602D01*
X207270Y147868D01*
X208542D01*
Y154799D01*
X209068Y155324D02*
Y162783D01*
X208542Y154799D02*
X209068Y155324D01*
X206299Y165551D02*
X209068Y162783D01*
X199874Y181496D02*
X201000D01*
X202153Y181784D02*
X203145Y182776D01*
X201288Y181784D02*
X202153D01*
X201000Y181496D02*
X201288Y181784D01*
X198721Y180343D02*
X199874Y181496D01*
X198721Y179724D02*
Y180343D01*
X164326Y147966D02*
X168819D01*
X161299Y147171D02*
X162567D01*
X164326Y147966D01*
X161220Y147093D02*
X161299Y147171D01*
X154823Y152439D02*
X160090Y147171D01*
X166731Y130922D02*
X169787Y127867D01*
X166731Y130922D02*
X166731D01*
X165961Y131693D02*
X166731Y130922D01*
X165961Y131693D02*
Y131693D01*
X198566Y130565D02*
X200244D01*
X201181Y131502D02*
Y137669D01*
X200244Y130565D02*
X201181Y131502D01*
X207894Y137106D02*
X210335D01*
X206890Y131496D02*
Y136102D01*
X198622Y119882D02*
X207256Y111248D01*
X198622Y119882D02*
Y130709D01*
X206021Y108382D02*
X207256Y109617D01*
Y111248D01*
X205126Y108382D02*
X206021D01*
X198702Y104621D02*
X202027Y107945D01*
X204689D01*
X205126Y108382D01*
X126378Y185039D02*
X129626Y188287D01*
X130413D01*
X206890Y136102D02*
X207894Y137106D01*
X124409Y167913D02*
X127356D01*
X124311D02*
X124409D01*
X127356D02*
X129377Y165893D01*
Y159941D02*
Y165893D01*
X199649Y163133D02*
X200394Y163878D01*
X199527Y162697D02*
X199649Y162819D01*
Y163133D01*
X200394Y163878D02*
Y167520D01*
X203145Y182776D02*
X203839D01*
X126378Y180317D02*
Y185039D01*
X198566Y104621D02*
X198702D01*
X193209Y174803D02*
Y179134D01*
D75*
X174705Y149409D02*
X175242D01*
X185531Y142815D02*
Y143014D01*
X183465Y145081D02*
X185531Y143014D01*
X183465Y145081D02*
Y145276D01*
X178937Y145177D02*
X183366D01*
X183465Y145276D01*
X177854Y146260D02*
X178937Y145177D01*
X176390Y147724D02*
X177854Y146260D01*
X184888Y170026D02*
X186811Y171949D01*
X182776Y170026D02*
X182806Y169996D01*
X183937Y170026D02*
X184888D01*
X183907Y169996D02*
X183937Y170026D01*
X182806Y169996D02*
X183907D01*
X182573Y166452D02*
X184661D01*
X185630Y167421D01*
X182541Y166420D02*
X182573Y166452D01*
X189075Y142913D02*
X192255D01*
X194051Y144709D01*
X184660Y142028D02*
X185236Y142604D01*
X180966Y142028D02*
X184660D01*
X176390Y147724D02*
Y148261D01*
X175242Y149409D02*
X176390Y148261D01*
X180315Y157087D02*
X180318Y157084D01*
Y154429D02*
Y157084D01*
D76*
X155512Y193310D02*
X156125Y192697D01*
X157018D01*
X157589Y192126D01*
X157972D01*
X155512Y193310D02*
Y193504D01*
D78*
X141038Y155517D02*
X141142Y155413D01*
X141038Y162596D02*
X141142Y162700D01*
D80*
X148317Y191764D02*
Y197638D01*
Y191764D02*
X150825Y189256D01*
X151655D01*
X201181Y137669D02*
Y139794D01*
X203432Y142045D02*
Y144483D01*
X201181Y139794D02*
X203432Y142045D01*
X202955Y144961D02*
X203432Y144483D01*
X202955Y144961D02*
Y154157D01*
X203022Y154223D02*
Y175755D01*
X204035Y176769D01*
X202955Y154157D02*
X203022Y154223D01*
D81*
X118602Y92913D02*
X120866D01*
X118553Y92864D02*
X118602Y92913D01*
D83*
X94882Y212598D02*
D03*
X84882D02*
D03*
X94882Y202598D02*
D03*
X84882D02*
D03*
X94882Y192598D02*
D03*
X84882D02*
D03*
X94882Y182598D02*
D03*
X84882D02*
D03*
X94882Y172598D02*
D03*
X84882D02*
D03*
X94882Y162598D02*
D03*
X84882D02*
D03*
X94882Y152598D02*
D03*
X84882D02*
D03*
X94882Y142598D02*
D03*
X84882D02*
D03*
X94882Y132598D02*
D03*
X84882D02*
D03*
X94882Y122598D02*
D03*
X84882D02*
D03*
X94882Y112598D02*
D03*
X84882D02*
D03*
X94882Y102598D02*
D03*
X230315Y212598D02*
D03*
X220315D02*
D03*
X230315Y202598D02*
D03*
X220315D02*
D03*
X230315Y192598D02*
D03*
X220315D02*
D03*
X230315Y182598D02*
D03*
X220315D02*
D03*
X230315Y172598D02*
D03*
X220315D02*
D03*
X230315Y162598D02*
D03*
X220315D02*
D03*
X230315Y152598D02*
D03*
X220315D02*
D03*
X230315Y142598D02*
D03*
X220315D02*
D03*
X230315Y132598D02*
D03*
X220315D02*
D03*
X230315Y122598D02*
D03*
X220315D02*
D03*
X230315Y112598D02*
D03*
X220315D02*
D03*
X230315Y102598D02*
D03*
D84*
X84882D02*
D03*
X220315D02*
D03*
D85*
X227165Y227165D02*
D03*
X87795D02*
D03*
X227165Y87795D02*
D03*
X87795D02*
D03*
D86*
X164075Y81217D02*
D03*
X160138D02*
D03*
X204331Y84646D02*
D03*
Y81890D02*
D03*
X172835Y84646D02*
D03*
X155118Y216535D02*
D03*
X168012Y81217D02*
D03*
X143701Y216535D02*
D03*
X165865Y143569D02*
D03*
X183465Y145276D02*
D03*
X202756Y101969D02*
D03*
X195276Y102756D02*
D03*
X157480Y83465D02*
D03*
X177559Y183465D02*
D03*
X199606Y200787D02*
D03*
X196063Y199213D02*
D03*
X130500Y200200D02*
D03*
X100394Y160236D02*
D03*
Y164567D02*
D03*
X105905Y216535D02*
D03*
X109055D02*
D03*
X140551D02*
D03*
X147244D02*
D03*
X151181D02*
D03*
X159055D02*
D03*
X162598D02*
D03*
X166535D02*
D03*
X170472D02*
D03*
X174409D02*
D03*
X157700Y204300D02*
D03*
X203900Y203157D02*
D03*
X196000Y202300D02*
D03*
X136500Y201800D02*
D03*
X165500Y202200D02*
D03*
X151100Y208100D02*
D03*
X100394Y198819D02*
D03*
Y202756D02*
D03*
Y206693D02*
D03*
Y210630D02*
D03*
Y214567D02*
D03*
X102362Y216535D02*
D03*
X125623Y201400D02*
D03*
X123154D02*
D03*
X107480Y193307D02*
D03*
X161600Y179200D02*
D03*
X157900Y176500D02*
D03*
X167800Y173700D02*
D03*
X140540Y194696D02*
D03*
X143482Y193774D02*
D03*
X118209Y176378D02*
D03*
X111417Y159469D02*
D03*
X108965Y186068D02*
D03*
X123548Y184572D02*
D03*
X125295Y176063D02*
D03*
X141142Y154921D02*
D03*
X159239Y157667D02*
D03*
X125984Y152445D02*
D03*
X146674Y156496D02*
D03*
X145702Y161391D02*
D03*
X156496Y174016D02*
D03*
X156693Y183268D02*
D03*
X168405Y185138D02*
D03*
X157972Y192126D02*
D03*
X154788Y189256D02*
D03*
X151244Y198909D02*
D03*
X145745Y194758D02*
D03*
X163189Y189862D02*
D03*
X164862Y191883D02*
D03*
X158760Y194685D02*
D03*
X136855Y191024D02*
D03*
X139318Y192420D02*
D03*
X126210Y165145D02*
D03*
X130315Y152317D02*
D03*
X150000Y156791D02*
D03*
X100394Y153543D02*
D03*
Y149606D02*
D03*
X165945Y159449D02*
D03*
X169190Y159401D02*
D03*
X162872Y168266D02*
D03*
X165340Y168320D02*
D03*
X171547Y160146D02*
D03*
X174310Y156447D02*
D03*
X192652Y155516D02*
D03*
X193131Y151160D02*
D03*
X190167Y154657D02*
D03*
X185183Y157515D02*
D03*
X189370Y161000D02*
D03*
X189862Y164969D02*
D03*
X188562Y167202D02*
D03*
X187120Y165123D02*
D03*
X163948Y152007D02*
D03*
X162252Y153800D02*
D03*
X163581Y144505D02*
D03*
X177378Y135009D02*
D03*
X172988Y142703D02*
D03*
X175787Y140650D02*
D03*
X175197Y145472D02*
D03*
X174902Y149750D02*
D03*
X173407Y150976D02*
D03*
X176832Y153950D02*
D03*
X177792Y156225D02*
D03*
X182640Y154446D02*
D03*
X199539Y150495D02*
D03*
X196017Y143216D02*
D03*
X200861Y143110D02*
D03*
X206004Y142913D02*
D03*
X194051Y144709D02*
D03*
X193964Y147176D02*
D03*
X193788Y134319D02*
D03*
X199063Y152917D02*
D03*
X198397Y159510D02*
D03*
X206299Y159843D02*
D03*
Y165551D02*
D03*
X170866Y132395D02*
D03*
X186018Y134848D02*
D03*
X161600Y127843D02*
D03*
X161617Y135659D02*
D03*
X168831Y116837D02*
D03*
X196370Y135153D02*
D03*
X206890Y131496D02*
D03*
X204121Y126772D02*
D03*
X203543Y110714D02*
D03*
X171949Y81217D02*
D03*
X210630Y81118D02*
D03*
X180217Y157185D02*
D03*
X139370Y86614D02*
D03*
X116535D02*
D03*
X112598Y89764D02*
D03*
Y93307D02*
D03*
Y96850D02*
D03*
Y100787D02*
D03*
Y131890D02*
D03*
Y127953D02*
D03*
Y124016D02*
D03*
Y120079D02*
D03*
Y116142D02*
D03*
Y112205D02*
D03*
Y108268D02*
D03*
Y104331D02*
D03*
X120079Y86614D02*
D03*
X124016D02*
D03*
X127953D02*
D03*
X131890D02*
D03*
X135827D02*
D03*
X114173Y135827D02*
D03*
X118110D02*
D03*
X122047D02*
D03*
X125984D02*
D03*
X129921D02*
D03*
X133858D02*
D03*
X137795D02*
D03*
X141732D02*
D03*
Y131890D02*
D03*
Y127953D02*
D03*
Y124016D02*
D03*
Y120079D02*
D03*
Y116142D02*
D03*
Y112205D02*
D03*
Y108268D02*
D03*
Y104331D02*
D03*
Y100394D02*
D03*
Y96457D02*
D03*
Y92520D02*
D03*
Y88583D02*
D03*
X120866Y92913D02*
D03*
X135112Y182775D02*
D03*
X139443D02*
D03*
X143774D02*
D03*
X148104D02*
D03*
X135112Y178445D02*
D03*
X139443D02*
D03*
X143774D02*
D03*
X148104D02*
D03*
X135112Y174114D02*
D03*
X139443D02*
D03*
X143774D02*
D03*
X148104D02*
D03*
X135112Y169783D02*
D03*
X139443D02*
D03*
X143774D02*
D03*
X148104D02*
D03*
X206693Y81102D02*
D03*
X157480Y86614D02*
D03*
Y90551D02*
D03*
Y94488D02*
D03*
Y98425D02*
D03*
Y102362D02*
D03*
Y106299D02*
D03*
Y110236D02*
D03*
Y114173D02*
D03*
Y118110D02*
D03*
Y122047D02*
D03*
Y125984D02*
D03*
Y137795D02*
D03*
Y141732D02*
D03*
X110236Y149606D02*
D03*
X104331D02*
D03*
X206693Y216535D02*
D03*
X210630D02*
D03*
X214567D02*
D03*
Y212598D02*
D03*
Y208661D02*
D03*
Y202756D02*
D03*
Y194882D02*
D03*
Y190945D02*
D03*
Y187008D02*
D03*
Y183071D02*
D03*
Y179134D02*
D03*
Y175197D02*
D03*
Y171260D02*
D03*
Y167323D02*
D03*
Y163386D02*
D03*
Y159449D02*
D03*
Y155512D02*
D03*
Y151575D02*
D03*
Y147638D02*
D03*
Y143701D02*
D03*
Y139764D02*
D03*
Y135827D02*
D03*
Y131890D02*
D03*
Y124016D02*
D03*
Y120079D02*
D03*
Y116142D02*
D03*
Y112205D02*
D03*
Y108268D02*
D03*
Y100394D02*
D03*
Y96457D02*
D03*
Y92520D02*
D03*
Y88583D02*
D03*
Y84646D02*
D03*
Y81102D02*
D03*
X159673Y153051D02*
D03*
X130413Y188287D02*
D03*
X120472Y172244D02*
D03*
X124409Y167913D02*
D03*
X178150Y159055D02*
D03*
X185260Y147289D02*
D03*
X197441Y168799D02*
D03*
X200394Y167520D02*
D03*
X198721Y179724D02*
D03*
X186909Y176181D02*
D03*
X186811Y171949D02*
D03*
X193405Y189665D02*
D03*
X172736Y93602D02*
D03*
X172835Y90748D02*
D03*
Y87894D02*
D03*
X204232Y88189D02*
D03*
Y91142D02*
D03*
Y94095D02*
D03*
X208760Y100492D02*
D03*
X166043Y106988D02*
D03*
X180905Y107087D02*
D03*
X175689D02*
D03*
X114272Y178248D02*
D03*
X193209Y179134D02*
D03*
D87*
X179943Y176965D02*
X179693Y176379D01*
X181422Y171957D02*
X182105Y171768D01*
X180721Y177396D02*
X180164Y177175D01*
X175061Y176525D02*
X174795Y176814D01*
X173674Y173080D02*
X172987Y172506D01*
X179236Y175389D02*
X179693Y176083D01*
X175458Y174583D02*
X175595Y175543D01*
X179750Y173312D02*
X180262Y173080D01*
X180951Y172504D02*
X181422Y171957D01*
X173674Y173080D02*
X174188Y173312D01*
X180951Y172504D02*
X180262Y173080D01*
X171396Y171735D02*
X172512Y171956D01*
X172987Y172506D01*
X179236Y175389D02*
X178766Y174798D01*
X178985Y174076D01*
X191810Y204475D02*
X192034Y204568D01*
X191191Y204280D02*
X191191Y204279D01*
X191664Y204475D02*
X191191Y204280D01*
X189124Y199685D02*
X189746Y200413D01*
X190246Y201230D01*
X190613Y202114D01*
X190836Y203045D01*
X190911Y204000D01*
X179910Y190787D02*
X179675Y190024D01*
X179693Y189642D02*
X180171Y188907D01*
X179693Y189862D02*
X179675Y190024D01*
X181108Y188519D02*
X180172Y188906D01*
X181496Y187583D02*
X181108Y188519D01*
X188189Y204791D02*
X188281Y204568D01*
X188505Y204475D01*
X189390Y204210D02*
X188749Y204475D01*
X176575Y190618D02*
X175819Y189862D01*
X176797Y190618D02*
X177329Y190816D01*
X175340Y188906D02*
X175819Y189643D01*
X175340Y188906D02*
X174404Y188519D01*
X174016Y187583D01*
X192034Y204568D02*
X192126Y204791D01*
X188197Y200612D02*
X188793Y201338D01*
X189235Y202167D01*
X189508Y203065D01*
X189600Y204000D01*
X182105Y171767D02*
X182541Y171735D01*
X182105Y171767D02*
Y171768D01*
X180164Y177175D02*
X180164Y177175D01*
X179943Y176965D02*
X180164Y177175D01*
X179693Y176083D02*
Y176379D01*
X180721Y177396D02*
X181496Y178445D01*
X174791Y176814D02*
X174795D01*
X174016Y178445D02*
X174791Y176814D01*
X174188Y173312D02*
X175458Y174583D01*
X178985Y174076D02*
X179750Y173312D01*
X175061Y176525D02*
X175595Y175543D01*
X191664Y204475D02*
X191810D01*
X191191Y204279D02*
X191191Y204280D01*
X190911Y204000D02*
X191191Y204279D01*
X186334Y196895D02*
X189124Y199685D01*
X179675Y190024D02*
X179675Y190024D01*
X180171Y188907D02*
X180172Y188906D01*
X181496Y187500D02*
Y187583D01*
X188189Y204791D02*
Y205236D01*
X188505Y204475D02*
X188749D01*
X189390Y204210D02*
X189600Y204000D01*
X176575Y190618D02*
X176797D01*
X177329Y190816D02*
X185428Y197847D01*
X175340Y188906D02*
X175340D01*
X175819Y189643D02*
Y189862D01*
X174016Y187500D02*
Y187583D01*
X192126Y204791D02*
Y205236D01*
X185432Y197847D02*
X188197Y200612D01*
X185428Y197847D02*
X185432D01*
X179693Y189642D02*
Y189862D01*
X179910Y190787D02*
X186334Y196895D01*
X125623Y201400D02*
X125844Y201621D01*
Y203128D01*
X126772Y204055D01*
Y204842D01*
X122995Y201560D02*
X123154Y201400D01*
X122995Y201560D02*
Y204683D01*
X122835Y204842D02*
X122995Y204683D01*
D88*
X126223Y91946D02*
D03*
Y89156D02*
D03*
D89*
X207582Y104621D02*
D03*
D90*
X198566D02*
D03*
X189550D02*
D03*
D91*
X198566Y130565D02*
D03*
D92*
X173130Y197090D02*
D03*
X170177D02*
D03*
D93*
X202362Y210354D02*
D03*
X177953D02*
D03*
X137008Y209961D02*
D03*
X112598D02*
D03*
D94*
X181299Y210354D02*
D03*
X183268D02*
D03*
X185236D02*
D03*
X187205D02*
D03*
X189173D02*
D03*
X191142D02*
D03*
X193110D02*
D03*
X195079D02*
D03*
X197047D02*
D03*
X199016D02*
D03*
X201969Y205236D02*
D03*
X200000D02*
D03*
X198031D02*
D03*
X196063D02*
D03*
X194095D02*
D03*
X192126D02*
D03*
X188189D02*
D03*
X186221D02*
D03*
X184252D02*
D03*
X182283D02*
D03*
X180315D02*
D03*
X178347D02*
D03*
X115945Y209961D02*
D03*
X117913D02*
D03*
X119882D02*
D03*
X121850D02*
D03*
X123819D02*
D03*
X125787D02*
D03*
X127756D02*
D03*
X129724D02*
D03*
X131693D02*
D03*
X133661D02*
D03*
X136614Y204842D02*
D03*
X134646D02*
D03*
X132677D02*
D03*
X130709D02*
D03*
X128740D02*
D03*
X126772D02*
D03*
X122835D02*
D03*
X120866D02*
D03*
X118898D02*
D03*
X116929D02*
D03*
X114961D02*
D03*
X112992D02*
D03*
D95*
X181496Y187500D02*
D03*
X177756D02*
D03*
X174016D02*
D03*
Y178445D02*
D03*
X177756D02*
D03*
X181496D02*
D03*
D96*
X163061Y177901D02*
D03*
Y184403D02*
D03*
X204035Y183270D02*
D03*
Y176769D02*
D03*
D97*
X141142Y162700D02*
D03*
X151378D02*
D03*
D98*
X176969Y167306D02*
D03*
D99*
X171396Y171735D02*
D03*
Y169964D02*
D03*
Y168192D02*
D03*
Y166420D02*
D03*
Y164649D02*
D03*
Y162877D02*
D03*
X182541D02*
D03*
Y164649D02*
D03*
Y166420D02*
D03*
Y168192D02*
D03*
Y169964D02*
D03*
D100*
Y171735D02*
D03*
D101*
X193935Y138189D02*
D03*
X197207D02*
D03*
X199293Y162598D02*
D03*
X196021D02*
D03*
D102*
X197736Y145866D02*
D03*
Y149606D02*
D03*
D103*
X180331Y131907D02*
D03*
X174425D02*
D03*
X160235D02*
D03*
X166141D02*
D03*
D104*
X193307Y184708D02*
D03*
Y174471D02*
D03*
D105*
X180843Y102461D02*
D03*
X175843D02*
D03*
X170843D02*
D03*
X165843D02*
D03*
Y123327D02*
D03*
X170843D02*
D03*
X175843D02*
D03*
X180843D02*
D03*
D106*
X126378Y180317D02*
D03*
Y171848D02*
D03*
D107*
X208542Y147868D02*
D03*
Y137368D02*
D03*
D108*
X180318Y152759D02*
D03*
Y154137D02*
D03*
D109*
X114518Y167844D02*
D03*
X117904D02*
D03*
D110*
X111122Y98721D02*
D03*
Y87106D02*
D03*
D111*
X105118Y92913D02*
D03*
X117126D02*
D03*
D112*
X129377Y159941D02*
D03*
X122876D02*
D03*
D113*
X130700Y201700D02*
Y205000D01*
X130500Y201500D02*
X130700Y201700D01*
X118898Y204842D02*
Y205630D01*
Y202098D02*
Y204202D01*
X118400Y201600D02*
X118898Y202098D01*
M02*
