G04*
G04 #@! TF.GenerationSoftware,Altium Limited,Altium Designer,22.11.1 (43)*
G04*
G04 Layer_Color=32896*
%FSLAX25Y25*%
%MOIN*%
G70*
G04*
G04 #@! TF.SameCoordinates,40CF40E7-FDA6-4BEF-B87F-FA6DAB628F73*
G04*
G04*
G04 #@! TF.FilePolarity,Positive*
G04*
G01*
G75*
%ADD10C,0.00787*%
%ADD11C,0.00984*%
%ADD14C,0.01000*%
%ADD73C,0.01968*%
G36*
X113763Y109092D02*
X113478Y109124D01*
X113382Y109155D01*
X113145Y109203D01*
X113018Y109234D01*
X112859Y109298D01*
X112685Y109345D01*
X112448Y109393D01*
X112178Y109504D01*
X112051Y109536D01*
X111576Y109757D01*
X110974Y110074D01*
X110688Y110233D01*
X110213Y110550D01*
X109817Y110851D01*
X109706Y110930D01*
X109531Y111073D01*
X109421Y111184D01*
X109357Y111215D01*
X108739Y111834D01*
X108707Y111897D01*
X108581Y112024D01*
X108549Y112087D01*
X108422Y112214D01*
X108390Y112277D01*
X108327Y112341D01*
X108295Y112404D01*
X108232Y112468D01*
X108200Y112531D01*
X108057Y112705D01*
X107931Y112895D01*
X107788Y113165D01*
X107725Y113228D01*
X107503Y113640D01*
X107408Y113862D01*
X107376Y113926D01*
X107313Y113989D01*
X107249Y114211D01*
X107091Y114559D01*
X107043Y114766D01*
X106901Y115098D01*
X106853Y115304D01*
X106821Y115431D01*
X106710Y115796D01*
X106679Y116113D01*
X106647Y116239D01*
X106615Y116461D01*
X106552Y116842D01*
X106504Y117396D01*
X106489Y133989D01*
X106520Y134084D01*
X106552Y134433D01*
X106615Y134591D01*
X106679Y134845D01*
X106742Y135003D01*
X106837Y135099D01*
X106996Y135384D01*
X107138Y135558D01*
X107550Y135970D01*
X107614Y136002D01*
X107836Y136129D01*
X108057Y136224D01*
X108406Y136382D01*
X108818Y136414D01*
X109674Y136382D01*
X110023Y136224D01*
X110308Y136065D01*
X110530Y135907D01*
X110736Y135764D01*
X110768Y135701D01*
X111021Y135447D01*
X111053Y135384D01*
X111259Y135083D01*
X111306Y134940D01*
X111417Y134639D01*
X111465Y134496D01*
X111497Y134370D01*
X111528Y117222D01*
X111560Y117127D01*
X111592Y117000D01*
X111655Y116778D01*
X111734Y116445D01*
X111877Y116208D01*
X111909Y116081D01*
X112035Y115859D01*
X112241Y115558D01*
X112368Y115368D01*
X112416Y115320D01*
X112448Y115257D01*
X112780Y114924D01*
X112844Y114892D01*
X112939Y114797D01*
X113097Y114702D01*
X113319Y114544D01*
X113382Y114512D01*
X113541Y114417D01*
X113747Y114338D01*
X114080Y114195D01*
X114413Y114116D01*
X114587Y114068D01*
X114714Y114036D01*
X115855Y114068D01*
X116013Y114131D01*
X116140Y114163D01*
X116346Y114211D01*
X116505Y114274D01*
X116774Y114385D01*
X117186Y114607D01*
X117360Y114750D01*
X117408Y114797D01*
X117471Y114829D01*
X117566Y114924D01*
X117630Y114956D01*
X117963Y115288D01*
X117994Y115352D01*
X118089Y115447D01*
X118121Y115510D01*
X118248Y115637D01*
X118406Y115922D01*
X118628Y116398D01*
X118723Y116778D01*
X118787Y116937D01*
X118818Y117063D01*
X118882Y117761D01*
X118913Y128696D01*
X118945Y128791D01*
X118977Y129108D01*
X119009Y129203D01*
X119072Y129457D01*
X119104Y129710D01*
X119135Y129805D01*
X119230Y130122D01*
X119262Y130249D01*
X119310Y130455D01*
X119389Y130629D01*
X119532Y131026D01*
X119753Y131469D01*
X119833Y131644D01*
X120118Y132183D01*
X120245Y132373D01*
X120276Y132436D01*
X120815Y133165D01*
X120879Y133229D01*
X120910Y133292D01*
X121100Y133482D01*
X121132Y133545D01*
X121354Y133767D01*
X121386Y133831D01*
X121465Y133910D01*
X121528Y133942D01*
X121909Y134322D01*
X121972Y134354D01*
X122067Y134449D01*
X122131Y134481D01*
X122257Y134607D01*
X122321Y134639D01*
X122384Y134702D01*
X122448Y134734D01*
X122543Y134829D01*
X122765Y134956D01*
X122860Y135051D01*
X122986Y135083D01*
X123113Y135210D01*
X123319Y135289D01*
X123367Y135336D01*
X123430Y135368D01*
X124032Y135653D01*
X124191Y135748D01*
X124349Y135812D01*
X124555Y135859D01*
X124825Y135970D01*
X125047Y136034D01*
X125554Y136192D01*
X125823Y136240D01*
X126013Y136271D01*
X126283Y136351D01*
X126410Y136382D01*
X127012Y136414D01*
X128819Y136382D01*
X128914Y136351D01*
X129040Y136319D01*
X129136Y136287D01*
X129262Y136256D01*
X129532Y136208D01*
X129722Y136176D01*
X129975Y136081D01*
X130150Y136034D01*
X130356Y135986D01*
X130514Y135923D01*
X130689Y135844D01*
X130879Y135812D01*
X131418Y135527D01*
X132083Y135178D01*
X132147Y135115D01*
X132432Y134956D01*
X132495Y134893D01*
X132559Y134861D01*
X133177Y134401D01*
X133351Y134227D01*
X133414Y134195D01*
X133557Y134053D01*
X133589Y133989D01*
X134286Y133292D01*
X134318Y133229D01*
X134413Y133133D01*
X134445Y133070D01*
X134540Y132975D01*
X134571Y132912D01*
X134635Y132848D01*
X134667Y132785D01*
X134873Y132484D01*
X134984Y132309D01*
X135110Y132119D01*
X135142Y131992D01*
X135205Y131929D01*
X135396Y131580D01*
X135491Y131358D01*
X135570Y131152D01*
X135617Y131105D01*
X135681Y130946D01*
X135728Y130772D01*
X135792Y130614D01*
X135871Y130439D01*
X135918Y130170D01*
X135998Y129964D01*
X136061Y129742D01*
X136109Y129472D01*
X136235Y128839D01*
X136267Y128522D01*
X136299Y127919D01*
X136315Y111422D01*
X136283Y111326D01*
X136251Y110914D01*
X136220Y110819D01*
X136140Y110613D01*
X136045Y110360D01*
X135966Y110249D01*
X135760Y109948D01*
X135713Y109900D01*
X135617Y109742D01*
X135443Y109567D01*
X135380Y109536D01*
X135205Y109393D01*
X134888Y109203D01*
X134635Y109108D01*
X134365Y109028D01*
X134159Y108981D01*
X133351Y108965D01*
X133256Y108997D01*
X132749Y109155D01*
X132685Y109187D01*
X132495Y109314D01*
X132337Y109409D01*
X132067Y109615D01*
X132036Y109678D01*
X131988Y109726D01*
X131925Y109757D01*
X131846Y109837D01*
X131814Y109900D01*
X131751Y109964D01*
X131719Y110027D01*
X131655Y110090D01*
X131529Y110312D01*
X131465Y110471D01*
X131402Y110724D01*
X131307Y110946D01*
X131275Y111263D01*
X131243Y128252D01*
X131212Y128347D01*
X131164Y128522D01*
X131085Y128791D01*
X131053Y128918D01*
X130863Y129330D01*
X130609Y129774D01*
X130546Y129837D01*
X130514Y129900D01*
X130419Y129996D01*
X130387Y130059D01*
X129928Y130518D01*
X129865Y130550D01*
X129801Y130614D01*
X129738Y130645D01*
X129643Y130740D01*
X129421Y130867D01*
X129357Y130930D01*
X129199Y130994D01*
X129072Y131026D01*
X129009Y131089D01*
X128850Y131152D01*
X128644Y131200D01*
X128517Y131232D01*
X128248Y131311D01*
X128026Y131343D01*
X127614Y131374D01*
X127044Y131343D01*
X126948Y131311D01*
X126774Y131263D01*
X126505Y131184D01*
X126378Y131152D01*
X126172Y131073D01*
X125792Y130883D01*
X125744Y130835D01*
X125522Y130709D01*
X125459Y130645D01*
X125395Y130614D01*
X125332Y130550D01*
X125269Y130518D01*
X125173Y130423D01*
X125110Y130392D01*
X124841Y130122D01*
X124809Y130059D01*
X124682Y129932D01*
X124651Y129869D01*
X124587Y129805D01*
X124555Y129742D01*
X124492Y129678D01*
X124239Y129140D01*
X124112Y128854D01*
X124064Y128617D01*
X123985Y128347D01*
X123953Y128220D01*
X123922Y127903D01*
X123890Y116810D01*
X123858Y116715D01*
X123826Y116334D01*
X123795Y116239D01*
X123700Y115700D01*
X123652Y115495D01*
X123589Y115336D01*
X123541Y115162D01*
X123509Y115035D01*
X123462Y114829D01*
X123319Y114496D01*
X123240Y114290D01*
X123193Y114242D01*
X123066Y113926D01*
X123034Y113862D01*
X122939Y113704D01*
X122860Y113498D01*
X122622Y113101D01*
X122495Y112911D01*
X122464Y112848D01*
X121925Y112119D01*
X121766Y111960D01*
X121734Y111897D01*
X121544Y111707D01*
X121513Y111643D01*
X121449Y111612D01*
X121417Y111548D01*
X121370Y111501D01*
X121307Y111469D01*
X121132Y111295D01*
X121100Y111231D01*
X121053Y111184D01*
X120990Y111152D01*
X120926Y111089D01*
X120863Y111057D01*
X120673Y110867D01*
X120609Y110835D01*
X120514Y110740D01*
X120451Y110708D01*
X120007Y110391D01*
X119944Y110360D01*
X119880Y110296D01*
X119437Y110043D01*
X119024Y109821D01*
X118802Y109726D01*
X118644Y109662D01*
X118359Y109536D01*
X118184Y109488D01*
X118010Y109409D01*
X117788Y109345D01*
X117582Y109298D01*
X117424Y109234D01*
X117281Y109187D01*
X116980Y109139D01*
X116790Y109108D01*
X116663Y109076D01*
X116283Y109013D01*
X115997Y108981D01*
X114397Y108965D01*
X114302Y108997D01*
X113985Y109028D01*
X113795Y109092D01*
X113763D01*
D02*
G37*
G36*
X145190Y113228D02*
X145158Y128379D01*
X145126Y128474D01*
X145047Y128680D01*
X145000Y128854D01*
X144968Y129013D01*
X144683Y129552D01*
X144476Y129853D01*
X144429Y129900D01*
X144397Y129964D01*
X144255Y130138D01*
X144159Y130233D01*
X144112Y130249D01*
X144080Y130313D01*
X143906Y130487D01*
X143843Y130518D01*
X143747Y130614D01*
X143684Y130645D01*
X143589Y130740D01*
X143367Y130867D01*
X143304Y130930D01*
X143129Y130978D01*
X142765Y131152D01*
X142432Y131232D01*
X142226Y131311D01*
X141830Y131358D01*
X141212Y131374D01*
X141117Y131343D01*
X140816Y131295D01*
X140689Y131263D01*
X140419Y131184D01*
X140166Y131121D01*
X139960Y131042D01*
X139833Y131010D01*
X139548Y130978D01*
X139342Y130962D01*
X139247Y130994D01*
X138850Y131042D01*
X138724Y131073D01*
X138518Y131152D01*
X138391Y131184D01*
X138169Y131343D01*
X138011Y131406D01*
X137884Y131533D01*
X137820Y131564D01*
X137709Y131644D01*
X137678Y131707D01*
X137424Y131961D01*
X137392Y132024D01*
X137297Y132119D01*
X137075Y132595D01*
X137012Y132817D01*
X136980Y132975D01*
X136949Y133070D01*
X136917Y133197D01*
X136949Y134021D01*
X137012Y134179D01*
X137044Y134306D01*
X137075Y134496D01*
X137202Y134687D01*
X137361Y134972D01*
X137424Y135035D01*
X137456Y135099D01*
X137519Y135162D01*
X137551Y135225D01*
X137694Y135368D01*
X137757Y135400D01*
X137884Y135527D01*
X137947Y135558D01*
X138011Y135622D01*
X138169Y135717D01*
X138454Y135844D01*
X138866Y136002D01*
X139072Y136049D01*
X139437Y136160D01*
X139564Y136192D01*
X139944Y136256D01*
X140182Y136303D01*
X140435Y136366D01*
X140847Y136398D01*
X142226Y136414D01*
X142321Y136382D01*
X142733Y136351D01*
X142828Y136319D01*
X143082Y136256D01*
X143383Y136208D01*
X143542Y136176D01*
X143668Y136145D01*
X144033Y136034D01*
X144239Y135986D01*
X144397Y135923D01*
X144572Y135844D01*
X144778Y135796D01*
X145047Y135653D01*
X145174Y135622D01*
X145396Y135495D01*
X145998Y135178D01*
X146188Y135051D01*
X146347Y134956D01*
X146410Y134893D01*
X146569Y134798D01*
X146632Y134734D01*
X146695Y134702D01*
X146981Y134481D01*
X147155Y134338D01*
X147266Y134227D01*
X147329Y134195D01*
X148042Y133482D01*
X148074Y133419D01*
X148296Y133197D01*
X148328Y133133D01*
X148391Y133070D01*
X148423Y133007D01*
X148866Y132373D01*
X148898Y132309D01*
X149025Y132183D01*
X149104Y131976D01*
X149215Y131834D01*
X149263Y131660D01*
X149342Y131580D01*
X149405Y131422D01*
X149485Y131216D01*
X149564Y131073D01*
X149675Y130772D01*
X149754Y130598D01*
X149849Y130217D01*
X149912Y130059D01*
X149976Y129837D01*
X150007Y129710D01*
X150039Y129457D01*
X150103Y129298D01*
X150198Y128537D01*
X150166Y110756D01*
X149976Y110344D01*
X149944Y110280D01*
X149786Y110059D01*
X149754Y109995D01*
X149659Y109900D01*
X149627Y109837D01*
X149294Y109504D01*
X149231Y109472D01*
X149168Y109409D01*
X149104Y109377D01*
X148882Y109250D01*
X148534Y109092D01*
X148375Y109028D01*
X147995Y108965D01*
X147171Y108997D01*
X147076Y109028D01*
X146854Y109124D01*
X146727Y109155D01*
X146505Y109282D01*
X146220Y109441D01*
X146156Y109504D01*
X146093Y109536D01*
X145760Y109868D01*
X145729Y109932D01*
X145570Y110154D01*
X145380Y110566D01*
X145348Y110693D01*
X145253Y111009D01*
X145221Y111136D01*
X145190Y111358D01*
Y113197D01*
Y113228D01*
D02*
G37*
D10*
X128709Y88065D02*
Y93037D01*
X123737Y88065D02*
Y93037D01*
X211371Y110693D02*
Y124493D01*
X185761D02*
X211371D01*
X185761Y110693D02*
Y124493D01*
Y110693D02*
X211371D01*
X84882Y97598D02*
X99783D01*
Y217598D01*
X79980D02*
X99783D01*
X79980Y102598D02*
Y217598D01*
X110487Y192660D02*
X115497D01*
X110487Y197975D02*
X115497D01*
X208150Y212598D02*
Y221260D01*
X172165Y212598D02*
Y221260D01*
X142795Y212205D02*
Y220866D01*
X106811Y212205D02*
Y220866D01*
X171654Y183563D02*
X183858D01*
X171654Y182382D02*
X183858D01*
X171654D02*
Y183563D01*
X183858Y182382D02*
Y183563D01*
X158620Y175431D02*
Y186873D01*
X167503Y175431D02*
Y186873D01*
X135827Y161715D02*
Y163684D01*
X134843Y162700D02*
X136811D01*
X145374Y159156D02*
X147146D01*
X145374Y166243D02*
X147146D01*
X171063Y160908D02*
X182874D01*
X171063Y173704D02*
X182874D01*
X220315Y97598D02*
X235217D01*
Y217598D01*
X215413D02*
X235217D01*
X215413Y102598D02*
Y217598D01*
X189764Y178704D02*
Y180475D01*
X196850Y178704D02*
Y180475D01*
X193307Y168172D02*
Y170141D01*
X192323Y169156D02*
X194291D01*
X183185Y106988D02*
Y118799D01*
X163500D02*
X183185D01*
X163500Y106988D02*
Y118799D01*
Y106988D02*
X183185D01*
X122429Y176083D02*
X130327D01*
X208477Y174299D02*
Y185741D01*
X199594Y174299D02*
Y185741D01*
X205292Y141094D02*
Y144142D01*
X211792Y141094D02*
Y144142D01*
X194680Y159819D02*
X200633D01*
X194680Y165378D02*
X200633D01*
X182247Y152637D02*
Y154290D01*
X178349Y152621D02*
Y154275D01*
X192594Y140969D02*
X198547D01*
X192594Y135409D02*
X198547D01*
X120406Y155500D02*
X131848D01*
X120406Y164382D02*
X131848D01*
X158434Y153625D02*
X163444D01*
X158434Y158940D02*
X163444D01*
D11*
X126715Y85630D02*
X125977Y86056D01*
Y85204D01*
X126715Y85630D01*
X212838Y104621D02*
X212099Y105047D01*
Y104194D01*
X212838Y104621D01*
X178760Y200748D02*
X178022Y201174D01*
Y200322D01*
X178760Y200748D01*
X113406Y200354D02*
X112667Y200781D01*
Y199928D01*
X113406Y200354D01*
X185335Y178445D02*
X184597Y178871D01*
Y178019D01*
X185335Y178445D01*
X186852Y171735D02*
X186114Y172161D01*
Y171309D01*
X186852Y171735D01*
X181335Y97539D02*
X180596Y97966D01*
Y97113D01*
X181335Y97539D01*
X121850Y92913D02*
X121112Y93340D01*
Y92487D01*
X121850Y92913D01*
D14*
X136646Y87976D02*
X133498D01*
Y90075D01*
X136646Y91124D02*
Y93223D01*
X136121D01*
X134022Y91124D01*
X133498D01*
X189238Y131889D02*
Y129265D01*
X188713Y128741D01*
X187664D01*
X187139Y129265D01*
Y131889D01*
X183990Y128741D02*
X186089D01*
X183990Y130840D01*
Y131365D01*
X184515Y131889D01*
X185565D01*
X186089Y131365D01*
X107299Y178590D02*
X109298D01*
X108299D01*
Y173591D01*
X109298Y172591D01*
X110298D01*
X111298Y173591D01*
X102301Y172591D02*
Y178590D01*
X105299Y175591D01*
X101301D01*
X129920Y193701D02*
Y196850D01*
X128346D01*
X127821Y196325D01*
Y195276D01*
X128346Y194751D01*
X129920D01*
X128870D02*
X127821Y193701D01*
X126771D02*
X125722D01*
X126247D01*
Y196850D01*
X126771Y196325D01*
X122048Y196850D02*
X124148D01*
Y195276D01*
X123098Y195800D01*
X122573D01*
X122048Y195276D01*
Y194226D01*
X122573Y193701D01*
X123623D01*
X124148Y194226D01*
X167322Y198032D02*
Y201181D01*
X165747D01*
X165223Y200656D01*
Y199606D01*
X165747Y199082D01*
X167322D01*
X166272D02*
X165223Y198032D01*
X164173D02*
X163124D01*
X163648D01*
Y201181D01*
X164173Y200656D01*
X159975Y198032D02*
Y201181D01*
X161549Y199606D01*
X159450D01*
X191157Y227409D02*
X193157D01*
X192157D01*
Y222410D01*
X193157Y221410D01*
X194156D01*
X195156Y222410D01*
X185159Y227409D02*
X189158D01*
Y224410D01*
X187158Y225409D01*
X186159D01*
X185159Y224410D01*
Y222410D01*
X186159Y221410D01*
X188158D01*
X189158Y222410D01*
X125803Y226621D02*
X127802D01*
X126803D01*
Y221623D01*
X127802Y220623D01*
X128802D01*
X129801Y221623D01*
X119805Y220623D02*
X123803D01*
X119805Y224622D01*
Y225621D01*
X120804Y226621D01*
X122804D01*
X123803Y225621D01*
X187401Y185171D02*
X184253D01*
Y186746D01*
X184777Y187270D01*
X186876D01*
X187401Y186746D01*
Y185171D01*
X186876Y188320D02*
X187401Y188845D01*
Y189894D01*
X186876Y190419D01*
X186352D01*
X185827Y189894D01*
Y189370D01*
Y189894D01*
X185302Y190419D01*
X184777D01*
X184253Y189894D01*
Y188845D01*
X184777Y188320D01*
X178346Y164305D02*
X175722D01*
X175197Y164830D01*
Y165880D01*
X175722Y166404D01*
X178346D01*
X177821Y167454D02*
X178346Y167979D01*
Y169028D01*
X177821Y169553D01*
X177296D01*
X176772Y169028D01*
Y168503D01*
Y169028D01*
X176247Y169553D01*
X175722D01*
X175197Y169028D01*
Y167979D01*
X175722Y167454D01*
X102100Y88582D02*
X103149D01*
X102624D01*
Y85958D01*
X103149Y85434D01*
X103674D01*
X104199Y85958D01*
X98951Y88582D02*
X100001Y88057D01*
X101050Y87008D01*
Y85958D01*
X100525Y85434D01*
X99476D01*
X98951Y85958D01*
Y86483D01*
X99476Y87008D01*
X101050D01*
X172703Y112992D02*
Y110368D01*
X172178Y109843D01*
X171128D01*
X170604Y110368D01*
Y112992D01*
X167980Y109843D02*
Y112992D01*
X169554Y111417D01*
X167455D01*
X190550Y136615D02*
Y139763D01*
X188976D01*
X188451Y139239D01*
Y138189D01*
X188976Y137664D01*
X190550D01*
X189500D02*
X188451Y136615D01*
X187401D02*
X186352D01*
X186876D01*
Y139763D01*
X187401Y139239D01*
X184777D02*
X184253Y139763D01*
X183203D01*
X182678Y139239D01*
Y138714D01*
X183203Y138189D01*
X183728D01*
X183203D01*
X182678Y137664D01*
Y137139D01*
X183203Y136615D01*
X184253D01*
X184777Y137139D01*
X152756Y127560D02*
X155905D01*
Y129135D01*
X155380Y129659D01*
X154331D01*
X153806Y129135D01*
Y127560D01*
Y128610D02*
X152756Y129659D01*
Y130709D02*
Y131758D01*
Y131234D01*
X155905D01*
X155380Y130709D01*
X152756Y135432D02*
Y133333D01*
X154856Y135432D01*
X155380D01*
X155905Y134907D01*
Y133858D01*
X155380Y133333D01*
X155200Y199000D02*
Y202149D01*
X153626D01*
X153101Y201624D01*
Y200574D01*
X153626Y200049D01*
X155200D01*
X154150D02*
X153101Y199000D01*
X152051Y201624D02*
X151527Y202149D01*
X150477D01*
X149952Y201624D01*
Y201099D01*
X150477Y200574D01*
X149952Y200049D01*
Y199525D01*
X150477Y199000D01*
X151527D01*
X152051Y199525D01*
Y200049D01*
X151527Y200574D01*
X152051Y201099D01*
Y201624D01*
X151527Y200574D02*
X150477D01*
X127300Y190349D02*
Y187200D01*
X125201D01*
X122052Y190349D02*
X123102Y189824D01*
X124151Y188774D01*
Y187725D01*
X123627Y187200D01*
X122577D01*
X122052Y187725D01*
Y188250D01*
X122577Y188774D01*
X124151D01*
X208792Y191338D02*
X210891D01*
Y189764D01*
X209841D01*
X210891D01*
Y188189D01*
X207742Y191338D02*
Y188189D01*
X206168D01*
X205643Y188714D01*
Y189239D01*
X206168Y189764D01*
X207742D01*
X206168D01*
X205643Y190289D01*
Y190813D01*
X206168Y191338D01*
X207742D01*
X204594Y190813D02*
X204069Y191338D01*
X203020D01*
X202495Y190813D01*
Y190289D01*
X203020Y189764D01*
X203544D01*
X203020D01*
X202495Y189239D01*
Y188714D01*
X203020Y188189D01*
X204069D01*
X204594Y188714D01*
X208268Y156692D02*
X210367D01*
Y155118D01*
X209317D01*
X210367D01*
Y153544D01*
X207218D02*
X206169D01*
X206693D01*
Y156692D01*
X207218Y156168D01*
X210498Y90814D02*
X211023Y90290D01*
Y89240D01*
X210498Y88715D01*
X208399D01*
X207874Y89240D01*
Y90290D01*
X208399Y90814D01*
X210498Y91864D02*
X211023Y92389D01*
Y93438D01*
X210498Y93963D01*
X209974D01*
X209449Y93438D01*
Y92913D01*
Y93438D01*
X208924Y93963D01*
X208399D01*
X207874Y93438D01*
Y92389D01*
X208399Y91864D01*
X210498Y95012D02*
X211023Y95537D01*
Y96587D01*
X210498Y97111D01*
X208399D01*
X207874Y96587D01*
Y95537D01*
X208399Y95012D01*
X210498D01*
X208792Y170735D02*
X209317Y171259D01*
X210366D01*
X210891Y170735D01*
Y168635D01*
X210366Y168111D01*
X209317D01*
X208792Y168635D01*
X205643Y168111D02*
X207742D01*
X205643Y170210D01*
Y170735D01*
X206168Y171259D01*
X207218D01*
X207742Y170735D01*
X204594Y168635D02*
X204069Y168111D01*
X203020D01*
X202495Y168635D01*
Y170735D01*
X203020Y171259D01*
X204069D01*
X204594Y170735D01*
Y170210D01*
X204069Y169685D01*
X202495D01*
X169816Y140813D02*
X170340Y141338D01*
X171390D01*
X171915Y140813D01*
Y138714D01*
X171390Y138189D01*
X170340D01*
X169816Y138714D01*
X166667Y138189D02*
X168766D01*
X166667Y140289D01*
Y140813D01*
X167192Y141338D01*
X168241D01*
X168766Y140813D01*
X163518Y141338D02*
X164568Y140813D01*
X165618Y139764D01*
Y138714D01*
X165093Y138189D01*
X164043D01*
X163518Y138714D01*
Y139239D01*
X164043Y139764D01*
X165618D01*
X150524Y151837D02*
X151049Y152362D01*
X152099D01*
X152623Y151837D01*
Y149738D01*
X152099Y149213D01*
X151049D01*
X150524Y149738D01*
X147376Y149213D02*
X149475D01*
X147376Y151312D01*
Y151837D01*
X147900Y152362D01*
X148950D01*
X149475Y151837D01*
X144752Y149213D02*
Y152362D01*
X146326Y150787D01*
X144227D01*
X130446Y149081D02*
X130970Y149606D01*
X132020D01*
X132545Y149081D01*
Y146982D01*
X132020Y146457D01*
X130970D01*
X130446Y146982D01*
X127297Y146457D02*
X129396D01*
X127297Y148556D01*
Y149081D01*
X127822Y149606D01*
X128871D01*
X129396Y149081D01*
X126247D02*
X125723Y149606D01*
X124673D01*
X124148Y149081D01*
Y148556D01*
X124673Y148031D01*
X125198D01*
X124673D01*
X124148Y147507D01*
Y146982D01*
X124673Y146457D01*
X125723D01*
X126247Y146982D01*
X161901Y180924D02*
X162426Y181449D01*
X163475D01*
X164000Y180924D01*
Y178825D01*
X163475Y178300D01*
X162426D01*
X161901Y178825D01*
X158752Y178300D02*
X160851D01*
X158752Y180399D01*
Y180924D01*
X159277Y181449D01*
X160327D01*
X160851Y180924D01*
X157703Y178300D02*
X156653D01*
X157178D01*
Y181449D01*
X157703Y180924D01*
X117978Y183727D02*
X118503Y184251D01*
X119553D01*
X120078Y183727D01*
Y181628D01*
X119553Y181103D01*
X118503D01*
X117978Y181628D01*
X116929Y181103D02*
X115879D01*
X116404D01*
Y184251D01*
X116929Y183727D01*
X112206Y184251D02*
X113256Y183727D01*
X114305Y182677D01*
Y181628D01*
X113780Y181103D01*
X112731D01*
X112206Y181628D01*
Y182152D01*
X112731Y182677D01*
X114305D01*
X159580Y164042D02*
X160104Y164566D01*
X161154D01*
X161679Y164042D01*
Y161943D01*
X161154Y161418D01*
X160104D01*
X159580Y161943D01*
X158530Y161418D02*
X157481D01*
X158005D01*
Y164566D01*
X158530Y164042D01*
X155906Y161418D02*
X154857D01*
X155382D01*
Y164566D01*
X155906Y164042D01*
X183202Y151443D02*
X183727Y151968D01*
X184776D01*
X185301Y151443D01*
Y149344D01*
X184776Y148819D01*
X183727D01*
X183202Y149344D01*
X180053Y151968D02*
X181103Y151443D01*
X182152Y150394D01*
Y149344D01*
X181628Y148819D01*
X180578D01*
X180053Y149344D01*
Y149869D01*
X180578Y150394D01*
X182152D01*
X208874Y199456D02*
X210873D01*
X209873D01*
Y194457D01*
X210873Y193458D01*
X211873D01*
X212872Y194457D01*
X206874Y198456D02*
X205875Y199456D01*
X203875D01*
X202876Y198456D01*
Y197456D01*
X203875Y196457D01*
X204875D01*
X203875D01*
X202876Y195457D01*
Y194457D01*
X203875Y193458D01*
X205875D01*
X206874Y194457D01*
D73*
X180921Y110236D02*
X180429Y111089D01*
X179445D01*
X178953Y110236D01*
X179445Y109384D01*
X180429D01*
X180921Y110236D01*
M02*
