G04*
G04 #@! TF.GenerationSoftware,Altium Limited,Altium Designer,22.11.1 (43)*
G04*
G04 Layer_Color=32896*
%FSLAX25Y25*%
%MOIN*%
G70*
G04*
G04 #@! TF.SameCoordinates,40CF40E7-FDA6-4BEF-B87F-FA6DAB628F73*
G04*
G04*
G04 #@! TF.FilePolarity,Positive*
G04*
G01*
G75*
%ADD12C,0.00394*%
D12*
X124254Y90551D02*
X128191D01*
X126223Y88583D02*
Y92520D01*
X198566Y115624D02*
Y119561D01*
X196598Y117593D02*
X200535D01*
X112992Y193349D02*
Y197286D01*
X111024Y195318D02*
X114961D01*
X190157Y214965D02*
Y225193D01*
X185043Y220079D02*
X195272D01*
X124803Y214571D02*
Y224799D01*
X119689Y219685D02*
X129917D01*
X161093Y181152D02*
X165030D01*
X163061Y179183D02*
Y183121D01*
X146260Y160731D02*
Y164668D01*
X144291Y162700D02*
X148228D01*
X176969Y165338D02*
Y169275D01*
X175000Y167306D02*
X178937D01*
X193307Y177621D02*
Y181558D01*
X191338Y179589D02*
X195275D01*
X173343Y110925D02*
Y114862D01*
X171374Y112894D02*
X175311D01*
X126378Y174114D02*
Y178051D01*
X124410Y176083D02*
X128347D01*
X204035Y178051D02*
Y181988D01*
X202067Y180020D02*
X206004D01*
X208542Y140650D02*
Y144587D01*
X206574Y142618D02*
X210511D01*
X197657Y160630D02*
Y164567D01*
X195688Y162598D02*
X199625D01*
X178349Y153448D02*
X182286D01*
X180318Y151479D02*
Y155416D01*
X195571Y136220D02*
Y140157D01*
X193602Y138189D02*
X197539D01*
X124158Y159941D02*
X128095D01*
X126127Y157972D02*
Y161909D01*
X158971Y156282D02*
X162908D01*
X160939Y154314D02*
Y158251D01*
M02*
