G04*
G04 #@! TF.GenerationSoftware,Altium Limited,Altium Designer,22.11.1 (43)*
G04*
G04 Layer_Color=32768*
%FSLAX25Y25*%
%MOIN*%
G70*
G04*
G04 #@! TF.SameCoordinates,40CF40E7-FDA6-4BEF-B87F-FA6DAB628F73*
G04*
G04*
G04 #@! TF.FilePolarity,Positive*
G04*
G01*
G75*
%ADD10C,0.00787*%
%ADD12C,0.00394*%
%ADD122C,0.00197*%
D10*
X188661Y103304D02*
X195197D01*
Y106611D01*
X188661D02*
X195197D01*
X188661Y103304D02*
Y106611D01*
X178999Y151156D02*
X190810D01*
X178999Y139345D02*
Y151156D01*
Y139345D02*
X190810D01*
Y151156D01*
X172736Y125450D02*
Y128599D01*
Y125450D02*
X179035D01*
Y128599D01*
X172736D02*
X179035D01*
D12*
X121063Y180315D02*
X123228D01*
X122146Y179232D02*
Y181398D01*
X79980Y97598D02*
Y217598D01*
X99783D01*
Y97598D02*
Y217598D01*
X79980Y97598D02*
X99783D01*
X170472Y197090D02*
X172835D01*
X171653Y195908D02*
Y198271D01*
X175787Y182972D02*
X179724D01*
X177756Y181004D02*
Y184941D01*
X168012Y179823D02*
X170768D01*
X169390Y178445D02*
Y181201D01*
X196654Y147736D02*
X198819D01*
X197736Y146653D02*
Y148819D01*
X215413Y97598D02*
Y217598D01*
X235217D01*
Y97598D02*
Y217598D01*
X215413Y97598D02*
X235217D01*
X175606Y131907D02*
X179150D01*
X177378Y130135D02*
Y133678D01*
X171010Y147933D02*
Y149311D01*
X170321Y148622D02*
X171699D01*
X141608Y174311D02*
Y178248D01*
X139640Y176279D02*
X143577D01*
X115129Y167844D02*
X117294D01*
X116211Y166761D02*
Y168927D01*
X165481Y147902D02*
X167844D01*
X166663Y146721D02*
Y149083D01*
X187992Y114343D02*
X188780D01*
Y115917D01*
X187992D02*
X188780D01*
X187992Y114343D02*
Y115917D01*
X109153Y92913D02*
X113091D01*
X111122Y90945D02*
Y94882D01*
X197103Y156160D02*
X199269D01*
X198186Y155078D02*
Y157243D01*
X202736Y148639D02*
Y152182D01*
X200965Y150410D02*
X204508D01*
X202736Y134449D02*
Y137992D01*
X200965Y136220D02*
X204508D01*
X169290Y163386D02*
X171455D01*
X170372Y162303D02*
Y164468D01*
X169289Y168914D02*
X171455D01*
X170372Y167832D02*
Y169997D01*
X145177Y153369D02*
X147933D01*
X146555Y151991D02*
Y154747D01*
X108268Y184744D02*
Y188681D01*
X106299Y186713D02*
X110236D01*
X152070Y193701D02*
X154235D01*
X153153Y192618D02*
Y194783D01*
X163188Y130135D02*
Y133678D01*
X161416Y131907D02*
X164960D01*
D122*
X126280Y178150D02*
Y182480D01*
X118012Y178150D02*
Y182480D01*
Y178150D02*
X126280D01*
X118012Y182480D02*
X126280D01*
X194685Y96299D02*
Y100551D01*
Y96299D02*
X201378D01*
Y100551D01*
X194685D02*
X201378D01*
X174606Y195515D02*
Y198664D01*
X168701Y195515D02*
Y198664D01*
X174606D01*
X168701Y195515D02*
X174606D01*
X151811Y210433D02*
X156063D01*
Y203740D02*
Y210433D01*
X151811Y203740D02*
X156063D01*
X151811D02*
Y210433D01*
X163228Y210433D02*
X167480D01*
Y203740D02*
Y210433D01*
X163228Y203740D02*
X167480D01*
X163228D02*
Y210433D01*
X199084Y158256D02*
Y170461D01*
X180186D02*
X199084D01*
X180186Y158256D02*
Y170461D01*
Y158256D02*
X199084D01*
X171260Y175689D02*
Y190256D01*
X184252Y175689D02*
Y190256D01*
X171260D02*
X184252D01*
X171260Y175689D02*
X184252D01*
X167224Y175886D02*
Y183760D01*
X171555Y175886D02*
Y183760D01*
X167224Y175886D02*
X171555D01*
X167224Y183760D02*
X171555D01*
X182620Y139902D02*
Y144154D01*
X175927D02*
X182620D01*
X175927Y139902D02*
Y144154D01*
Y139902D02*
X182620D01*
X199902Y143602D02*
Y151870D01*
X195571Y143602D02*
Y151870D01*
Y143602D02*
X199902D01*
X195571Y151870D02*
X199902D01*
X183874Y127970D02*
Y135844D01*
X170882Y127970D02*
Y135844D01*
X183874D01*
X170882Y127970D02*
X183874D01*
X163346Y145439D02*
Y152132D01*
X159094Y145439D02*
X163346D01*
X159094D02*
Y152132D01*
X163346D01*
X173720Y77756D02*
Y96260D01*
Y77756D02*
X175039D01*
Y40276D02*
Y77756D01*
Y40276D02*
X201929D01*
Y77756D01*
X203248D01*
Y96260D01*
X173720D02*
X203248D01*
X169829Y146457D02*
X172191D01*
X169829Y150787D02*
X172191D01*
X169829Y146457D02*
Y150787D01*
X172191Y146457D02*
Y150787D01*
X127534Y190354D02*
X155683D01*
X127534Y162205D02*
X155683D01*
X127534D02*
Y190354D01*
X155683Y162205D02*
Y190354D01*
X192331Y119134D02*
X204205D01*
X192331Y113347D02*
X204205D01*
Y119134D01*
X192331Y113347D02*
Y119134D01*
X112471Y165875D02*
Y169812D01*
X119951Y165875D02*
Y169812D01*
X112471Y165875D02*
X119951D01*
X112471Y169812D02*
X119951D01*
X168631Y144162D02*
Y151643D01*
X164694Y144162D02*
Y151643D01*
X168631D01*
X164694Y144162D02*
X168631D01*
X102657Y101181D02*
X119587D01*
Y84646D02*
Y101181D01*
X102657Y84646D02*
X119587D01*
X102657D02*
Y101181D01*
X191040Y118749D02*
Y130623D01*
X185253Y118749D02*
Y130623D01*
Y118749D02*
X191040D01*
X185253Y130623D02*
X191040D01*
X169850Y114528D02*
X181724D01*
X169850Y120315D02*
X181724D01*
X169850Y114528D02*
Y120315D01*
X181724Y114528D02*
Y120315D01*
X167939Y142964D02*
X172191D01*
Y136271D02*
Y142964D01*
X167939Y136271D02*
X172191D01*
X167939D02*
Y142964D01*
X162267Y128560D02*
Y135253D01*
Y128560D02*
X166519D01*
Y135253D01*
X162267D02*
X166519D01*
X203701Y120627D02*
Y127320D01*
X199449D02*
X203701D01*
X199449Y120627D02*
Y127320D01*
Y120627D02*
X203701D01*
X167244Y149924D02*
X173937D01*
Y145672D02*
Y149924D01*
X167244Y145672D02*
X173937D01*
X167244D02*
Y149924D01*
X186063Y146167D02*
X192756D01*
X186063D02*
Y150419D01*
X192756D01*
Y146167D02*
Y150419D01*
X183818Y140717D02*
X190510D01*
X183818D02*
Y144969D01*
X190510D01*
Y140717D02*
Y144969D01*
X166634Y155374D02*
X173327D01*
Y151122D02*
Y155374D01*
X166634Y151122D02*
X173327D01*
X166634D02*
Y155374D01*
X200433Y158104D02*
X204685D01*
X200433D02*
Y164797D01*
X204685D01*
Y158104D02*
Y164797D01*
X202320Y153995D02*
Y158326D01*
X194052Y153995D02*
Y158326D01*
X202320D01*
X194052Y153995D02*
X202320D01*
X198799Y143914D02*
X206673D01*
X198799Y156906D02*
X206673D01*
X198799Y143914D02*
Y156906D01*
X206673Y143914D02*
Y156906D01*
X198799Y142716D02*
X206673D01*
X198799Y129724D02*
X206673D01*
Y142716D01*
X198799Y129724D02*
Y142716D01*
X174506Y161220D02*
Y165551D01*
X166238Y161220D02*
Y165551D01*
Y161220D02*
X174506D01*
X166238Y165551D02*
X174506D01*
X174506Y166749D02*
Y171080D01*
X166238Y166749D02*
Y171080D01*
Y166749D02*
X174506D01*
X166238Y171080D02*
X174506D01*
X150492Y151204D02*
Y155534D01*
X142618Y151204D02*
Y155534D01*
Y151204D02*
X150492D01*
X142618Y155534D02*
X150492D01*
X142520Y156732D02*
X149213D01*
Y160984D01*
X142520D02*
X149213D01*
X142520Y156732D02*
Y160984D01*
X166004Y176477D02*
Y183169D01*
X161752D02*
X166004D01*
X161752Y176477D02*
Y183169D01*
Y176477D02*
X166004D01*
X158169Y175217D02*
X164862D01*
Y170966D02*
Y175217D01*
X158169Y170966D02*
X164862D01*
X158169D02*
Y175217D01*
X135998Y153018D02*
X142691D01*
X135998D02*
Y157270D01*
X142691D01*
Y153018D02*
Y157270D01*
X163013Y160433D02*
Y167126D01*
X167265D01*
Y160433D02*
Y167126D01*
X163013Y160433D02*
X167265D01*
X150410Y156755D02*
X157103D01*
Y161007D01*
X150410D02*
X157103D01*
X150410Y156755D02*
Y161007D01*
X165498Y158721D02*
X172191D01*
X165498Y154469D02*
Y158721D01*
Y154469D02*
X172191D01*
Y158721D01*
X100984Y180217D02*
X115551D01*
X100984Y193209D02*
X115551D01*
Y180217D02*
Y193209D01*
X100984Y180217D02*
Y193209D01*
X149019Y191535D02*
Y195866D01*
X157286Y191535D02*
Y195866D01*
X149019Y191535D02*
X157286D01*
X149019Y195866D02*
X157286D01*
X156692Y127970D02*
X169684D01*
X156692Y135844D02*
X169684D01*
X156692Y127970D02*
Y135844D01*
X169684Y127970D02*
Y135844D01*
M02*
