G04*
G04 #@! TF.GenerationSoftware,Altium Limited,Altium Designer,22.11.1 (43)*
G04*
G04 Layer_Physical_Order=2*
G04 Layer_Color=36540*
%FSLAX25Y25*%
%MOIN*%
G70*
G04*
G04 #@! TF.SameCoordinates,40CF40E7-FDA6-4BEF-B87F-FA6DAB628F73*
G04*
G04*
G04 #@! TF.FilePolarity,Positive*
G04*
G01*
G75*
%ADD14C,0.01000*%
G04:AMPARAMS|DCode=69|XSize=43.31mil|YSize=102.36mil|CornerRadius=21.65mil|HoleSize=0mil|Usage=FLASHONLY|Rotation=0.000|XOffset=0mil|YOffset=0mil|HoleType=Round|Shape=RoundedRectangle|*
%AMROUNDEDRECTD69*
21,1,0.04331,0.05906,0,0,0.0*
21,1,0.00000,0.10236,0,0,0.0*
1,1,0.04331,0.00000,-0.02953*
1,1,0.04331,0.00000,-0.02953*
1,1,0.04331,0.00000,0.02953*
1,1,0.04331,0.00000,0.02953*
%
%ADD69ROUNDEDRECTD69*%
G04:AMPARAMS|DCode=70|XSize=43.31mil|YSize=82.68mil|CornerRadius=21.65mil|HoleSize=0mil|Usage=FLASHONLY|Rotation=0.000|XOffset=0mil|YOffset=0mil|HoleType=Round|Shape=RoundedRectangle|*
%AMROUNDEDRECTD70*
21,1,0.04331,0.03937,0,0,0.0*
21,1,0.00000,0.08268,0,0,0.0*
1,1,0.04331,0.00000,-0.01968*
1,1,0.04331,0.00000,-0.01968*
1,1,0.04331,0.00000,0.01968*
1,1,0.04331,0.00000,0.01968*
%
%ADD70ROUNDEDRECTD70*%
%ADD73C,0.01968*%
%ADD83C,0.05610*%
%ADD85C,0.06000*%
%ADD86C,0.01968*%
G36*
X175575Y233382D02*
X175075Y233150D01*
X174639Y233485D01*
X173920Y233782D01*
X173150Y233884D01*
X172379Y233782D01*
X171660Y233485D01*
X171044Y233012D01*
X170570Y232395D01*
X170273Y231676D01*
X170171Y230906D01*
Y225000D01*
X170273Y224229D01*
X170570Y223511D01*
X171044Y222894D01*
X171660Y222421D01*
X172379Y222123D01*
X173150Y222022D01*
X173920Y222123D01*
X174639Y222421D01*
X175075Y222756D01*
X175575Y222524D01*
Y212677D01*
X175636Y212370D01*
X175810Y212109D01*
X176071Y211935D01*
X176378Y211874D01*
X203937D01*
X204244Y211935D01*
X204505Y212109D01*
X204679Y212370D01*
X204740Y212677D01*
Y222524D01*
X205240Y222756D01*
X205676Y222421D01*
X206395Y222123D01*
X207165Y222022D01*
X207936Y222123D01*
X208654Y222421D01*
X209271Y222894D01*
X209343Y222987D01*
X209842Y222817D01*
Y218504D01*
X234908D01*
Y96457D01*
X216535D01*
Y80053D01*
X100394D01*
Y85827D01*
Y96457D01*
X80053D01*
Y218504D01*
X105118D01*
Y222424D01*
X105618Y222593D01*
X105689Y222500D01*
X106306Y222027D01*
X107025Y221730D01*
X107795Y221628D01*
X108566Y221730D01*
X109284Y222027D01*
X109721Y222362D01*
X110221Y222130D01*
Y212283D01*
X110282Y211976D01*
X110456Y211716D01*
X110716Y211542D01*
X111024Y211481D01*
X138583D01*
X138890Y211542D01*
X139150Y211716D01*
X139324Y211976D01*
X139385Y212283D01*
Y222130D01*
X139885Y222362D01*
X140322Y222027D01*
X141040Y221730D01*
X141811Y221628D01*
X142582Y221730D01*
X143300Y222027D01*
X143917Y222500D01*
X144390Y223117D01*
X144688Y223835D01*
X144789Y224606D01*
Y230512D01*
X144688Y231283D01*
X144390Y232001D01*
X143917Y232618D01*
X143300Y233091D01*
X142582Y233389D01*
X141811Y233490D01*
X141040Y233389D01*
X140322Y233091D01*
X139885Y232756D01*
X139385Y232988D01*
Y234527D01*
X139820Y234908D01*
X175575D01*
Y233382D01*
D02*
G37*
%LPC*%
G36*
X230788Y216191D02*
X229842D01*
X228928Y215946D01*
X228109Y215473D01*
X227440Y214804D01*
X226967Y213985D01*
X226723Y213071D01*
Y212125D01*
X226967Y211212D01*
X227440Y210392D01*
X228109Y209724D01*
X228928Y209251D01*
X229842Y209006D01*
X230788D01*
X231702Y209251D01*
X232521Y209724D01*
X233190Y210392D01*
X233663Y211212D01*
X233908Y212125D01*
Y213071D01*
X233663Y213985D01*
X233190Y214804D01*
X232521Y215473D01*
X231702Y215946D01*
X230788Y216191D01*
D02*
G37*
G36*
X220788D02*
X219842D01*
X218928Y215946D01*
X218109Y215473D01*
X217440Y214804D01*
X216967Y213985D01*
X216722Y213071D01*
Y212125D01*
X216967Y211212D01*
X217440Y210392D01*
X218109Y209724D01*
X218928Y209251D01*
X219842Y209006D01*
X220788D01*
X221702Y209251D01*
X222521Y209724D01*
X223190Y210392D01*
X223663Y211212D01*
X223907Y212125D01*
Y213071D01*
X223663Y213985D01*
X223190Y214804D01*
X222521Y215473D01*
X221702Y215946D01*
X220788Y216191D01*
D02*
G37*
G36*
X95355D02*
X94409D01*
X93495Y215946D01*
X92676Y215473D01*
X92007Y214804D01*
X91534Y213985D01*
X91289Y213071D01*
Y212125D01*
X91534Y211212D01*
X92007Y210392D01*
X92676Y209724D01*
X93495Y209251D01*
X94409Y209006D01*
X95355D01*
X96268Y209251D01*
X97088Y209724D01*
X97756Y210392D01*
X98229Y211212D01*
X98474Y212125D01*
Y213071D01*
X98229Y213985D01*
X97756Y214804D01*
X97088Y215473D01*
X96268Y215946D01*
X95355Y216191D01*
D02*
G37*
G36*
X85355D02*
X84409D01*
X83495Y215946D01*
X82676Y215473D01*
X82007Y214804D01*
X81534Y213985D01*
X81289Y213071D01*
Y212125D01*
X81534Y211212D01*
X82007Y210392D01*
X82676Y209724D01*
X83495Y209251D01*
X84409Y209006D01*
X85355D01*
X86269Y209251D01*
X87088Y209724D01*
X87757Y210392D01*
X88230Y211212D01*
X88474Y212125D01*
Y213071D01*
X88230Y213985D01*
X87757Y214804D01*
X87088Y215473D01*
X86269Y215946D01*
X85355Y216191D01*
D02*
G37*
G36*
X151452Y209872D02*
X150748D01*
X150096Y209602D01*
X149598Y209104D01*
X149328Y208452D01*
Y207748D01*
X149598Y207096D01*
X150096Y206598D01*
X150748Y206328D01*
X151452D01*
X152104Y206598D01*
X152602Y207096D01*
X152872Y207748D01*
Y208452D01*
X152602Y209104D01*
X152104Y209602D01*
X151452Y209872D01*
D02*
G37*
G36*
X125975Y203172D02*
X125271D01*
X124619Y202902D01*
X124389Y202671D01*
X124158Y202902D01*
X123507Y203172D01*
X122802D01*
X122151Y202902D01*
X121653Y202404D01*
X121383Y201752D01*
Y201048D01*
X121653Y200396D01*
X122151Y199898D01*
X122802Y199628D01*
X123507D01*
X124158Y199898D01*
X124389Y200129D01*
X124619Y199898D01*
X125271Y199628D01*
X125975D01*
X126627Y199898D01*
X127125Y200396D01*
X127395Y201048D01*
Y201752D01*
X127125Y202404D01*
X126627Y202902D01*
X125975Y203172D01*
D02*
G37*
G36*
X207165Y211797D02*
X206395Y211696D01*
X205676Y211398D01*
X205059Y210925D01*
X204586Y210308D01*
X204289Y209590D01*
X204187Y208819D01*
Y204882D01*
X204289Y204111D01*
X204586Y203393D01*
X205059Y202776D01*
X205676Y202303D01*
X206395Y202005D01*
X207165Y201904D01*
X207936Y202005D01*
X208654Y202303D01*
X209271Y202776D01*
X209745Y203393D01*
X210042Y204111D01*
X210144Y204882D01*
Y208819D01*
X210042Y209590D01*
X209745Y210308D01*
X209271Y210925D01*
X208654Y211398D01*
X207936Y211696D01*
X207165Y211797D01*
D02*
G37*
G36*
X173150D02*
X172379Y211696D01*
X171660Y211398D01*
X171044Y210925D01*
X170570Y210308D01*
X170273Y209590D01*
X170171Y208819D01*
Y204882D01*
X170273Y204111D01*
X170570Y203393D01*
X171044Y202776D01*
X171660Y202303D01*
X172379Y202005D01*
X173150Y201904D01*
X173920Y202005D01*
X174639Y202303D01*
X175256Y202776D01*
X175729Y203393D01*
X176026Y204111D01*
X176128Y204882D01*
Y208819D01*
X176026Y209590D01*
X175729Y210308D01*
X175256Y210925D01*
X174639Y211398D01*
X173920Y211696D01*
X173150Y211797D01*
D02*
G37*
G36*
X141811Y211403D02*
X141040Y211302D01*
X140322Y211004D01*
X139705Y210531D01*
X139232Y209914D01*
X138934Y209196D01*
X138833Y208425D01*
Y204488D01*
X138934Y203717D01*
X139232Y202999D01*
X139705Y202382D01*
X140322Y201909D01*
X141040Y201611D01*
X141811Y201510D01*
X142582Y201611D01*
X143300Y201909D01*
X143917Y202382D01*
X144390Y202999D01*
X144688Y203717D01*
X144789Y204488D01*
Y208425D01*
X144688Y209196D01*
X144390Y209914D01*
X143917Y210531D01*
X143300Y211004D01*
X142582Y211302D01*
X141811Y211403D01*
D02*
G37*
G36*
X107795D02*
X107025Y211302D01*
X106306Y211004D01*
X105689Y210531D01*
X105216Y209914D01*
X104919Y209196D01*
X104817Y208425D01*
Y204488D01*
X104919Y203717D01*
X105216Y202999D01*
X105689Y202382D01*
X106306Y201909D01*
X107025Y201611D01*
X107795Y201510D01*
X108566Y201611D01*
X109284Y201909D01*
X109901Y202382D01*
X110374Y202999D01*
X110672Y203717D01*
X110774Y204488D01*
Y208425D01*
X110672Y209196D01*
X110374Y209914D01*
X109901Y210531D01*
X109284Y211004D01*
X108566Y211302D01*
X107795Y211403D01*
D02*
G37*
G36*
X196352Y204072D02*
X195648D01*
X194996Y203802D01*
X194498Y203304D01*
X194228Y202652D01*
Y201948D01*
X194498Y201296D01*
X194743Y201051D01*
X194990Y200788D01*
X194743Y200398D01*
X194561Y200216D01*
X194291Y199565D01*
Y198860D01*
X194561Y198209D01*
X195059Y197711D01*
X195711Y197441D01*
X196415D01*
X197067Y197711D01*
X197565Y198209D01*
X197835Y198860D01*
Y199346D01*
X198335Y199554D01*
X198603Y199285D01*
X199254Y199016D01*
X199959D01*
X200610Y199285D01*
X201108Y199784D01*
X201378Y200435D01*
Y201140D01*
X201108Y201791D01*
X200610Y202289D01*
X199959Y202559D01*
X199254D01*
X198603Y202289D01*
X198272Y201958D01*
X197772Y202165D01*
Y202652D01*
X197502Y203304D01*
X197004Y203802D01*
X196352Y204072D01*
D02*
G37*
G36*
X230788Y206191D02*
X229842D01*
X228928Y205946D01*
X228109Y205473D01*
X227440Y204804D01*
X226967Y203985D01*
X226723Y203071D01*
Y202125D01*
X226967Y201212D01*
X227440Y200393D01*
X228109Y199724D01*
X228928Y199251D01*
X229842Y199006D01*
X230788D01*
X231702Y199251D01*
X232521Y199724D01*
X233190Y200393D01*
X233663Y201212D01*
X233908Y202125D01*
Y203071D01*
X233663Y203985D01*
X233190Y204804D01*
X232521Y205473D01*
X231702Y205946D01*
X230788Y206191D01*
D02*
G37*
G36*
X220788D02*
X219842D01*
X218928Y205946D01*
X218109Y205473D01*
X217440Y204804D01*
X216967Y203985D01*
X216722Y203071D01*
Y202125D01*
X216967Y201212D01*
X217440Y200393D01*
X218109Y199724D01*
X218928Y199251D01*
X219842Y199006D01*
X220788D01*
X221702Y199251D01*
X222521Y199724D01*
X223190Y200393D01*
X223663Y201212D01*
X223907Y202125D01*
Y203071D01*
X223663Y203985D01*
X223190Y204804D01*
X222521Y205473D01*
X221702Y205946D01*
X220788Y206191D01*
D02*
G37*
G36*
X95355D02*
X94409D01*
X93495Y205946D01*
X92676Y205473D01*
X92007Y204804D01*
X91534Y203985D01*
X91289Y203071D01*
Y202125D01*
X91534Y201212D01*
X92007Y200393D01*
X92676Y199724D01*
X93495Y199251D01*
X94409Y199006D01*
X95355D01*
X96268Y199251D01*
X97088Y199724D01*
X97756Y200393D01*
X98229Y201212D01*
X98474Y202125D01*
Y203071D01*
X98229Y203985D01*
X97756Y204804D01*
X97088Y205473D01*
X96268Y205946D01*
X95355Y206191D01*
D02*
G37*
G36*
X85355D02*
X84409D01*
X83495Y205946D01*
X82676Y205473D01*
X82007Y204804D01*
X81534Y203985D01*
X81289Y203071D01*
Y202125D01*
X81534Y201212D01*
X82007Y200393D01*
X82676Y199724D01*
X83495Y199251D01*
X84409Y199006D01*
X85355D01*
X86269Y199251D01*
X87088Y199724D01*
X87757Y200393D01*
X88230Y201212D01*
X88474Y202125D01*
Y203071D01*
X88230Y203985D01*
X87757Y204804D01*
X87088Y205473D01*
X86269Y205946D01*
X85355Y206191D01*
D02*
G37*
G36*
X130852Y201972D02*
X130148D01*
X129496Y201702D01*
X128998Y201204D01*
X128728Y200552D01*
Y199848D01*
X128998Y199196D01*
X129496Y198698D01*
X130148Y198428D01*
X130852D01*
X131504Y198698D01*
X132002Y199196D01*
X132272Y199848D01*
Y200552D01*
X132002Y201204D01*
X131504Y201702D01*
X130852Y201972D01*
D02*
G37*
G36*
X151596Y200681D02*
X150891D01*
X150240Y200411D01*
X149742Y199913D01*
X149472Y199262D01*
Y198557D01*
X149742Y197906D01*
X150240Y197407D01*
X150891Y197138D01*
X151596D01*
X152247Y197407D01*
X152745Y197906D01*
X153015Y198557D01*
Y199262D01*
X152745Y199913D01*
X152247Y200411D01*
X151596Y200681D01*
D02*
G37*
G36*
X146098Y196530D02*
X145393D01*
X144742Y196260D01*
X144244Y195762D01*
X144107Y195433D01*
X143834Y195546D01*
X143129D01*
X142656Y195350D01*
X142103Y195554D01*
X142042Y195700D01*
X141544Y196198D01*
X140893Y196468D01*
X140188D01*
X139537Y196198D01*
X139038Y195700D01*
X138769Y195048D01*
Y194343D01*
X138851Y194144D01*
X138315Y193922D01*
X137816Y193424D01*
X137696Y193134D01*
X137207Y192795D01*
X136503D01*
X135851Y192525D01*
X135353Y192027D01*
X135083Y191376D01*
Y190671D01*
X135353Y190020D01*
X135851Y189522D01*
X136503Y189252D01*
X137207D01*
X137858Y189522D01*
X138357Y190020D01*
X138477Y190310D01*
X138966Y190649D01*
X139671D01*
X140322Y190919D01*
X140820Y191417D01*
X141090Y192068D01*
Y192746D01*
X141216Y192862D01*
X141509Y193067D01*
X141919Y192916D01*
X141980Y192771D01*
X142478Y192272D01*
X143129Y192003D01*
X143834D01*
X144485Y192272D01*
X144983Y192771D01*
X145120Y193100D01*
X145393Y192987D01*
X146098D01*
X146749Y193256D01*
X147247Y193755D01*
X147517Y194406D01*
Y195111D01*
X147247Y195762D01*
X146749Y196260D01*
X146098Y196530D01*
D02*
G37*
G36*
X231315Y196270D02*
Y193598D01*
X233986D01*
X233861Y194067D01*
X233360Y194935D01*
X232651Y195643D01*
X231784Y196144D01*
X231315Y196270D01*
D02*
G37*
G36*
X229315D02*
X228846Y196144D01*
X227979Y195643D01*
X227270Y194935D01*
X226769Y194067D01*
X226644Y193598D01*
X229315D01*
Y196270D01*
D02*
G37*
G36*
X159112Y196457D02*
X158407D01*
X157756Y196187D01*
X157258Y195689D01*
X156988Y195037D01*
Y194333D01*
X157235Y193738D01*
X156969Y193628D01*
X156471Y193130D01*
X156201Y192478D01*
Y191774D01*
X156471Y191122D01*
X156969Y190624D01*
X157620Y190354D01*
X158325D01*
X158976Y190624D01*
X159474Y191122D01*
X159744Y191774D01*
Y192478D01*
X159498Y193073D01*
X159763Y193183D01*
X160262Y193682D01*
X160531Y194333D01*
Y195037D01*
X160262Y195689D01*
X159763Y196187D01*
X159112Y196457D01*
D02*
G37*
G36*
X220788Y196191D02*
X219842D01*
X218928Y195946D01*
X218109Y195473D01*
X217440Y194804D01*
X216967Y193985D01*
X216722Y193071D01*
Y192125D01*
X216967Y191212D01*
X217440Y190392D01*
X218109Y189724D01*
X218928Y189251D01*
X219842Y189006D01*
X220788D01*
X221702Y189251D01*
X222521Y189724D01*
X223190Y190392D01*
X223663Y191212D01*
X223907Y192125D01*
Y193071D01*
X223663Y193985D01*
X223190Y194804D01*
X222521Y195473D01*
X221702Y195946D01*
X220788Y196191D01*
D02*
G37*
G36*
X95355D02*
X94409D01*
X93495Y195946D01*
X92676Y195473D01*
X92007Y194804D01*
X91534Y193985D01*
X91289Y193071D01*
Y192125D01*
X91534Y191212D01*
X92007Y190392D01*
X92676Y189724D01*
X93495Y189251D01*
X94409Y189006D01*
X95355D01*
X96268Y189251D01*
X97088Y189724D01*
X97756Y190392D01*
X98229Y191212D01*
X98474Y192125D01*
Y193071D01*
X98229Y193985D01*
X97756Y194804D01*
X97088Y195473D01*
X96268Y195946D01*
X95355Y196191D01*
D02*
G37*
G36*
X85355D02*
X84409D01*
X83495Y195946D01*
X82676Y195473D01*
X82007Y194804D01*
X81534Y193985D01*
X81289Y193071D01*
Y192125D01*
X81534Y191212D01*
X82007Y190392D01*
X82676Y189724D01*
X83495Y189251D01*
X84409Y189006D01*
X85355D01*
X86269Y189251D01*
X87088Y189724D01*
X87757Y190392D01*
X88230Y191212D01*
X88474Y192125D01*
Y193071D01*
X88230Y193985D01*
X87757Y194804D01*
X87088Y195473D01*
X86269Y195946D01*
X85355Y196191D01*
D02*
G37*
G36*
X233986Y191598D02*
X231315D01*
Y188927D01*
X231784Y189053D01*
X232651Y189553D01*
X233360Y190262D01*
X233861Y191130D01*
X233986Y191598D01*
D02*
G37*
G36*
X229315D02*
X226644D01*
X226769Y191130D01*
X227270Y190262D01*
X227979Y189553D01*
X228846Y189053D01*
X229315Y188927D01*
Y191598D01*
D02*
G37*
G36*
X165215Y193655D02*
X164510D01*
X163859Y193385D01*
X163360Y192887D01*
X163091Y192235D01*
Y191634D01*
X162837D01*
X162185Y191364D01*
X161687Y190866D01*
X161417Y190215D01*
Y189510D01*
X161687Y188859D01*
X162185Y188360D01*
X162837Y188091D01*
X163541D01*
X164192Y188360D01*
X164691Y188859D01*
X164961Y189510D01*
Y190111D01*
X165215D01*
X165866Y190381D01*
X166364Y190879D01*
X166634Y191531D01*
Y192235D01*
X166364Y192887D01*
X165866Y193385D01*
X165215Y193655D01*
D02*
G37*
G36*
X155141Y191028D02*
X154436D01*
X153785Y190758D01*
X153286Y190260D01*
X153017Y189608D01*
Y188903D01*
X153286Y188252D01*
X153785Y187754D01*
X154436Y187484D01*
X155141D01*
X155792Y187754D01*
X156290Y188252D01*
X156560Y188903D01*
Y189608D01*
X156290Y190260D01*
X155792Y190758D01*
X155141Y191028D01*
D02*
G37*
G36*
X130766Y190059D02*
X130061D01*
X129410Y189789D01*
X128911Y189291D01*
X128642Y188640D01*
Y187935D01*
X128911Y187284D01*
X129410Y186785D01*
X130061Y186516D01*
X130766D01*
X131417Y186785D01*
X131915Y187284D01*
X132185Y187935D01*
Y188640D01*
X131915Y189291D01*
X131417Y189789D01*
X130766Y190059D01*
D02*
G37*
G36*
X109317Y187839D02*
X108612D01*
X107961Y187570D01*
X107463Y187071D01*
X107193Y186420D01*
Y185715D01*
X107463Y185064D01*
X107961Y184566D01*
X108612Y184296D01*
X109317D01*
X109968Y184566D01*
X110467Y185064D01*
X110736Y185715D01*
Y186420D01*
X110467Y187071D01*
X109968Y187570D01*
X109317Y187839D01*
D02*
G37*
G36*
X123901Y186344D02*
X123196D01*
X122545Y186074D01*
X122047Y185575D01*
X121777Y184924D01*
Y184220D01*
X122047Y183568D01*
X122545Y183070D01*
X123196Y182800D01*
X123901D01*
X124552Y183070D01*
X125050Y183568D01*
X125320Y184220D01*
Y184924D01*
X125050Y185575D01*
X124552Y186074D01*
X123901Y186344D01*
D02*
G37*
G36*
X177911Y185236D02*
X177207D01*
X176556Y184967D01*
X176057Y184468D01*
X175787Y183817D01*
Y183112D01*
X176057Y182461D01*
X176556Y181963D01*
X177207Y181693D01*
X177911D01*
X178563Y181963D01*
X179061Y182461D01*
X179331Y183112D01*
Y183817D01*
X179061Y184468D01*
X178563Y184967D01*
X177911Y185236D01*
D02*
G37*
G36*
X157045Y185039D02*
X156341D01*
X155689Y184770D01*
X155191Y184271D01*
X154921Y183620D01*
Y182915D01*
X155191Y182264D01*
X155689Y181766D01*
X156341Y181496D01*
X157045D01*
X157696Y181766D01*
X158195Y182264D01*
X158465Y182915D01*
Y183620D01*
X158195Y184271D01*
X157696Y184770D01*
X157045Y185039D01*
D02*
G37*
G36*
X230788Y186191D02*
X229842D01*
X228928Y185946D01*
X228109Y185473D01*
X227440Y184804D01*
X226967Y183985D01*
X226723Y183071D01*
Y182125D01*
X226967Y181212D01*
X227440Y180393D01*
X228109Y179724D01*
X228928Y179251D01*
X229842Y179006D01*
X230788D01*
X231702Y179251D01*
X232521Y179724D01*
X233190Y180393D01*
X233663Y181212D01*
X233908Y182125D01*
Y183071D01*
X233663Y183985D01*
X233190Y184804D01*
X232521Y185473D01*
X231702Y185946D01*
X230788Y186191D01*
D02*
G37*
G36*
X220788D02*
X219842D01*
X218928Y185946D01*
X218109Y185473D01*
X217440Y184804D01*
X216967Y183985D01*
X216722Y183071D01*
Y182125D01*
X216967Y181212D01*
X217440Y180393D01*
X218109Y179724D01*
X218928Y179251D01*
X219842Y179006D01*
X220788D01*
X221702Y179251D01*
X222521Y179724D01*
X223190Y180393D01*
X223663Y181212D01*
X223907Y182125D01*
Y183071D01*
X223663Y183985D01*
X223190Y184804D01*
X222521Y185473D01*
X221702Y185946D01*
X220788Y186191D01*
D02*
G37*
G36*
X95355D02*
X94409D01*
X93495Y185946D01*
X92676Y185473D01*
X92007Y184804D01*
X91534Y183985D01*
X91289Y183071D01*
Y182125D01*
X91534Y181212D01*
X92007Y180393D01*
X92676Y179724D01*
X93495Y179251D01*
X94409Y179006D01*
X95355D01*
X96268Y179251D01*
X97088Y179724D01*
X97756Y180393D01*
X98229Y181212D01*
X98474Y182125D01*
Y183071D01*
X98229Y183985D01*
X97756Y184804D01*
X97088Y185473D01*
X96268Y185946D01*
X95355Y186191D01*
D02*
G37*
G36*
X85355D02*
X84409D01*
X83495Y185946D01*
X82676Y185473D01*
X82007Y184804D01*
X81534Y183985D01*
X81289Y183071D01*
Y182125D01*
X81534Y181212D01*
X82007Y180393D01*
X82676Y179724D01*
X83495Y179251D01*
X84409Y179006D01*
X85355D01*
X86269Y179251D01*
X87088Y179724D01*
X87757Y180393D01*
X88230Y181212D01*
X88474Y182125D01*
Y183071D01*
X88230Y183985D01*
X87757Y184804D01*
X87088Y185473D01*
X86269Y185946D01*
X85355Y186191D01*
D02*
G37*
G36*
X161952Y180972D02*
X161248D01*
X160596Y180702D01*
X160098Y180204D01*
X159828Y179552D01*
Y178848D01*
X160098Y178196D01*
X160596Y177698D01*
X161248Y177428D01*
X161952D01*
X162604Y177698D01*
X163102Y178196D01*
X163372Y178848D01*
Y179552D01*
X163102Y180204D01*
X162604Y180702D01*
X161952Y180972D01*
D02*
G37*
G36*
X118561Y178150D02*
X117856D01*
X117205Y177880D01*
X116707Y177382D01*
X116437Y176730D01*
Y176025D01*
X116707Y175374D01*
X117205Y174876D01*
X117856Y174606D01*
X118561D01*
X119212Y174876D01*
X119711Y175374D01*
X119980Y176025D01*
Y176730D01*
X119711Y177382D01*
X119212Y177880D01*
X118561Y178150D01*
D02*
G37*
G36*
X125648Y177834D02*
X124943D01*
X124292Y177565D01*
X123793Y177066D01*
X123524Y176415D01*
Y175710D01*
X123793Y175059D01*
X124292Y174561D01*
X124943Y174291D01*
X125648D01*
X126299Y174561D01*
X126797Y175059D01*
X127067Y175710D01*
Y176415D01*
X126797Y177066D01*
X126299Y177565D01*
X125648Y177834D01*
D02*
G37*
G36*
X221315Y176270D02*
Y173598D01*
X223986D01*
X223861Y174067D01*
X223360Y174935D01*
X222651Y175643D01*
X221784Y176144D01*
X221315Y176270D01*
D02*
G37*
G36*
X219315D02*
X218846Y176144D01*
X217979Y175643D01*
X217270Y174935D01*
X216769Y174067D01*
X216644Y173598D01*
X219315D01*
Y176270D01*
D02*
G37*
G36*
X158252Y178272D02*
X157548D01*
X156896Y178002D01*
X156398Y177504D01*
X156128Y176852D01*
Y176148D01*
X155796Y175643D01*
X155492Y175518D01*
X154994Y175019D01*
X154724Y174368D01*
Y173663D01*
X154994Y173012D01*
X155492Y172514D01*
X156144Y172244D01*
X156849D01*
X157500Y172514D01*
X157998Y173012D01*
X158268Y173663D01*
Y174368D01*
X158600Y174872D01*
X158904Y174998D01*
X159402Y175496D01*
X159672Y176148D01*
Y176852D01*
X159402Y177504D01*
X158904Y178002D01*
X158252Y178272D01*
D02*
G37*
G36*
X168152Y175472D02*
X167448D01*
X166796Y175202D01*
X166298Y174704D01*
X166028Y174052D01*
Y173348D01*
X166298Y172696D01*
X166796Y172198D01*
X167448Y171928D01*
X168152D01*
X168804Y172198D01*
X169302Y172696D01*
X169572Y173348D01*
Y174052D01*
X169302Y174704D01*
X168804Y175202D01*
X168152Y175472D01*
D02*
G37*
G36*
X120825Y174016D02*
X120120D01*
X119469Y173746D01*
X118971Y173248D01*
X118701Y172597D01*
Y171892D01*
X118971Y171240D01*
X119469Y170742D01*
X120120Y170472D01*
X120825D01*
X121476Y170742D01*
X121974Y171240D01*
X122244Y171892D01*
Y172597D01*
X121974Y173248D01*
X121476Y173746D01*
X120825Y174016D01*
D02*
G37*
G36*
X199606Y182693D02*
X185433D01*
X185126Y182632D01*
X184865Y182457D01*
X184691Y182197D01*
X184630Y181890D01*
Y174016D01*
X184691Y173708D01*
X184865Y173448D01*
X185005Y173355D01*
X185145Y173169D01*
X185223Y172745D01*
X185039Y172301D01*
Y171596D01*
X185309Y170945D01*
X185808Y170447D01*
X186459Y170177D01*
X187163D01*
X187815Y170447D01*
X188313Y170945D01*
X188583Y171596D01*
Y172301D01*
X188412Y172713D01*
X188706Y173213D01*
X199606D01*
X199914Y173274D01*
X200174Y173448D01*
X200348Y173708D01*
X200409Y174016D01*
Y179133D01*
X200424Y179208D01*
X200492Y179372D01*
Y179550D01*
X200527Y179724D01*
X200492Y179899D01*
Y180077D01*
X200424Y180241D01*
X200409Y180316D01*
Y181890D01*
X200348Y182197D01*
X200174Y182457D01*
X199914Y182632D01*
X199606Y182693D01*
D02*
G37*
G36*
X230788Y176191D02*
X229842D01*
X228928Y175946D01*
X228109Y175473D01*
X227440Y174804D01*
X226967Y173985D01*
X226723Y173071D01*
Y172125D01*
X226967Y171212D01*
X227440Y170393D01*
X228109Y169724D01*
X228928Y169251D01*
X229842Y169006D01*
X230788D01*
X231702Y169251D01*
X232521Y169724D01*
X233190Y170393D01*
X233663Y171212D01*
X233908Y172125D01*
Y173071D01*
X233663Y173985D01*
X233190Y174804D01*
X232521Y175473D01*
X231702Y175946D01*
X230788Y176191D01*
D02*
G37*
G36*
X95355D02*
X94409D01*
X93495Y175946D01*
X92676Y175473D01*
X92007Y174804D01*
X91534Y173985D01*
X91289Y173071D01*
Y172125D01*
X91534Y171212D01*
X92007Y170393D01*
X92676Y169724D01*
X93495Y169251D01*
X94409Y169006D01*
X95355D01*
X96268Y169251D01*
X97088Y169724D01*
X97756Y170393D01*
X98229Y171212D01*
X98474Y172125D01*
Y173071D01*
X98229Y173985D01*
X97756Y174804D01*
X97088Y175473D01*
X96268Y175946D01*
X95355Y176191D01*
D02*
G37*
G36*
X85355D02*
X84409D01*
X83495Y175946D01*
X82676Y175473D01*
X82007Y174804D01*
X81534Y173985D01*
X81289Y173071D01*
Y172125D01*
X81534Y171212D01*
X82007Y170393D01*
X82676Y169724D01*
X83495Y169251D01*
X84409Y169006D01*
X85355D01*
X86269Y169251D01*
X87088Y169724D01*
X87757Y170393D01*
X88230Y171212D01*
X88474Y172125D01*
Y173071D01*
X88230Y173985D01*
X87757Y174804D01*
X87088Y175473D01*
X86269Y175946D01*
X85355Y176191D01*
D02*
G37*
G36*
X223986Y171598D02*
X221315D01*
Y168927D01*
X221784Y169053D01*
X222651Y169553D01*
X223360Y170262D01*
X223861Y171130D01*
X223986Y171598D01*
D02*
G37*
G36*
X219315D02*
X216644D01*
X216769Y171130D01*
X217270Y170262D01*
X217979Y169553D01*
X218846Y169053D01*
X219315Y168927D01*
Y171598D01*
D02*
G37*
G36*
X145478Y173081D02*
X142952D01*
X142450Y172980D01*
X142024Y172696D01*
X140861Y171534D01*
X140577Y171108D01*
X140477Y170605D01*
Y169112D01*
X140058D01*
X139556Y169012D01*
X139130Y168727D01*
X137267Y166864D01*
X129194D01*
X128692Y166764D01*
X128266Y166479D01*
X128244Y166457D01*
X127402D01*
X127213Y166647D01*
X126562Y166917D01*
X126364D01*
X126086Y167332D01*
X126181Y167561D01*
Y168266D01*
X125911Y168917D01*
X125413Y169415D01*
X124762Y169685D01*
X124057D01*
X123406Y169415D01*
X122907Y168917D01*
X122638Y168266D01*
Y167561D01*
X122907Y166910D01*
X123406Y166411D01*
X124057Y166142D01*
X124255D01*
X124533Y165726D01*
X124438Y165497D01*
Y164793D01*
X124708Y164141D01*
X125206Y163643D01*
X125857Y163373D01*
X126562D01*
X127213Y163643D01*
X127402Y163832D01*
X128788D01*
X129290Y163932D01*
X129716Y164217D01*
X129738Y164239D01*
X137810D01*
X138312Y164339D01*
X138738Y164623D01*
X140602Y166487D01*
X141204D01*
X141706Y166586D01*
X142132Y166871D01*
X142718Y167457D01*
X143002Y167883D01*
X143102Y168385D01*
Y170062D01*
X143496Y170455D01*
X144751D01*
Y168962D01*
X144851Y168459D01*
X145136Y168034D01*
X146298Y166871D01*
X146724Y166587D01*
X147226Y166487D01*
X148870D01*
X149372Y166587D01*
X149382Y166593D01*
X153100D01*
X153602Y166693D01*
X154028Y166978D01*
X155664Y168614D01*
X160475D01*
X161100Y167989D01*
Y167913D01*
X161370Y167262D01*
X161868Y166764D01*
X162520Y166494D01*
X163224D01*
X163875Y166764D01*
X164133Y167021D01*
X164336Y166818D01*
X164987Y166548D01*
X165692D01*
X166343Y166818D01*
X166842Y167316D01*
X167111Y167967D01*
Y168672D01*
X166842Y169323D01*
X166343Y169822D01*
X165692Y170091D01*
X164987D01*
X164336Y169822D01*
X164079Y169564D01*
X163875Y169768D01*
X163224Y170037D01*
X162764D01*
X161947Y170854D01*
X161521Y171139D01*
X161019Y171239D01*
X155120D01*
X154618Y171139D01*
X154192Y170854D01*
X152556Y169218D01*
X148976D01*
X148474Y169118D01*
X148465Y169112D01*
X147770D01*
X147377Y169505D01*
Y171182D01*
X147277Y171684D01*
X146992Y172110D01*
X146406Y172696D01*
X145981Y172980D01*
X145478Y173081D01*
D02*
G37*
G36*
X188915Y168973D02*
X188210D01*
X187559Y168704D01*
X187060Y168205D01*
X186791Y167554D01*
Y166849D01*
X187060Y166198D01*
X187559Y165700D01*
X188210Y165430D01*
X188915D01*
X189566Y165700D01*
X190064Y166198D01*
X190334Y166849D01*
Y167554D01*
X190064Y168205D01*
X189566Y168704D01*
X188915Y168973D01*
D02*
G37*
G36*
X206652Y167323D02*
X205947D01*
X205296Y167053D01*
X204797Y166555D01*
X204528Y165904D01*
Y165199D01*
X204797Y164548D01*
X205296Y164049D01*
X205947Y163779D01*
X206652D01*
X207303Y164049D01*
X207801Y164548D01*
X208071Y165199D01*
Y165904D01*
X207801Y166555D01*
X207303Y167053D01*
X206652Y167323D01*
D02*
G37*
G36*
X171899Y161917D02*
X171195D01*
X170544Y161648D01*
X170045Y161149D01*
X169980Y160992D01*
X169542Y161173D01*
X168837D01*
X168186Y160903D01*
X167688Y160405D01*
X167418Y159754D01*
Y159049D01*
X167688Y158398D01*
X168186Y157899D01*
X168837Y157630D01*
X169542D01*
X170193Y157899D01*
X170692Y158398D01*
X170757Y158555D01*
X171195Y158374D01*
X171899D01*
X172551Y158644D01*
X173049Y159142D01*
X173319Y159793D01*
Y160498D01*
X173049Y161149D01*
X172551Y161648D01*
X171899Y161917D01*
D02*
G37*
G36*
X146054Y163163D02*
X145349D01*
X144698Y162893D01*
X144200Y162395D01*
X143930Y161743D01*
Y161039D01*
X144200Y160388D01*
X144698Y159889D01*
X145349Y159619D01*
X146054D01*
X146705Y159889D01*
X147204Y160388D01*
X147473Y161039D01*
Y161743D01*
X147204Y162395D01*
X146705Y162893D01*
X146054Y163163D01*
D02*
G37*
G36*
X189723Y162772D02*
X189018D01*
X188366Y162502D01*
X187868Y162004D01*
X187598Y161352D01*
Y160648D01*
X187868Y159996D01*
X188366Y159498D01*
X189018Y159228D01*
X189723D01*
X190374Y159498D01*
X190872Y159996D01*
X191142Y160648D01*
Y161352D01*
X190872Y162004D01*
X190374Y162502D01*
X189723Y162772D01*
D02*
G37*
G36*
X230788Y166191D02*
X229842D01*
X228928Y165946D01*
X228109Y165473D01*
X227440Y164804D01*
X226967Y163985D01*
X226723Y163071D01*
Y162125D01*
X226967Y161212D01*
X227440Y160392D01*
X228109Y159724D01*
X228928Y159251D01*
X229842Y159006D01*
X230788D01*
X231702Y159251D01*
X232521Y159724D01*
X233190Y160392D01*
X233663Y161212D01*
X233908Y162125D01*
Y163071D01*
X233663Y163985D01*
X233190Y164804D01*
X232521Y165473D01*
X231702Y165946D01*
X230788Y166191D01*
D02*
G37*
G36*
X220788D02*
X219842D01*
X218928Y165946D01*
X218109Y165473D01*
X217440Y164804D01*
X216967Y163985D01*
X216722Y163071D01*
Y162125D01*
X216967Y161212D01*
X217440Y160392D01*
X218109Y159724D01*
X218928Y159251D01*
X219842Y159006D01*
X220788D01*
X221702Y159251D01*
X222521Y159724D01*
X223190Y160392D01*
X223663Y161212D01*
X223907Y162125D01*
Y163071D01*
X223663Y163985D01*
X223190Y164804D01*
X222521Y165473D01*
X221702Y165946D01*
X220788Y166191D01*
D02*
G37*
G36*
X95355D02*
X94409D01*
X93495Y165946D01*
X92676Y165473D01*
X92007Y164804D01*
X91534Y163985D01*
X91289Y163071D01*
Y162125D01*
X91534Y161212D01*
X92007Y160392D01*
X92676Y159724D01*
X93495Y159251D01*
X94409Y159006D01*
X95355D01*
X96268Y159251D01*
X97088Y159724D01*
X97756Y160392D01*
X98229Y161212D01*
X98474Y162125D01*
Y163071D01*
X98229Y163985D01*
X97756Y164804D01*
X97088Y165473D01*
X96268Y165946D01*
X95355Y166191D01*
D02*
G37*
G36*
X85355D02*
X84409D01*
X83495Y165946D01*
X82676Y165473D01*
X82007Y164804D01*
X81534Y163985D01*
X81289Y163071D01*
Y162125D01*
X81534Y161212D01*
X82007Y160392D01*
X82676Y159724D01*
X83495Y159251D01*
X84409Y159006D01*
X85355D01*
X86269Y159251D01*
X87088Y159724D01*
X87757Y160392D01*
X88230Y161212D01*
X88474Y162125D01*
Y163071D01*
X88230Y163985D01*
X87757Y164804D01*
X87088Y165473D01*
X86269Y165946D01*
X85355Y166191D01*
D02*
G37*
G36*
X198749Y161282D02*
X198044D01*
X197393Y161012D01*
X196895Y160514D01*
X196850Y160407D01*
X196625Y159863D01*
Y159449D01*
Y159158D01*
X196895Y158507D01*
X197393Y158009D01*
X198044Y157739D01*
X198749D01*
X199400Y158009D01*
X199899Y158507D01*
X200168Y159158D01*
Y159863D01*
X199899Y160514D01*
X199400Y161012D01*
X198749Y161282D01*
D02*
G37*
G36*
X111770Y161241D02*
X111065D01*
X110414Y160971D01*
X109915Y160473D01*
X109646Y159822D01*
Y159117D01*
X109915Y158466D01*
X110414Y157967D01*
X111065Y157698D01*
X111770D01*
X112421Y157967D01*
X112919Y158466D01*
X113189Y159117D01*
Y159822D01*
X112919Y160473D01*
X112421Y160971D01*
X111770Y161241D01*
D02*
G37*
G36*
X193004Y157287D02*
X192300D01*
X191648Y157017D01*
X191150Y156519D01*
X191026Y156219D01*
X190520Y156429D01*
X189815D01*
X189164Y156159D01*
X188665Y155661D01*
X188396Y155010D01*
Y154305D01*
X188665Y153654D01*
X189164Y153156D01*
X189815Y152886D01*
X190520D01*
X191171Y153156D01*
X191669Y153654D01*
X191793Y153954D01*
X192300Y153744D01*
X193004D01*
X193656Y154014D01*
X194154Y154512D01*
X194424Y155163D01*
Y155868D01*
X194154Y156519D01*
X193656Y157017D01*
X193004Y157287D01*
D02*
G37*
G36*
X185535Y159287D02*
X184831D01*
X184179Y159017D01*
X183681Y158519D01*
X183411Y157868D01*
Y157163D01*
X183681Y156511D01*
X183746Y156447D01*
X183463Y156023D01*
X182992Y156218D01*
X182288D01*
X182272Y156211D01*
X181889Y156594D01*
X181988Y156833D01*
Y157537D01*
X181719Y158189D01*
X181220Y158687D01*
X180569Y158957D01*
X179864D01*
X179213Y158687D01*
X178715Y158189D01*
X178563Y157823D01*
X178145Y157996D01*
X177440D01*
X176789Y157726D01*
X176290Y157228D01*
X176021Y156577D01*
Y155872D01*
X176141Y155581D01*
X175829Y155452D01*
X175330Y154954D01*
X175060Y154303D01*
Y153598D01*
X175330Y152947D01*
X175829Y152448D01*
X176480Y152179D01*
X177184D01*
X177836Y152448D01*
X178334Y152947D01*
X178604Y153598D01*
Y154303D01*
X178483Y154593D01*
X178796Y154722D01*
X179294Y155221D01*
X179446Y155587D01*
X179864Y155413D01*
X180569D01*
X180585Y155420D01*
X180967Y155037D01*
X180868Y154798D01*
Y154094D01*
X181138Y153442D01*
X181636Y152944D01*
X182288Y152674D01*
X182992D01*
X183643Y152944D01*
X184142Y153442D01*
X184412Y154094D01*
Y154798D01*
X184142Y155449D01*
X184077Y155514D01*
X184360Y155938D01*
X184831Y155743D01*
X185535D01*
X186187Y156013D01*
X186685Y156511D01*
X186955Y157163D01*
Y157868D01*
X186685Y158519D01*
X186187Y159017D01*
X185535Y159287D01*
D02*
G37*
G36*
X159592Y159438D02*
X158887D01*
X158236Y159169D01*
X157738Y158670D01*
X157468Y158019D01*
Y157314D01*
X157738Y156663D01*
X158236Y156165D01*
X158887Y155895D01*
X159592D01*
X160243Y156165D01*
X160741Y156663D01*
X161011Y157314D01*
Y158019D01*
X160741Y158670D01*
X160243Y159169D01*
X159592Y159438D01*
D02*
G37*
G36*
X231315Y156270D02*
Y153598D01*
X233986D01*
X233861Y154067D01*
X233360Y154935D01*
X232651Y155643D01*
X231784Y156144D01*
X231315Y156270D01*
D02*
G37*
G36*
X229315D02*
X228846Y156144D01*
X227979Y155643D01*
X227270Y154935D01*
X226769Y154067D01*
X226644Y153598D01*
X229315D01*
Y156270D01*
D02*
G37*
G36*
X141494Y156693D02*
X140789D01*
X140138Y156423D01*
X139640Y155925D01*
X139370Y155274D01*
Y154569D01*
X139640Y153918D01*
X140138Y153419D01*
X140789Y153150D01*
X141494D01*
X142145Y153419D01*
X142644Y153918D01*
X142913Y154569D01*
Y155274D01*
X142644Y155925D01*
X142145Y156423D01*
X141494Y156693D01*
D02*
G37*
G36*
X126337Y154217D02*
X125632D01*
X124981Y153947D01*
X124482Y153448D01*
X124213Y152797D01*
Y152093D01*
X124482Y151441D01*
X124981Y150943D01*
X125632Y150673D01*
X126337D01*
X126988Y150943D01*
X127486Y151441D01*
X127756Y152093D01*
Y152797D01*
X127486Y153448D01*
X126988Y153947D01*
X126337Y154217D01*
D02*
G37*
G36*
X164301Y153778D02*
X163596D01*
X162945Y153509D01*
X162446Y153010D01*
X162177Y152359D01*
Y151654D01*
X162446Y151003D01*
X162945Y150505D01*
X163596Y150235D01*
X164301D01*
X164952Y150505D01*
X165450Y151003D01*
X165720Y151654D01*
Y152359D01*
X165450Y153010D01*
X164952Y153509D01*
X164301Y153778D01*
D02*
G37*
G36*
X220788Y156191D02*
X219842D01*
X218928Y155946D01*
X218109Y155473D01*
X217440Y154804D01*
X216967Y153985D01*
X216722Y153071D01*
Y152125D01*
X216967Y151212D01*
X217440Y150392D01*
X218109Y149724D01*
X218928Y149251D01*
X219842Y149006D01*
X220788D01*
X221702Y149251D01*
X222521Y149724D01*
X223190Y150392D01*
X223663Y151212D01*
X223907Y152125D01*
Y153071D01*
X223663Y153985D01*
X223190Y154804D01*
X222521Y155473D01*
X221702Y155946D01*
X220788Y156191D01*
D02*
G37*
G36*
X95355D02*
X94409D01*
X93495Y155946D01*
X92676Y155473D01*
X92007Y154804D01*
X91534Y153985D01*
X91289Y153071D01*
Y152125D01*
X91534Y151212D01*
X92007Y150392D01*
X92676Y149724D01*
X93495Y149251D01*
X94409Y149006D01*
X95355D01*
X96268Y149251D01*
X97088Y149724D01*
X97756Y150392D01*
X98229Y151212D01*
X98474Y152125D01*
Y153071D01*
X98229Y153985D01*
X97756Y154804D01*
X97088Y155473D01*
X96268Y155946D01*
X95355Y156191D01*
D02*
G37*
G36*
X85355D02*
X84409D01*
X83495Y155946D01*
X82676Y155473D01*
X82007Y154804D01*
X81534Y153985D01*
X81289Y153071D01*
Y152125D01*
X81534Y151212D01*
X82007Y150392D01*
X82676Y149724D01*
X83495Y149251D01*
X84409Y149006D01*
X85355D01*
X86269Y149251D01*
X87088Y149724D01*
X87757Y150392D01*
X88230Y151212D01*
X88474Y152125D01*
Y153071D01*
X88230Y153985D01*
X87757Y154804D01*
X87088Y155473D01*
X86269Y155946D01*
X85355Y156191D01*
D02*
G37*
G36*
X233986Y151598D02*
X231315D01*
Y148927D01*
X231784Y149053D01*
X232651Y149554D01*
X233360Y150262D01*
X233861Y151130D01*
X233986Y151598D01*
D02*
G37*
G36*
X229315D02*
X226644D01*
X226769Y151130D01*
X227270Y150262D01*
X227979Y149554D01*
X228846Y149053D01*
X229315Y148927D01*
Y151598D01*
D02*
G37*
G36*
X199416Y154688D02*
X198711D01*
X198060Y154419D01*
X197561Y153920D01*
X197292Y153269D01*
Y152564D01*
X197561Y151913D01*
X198020Y151455D01*
X197768Y150847D01*
Y150142D01*
X198037Y149491D01*
X198536Y148993D01*
X199187Y148723D01*
X199892D01*
X200543Y148993D01*
X201041Y149491D01*
X201311Y150142D01*
Y150847D01*
X201041Y151498D01*
X200583Y151956D01*
X200835Y152564D01*
Y153269D01*
X200565Y153920D01*
X200067Y154419D01*
X199416Y154688D01*
D02*
G37*
G36*
X163933Y146277D02*
X163228D01*
X162577Y146007D01*
X162079Y145509D01*
X161809Y144858D01*
Y144153D01*
X162079Y143502D01*
X162577Y143003D01*
X163228Y142734D01*
X163933D01*
X164584Y143003D01*
X165083Y143502D01*
X165352Y144153D01*
Y144858D01*
X165083Y145509D01*
X164584Y146007D01*
X163933Y146277D01*
D02*
G37*
G36*
X193483Y152932D02*
X192779D01*
X192127Y152662D01*
X191629Y152164D01*
X191359Y151513D01*
Y150808D01*
X191629Y150157D01*
X192127Y149659D01*
X192779Y149389D01*
X193142D01*
X193371Y149389D01*
X193470Y148889D01*
X193265Y148803D01*
X192960Y148678D01*
X192462Y148179D01*
X192192Y147528D01*
Y146823D01*
X192462Y146172D01*
X192735Y145899D01*
X192549Y145712D01*
X192279Y145061D01*
Y144356D01*
X192549Y143705D01*
X193047Y143207D01*
X193698Y142937D01*
X194245D01*
Y142864D01*
X194515Y142213D01*
X195013Y141715D01*
X195665Y141445D01*
X196369D01*
X197020Y141715D01*
X197519Y142213D01*
X197789Y142864D01*
Y143569D01*
X197519Y144220D01*
X197020Y144718D01*
X196369Y144988D01*
X195822D01*
Y145061D01*
X195552Y145712D01*
X195279Y145985D01*
X195466Y146172D01*
X195736Y146823D01*
Y147528D01*
X195466Y148179D01*
X194968Y148678D01*
X194316Y148947D01*
X193953D01*
X193724Y148947D01*
X193625Y149447D01*
X193830Y149532D01*
X194134Y149659D01*
X194633Y150157D01*
X194903Y150808D01*
Y151513D01*
X194633Y152164D01*
X194134Y152662D01*
X193483Y152932D01*
D02*
G37*
G36*
X201213Y144882D02*
X200508D01*
X199857Y144612D01*
X199359Y144114D01*
X199089Y143463D01*
Y142758D01*
X199359Y142107D01*
X199857Y141608D01*
X200508Y141339D01*
X201213D01*
X201864Y141608D01*
X202363Y142107D01*
X202632Y142758D01*
Y143463D01*
X202363Y144114D01*
X201864Y144612D01*
X201213Y144882D01*
D02*
G37*
G36*
X206356Y144685D02*
X205651D01*
X205000Y144415D01*
X204502Y143917D01*
X204232Y143266D01*
Y142561D01*
X204502Y141910D01*
X205000Y141411D01*
X205651Y141142D01*
X206356D01*
X207008Y141411D01*
X207506Y141910D01*
X207776Y142561D01*
Y143266D01*
X207506Y143917D01*
X207008Y144415D01*
X206356Y144685D01*
D02*
G37*
G36*
X230788Y146191D02*
X229842D01*
X228928Y145946D01*
X228109Y145473D01*
X227440Y144804D01*
X226967Y143985D01*
X226723Y143071D01*
Y142125D01*
X226967Y141212D01*
X227440Y140392D01*
X228109Y139724D01*
X228928Y139251D01*
X229842Y139006D01*
X230788D01*
X231702Y139251D01*
X232521Y139724D01*
X233190Y140392D01*
X233663Y141212D01*
X233908Y142125D01*
Y143071D01*
X233663Y143985D01*
X233190Y144804D01*
X232521Y145473D01*
X231702Y145946D01*
X230788Y146191D01*
D02*
G37*
G36*
X220788D02*
X219842D01*
X218928Y145946D01*
X218109Y145473D01*
X217440Y144804D01*
X216967Y143985D01*
X216722Y143071D01*
Y142125D01*
X216967Y141212D01*
X217440Y140392D01*
X218109Y139724D01*
X218928Y139251D01*
X219842Y139006D01*
X220788D01*
X221702Y139251D01*
X222521Y139724D01*
X223190Y140392D01*
X223663Y141212D01*
X223907Y142125D01*
Y143071D01*
X223663Y143985D01*
X223190Y144804D01*
X222521Y145473D01*
X221702Y145946D01*
X220788Y146191D01*
D02*
G37*
G36*
X95355D02*
X94409D01*
X93495Y145946D01*
X92676Y145473D01*
X92007Y144804D01*
X91534Y143985D01*
X91289Y143071D01*
Y142125D01*
X91534Y141212D01*
X92007Y140392D01*
X92676Y139724D01*
X93495Y139251D01*
X94409Y139006D01*
X95355D01*
X96268Y139251D01*
X97088Y139724D01*
X97756Y140392D01*
X98229Y141212D01*
X98474Y142125D01*
Y143071D01*
X98229Y143985D01*
X97756Y144804D01*
X97088Y145473D01*
X96268Y145946D01*
X95355Y146191D01*
D02*
G37*
G36*
X85355D02*
X84409D01*
X83495Y145946D01*
X82676Y145473D01*
X82007Y144804D01*
X81534Y143985D01*
X81289Y143071D01*
Y142125D01*
X81534Y141212D01*
X82007Y140392D01*
X82676Y139724D01*
X83495Y139251D01*
X84409Y139006D01*
X85355D01*
X86269Y139251D01*
X87088Y139724D01*
X87757Y140392D01*
X88230Y141212D01*
X88474Y142125D01*
Y143071D01*
X88230Y143985D01*
X87757Y144804D01*
X87088Y145473D01*
X86269Y145946D01*
X85355Y146191D01*
D02*
G37*
G36*
X175549Y147244D02*
X174845D01*
X174193Y146974D01*
X173695Y146476D01*
X173425Y145825D01*
Y145120D01*
X173501Y144937D01*
X173471Y144850D01*
X173151Y144474D01*
X172636D01*
X171985Y144205D01*
X171486Y143707D01*
X171216Y143055D01*
Y142350D01*
X171486Y141699D01*
X171985Y141201D01*
X172636Y140931D01*
X173341D01*
X173517Y141004D01*
X174016Y140670D01*
Y140297D01*
X174285Y139646D01*
X174784Y139148D01*
X175435Y138878D01*
X176140D01*
X176791Y139148D01*
X177289Y139646D01*
X177559Y140297D01*
Y141002D01*
X177289Y141653D01*
X176791Y142151D01*
X176140Y142421D01*
X175435D01*
X175259Y142348D01*
X174760Y142683D01*
Y143055D01*
X174684Y143239D01*
X174714Y143325D01*
X175034Y143701D01*
X175549D01*
X176200Y143971D01*
X176699Y144469D01*
X176969Y145120D01*
Y145825D01*
X176699Y146476D01*
X176200Y146974D01*
X175549Y147244D01*
D02*
G37*
G36*
X161969Y137431D02*
X161265D01*
X160614Y137161D01*
X160115Y136663D01*
X159845Y136012D01*
Y135307D01*
X160115Y134656D01*
X160614Y134157D01*
X161265Y133888D01*
X161969D01*
X162621Y134157D01*
X163119Y134656D01*
X163389Y135307D01*
Y136012D01*
X163119Y136663D01*
X162621Y137161D01*
X161969Y137431D01*
D02*
G37*
G36*
X177730Y136780D02*
X177025D01*
X176374Y136511D01*
X175876Y136012D01*
X175606Y135361D01*
Y134656D01*
X175876Y134005D01*
X176374Y133507D01*
X177025Y133237D01*
X177730D01*
X178382Y133507D01*
X178880Y134005D01*
X179149Y134656D01*
Y135361D01*
X178880Y136012D01*
X178382Y136511D01*
X177730Y136780D01*
D02*
G37*
G36*
X186370Y136620D02*
X185665D01*
X185014Y136350D01*
X184516Y135852D01*
X184246Y135201D01*
Y134496D01*
X184516Y133845D01*
X185014Y133347D01*
X185665Y133077D01*
X186370D01*
X187021Y133347D01*
X187520Y133845D01*
X187789Y134496D01*
Y135201D01*
X187520Y135852D01*
X187021Y136350D01*
X186370Y136620D01*
D02*
G37*
G36*
X194141Y136091D02*
X193436D01*
X192785Y135821D01*
X192286Y135322D01*
X192016Y134671D01*
Y133966D01*
X192286Y133315D01*
X192785Y132817D01*
X193436Y132547D01*
X194141D01*
X194792Y132817D01*
X195290Y133315D01*
X195560Y133966D01*
Y134671D01*
X195290Y135322D01*
X194792Y135821D01*
X194141Y136091D01*
D02*
G37*
G36*
X171219Y134166D02*
X170514D01*
X169863Y133897D01*
X169364Y133398D01*
X169095Y132747D01*
Y132042D01*
X169364Y131391D01*
X169863Y130893D01*
X170514Y130623D01*
X171219D01*
X171870Y130893D01*
X172368Y131391D01*
X172638Y132042D01*
Y132747D01*
X172368Y133398D01*
X171870Y133897D01*
X171219Y134166D01*
D02*
G37*
G36*
X207242Y133268D02*
X206537D01*
X205886Y132998D01*
X205388Y132500D01*
X205118Y131849D01*
Y131144D01*
X205388Y130492D01*
X205886Y129994D01*
X206537Y129724D01*
X207242D01*
X207893Y129994D01*
X208392Y130492D01*
X208661Y131144D01*
Y131849D01*
X208392Y132500D01*
X207893Y132998D01*
X207242Y133268D01*
D02*
G37*
G36*
X230788Y136191D02*
X229842D01*
X228928Y135946D01*
X228109Y135473D01*
X227440Y134804D01*
X226967Y133985D01*
X226723Y133071D01*
Y132125D01*
X226967Y131212D01*
X227440Y130393D01*
X228109Y129724D01*
X228928Y129251D01*
X229842Y129006D01*
X230788D01*
X231702Y129251D01*
X232521Y129724D01*
X233190Y130393D01*
X233663Y131212D01*
X233908Y132125D01*
Y133071D01*
X233663Y133985D01*
X233190Y134804D01*
X232521Y135473D01*
X231702Y135946D01*
X230788Y136191D01*
D02*
G37*
G36*
X220788D02*
X219842D01*
X218928Y135946D01*
X218109Y135473D01*
X217440Y134804D01*
X216967Y133985D01*
X216722Y133071D01*
Y132125D01*
X216967Y131212D01*
X217440Y130393D01*
X218109Y129724D01*
X218928Y129251D01*
X219842Y129006D01*
X220788D01*
X221702Y129251D01*
X222521Y129724D01*
X223190Y130393D01*
X223663Y131212D01*
X223907Y132125D01*
Y133071D01*
X223663Y133985D01*
X223190Y134804D01*
X222521Y135473D01*
X221702Y135946D01*
X220788Y136191D01*
D02*
G37*
G36*
X95355D02*
X94409D01*
X93495Y135946D01*
X92676Y135473D01*
X92007Y134804D01*
X91534Y133985D01*
X91289Y133071D01*
Y132125D01*
X91534Y131212D01*
X92007Y130393D01*
X92676Y129724D01*
X93495Y129251D01*
X94409Y129006D01*
X95355D01*
X96268Y129251D01*
X97088Y129724D01*
X97756Y130393D01*
X98229Y131212D01*
X98474Y132125D01*
Y133071D01*
X98256Y133888D01*
X98229Y133985D01*
X98130Y134157D01*
X97756Y134804D01*
X97088Y135473D01*
X96268Y135946D01*
X95355Y136191D01*
D02*
G37*
G36*
X85355D02*
X84409D01*
X83495Y135946D01*
X82676Y135473D01*
X82007Y134804D01*
X81534Y133985D01*
X81289Y133071D01*
Y132125D01*
X81534Y131212D01*
X82007Y130393D01*
X82676Y129724D01*
X83495Y129251D01*
X84409Y129006D01*
X85355D01*
X86269Y129251D01*
X87088Y129724D01*
X87757Y130393D01*
X88230Y131212D01*
X88474Y132125D01*
Y133071D01*
X88230Y133985D01*
X87757Y134804D01*
X87088Y135473D01*
X86269Y135946D01*
X85355Y136191D01*
D02*
G37*
G36*
X161953Y129614D02*
X161248D01*
X160597Y129345D01*
X160099Y128846D01*
X159829Y128195D01*
Y127490D01*
X160099Y126839D01*
X160597Y126341D01*
X161248Y126071D01*
X161953D01*
X162604Y126341D01*
X163102Y126839D01*
X163372Y127490D01*
Y128195D01*
X163102Y128846D01*
X162604Y129345D01*
X161953Y129614D01*
D02*
G37*
G36*
X231315Y126270D02*
Y123598D01*
X233986D01*
X233861Y124067D01*
X233360Y124935D01*
X232651Y125643D01*
X231784Y126144D01*
X231315Y126270D01*
D02*
G37*
G36*
X229315D02*
X228846Y126144D01*
X227979Y125643D01*
X227270Y124935D01*
X226769Y124067D01*
X226644Y123598D01*
X229315D01*
Y126270D01*
D02*
G37*
G36*
X220788Y126191D02*
X219842D01*
X218928Y125946D01*
X218109Y125473D01*
X217440Y124804D01*
X216967Y123985D01*
X216722Y123071D01*
Y122125D01*
X216967Y121212D01*
X217440Y120393D01*
X218109Y119724D01*
X218928Y119251D01*
X219842Y119006D01*
X220788D01*
X221702Y119251D01*
X222521Y119724D01*
X223190Y120393D01*
X223663Y121212D01*
X223907Y122125D01*
Y123071D01*
X223663Y123985D01*
X223190Y124804D01*
X222521Y125473D01*
X221702Y125946D01*
X220788Y126191D01*
D02*
G37*
G36*
X95355D02*
X94409D01*
X93495Y125946D01*
X92676Y125473D01*
X92007Y124804D01*
X91534Y123985D01*
X91289Y123071D01*
Y122125D01*
X91534Y121212D01*
X92007Y120393D01*
X92676Y119724D01*
X93495Y119251D01*
X94409Y119006D01*
X95355D01*
X96268Y119251D01*
X97088Y119724D01*
X97756Y120393D01*
X98229Y121212D01*
X98474Y122125D01*
Y123071D01*
X98229Y123985D01*
X97756Y124804D01*
X97088Y125473D01*
X96268Y125946D01*
X95355Y126191D01*
D02*
G37*
G36*
X85355D02*
X84409D01*
X83495Y125946D01*
X82676Y125473D01*
X82007Y124804D01*
X81534Y123985D01*
X81289Y123071D01*
Y122125D01*
X81534Y121212D01*
X82007Y120393D01*
X82676Y119724D01*
X83495Y119251D01*
X84409Y119006D01*
X85355D01*
X86269Y119251D01*
X87088Y119724D01*
X87757Y120393D01*
X88230Y121212D01*
X88474Y122125D01*
Y123071D01*
X88230Y123985D01*
X87757Y124804D01*
X87088Y125473D01*
X86269Y125946D01*
X85355Y126191D01*
D02*
G37*
G36*
X233986Y121598D02*
X231315D01*
Y118927D01*
X231784Y119053D01*
X232651Y119553D01*
X233360Y120262D01*
X233861Y121130D01*
X233986Y121598D01*
D02*
G37*
G36*
X229315D02*
X226644D01*
X226769Y121130D01*
X227270Y120262D01*
X227979Y119553D01*
X228846Y119053D01*
X229315Y118927D01*
Y121598D01*
D02*
G37*
G36*
X230788Y116191D02*
X229842D01*
X228928Y115946D01*
X228109Y115473D01*
X227440Y114804D01*
X226967Y113985D01*
X226723Y113071D01*
Y112125D01*
X226967Y111212D01*
X227440Y110392D01*
X228109Y109724D01*
X228928Y109251D01*
X229842Y109006D01*
X230788D01*
X231702Y109251D01*
X232521Y109724D01*
X233190Y110392D01*
X233663Y111212D01*
X233908Y112125D01*
Y113071D01*
X233663Y113985D01*
X233190Y114804D01*
X232521Y115473D01*
X231702Y115946D01*
X230788Y116191D01*
D02*
G37*
G36*
X220788D02*
X219842D01*
X218928Y115946D01*
X218109Y115473D01*
X217440Y114804D01*
X216967Y113985D01*
X216722Y113071D01*
Y112125D01*
X216967Y111212D01*
X217440Y110392D01*
X218109Y109724D01*
X218928Y109251D01*
X219842Y109006D01*
X220788D01*
X221702Y109251D01*
X222521Y109724D01*
X223190Y110392D01*
X223663Y111212D01*
X223907Y112125D01*
Y113071D01*
X223663Y113985D01*
X223190Y114804D01*
X222521Y115473D01*
X221702Y115946D01*
X220788Y116191D01*
D02*
G37*
G36*
X95355D02*
X94409D01*
X93495Y115946D01*
X92676Y115473D01*
X92007Y114804D01*
X91534Y113985D01*
X91289Y113071D01*
Y112125D01*
X91534Y111212D01*
X92007Y110392D01*
X92676Y109724D01*
X93495Y109251D01*
X94409Y109006D01*
X95355D01*
X96268Y109251D01*
X97088Y109724D01*
X97756Y110392D01*
X98229Y111212D01*
X98474Y112125D01*
Y113071D01*
X98229Y113985D01*
X97756Y114804D01*
X97088Y115473D01*
X96268Y115946D01*
X95355Y116191D01*
D02*
G37*
G36*
X85355D02*
X84409D01*
X83495Y115946D01*
X82676Y115473D01*
X82007Y114804D01*
X81534Y113985D01*
X81289Y113071D01*
Y112125D01*
X81534Y111212D01*
X82007Y110392D01*
X82676Y109724D01*
X83495Y109251D01*
X84409Y109006D01*
X85355D01*
X86269Y109251D01*
X87088Y109724D01*
X87757Y110392D01*
X88230Y111212D01*
X88474Y112125D01*
Y113071D01*
X88230Y113985D01*
X87757Y114804D01*
X87088Y115473D01*
X86269Y115946D01*
X85355Y116191D01*
D02*
G37*
G36*
X203896Y112485D02*
X203191D01*
X202540Y112215D01*
X202042Y111717D01*
X201772Y111066D01*
Y110361D01*
X202042Y109710D01*
X202540Y109212D01*
X203191Y108942D01*
X203896D01*
X204547Y109212D01*
X205045Y109710D01*
X205315Y110361D01*
Y111066D01*
X205045Y111717D01*
X204547Y112215D01*
X203896Y112485D01*
D02*
G37*
G36*
X95882Y106270D02*
Y103598D01*
X98553D01*
X98428Y104067D01*
X97927Y104935D01*
X97218Y105643D01*
X96351Y106144D01*
X95882Y106270D01*
D02*
G37*
G36*
X85882D02*
Y103598D01*
X88553D01*
X88428Y104067D01*
X87927Y104935D01*
X87218Y105643D01*
X86351Y106144D01*
X85882Y106270D01*
D02*
G37*
G36*
X93882D02*
X93413Y106144D01*
X92545Y105643D01*
X91837Y104935D01*
X91336Y104067D01*
X91210Y103598D01*
X93882D01*
Y106270D01*
D02*
G37*
G36*
X83882D02*
X83413Y106144D01*
X82545Y105643D01*
X81837Y104935D01*
X81336Y104067D01*
X81210Y103598D01*
X83882D01*
Y106270D01*
D02*
G37*
G36*
X230788Y106191D02*
X229842D01*
X228928Y105946D01*
X228109Y105473D01*
X227440Y104804D01*
X226967Y103985D01*
X226723Y103071D01*
Y102125D01*
X226967Y101212D01*
X227440Y100392D01*
X228109Y99724D01*
X228928Y99251D01*
X229842Y99006D01*
X230788D01*
X231702Y99251D01*
X232521Y99724D01*
X233190Y100392D01*
X233663Y101212D01*
X233908Y102125D01*
Y103071D01*
X233663Y103985D01*
X233190Y104804D01*
X232521Y105473D01*
X231702Y105946D01*
X230788Y106191D01*
D02*
G37*
G36*
X220788D02*
X219842D01*
X218928Y105946D01*
X218109Y105473D01*
X217440Y104804D01*
X216967Y103985D01*
X216722Y103071D01*
Y102125D01*
X216967Y101212D01*
X217440Y100392D01*
X218109Y99724D01*
X218928Y99251D01*
X219842Y99006D01*
X220788D01*
X221702Y99251D01*
X222521Y99724D01*
X223190Y100392D01*
X223663Y101212D01*
X223907Y102125D01*
Y103071D01*
X223663Y103985D01*
X223190Y104804D01*
X222521Y105473D01*
X221702Y105946D01*
X220788Y106191D01*
D02*
G37*
G36*
X98553Y101598D02*
X95882D01*
Y98927D01*
X96351Y99053D01*
X97218Y99554D01*
X97927Y100262D01*
X98428Y101130D01*
X98553Y101598D01*
D02*
G37*
G36*
X88553D02*
X85882D01*
Y98927D01*
X86351Y99053D01*
X87218Y99554D01*
X87927Y100262D01*
X88428Y101130D01*
X88553Y101598D01*
D02*
G37*
G36*
X83882D02*
X81210D01*
X81336Y101130D01*
X81837Y100262D01*
X82545Y99554D01*
X83413Y99053D01*
X83882Y98927D01*
Y101598D01*
D02*
G37*
G36*
X93882D02*
X91210D01*
X91336Y101130D01*
X91837Y100262D01*
X92545Y99554D01*
X93413Y99053D01*
X93882Y98927D01*
Y101598D01*
D02*
G37*
G36*
X139370Y133858D02*
X115354D01*
Y88583D01*
X139370D01*
Y133858D01*
D02*
G37*
%LPD*%
G36*
X199606Y174016D02*
X185433D01*
Y181890D01*
X199606D01*
Y174016D01*
D02*
G37*
%LPC*%
G36*
X193561Y180905D02*
X192856D01*
X192205Y180636D01*
X191707Y180137D01*
X191437Y179486D01*
Y178781D01*
X191707Y178130D01*
X192205Y177632D01*
X192856Y177362D01*
X193561D01*
X194212Y177632D01*
X194711Y178130D01*
X194980Y178781D01*
Y179486D01*
X194711Y180137D01*
X194212Y180636D01*
X193561Y180905D01*
D02*
G37*
%LPD*%
D14*
X171569Y153164D02*
X172448Y153399D01*
X173091Y154042D01*
X173327Y154921D01*
X226378Y133716D02*
X226222Y132598D01*
X226378Y131481D01*
X225609Y147006D02*
X225631Y146074D01*
X225695Y145143D01*
X225802Y144217D01*
X225952Y143297D01*
X226144Y142384D01*
X226378Y141481D01*
X226512Y131086D02*
X227086Y130084D01*
X227916Y129282D01*
X228938Y128744D01*
X226378Y131481D02*
X226432Y131288D01*
X221126Y106610D02*
X220318Y106691D01*
X219510Y106611D01*
X219322Y106592D02*
X219510Y106611D01*
X221134Y106608D02*
X221304Y106592D01*
X166227Y153488D02*
X166959Y153164D01*
X173327Y150886D02*
X172306Y150810D01*
X171307Y150583D01*
X170353Y150211D01*
X169464Y149701D01*
X168661Y149066D01*
X167962Y148318D01*
X167380Y147475D01*
X166930Y146555D01*
X173228Y155020D02*
X173327Y154921D01*
X226299Y192598D02*
X230315D01*
X220571Y198327D02*
X226299Y192598D01*
X214344Y198327D02*
X220571D01*
X228938Y128744D02*
X230315Y127367D01*
X226378Y133716D02*
Y141481D01*
X226432Y131288D02*
X226512Y131086D01*
X221126Y106610D02*
X221134Y106608D01*
X215352Y106592D02*
X219322D01*
X172801Y88189D02*
X172835D01*
X158661Y200787D02*
X166142D01*
X143717Y182776D02*
X148031D01*
X143717Y178445D02*
X148031D01*
X143717Y174114D02*
X147933D01*
X136500Y200787D02*
X143701D01*
X107382Y192947D02*
Y193307D01*
X143717Y178560D02*
Y182776D01*
Y174114D02*
Y178445D01*
X139387Y182328D02*
X139736Y182677D01*
X139387Y174114D02*
Y182328D01*
X135056Y174820D02*
Y182776D01*
X143717Y158546D02*
Y169784D01*
X114272Y178347D02*
X114632D01*
X166959Y153164D02*
X171569D01*
X165375Y154106D02*
X166227Y153488D01*
X166130Y143610D02*
X166930Y146555D01*
X100295Y103221D02*
Y153543D01*
X230315Y125802D02*
Y126772D01*
Y127367D01*
X204331Y126772D02*
X230315D01*
X230020Y122894D02*
Y125802D01*
X230315Y117829D02*
Y122598D01*
X99709Y102636D02*
X100295Y103221D01*
X94919Y102636D02*
X99709D01*
X86083Y102598D02*
X94882D01*
X225609Y152013D02*
X226195Y152598D01*
X230315D01*
X225609Y147006D02*
Y152013D01*
X157480Y83465D02*
X157890D01*
X156693D02*
X157480D01*
X157890D02*
X160138Y81217D01*
X164075D01*
X164287D02*
X168012D01*
X168390D02*
X171949D01*
X208760Y100492D02*
X209252D01*
X206272D02*
X208760D01*
X172835Y87894D02*
Y88189D01*
Y84646D02*
Y87894D01*
X170472Y216535D02*
X174016D01*
X166535D02*
X170079D01*
X162598D02*
X166535D01*
X159055D02*
X162598D01*
X157700Y204300D02*
Y214918D01*
X158923Y216142D01*
X159616Y123425D02*
Y136465D01*
X159965Y101059D02*
Y123076D01*
Y101059D02*
X172350Y88673D01*
Y88640D02*
Y88673D01*
Y88640D02*
X172801Y88189D01*
X155012Y155323D02*
X160630Y149705D01*
Y137478D02*
Y149705D01*
X159616Y136465D02*
X160630Y137478D01*
X159616Y123425D02*
X159965Y123076D01*
X166089Y143569D02*
X166130Y143610D01*
X167582Y142298D02*
X168799Y141080D01*
X165865Y143569D02*
X166089D01*
X166243Y143503D02*
X167448Y142298D01*
X167582D01*
X204035Y100689D02*
X206076D01*
X206272Y100492D01*
X195276Y102756D02*
X201706D01*
X204035Y94882D02*
Y100689D01*
X201706Y102756D02*
X202494Y101969D01*
X202756D02*
X204035Y100689D01*
X202494Y101969D02*
X202756D01*
X141789Y168385D02*
Y170605D01*
X140058Y167799D02*
X141204D01*
X141789Y168385D01*
X142952Y171768D02*
X145478D01*
X141789Y170605D02*
X142952Y171768D01*
X146064Y168962D02*
Y171182D01*
X145478Y171768D02*
X146064Y171182D01*
X137810Y165551D02*
X140058Y167799D01*
X153700Y201575D02*
X156240Y204115D01*
X157515D02*
X157700Y204300D01*
X156240Y204115D02*
X157515D01*
X153700Y201575D02*
X157874D01*
X144488D02*
X153700D01*
X202100Y197452D02*
X202964D01*
X201193D02*
X202100D01*
X203638Y203157D02*
X203900D01*
X203181Y202700D02*
X203638Y203157D01*
X202986Y202700D02*
X203181D01*
X202100Y201814D02*
X202986Y202700D01*
X202100Y197452D02*
Y201814D01*
X136338Y200800D02*
X136500Y200962D01*
Y201800D01*
X134871Y199333D02*
X136338Y200800D01*
X136400D01*
X157874Y201575D02*
X158661Y200787D01*
X143701D02*
X144488Y201575D01*
X166142Y200787D02*
X170079Y196850D01*
X170208D02*
X192820D01*
X193405Y196265D01*
Y189665D02*
Y196265D01*
X134871Y182961D02*
X135056Y182776D01*
X134871Y182961D02*
Y199333D01*
X135039Y169685D02*
X135241Y169483D01*
X185260Y147289D02*
X185446Y147103D01*
Y146149D02*
X195742Y135852D01*
X185446Y146149D02*
Y147103D01*
X148976Y167906D02*
X153100D01*
X147226Y167799D02*
X148870D01*
X148976Y167906D01*
X146064Y168962D02*
X147226Y167799D01*
X125673Y179134D02*
X126362Y178445D01*
X114632Y178347D02*
X115420Y179134D01*
X125673D01*
X126362Y178445D02*
X135039D01*
X142787Y153760D02*
X144787Y155760D01*
X145032D01*
X142787Y153760D02*
X149526D01*
X141964Y152937D02*
X142787Y153760D01*
X137141Y152937D02*
X141964D01*
X131496Y153760D02*
X136318D01*
X137141Y152937D01*
X145768Y156496D02*
X146674D01*
X155120Y169926D02*
X161019D01*
X162680Y168266D01*
X153100Y167906D02*
X155120Y169926D01*
X168405Y185138D02*
X168701Y184843D01*
X168799D01*
X170276Y183366D01*
Y166929D02*
Y183366D01*
X145032Y155760D02*
X145768Y156496D01*
X143717Y158546D02*
X145768Y156496D01*
X100394Y153543D02*
X100578D01*
X101464Y154429D01*
X130910D01*
X131496Y153843D01*
Y153760D02*
Y153843D01*
X130315Y152579D02*
X131496Y153760D01*
X149526D02*
X151089Y155323D01*
X129194Y165551D02*
X137810D01*
X128788Y165145D02*
X129194Y165551D01*
X126210Y165145D02*
X128788D01*
X130315Y152317D02*
Y152579D01*
X150185Y156977D02*
X151329D01*
X150000Y156791D02*
X150185Y156977D01*
X151329D02*
X151484Y157132D01*
X155565D01*
X165551Y156004D02*
Y158666D01*
X165760Y158875D02*
Y159264D01*
X165945Y159449D01*
X165551Y158666D02*
X165760Y158875D01*
X162680Y168266D02*
X162872D01*
X174310Y156447D02*
X174328D01*
X176074Y158194D01*
X189690Y165140D02*
X189862Y164969D01*
X187137Y165140D02*
X189690D01*
X187120Y165123D02*
X187137Y165140D01*
X164798Y155251D02*
X165551Y156004D01*
X162514Y153800D02*
X163340Y154626D01*
X164469D01*
X162252Y153800D02*
X162514D01*
X164789Y154692D02*
X165375Y154106D01*
X168799Y141080D02*
X168799D01*
X209252Y100492D02*
X215352Y106592D01*
X173445Y155271D02*
X173606Y155631D01*
X173228Y155020D02*
X173445Y155271D01*
X176596Y158194D02*
X177570Y159169D01*
X176074Y158194D02*
X176596D01*
X170276Y166929D02*
X177746Y159459D01*
X168799Y109153D02*
Y116805D01*
X196370Y135153D02*
X202186Y128707D01*
X202477Y128416D02*
X204121Y126772D01*
X202186Y128707D02*
X202477Y128416D01*
X193405Y189665D02*
X201193Y197452D01*
X203150Y197638D02*
X213655D01*
X202964Y197452D02*
X203150Y197638D01*
X213655D02*
X214344Y198327D01*
X226809Y115391D02*
Y116075D01*
X227395Y116661D02*
X229146D01*
X225640Y108711D02*
Y114223D01*
X226809Y115391D01*
Y116075D02*
X227395Y116661D01*
X168799Y138091D02*
Y141080D01*
X229146Y116661D02*
X230315Y117829D01*
X221304Y106592D02*
X223521D01*
X225640Y108711D01*
X155565Y157132D02*
X159646Y153051D01*
X159673D01*
X135241Y168494D02*
Y169483D01*
X135625Y168110D02*
X137547D01*
X135241Y168494D02*
X135625Y168110D01*
X139220Y169784D02*
X139387D01*
X137547Y168110D02*
X139220Y169784D01*
X148048D02*
Y173999D01*
X135433Y178445D02*
X139370D01*
X139387Y169784D02*
Y173999D01*
X168799Y116929D02*
Y138057D01*
X85925Y102756D02*
X86083Y102598D01*
X151089Y155323D02*
X155012D01*
X204047Y94280D02*
Y94870D01*
X204035Y94882D02*
X204047Y94870D01*
Y94280D02*
X204232Y94095D01*
X166043Y106988D02*
X166142Y107087D01*
X170866D01*
X166043Y106988D02*
Y106988D01*
X175689Y107087D02*
X180905D01*
X170866D02*
X175689D01*
X168799Y109153D02*
X170866Y107087D01*
X139567Y178445D02*
X143717D01*
X110680Y181840D02*
X114222Y178297D01*
X106980Y192545D02*
X107382Y192947D01*
X110387Y181840D02*
X110680D01*
X106980Y185246D02*
X110387Y181840D01*
X106980Y185246D02*
Y192545D01*
D69*
X207165Y227953D02*
D03*
X173150D02*
D03*
X141811Y227559D02*
D03*
X107795D02*
D03*
D70*
X207165Y206850D02*
D03*
X173150D02*
D03*
X141811Y206457D02*
D03*
X107795D02*
D03*
D73*
X203937Y162205D02*
Y163976D01*
Y162205D02*
X206299Y159843D01*
X200394Y167520D02*
X203937Y163976D01*
X218981Y167421D02*
X220134Y168574D01*
Y172417D02*
X220315Y172598D01*
X215039Y167323D02*
X215137Y167421D01*
X220134Y168574D02*
Y172417D01*
X215137Y167421D02*
X218981D01*
X214567Y167323D02*
X215039D01*
X207452Y159843D02*
X211010Y163400D01*
X206299Y159843D02*
X207452D01*
X211010Y163766D02*
X214567Y167323D01*
X211010Y163400D02*
Y163766D01*
X197539Y168799D02*
X198819Y167520D01*
X197441Y168799D02*
X197539D01*
X198819Y167520D02*
X200394D01*
X195177Y176181D02*
X198721Y179724D01*
X186909Y176181D02*
X195177D01*
D83*
X94882Y212598D02*
D03*
X84882D02*
D03*
X94882Y202598D02*
D03*
X84882D02*
D03*
X94882Y192598D02*
D03*
X84882D02*
D03*
X94882Y182598D02*
D03*
X84882D02*
D03*
X94882Y172598D02*
D03*
X84882D02*
D03*
X94882Y162598D02*
D03*
X84882D02*
D03*
X94882Y152598D02*
D03*
X84882D02*
D03*
X94882Y142598D02*
D03*
X84882D02*
D03*
X94882Y132598D02*
D03*
X84882D02*
D03*
X94882Y122598D02*
D03*
X84882D02*
D03*
X94882Y112598D02*
D03*
X84882D02*
D03*
X94882Y102598D02*
D03*
X84882D02*
D03*
X230315Y212598D02*
D03*
X220315D02*
D03*
X230315Y202598D02*
D03*
X220315D02*
D03*
X230315Y192598D02*
D03*
X220315D02*
D03*
X230315Y182598D02*
D03*
X220315D02*
D03*
X230315Y172598D02*
D03*
X220315D02*
D03*
X230315Y162598D02*
D03*
X220315D02*
D03*
X230315Y152598D02*
D03*
X220315D02*
D03*
X230315Y142598D02*
D03*
X220315D02*
D03*
X230315Y132598D02*
D03*
X220315D02*
D03*
X230315Y122598D02*
D03*
X220315D02*
D03*
X230315Y112598D02*
D03*
X220315D02*
D03*
X230315Y102598D02*
D03*
X220315D02*
D03*
D85*
X227165Y227165D02*
D03*
X87795D02*
D03*
X227165Y87795D02*
D03*
X87795D02*
D03*
D86*
X164075Y81217D02*
D03*
X160138D02*
D03*
X204331Y84646D02*
D03*
Y81890D02*
D03*
X172835Y84646D02*
D03*
X155118Y216535D02*
D03*
X168012Y81217D02*
D03*
X143701Y216535D02*
D03*
X165865Y143569D02*
D03*
X183465Y145276D02*
D03*
X202756Y101969D02*
D03*
X195276Y102756D02*
D03*
X157480Y83465D02*
D03*
X177559Y183465D02*
D03*
X199606Y200787D02*
D03*
X196063Y199213D02*
D03*
X130500Y200200D02*
D03*
X100394Y160236D02*
D03*
Y164567D02*
D03*
X105905Y216535D02*
D03*
X109055D02*
D03*
X140551D02*
D03*
X147244D02*
D03*
X151181D02*
D03*
X159055D02*
D03*
X162598D02*
D03*
X166535D02*
D03*
X170472D02*
D03*
X174409D02*
D03*
X157700Y204300D02*
D03*
X203900Y203157D02*
D03*
X196000Y202300D02*
D03*
X136500Y201800D02*
D03*
X165500Y202200D02*
D03*
X151100Y208100D02*
D03*
X100394Y198819D02*
D03*
Y202756D02*
D03*
Y206693D02*
D03*
Y210630D02*
D03*
Y214567D02*
D03*
X102362Y216535D02*
D03*
X125623Y201400D02*
D03*
X123154D02*
D03*
X107480Y193307D02*
D03*
X161600Y179200D02*
D03*
X157900Y176500D02*
D03*
X167800Y173700D02*
D03*
X140540Y194696D02*
D03*
X143482Y193774D02*
D03*
X118209Y176378D02*
D03*
X111417Y159469D02*
D03*
X108965Y186068D02*
D03*
X123548Y184572D02*
D03*
X125295Y176063D02*
D03*
X141142Y154921D02*
D03*
X159239Y157667D02*
D03*
X125984Y152445D02*
D03*
X146674Y156496D02*
D03*
X145702Y161391D02*
D03*
X156496Y174016D02*
D03*
X156693Y183268D02*
D03*
X168405Y185138D02*
D03*
X157972Y192126D02*
D03*
X154788Y189256D02*
D03*
X151244Y198909D02*
D03*
X145745Y194758D02*
D03*
X163189Y189862D02*
D03*
X164862Y191883D02*
D03*
X158760Y194685D02*
D03*
X136855Y191024D02*
D03*
X139318Y192420D02*
D03*
X126210Y165145D02*
D03*
X130315Y152317D02*
D03*
X150000Y156791D02*
D03*
X100394Y153543D02*
D03*
Y149606D02*
D03*
X165945Y159449D02*
D03*
X169190Y159401D02*
D03*
X162872Y168266D02*
D03*
X165340Y168320D02*
D03*
X171547Y160146D02*
D03*
X174310Y156447D02*
D03*
X192652Y155516D02*
D03*
X193131Y151160D02*
D03*
X190167Y154657D02*
D03*
X185183Y157515D02*
D03*
X189370Y161000D02*
D03*
X189862Y164969D02*
D03*
X188562Y167202D02*
D03*
X187120Y165123D02*
D03*
X163948Y152007D02*
D03*
X162252Y153800D02*
D03*
X163581Y144505D02*
D03*
X177378Y135009D02*
D03*
X172988Y142703D02*
D03*
X175787Y140650D02*
D03*
X175197Y145472D02*
D03*
X174902Y149750D02*
D03*
X173407Y150976D02*
D03*
X176832Y153950D02*
D03*
X177792Y156225D02*
D03*
X182640Y154446D02*
D03*
X199539Y150495D02*
D03*
X196017Y143216D02*
D03*
X200861Y143110D02*
D03*
X206004Y142913D02*
D03*
X194051Y144709D02*
D03*
X193964Y147176D02*
D03*
X193788Y134319D02*
D03*
X199063Y152917D02*
D03*
X198397Y159510D02*
D03*
X206299Y159843D02*
D03*
Y165551D02*
D03*
X170866Y132395D02*
D03*
X186018Y134848D02*
D03*
X161600Y127843D02*
D03*
X161617Y135659D02*
D03*
X168831Y116837D02*
D03*
X196370Y135153D02*
D03*
X206890Y131496D02*
D03*
X204121Y126772D02*
D03*
X203543Y110714D02*
D03*
X171949Y81217D02*
D03*
X210630Y81118D02*
D03*
X180217Y157185D02*
D03*
X139370Y86614D02*
D03*
X116535D02*
D03*
X112598Y89764D02*
D03*
Y93307D02*
D03*
Y96850D02*
D03*
Y100787D02*
D03*
Y131890D02*
D03*
Y127953D02*
D03*
Y124016D02*
D03*
Y120079D02*
D03*
Y116142D02*
D03*
Y112205D02*
D03*
Y108268D02*
D03*
Y104331D02*
D03*
X120079Y86614D02*
D03*
X124016D02*
D03*
X127953D02*
D03*
X131890D02*
D03*
X135827D02*
D03*
X114173Y135827D02*
D03*
X118110D02*
D03*
X122047D02*
D03*
X125984D02*
D03*
X129921D02*
D03*
X133858D02*
D03*
X137795D02*
D03*
X141732D02*
D03*
Y131890D02*
D03*
Y127953D02*
D03*
Y124016D02*
D03*
Y120079D02*
D03*
Y116142D02*
D03*
Y112205D02*
D03*
Y108268D02*
D03*
Y104331D02*
D03*
Y100394D02*
D03*
Y96457D02*
D03*
Y92520D02*
D03*
Y88583D02*
D03*
X120866Y92913D02*
D03*
X135112Y182775D02*
D03*
X139443D02*
D03*
X143774D02*
D03*
X148104D02*
D03*
X135112Y178445D02*
D03*
X139443D02*
D03*
X143774D02*
D03*
X148104D02*
D03*
X135112Y174114D02*
D03*
X139443D02*
D03*
X143774D02*
D03*
X148104D02*
D03*
X135112Y169783D02*
D03*
X139443D02*
D03*
X143774D02*
D03*
X148104D02*
D03*
X206693Y81102D02*
D03*
X157480Y86614D02*
D03*
Y90551D02*
D03*
Y94488D02*
D03*
Y98425D02*
D03*
Y102362D02*
D03*
Y106299D02*
D03*
Y110236D02*
D03*
Y114173D02*
D03*
Y118110D02*
D03*
Y122047D02*
D03*
Y125984D02*
D03*
Y137795D02*
D03*
Y141732D02*
D03*
X110236Y149606D02*
D03*
X104331D02*
D03*
X206693Y216535D02*
D03*
X210630D02*
D03*
X214567D02*
D03*
Y212598D02*
D03*
Y208661D02*
D03*
Y202756D02*
D03*
Y194882D02*
D03*
Y190945D02*
D03*
Y187008D02*
D03*
Y183071D02*
D03*
Y179134D02*
D03*
Y175197D02*
D03*
Y171260D02*
D03*
Y167323D02*
D03*
Y163386D02*
D03*
Y159449D02*
D03*
Y155512D02*
D03*
Y151575D02*
D03*
Y147638D02*
D03*
Y143701D02*
D03*
Y139764D02*
D03*
Y135827D02*
D03*
Y131890D02*
D03*
Y124016D02*
D03*
Y120079D02*
D03*
Y116142D02*
D03*
Y112205D02*
D03*
Y108268D02*
D03*
Y100394D02*
D03*
Y96457D02*
D03*
Y92520D02*
D03*
Y88583D02*
D03*
Y84646D02*
D03*
Y81102D02*
D03*
X159673Y153051D02*
D03*
X130413Y188287D02*
D03*
X120472Y172244D02*
D03*
X124409Y167913D02*
D03*
X178150Y159055D02*
D03*
X185260Y147289D02*
D03*
X197441Y168799D02*
D03*
X200394Y167520D02*
D03*
X198721Y179724D02*
D03*
X186909Y176181D02*
D03*
X186811Y171949D02*
D03*
X193405Y189665D02*
D03*
X172736Y93602D02*
D03*
X172835Y90748D02*
D03*
Y87894D02*
D03*
X204232Y88189D02*
D03*
Y91142D02*
D03*
Y94095D02*
D03*
X208760Y100492D02*
D03*
X166043Y106988D02*
D03*
X180905Y107087D02*
D03*
X175689D02*
D03*
X114272Y178248D02*
D03*
X193209Y179134D02*
D03*
M02*
