G04*
G04 #@! TF.GenerationSoftware,Altium Limited,Altium Designer,22.11.1 (43)*
G04*
G04 Layer_Color=8388736*
%FSLAX25Y25*%
%MOIN*%
G70*
G04*
G04 #@! TF.SameCoordinates,40CF40E7-FDA6-4BEF-B87F-FA6DAB628F73*
G04*
G04*
G04 #@! TF.FilePolarity,Negative*
G04*
G01*
G75*
%ADD20R,0.11024X0.06693*%
%ADD29R,0.01860X0.02029*%
%ADD30R,0.02029X0.01860*%
%ADD43R,0.03556X0.03359*%
G04:AMPARAMS|DCode=44|XSize=31.62mil|YSize=29.26mil|CornerRadius=9.63mil|HoleSize=0mil|Usage=FLASHONLY|Rotation=180.000|XOffset=0mil|YOffset=0mil|HoleType=Round|Shape=RoundedRectangle|*
%AMROUNDEDRECTD44*
21,1,0.03162,0.00999,0,0,180.0*
21,1,0.01235,0.02926,0,0,180.0*
1,1,0.01927,-0.00618,0.00500*
1,1,0.01927,0.00618,0.00500*
1,1,0.01927,0.00618,-0.00500*
1,1,0.01927,-0.00618,-0.00500*
%
%ADD44ROUNDEDRECTD44*%
%ADD45R,0.03241X0.03438*%
%ADD46R,0.03635X0.02847*%
%ADD47R,0.06115X0.17335*%
%ADD48R,0.05800X0.14973*%
%ADD49R,0.01784X0.02178*%
%ADD50R,0.17099X0.17099*%
%ADD51O,0.01784X0.04540*%
%ADD52O,0.04540X0.01784*%
%ADD53R,0.03792X0.05800*%
%ADD54R,0.04501X0.04619*%
%ADD55R,0.01981X0.01981*%
%ADD56R,0.03950X0.01587*%
%ADD57R,0.01587X0.03950*%
%ADD58R,0.07887X0.07887*%
%ADD59R,0.03320X0.03477*%
%ADD60R,0.02099X0.02237*%
%ADD61R,0.04540X0.04737*%
%ADD62R,0.04619X0.04501*%
%ADD63R,0.04737X0.03950*%
%ADD64R,0.02847X0.03635*%
G04:AMPARAMS|DCode=65|XSize=31.62mil|YSize=29.26mil|CornerRadius=9.63mil|HoleSize=0mil|Usage=FLASHONLY|Rotation=270.000|XOffset=0mil|YOffset=0mil|HoleType=Round|Shape=RoundedRectangle|*
%AMROUNDEDRECTD65*
21,1,0.03162,0.00999,0,0,270.0*
21,1,0.01235,0.02926,0,0,270.0*
1,1,0.01927,-0.00500,-0.00618*
1,1,0.01927,-0.00500,0.00618*
1,1,0.01927,0.00500,0.00618*
1,1,0.01927,0.00500,-0.00618*
%
%ADD65ROUNDEDRECTD65*%
%ADD66R,0.05524X0.03162*%
%ADD67C,0.06410*%
%ADD68R,0.06410X0.06410*%
G04:AMPARAMS|DCode=69|XSize=43.31mil|YSize=102.36mil|CornerRadius=21.65mil|HoleSize=0mil|Usage=FLASHONLY|Rotation=0.000|XOffset=0mil|YOffset=0mil|HoleType=Round|Shape=RoundedRectangle|*
%AMROUNDEDRECTD69*
21,1,0.04331,0.05906,0,0,0.0*
21,1,0.00000,0.10236,0,0,0.0*
1,1,0.04331,0.00000,-0.02953*
1,1,0.04331,0.00000,-0.02953*
1,1,0.04331,0.00000,0.02953*
1,1,0.04331,0.00000,0.02953*
%
%ADD69ROUNDEDRECTD69*%
G04:AMPARAMS|DCode=70|XSize=43.31mil|YSize=82.68mil|CornerRadius=21.65mil|HoleSize=0mil|Usage=FLASHONLY|Rotation=0.000|XOffset=0mil|YOffset=0mil|HoleType=Round|Shape=RoundedRectangle|*
%AMROUNDEDRECTD70*
21,1,0.04331,0.03937,0,0,0.0*
21,1,0.00000,0.08268,0,0,0.0*
1,1,0.04331,0.00000,-0.01968*
1,1,0.04331,0.00000,-0.01968*
1,1,0.04331,0.00000,0.01968*
1,1,0.04331,0.00000,0.01968*
%
%ADD70ROUNDEDRECTD70*%
%ADD71C,0.06800*%
%ADD72C,0.02769*%
G36*
X102362Y151969D02*
Y151575D01*
X112205D01*
Y148425D01*
X111811Y148031D01*
X98425D01*
Y166142D01*
X102362D01*
Y151969D01*
D02*
G37*
G36*
X159843Y82677D02*
X174409D01*
Y79543D01*
X155118D01*
Y148819D01*
X159843D01*
Y82677D01*
D02*
G37*
G36*
X216535Y83465D02*
Y79543D01*
X202362Y79543D01*
Y83465D01*
X212598D01*
Y214567D01*
X102756D01*
Y196457D01*
X98819D01*
Y214567D01*
Y218504D01*
X216535D01*
Y83465D01*
D02*
G37*
D20*
X127559Y128937D02*
D03*
Y93110D02*
D03*
D29*
X152832Y196237D02*
D03*
Y193256D02*
D03*
D30*
X163337Y170984D02*
D03*
X160356D02*
D03*
X165038Y139961D02*
D03*
X162057D02*
D03*
X163337Y163881D02*
D03*
X160356D02*
D03*
D43*
X124016Y180315D02*
D03*
X120276D02*
D03*
X172242Y163386D02*
D03*
X168502D02*
D03*
X172242Y168914D02*
D03*
X168502D02*
D03*
D44*
X153937Y208780D02*
D03*
Y205394D02*
D03*
X165354Y208780D02*
D03*
Y205394D02*
D03*
X170065Y141311D02*
D03*
Y137925D02*
D03*
X164393Y130214D02*
D03*
Y133599D02*
D03*
X201575Y125666D02*
D03*
Y122281D02*
D03*
X202559Y159758D02*
D03*
Y163144D02*
D03*
X163878Y181516D02*
D03*
Y178130D02*
D03*
D45*
X193965Y167311D02*
D03*
X185304D02*
D03*
X193965Y160618D02*
D03*
X185304D02*
D03*
D46*
X169390Y177657D02*
D03*
Y181988D02*
D03*
D47*
X199606Y87008D02*
D03*
X177362D02*
D03*
D48*
X188484Y86220D02*
D03*
D49*
X171010Y147539D02*
D03*
Y149705D02*
D03*
D50*
X141608Y176279D02*
D03*
D51*
X150270Y165059D02*
D03*
X148695D02*
D03*
X147120D02*
D03*
X145545D02*
D03*
X143971D02*
D03*
X142396D02*
D03*
X140821D02*
D03*
X139246D02*
D03*
X137671D02*
D03*
X136097D02*
D03*
X134522D02*
D03*
X132947D02*
D03*
Y187500D02*
D03*
X134522D02*
D03*
X136097D02*
D03*
X137671D02*
D03*
X139246D02*
D03*
X140821D02*
D03*
X142396D02*
D03*
X143971D02*
D03*
X145545D02*
D03*
X147120D02*
D03*
X148695D02*
D03*
X150270D02*
D03*
D52*
X130388Y167618D02*
D03*
Y169193D02*
D03*
Y170768D02*
D03*
Y172343D02*
D03*
Y173917D02*
D03*
Y175492D02*
D03*
Y177067D02*
D03*
Y178642D02*
D03*
Y180217D02*
D03*
Y181791D02*
D03*
Y183366D02*
D03*
Y184941D02*
D03*
X152829D02*
D03*
Y183366D02*
D03*
Y181791D02*
D03*
Y180217D02*
D03*
Y178642D02*
D03*
Y177067D02*
D03*
Y175492D02*
D03*
Y173917D02*
D03*
Y172343D02*
D03*
Y170768D02*
D03*
Y169193D02*
D03*
Y167618D02*
D03*
D53*
X188425Y104958D02*
D03*
X195433D02*
D03*
D54*
X201378Y116240D02*
D03*
X195157D02*
D03*
X172677Y117421D02*
D03*
X178898D02*
D03*
D55*
X189826Y140329D02*
D03*
Y150171D02*
D03*
X179983D02*
D03*
Y140329D02*
D03*
D56*
X190810Y142101D02*
D03*
Y143675D02*
D03*
Y145250D02*
D03*
Y146825D02*
D03*
Y148400D02*
D03*
X178999D02*
D03*
Y146825D02*
D03*
Y145250D02*
D03*
Y143675D02*
D03*
Y142101D02*
D03*
D57*
X188054Y151156D02*
D03*
X186479D02*
D03*
X184905D02*
D03*
X183330D02*
D03*
X181755D02*
D03*
Y139345D02*
D03*
X183330D02*
D03*
X184905D02*
D03*
X186479D02*
D03*
X188054D02*
D03*
D58*
X184905Y145250D02*
D03*
D59*
X166663Y149635D02*
D03*
Y146170D02*
D03*
D60*
X188386Y116240D02*
D03*
Y114020D02*
D03*
D61*
X179035Y127025D02*
D03*
X172736D02*
D03*
D62*
X188147Y121576D02*
D03*
Y127796D02*
D03*
D63*
X202736Y147458D02*
D03*
Y153363D02*
D03*
Y139173D02*
D03*
Y133268D02*
D03*
D64*
X148721Y153369D02*
D03*
X144390D02*
D03*
D65*
X147559Y158858D02*
D03*
X144173D02*
D03*
X155450Y158881D02*
D03*
X152064D02*
D03*
X167152Y156595D02*
D03*
X170537D02*
D03*
D66*
X112795Y190453D02*
D03*
Y186713D02*
D03*
Y182972D02*
D03*
X103740D02*
D03*
Y186713D02*
D03*
Y190453D02*
D03*
D67*
X94882Y212598D02*
D03*
X84882D02*
D03*
X94882Y202598D02*
D03*
X84882D02*
D03*
X94882Y192598D02*
D03*
X84882D02*
D03*
X94882Y182598D02*
D03*
X84882D02*
D03*
X94882Y172598D02*
D03*
X84882D02*
D03*
X94882Y162598D02*
D03*
X84882D02*
D03*
X94882Y152598D02*
D03*
X84882D02*
D03*
X94882Y142598D02*
D03*
X84882D02*
D03*
X94882Y132598D02*
D03*
X84882D02*
D03*
X94882Y122598D02*
D03*
X84882D02*
D03*
X94882Y112598D02*
D03*
X84882D02*
D03*
X94882Y102598D02*
D03*
X230315Y212598D02*
D03*
X220315D02*
D03*
X230315Y202598D02*
D03*
X220315D02*
D03*
X230315Y192598D02*
D03*
X220315D02*
D03*
X230315Y182598D02*
D03*
X220315D02*
D03*
X230315Y172598D02*
D03*
X220315D02*
D03*
X230315Y162598D02*
D03*
X220315D02*
D03*
X230315Y152598D02*
D03*
X220315D02*
D03*
X230315Y142598D02*
D03*
X220315D02*
D03*
X230315Y132598D02*
D03*
X220315D02*
D03*
X230315Y122598D02*
D03*
X220315D02*
D03*
X230315Y112598D02*
D03*
X220315D02*
D03*
X230315Y102598D02*
D03*
D68*
X84882D02*
D03*
X220315D02*
D03*
D69*
X207165Y227953D02*
D03*
X173150D02*
D03*
X141811Y227559D02*
D03*
X107795D02*
D03*
D70*
X207165Y206850D02*
D03*
X173150D02*
D03*
X141811Y206457D02*
D03*
X107795D02*
D03*
D71*
X227165Y227165D02*
D03*
X87795D02*
D03*
X227165Y87795D02*
D03*
X87795D02*
D03*
D72*
X135112Y182775D02*
D03*
X139443D02*
D03*
X143774D02*
D03*
X148104D02*
D03*
X135112Y178445D02*
D03*
X139443D02*
D03*
X143774D02*
D03*
X148104D02*
D03*
X135112Y174114D02*
D03*
X139443D02*
D03*
X143774D02*
D03*
X148104D02*
D03*
X135112Y169783D02*
D03*
X139443D02*
D03*
X143774D02*
D03*
X148104D02*
D03*
M02*
