G04*
G04 #@! TF.GenerationSoftware,Altium Limited,Altium Designer,22.11.1 (43)*
G04*
G04 Layer_Color=16711935*
%FSLAX25Y25*%
%MOIN*%
G70*
G04*
G04 #@! TF.SameCoordinates,40CF40E7-FDA6-4BEF-B87F-FA6DAB628F73*
G04*
G04*
G04 #@! TF.FilePolarity,Positive*
G04*
G01*
G75*
%ADD10C,0.00787*%
D10*
X124524Y87278D02*
X127921D01*
X124524D02*
Y93824D01*
X127921D01*
Y87278D02*
Y93824D01*
X211765Y102250D02*
Y132936D01*
X185367D02*
X211765D01*
X185367Y102250D02*
Y132936D01*
Y102250D02*
X211765D01*
X110094Y193842D02*
Y196794D01*
X115891D01*
Y193842D02*
Y196794D01*
X110094Y193842D02*
X115891D01*
X170590Y202323D02*
Y236417D01*
X209724D01*
Y202323D02*
Y236417D01*
X170590Y202323D02*
X209724D01*
X105236Y201929D02*
Y236024D01*
X144370D01*
Y201929D02*
Y236024D01*
X105236Y201929D02*
X144370D01*
X159211Y187857D02*
X166912D01*
Y174447D02*
Y187857D01*
X159211Y174447D02*
X166912D01*
X159211D02*
Y187857D01*
X154528Y158763D02*
Y166637D01*
X137992Y158763D02*
X154528D01*
X137992D02*
Y166637D01*
X154528D01*
X185179Y160416D02*
Y174196D01*
X168758Y160416D02*
X185179D01*
X168758D02*
Y174196D01*
X185179D01*
X189370Y171322D02*
Y187857D01*
Y171322D02*
X197244D01*
Y187857D01*
X189370D02*
X197244D01*
X183579Y99311D02*
Y126476D01*
X163106D02*
X183579D01*
X163106Y99311D02*
Y126476D01*
Y99311D02*
X183579D01*
X121445Y168393D02*
Y183772D01*
Y168393D02*
X131311D01*
Y183772D01*
X121445D02*
X131311D01*
X200185Y173315D02*
Y186725D01*
Y173315D02*
X207886D01*
Y186725D01*
X200185D02*
X207886D01*
X204149Y134724D02*
Y150512D01*
Y134724D02*
X212936D01*
Y150512D01*
X204149D02*
X212936D01*
X194089Y160803D02*
Y164394D01*
X201224D01*
Y160803D02*
Y164394D01*
X194089Y160803D02*
X201224D01*
X179481Y154826D02*
X181155D01*
Y152070D02*
Y154826D01*
X179481Y152070D02*
X181155D01*
X179481D02*
Y154826D01*
X199138Y136393D02*
Y139984D01*
X192004Y136393D02*
X199138D01*
X192004D02*
Y139984D01*
X199138D01*
X119422Y163792D02*
X132832D01*
X119422Y156090D02*
Y163792D01*
Y156090D02*
X132832D01*
Y163792D01*
X158041Y157759D02*
X163838D01*
X158041Y154806D02*
Y157759D01*
Y154806D02*
X163838D01*
Y157759D01*
M02*
